<?xml version="1.0" standalone="no"?>
<!DOCTYPE svg PUBLIC "-//W3C//DTD SVG 1.1//EN" "http://www.w3.org/Graphics/SVG/1.1/DTD/svg11.dtd" >
<svg xmlns="http://www.w3.org/2000/svg">
<metadata></metadata>
<defs>
<font id="danielbold" horiz-adv-x="1861" >
<font-face units-per-em="2048" ascent="1290" descent="-758" />
<missing-glyph horiz-adv-x="802" />
<glyph horiz-adv-x="0" />
<glyph horiz-adv-x="682" />
<glyph unicode="&#x9;" horiz-adv-x="577" />
<glyph unicode="&#xd;" horiz-adv-x="577" />
<glyph unicode=" "  horiz-adv-x="802" />
<glyph unicode="&#x09;" horiz-adv-x="802" />
<glyph unicode="&#xa0;" horiz-adv-x="802" />
<glyph unicode="!" horiz-adv-x="450" d="M51 106q0 64 94 64q27 0 62 -35q39 -33 39 -55q0 -111 -78 -111q-28 0 -72 56q-45 57 -45 81zM102 469q23 151 23 180q0 11 4 101q17 75 49 321q53 178 86 315q2 10 20 111t35 186q12 56 58 56q15 0 35 -10q16 -33 61 -64q0 -13 4 -31q6 -24 6 -28q-5 -21 -18.5 -80 t-22.5 -96q-30 -134 -57 -271q-2 -10 -8 -39.5t-13.5 -67t-13.5 -77.5q-31 -233 -35 -258q-2 -17 -7.5 -46t-16 -80.5t-17.5 -90.5q0 -22 -4 -144q-3 -14 -28 -30q-25 -19 -39 -19q-101 0 -101 162z" />
<glyph unicode="&#x22;" horiz-adv-x="540" d="M47 1313q0 45 23 104q0 1 -7 19q-1 4 -2.5 7.5t-2 5.5t-1 3t-0.5 2q0 37 13 74q6 40 77 215h33q84 -50 84 -129l-21 -117q-12 -71 -34 -205l-16 -20q-1 -3 -5 -37q-4 -6 -4 -16q-36 0 -67 -7q0 3 -39 54q-31 45 -31 47zM385 1417q0 75 21 189q24 138 65 153 q107 -40 107 -149q0 -79 -33 -273q-5 -28 -27 -118h-78q-20 29 -45 86q-10 36 -10 112z" />
<glyph unicode="#" horiz-adv-x="1609" d="M70 578q1 1 4.5 6.5t11 18t16.5 24.5q11 20 35 20q5 0 13 -4l10 -2q6 0 24 10q16 8 23 8q4 0 16 -6t15 -6q48 0 268 29q10 0 45 18q12 -3 24 0q46 40 89 113q20 37 44 77l23 40q43 98 74 98q22 0 37 -18q59 -62 65 -66q0 -77 -8 -109q-12 -34 -68 -84q14 -20 70 -20 q100 0 111 8q6 2 100 125q101 131 127 131t55 -39q33 -41 33 -61q0 -35 -90 -154q9 -27 76 -24q77 6 86 0q7 -6 15.5 -15.5t21 -23.5t20.5 -23q-56 -51 -98 -63q-24 -8 -121 -8q-10 0 -18 2q-16 4 -17 4q-32 0 -51 -15q-49 -55 -49 -98l-10 -59q0 11 41 14q3 0 29 0.5t73 1 t100 0.5q3 0 27 -6q21 -6 27 -6q5 0 43 6q40 6 41 6q36 0 67 -63q-30 -20 -92 -46q-151 -40 -285 -40q-4 0 -8 4q0 2 -6 2q-32 0 -123 -52q-18 -11 -41 -79q-8 -8 -24 -82q-3 -6 -15 -15q-20 17 -28 21q-6 0 -33 -15q-3 7 -31 13l-13.5 4.5l-10.5 3.5t-3 2q0 70 27 111 q-2 8 -2 24q-3 21 -12 21q-20 0 -109 -15q-103 -18 -135 -32q-20 -12 -31 -76q-16 -74 -28 -84q-45 0 -136 31q-16 10 -16 28l12 47q12 41 6 56q-4 4 -10 4q-3 0 -14.5 -2t-35 -6t-48.5 -7q-77 -12 -88 -8q-68 41 -68 92q0 32 39 49q30 15 62 15q5 0 90 18q25 4 48.5 8.5 t33.5 6.5t12 2q16 0 51 47q35 43 35 65v39q-30 2 -150 -8l-135 -12q-60 0 -116 20q-9 23 -39 58zM666 383q8 0 16 -2q10 -4 18 -4q13 0 29 2q7 1 13.5 2t9.5 1.5t4 0.5q50 0 139 27q9 37 47 149q0 31 -29 31q-118 0 -172 -31q-23 -15 -47 -57q-28 -48 -28 -64v-55z" />
<glyph unicode="$" horiz-adv-x="1099" d="M70 412q2 1 24 37q170 -25 205 -25q1 0 4 0.5t9.5 1.5t13.5 2q14 2 28 2q36 0 45 49q9 46 11 60q11 11 24 32q25 58 25 115q0 8 -80 76q-106 92 -127 115q-92 103 -92 180q0 61 20 78q61 34 260 61h62q108 0 215 10q16 21 49 64t49 65q100 127 117 127q30 0 55 -28 t25 -56q0 -22 -43 -98q-14 -26 -27.5 -50.5t-20 -36.5t-8.5 -15q56 -33 154 -72q74 -30 80 -66q15 -15 27 -18q4 -8 4 -31q0 -21 -33 -69q-34 0 -86 8q-14 7 -44.5 23t-47.5 24q-74 41 -109 41q-30 0 -55 -25q-9 -9 -35 -57q-74 -136 -74 -170q0 -15 2 -23q48 -35 56 -55 q11 -6 30 -8q26 -21 76 -84q64 -119 64 -139q-1 -1 -13 -17q-30 -83 -157 -110q-126 -30 -213 -49q-24 -10 -39 -80q-25 -113 -25 -133q-25 -48 -33 -80q-5 0 -18 8q-16 8 -21 8t-14 -6q-12 -6 -14 -6q-51 0 -51 61q0 2 10 19l10 14q13 59 10 141q0 17 -18 60q-30 3 -107 6 q-45 6 -98 31q-19 11 -37 41q-24 35 -24 47zM360 995q93 -104 170 -133q76 64 76 131v37q-18 6 -28 6q-160 0 -218 -41zM571 463h95q20 0 61 41q7 10 -33 47q-38 35 -63 35q-15 0 -35 -17q0 -3 -12 -30l-13 -27v-49z" />
<glyph unicode="%" horiz-adv-x="1763" d="M43 1081q0 31 51 97h111q9 28 0 53q-1 3 -4.5 15.5t-5.5 21.5q0 75 51 90q18 6 131 6q10 0 139 -33t139 -33h1h8.5t14 0.5t19.5 0.5t25 1q28 0 88 1.5t92 1.5l248 4q18 0 84 -27q57 -22 68 -41q59 -133 59 -164q0 12 -19 -29q-9 -19 -22 -49q-14 -23 -66 -75 q-167 -167 -700 -560q-65 -49 -162 -149l-80 -162q-5 0 -41 -8q-42 -10 -47 -10q-28 0 -55 59q-23 50 -23 74q0 55 78 133l103 102q-5 8 8 25q33 23 86 61t145.5 105.5t163.5 118.5q214 156 344 319l45 60q0 13 -18 22q-88 8 -119 8q-157 0 -209 -37q0 -9 12 -30 q-9 -55 -18 -105q-60 -53 -76 -90q-165 -98 -311 -98q-128 0 -229 59q-40 21 -58 55q-51 83 -51 207zM205 1169q0 5 3 -4q4 -11 17 -57q-6 -9 -6 -27q0 -51 37 -94t84 -43h74q25 0 141 43q59 18 59 49q0 26 -20 56q-49 10 -162 24q-29 5 -108 29q-89 24 -91 24h-28zM735 252 q0 119 88 207q87 90 203 90q2 0 14 -4q8 -4 13 -4q9 0 43 18q6 3 17 9.5t17 9.5q30 12 197 12q126 0 291 -51q84 -87 104 -129q23 -45 23 -119q0 -43 -37 -86q-25 -28 -96 -80q-77 -33 -201 -68q-109 -32 -137 -32h-137q-107 0 -222 59q-85 69 -165 129q-15 15 -15 39z M977 299q0 -44 100 -74q79 -24 129 -24q95 0 207 39q108 39 146 90q-154 59 -226 59q-222 0 -332 -39q-24 -24 -24 -51z" />
<glyph unicode="&#x26;" horiz-adv-x="1376" d="M41 301q0 51 4 59q3 9 59 80q27 37 89 72q15 8 47.5 26t48.5 27l200 121q9 3 9 25q0 5 -15 116l-14 115q0 64 86 182q99 137 125 226q134 125 289 125q36 0 112 -70q66 -63 78 -84q64 -104 64 -213q0 -108 -66 -180q-11 -15 -205 -168q-54 -31 -133 -84q-8 -3 -57 -25 q-53 -23 -53 -47q0 -13 51 -76q55 -61 65 -61q125 51 377 131q25 14 25 18q28 0 65 -26q35 -22 35 -49q-14 -14 -45 -60q-194 -57 -305 -151v-33q34 -11 45 -18q25 -37 98 -103q15 -9 39 -33q27 -40 27 -63q0 -70 -64 -70q-42 0 -69 21q-39 31 -162 143q-95 86 -105 86 q-7 0 -92 -39q-89 -39 -90 -39q-2 0 -10 4q-4 4 -8 4q-2 0 -58 -30q-54 -31 -63 -33q-152 -47 -229 -47q-195 0 -195 221zM229 260q17 0 35 -2q9 -1 17 -2t11.5 -1.5t4.5 -0.5q62 0 178 43q123 45 189 88q-7 26 -48 84q-36 51 -55 51q-4 0 -51 -33q-21 -9 -74.5 -32 t-85.5 -37q-24 -12 -67 -58q-54 -54 -54 -69v-31zM616 877q0 -87 35 -93q47 22 152 93q151 102 233 210q31 42 31 50q0 28 -27 90q-37 73 -84 73q-44 0 -147 -83q-87 -70 -107 -99q-30 -58 -57 -143q-29 -89 -29 -98z" />
<glyph unicode="'" horiz-adv-x="210" d="M43 1235q0 111 27 197q1 1 14.5 23t21.5 38h33q86 -89 86 -115q0 12 -6 -15q-9 -46 -29 -177q2 -5 3.5 -13.5t4.5 -20.5t5 -22v-94q-4 -8 -19 -8q-1 0 -24 10q-19 11 -27 11q-3 0 -8 -5q-8 -4 -12 -4q-15 0 -29 17q-19 45 -35 110q-6 30 -6 68z" />
<glyph unicode="(" horiz-adv-x="763" d="M61 655q0 139 136 482q12 9 24 30q30 118 223 342q202 234 297 234q43 0 64 -78q17 -62 14 -111q-13 -18 -57 -53q-7 0 -27 -4q-300 -247 -426 -555q-9 -17 -49 -119l-14 -28q0 -1 -13 -76q-10 -55 -10 -68q0 -168 117 -321q64 -85 248 -248q18 -58 18 -66q0 -6 -6 -24 l-2 -10l-1.5 -7.5t-0.5 -3.5h-84q-55 0 -199 138q-112 106 -151 159q-15 28 -68 154q-33 125 -33 233z" />
<glyph unicode=")" horiz-adv-x="696" d="M-18 -2q0 46 43 92q343 357 395 533q22 76 22 237q0 164 -120 389q-86 168 -177 277q-24 27 -30 61q0 26 -11 127q45 39 52 39q66 0 184 -192q65 -103 188 -318q90 -162 90 -457q0 -1 -1 -4.5l-3 -10.5t-4 -15q-5 -18 2 -54q-31 -150 -71 -262q-24 -77 -117 -192 q-8 -9 -21.5 -25.5t-37 -45t-43.5 -52.5q-29 -29 -123 -109q-115 -100 -142 -100q-24 0 -28 2q-47 53 -47 80z" />
<glyph unicode="*" horiz-adv-x="854" d="M25 1053q0 30 55 100q33 44 113 88q36 19 118 68q45 26 45 45q0 5 -43 51q-59 62 -67 78q-17 33 -17 110q0 13 15 31t26 18q24 0 187 -135q12 8 80 115q67 111 98 123q76 -40 76 -129q0 -37 -21 -55v-19h-2q4 -4 14 -4q6 0 58 18q15 4 30 8.5t21 6.5t8 2q28 0 64 -31 q32 -28 32 -51q0 -35 -120 -88q-36 -22 -148 -88q0 -16 49 -107q64 -113 64 -137q0 -20 -33 -59q-6 -2 -61 -2q-13 0 -56 61q-47 62 -61 62q-7 0 -12 -5q-16 -68 -62 -233q-36 0 -63 -8q-8 14 -47 53q-3 130 10 184q8 35 -8 35h-21q-36 0 -237 -168h-58q-17 61 -22 66 q-4 0 -4 -4z" />
<glyph unicode="+" horiz-adv-x="993" d="M84 389q0 23 43 41q49 19 92 19q16 -1 47 -3q13 -1 25 -2t17.5 -1.5t6.5 -0.5q51 0 60 25l63 174q3 5 9.5 16.5t9.5 16.5q17 20 57 20q86 0 86 -123q-25 -86 -25 -96q35 -5 136.5 -21t167.5 -26q20 -11 51 -66q-21 -25 -49 -47q-29 -16 -99 -16q-163 0 -260 -20 q-26 -9 -33 -33q-20 -93 -63 -203h-39q-76 0 -76 72q0 3 0.5 9t1.5 17.5t2 22.5t2 22.5t1.5 17t0.5 7.5q0 57 -55 57q-8 0 -16 -2l-8 -2t-6.5 -1.5t-4.5 -0.5q-7 0 -45 6l-61 11q-24 17 -29 38q-6 15 4 45q-14 20 -14 27z" />
<glyph unicode="," horiz-adv-x="565" d="M-55 -330q0 13 73 107q5 7 41.5 52.5t63.5 80.5q59 77 72 141q2 14 20 117q22 27 37 53h33q94 0 94 -172q0 -8 -43 -190q-71 -96 -117 -162q-9 -11 -80 -57q-77 -50 -100 -50q-38 0 -66 25t-28 55z" />
<glyph unicode="-" horiz-adv-x="770" d="M53 442q0 46 25 70.5t72 24.5q154 0 174 -5q52 -8 157 -8l29 6q36 0 86 -16q35 -41 35 -74q0 -26 -39 -43q-5 -5 -16.5 -16t-16.5 -16q-21 -21 -84 -15q-37 -10 -94 -18q-23 2 -135 2q-1 0 -135 16q-3 1 -9 4.5t-17.5 10.5t-21.5 12q-10 45 -10 65z" />
<glyph unicode="." horiz-adv-x="495" d="M74 109q0 59 76 163h79q78 -87 78 -116q0 -56 19 -62q-45 -71 -121 -71q-131 0 -131 86z" />
<glyph unicode="/" horiz-adv-x="1411" d="M74 6q0 54 59 205q50 124 74 166q30 43 147 227q74 116 346 449q58 71 250 293q22 27 295 260q169 143 205 143q18 0 43 -66q18 -58 18 -73q0 -53 -43 -99l-61 -61q-21 -34 -59 -78q-274 -213 -447 -416q-607 -718 -676 -1067h-102l-4 9q-4 8 -10.5 22t-14.5 29 q-20 41 -20 57z" />
<glyph unicode="0" d="M-43 664q0 200 135 399q48 69 262 291q71 72 289 121q184 45 340 45q75 0 201 -21q32 4 67 4q329 -79 396 -110q190 -85 225 -275l16 -49q4 -11 9 -25t7.5 -20.5t2.5 -9.5q0 -142 -62 -281q-13 -19 -48.5 -71.5t-57.5 -83.5q-1 -3 -2.5 -16t-3.5 -23q-35 -47 -97 -115 q-3 -4 -317 -188q-21 -6 -70 -25q-23 -9 -30 -19t-2 -28l-439 -101l-24 -4q-10 -2 -23 -2l-12 -8q-8 -8 -37 -8q-6 0 -27 6t-28 6q-1 0 -4 -0.5t-8.5 -1.5t-10.5 -2q-16 -2 -26 -2q-42 0 -355 109q-6 10 -147 170q-79 88 -103 174q-16 62 -16 164zM213 449q0 -10 25 -50 q43 -74 153 -125q111 -51 223 -51q23 0 56 4q15 1 28.5 2t19.5 1.5t7 0.5q57 0 262 60q313 97 457 198q114 79 201 226q88 146 88 260q0 83 -13 106q-67 114 -194 189q-130 77 -269 86q-67 20 -102 28q-132 11 -154 11q-47 0 -256 -27q-38 -17 -88 -29q-53 -17 -122 -57 q-7 -22 -35 -72q-14 -14 -65.5 -63.5t-88.5 -85.5q-61 -58 -102 -164q-31 -85 -31 -123q6 -32 20 -100q19 -108 19 -109t-2.5 -7.5t-8 -21.5t-10.5 -30q-18 -56 -18 -57z" />
<glyph unicode="1" d="M766 575l94 607q2 13 17 141q15 111 96 111q32 0 63 -25q23 -40 60 -139l-127 -731q6 -116 12 -189q19 -177 16 -200q1 -1 2.5 -3.5t5.5 -7.5t9 -10v-90l-39 -31q-38 17 -62 19q-115 112 -127 270q-1 9 -3.5 43.5t-7 99.5t-9.5 135z" />
<glyph unicode="2" d="M219 1266q0 44 53 65q7 5 84 33q48 30 189 90l334 98q202 58 331 58q70 0 82 -4q211 -78 228 -205q-3 -3 -13 -23q17 -17 17 -47q0 -79 -56 -194q-55 -113 -122 -174q-16 -32 -35 -64q-61 -79 -224 -231q-11 -11 -434 -385q0 -13 -8 -37q-15 -7 -33 -23q27 -18 68 -18 q6 2 16.5 4.5t30.5 7t35 8.5q80 22 121 29q304 39 628 39l48 -8q47 -9 59 -9q24 -16 24 -26q0 -60 -90 -76l-82 -16v-13q-285 -15 -389 -59q-10 -3 -186 -27q-197 -30 -365 -30q-14 0 -90 -6l-78 -7q-27 -2 -73 25q0 20 -39 51q4 14 -4 39l-8 31q0 8 4 24q264 190 393 301 q16 14 45 39.5t79 70.5t91 81l94 102q17 7 51 31q107 99 250 293q94 178 94 252q0 36 -34 55q-39 25 -84 25q-113 0 -555 -133q-33 -10 -177 -76q-12 -6 -57.5 -26t-79.5 -36q-8 -4 -18 -4q-30 0 -72 39q-43 40 -43 66z" />
<glyph unicode="3" d="M227 78h6h7h2v2q-6 -9 -11 0h-2q0 2 2 6q6 28 9 51q154 101 417 131q421 46 678 205q99 61 99 88q0 28 -80 76q-58 36 -99 47q-273 75 -342 78q-3 -3 -24 -17l-35 -1q-34 -1 -68 -1q-62 0 -176 19q-22 11 -47 26q0 10 12 66q2 10 15 59q54 32 149 66q262 94 389 174 q113 73 242 205q11 17 25 55q-29 25 -117 25q-1 0 -16.5 -2.5t-51 -8t-75.5 -10.5q-141 -22 -142 -22q-24 0 -41 14l-4 -16q-23 -6 -229 -64q-34 -9 -168 -53q-107 -39 -125 -39q-45 0 -72 49q-39 64 -53 72q2 3 19 23t26 34q248 85 303 98q148 34 350 74q206 43 232 43 q7 0 22 -10q15 -6 19 -6q12 0 28 2q14 4 27 4q59 0 133 -29q51 -31 105 -63q0 -6 16 -45q16 -43 16 -51q0 -31 -22 -95q-19 -8 -31 -22q0 -48 -94 -127q-94 -77 -147 -98q-64 -56 -142 -109q-41 -15 -139 -68q28 -28 192 -53q113 -29 185 -61q235 -95 235 -283 q0 -96 -231 -211q-98 -48 -129 -67q-108 -17 -469 -113q-94 -8 -256 -37q-32 -6 -135 -49q-86 -39 -99 -39t-53 31q-35 32 -35 47z" />
<glyph unicode="4" d="M152 807q0 74 36 162l54 147q9 6 20 17q31 70 68 167q4 9 17 47t24 66q21 52 37.5 77.5t35.5 25.5q36 0 80 -35q45 -42 45 -64q0 -6 -16 -28q-6 -47 -47 -140q-13 -25 -62 -166q-61 -174 -61 -211q0 -43 37 -43h612q164 0 185 35q36 97 102 338q20 67 43 162 q3 4 16.5 28.5t48 84.5t68.5 120q46 82 88 115q79 -36 127 -65q-59 -112 -184 -396q-70 -226 -107 -403q11 -8 35 -8q9 0 19 2q12 6 18 6q59 0 59 -62q0 -48 -47 -63q-96 -35 -100 -37q-23 -17 -29 -31q-26 -82 -47 -200q0 -100 -6 -285q13 -19 18 -35q-7 -54 -10 -72 q-20 -15 -55 -53q-91 15 -119 62q-51 83 -51 180q0 94 33 280q8 16 18 41l16 93q0 31 -32 28l-637 -47l-2 15q-4 -13 -13 -13q-1 0 -51 4q-159 14 -221 19q-63 72 -63 135z" />
<glyph unicode="5" d="M162 1001q0 107 119 316q13 6 20 16q3 16 59 144q11 24 52 59q83 29 237 29q421 0 535 -13q117 -12 135 -12q5 0 29 8t30 8q46 0 80 -34q37 -34 37 -78q0 -96 -111 -96q-4 0 -47 6q-12 1 -22.5 2t-15 1.5t-5.5 0.5q-371 22 -620 22q-80 0 -109 -26q-23 -16 -86 -137 q-21 -25 -41 -54q-3 -13 -35 -102q38 -5 79.5 -10.5t60 -8t24.5 -2.5q13 2 33 4q10 1 19.5 2t15.5 2t8 1v-5l2 3h2l10 -3q17 -3 50 -12q331 -21 475 -51q262 -54 436 -193q30 -24 68 -108q14 -38 14 -82h-8q2 0 2 -6h2q-1 -1 -2 -3.5t-2.5 -6.5t-3.5 -7q-12 -22 -41 -94 q-104 -64 -189 -127q-2 -6 -2 -14q-2 0 -2 2l-4 -14q-19 0 -190 -82q-131 -62 -211 -94q-403 -164 -492 -164q-41 0 -70 26q-34 24 -34 60q0 48 73 84q166 52 467 178q12 4 185 78l20 10q41 17 221 131q72 61 72 84q0 40 -176 143q-40 25 -133 47q-157 37 -168 37h-520 q-32 0 -158 23q-119 19 -148 29q-26 45 -26 83z" />
<glyph unicode="6" d="M88 532q0 148 59 283q28 67 95 146q71 110 297 292q72 59 190 121q364 197 436 197q37 0 80 -29t43 -61q0 -47 -45 -72q-18 -11 -141 -57q-7 -1 -17 -3.5t-24.5 -6t-24.5 -5.5q-231 -116 -350 -198q-50 -56 -115 -115q-191 -179 -241 -344q-24 -88 -39 -129 q-2 -7 -4.5 -17.5t-3.5 -13.5l-4 -6q3 -163 239 -313q18 -11 90 -25q78 -16 107 -16q76 0 231 35q164 37 207 59q17 3 63.5 13t73.5 16q9 7 39 26q16 2 74 23q21 9 94 67q84 70 84 101q0 13 -16 26q-30 16 -156 86l-16 -14q-190 55 -254 55l-37 -4q-42 -6 -51 -4h-29 q-103 0 -209 -47q-70 -34 -186 -156q-35 -30 -66 -71q-2 -6 -2 -68q-53 -12 -59 -12q-17 0 -43 26q-25 29 -25 48q14 27 23 53q0 21 10 59q5 8 14 24.5t17 31t16 28.5q27 45 68 70q230 145 557 145q141 0 313 -26q209 -35 248 -91q14 -5 41 -26q37 -58 37 -101 q0 -16 -95 -186q-29 -52 -36 -63q-2 -5 -5 -10.5t-4 -6.5h-2q1 -2 19 -20q-50 -3 -164 -51q-28 -20 -80 -48l12 -14q-135 -21 -135 -63q-72 -6 -250 -31l-26 -10q-29 -13 -41 -13q-8 0 -19 7q-8 4 -10 4t-72 -21q-70 -18 -80 -18q-1 0 -11.5 0.5t-33 1.5t-47.5 2l-92 2 q-29 0 -90 20q-75 21 -121 49q-12 6 -235 189q5 13 -15 47q-11 21 -22 41t-12 22q-21 65 -21 170z" />
<glyph unicode="7" d="M274 1237q0 28 43 57q44 29 72 29q7 0 22 -9t17 -9q1 0 21 10q17 10 26 10l-2 2q36 -3 164 16q154 23 162 23q545 43 661 43q127 0 127 -115q0 -80 -71 -151l-113 -113q-135 -138 -221 -280q-25 -18 -54 -43q-60 -102 -172 -273q-57 -111 -75 -143q-47 -86 -47 -146 q0 -8 4 -36q-85 -111 -90 -117q-127 57 -127 121q0 40 53 129q-2 17 4 63q31 69 145 260q9 16 43.5 72.5t57.5 95.5q33 57 182 225q106 119 194 234q0 18 13 51q-18 6 -64 6q-1 0 -15.5 -2.5t-50.5 -8t-75 -11.5q-37 -6 -75 -13t-52 -9.5t-16 -2.5q-6 0 -17.5 4t-17.5 4 t-19 -8q-19 -8 -24 -8q-7 0 -31 -8t-37 -8q-5 0 -19 8t-16 8q-10 0 -51 -14l-59 -23q-131 -35 -242 -35q-56 0 -106 35q-52 36 -52 80z" />
<glyph unicode="8" d="M143 416q0 77 43 164q40 90 95 133q34 27 200 102v14q-94 36 -184 132t-90 174q0 115 131 190q21 2 82 23q51 51 143 122q28 23 139 48l29 20q8 0 47 8t49 8q13 0 25 -2q5 -1 10.5 -2t8 -1.5t3.5 -0.5t10.5 2t31 6.5t45.5 8.5q85 16 88 16q2 0 7 -1t15.5 -3t22.5 -4 q36 -8 43 -8q14 0 34 2q23 4 41 4q74 0 232 -64q161 -62 194 -104q20 -22 52 -92q28 -70 28 -88q0 -5 -12 -43q-10 -45 -10 -50q-5 -6 -15.5 -17t-15.5 -17q-26 -87 -156 -150l-190 -92q20 -16 129 -53q41 -11 106 -82q60 -69 60 -109q0 -8 -15 -57q-10 -40 -14 -66 q-9 -68 -72 -125q-61 -44 -120 -90q-21 -8 -42.5 -17.5t-23.5 -10.5q-44 -27 -63 -72q-40 2 -58 -2q-139 -62 -241 -100q-22 -4 -129 -31q-97 -23 -103 -23q-1 0 -11 0.5t-30.5 1.5t-42.5 2l-82 7q-106 3 -176 43q-116 61 -170 112q0 20 -12 47q-66 60 -66 187zM336 352 q21 -30 74 -96q70 -55 213 -55h102q150 0 412 106q317 124 317 258q0 66 -192 119q-151 43 -220 43q-312 0 -464 -63q-102 -42 -170 -121q-72 -78 -72 -152v-39zM459 1014q30 -15 53 -25q72 -45 164 -61q60 -8 227 -8q91 0 365 79q64 39 121 62q165 73 165 145q0 47 -92 107 q-69 39 -186 96q-4 1 -55 10q-21 2 -45 5t-35.5 4.5t-14.5 1.5q-6 0 -17.5 0.5t-32.5 1.5t-38 2l-65 4q-101 3 -248 -52q-48 -18 -84 -40q-139 -92 -182 -332z" />
<glyph unicode="9" d="M418 1268q0 65 55 123q158 174 533 174q181 0 337 -144q33 -27 43 -86q3 -3 14 -15t19 -20q25 -72 27 -77v-228q0 -7 -21 -47q-18 -44 -18 -47q0 -43 -31 -141q-112 -201 -188 -295q-97 -114 -127 -146q-39 -46 -209 -200q-27 -24 -104 -60q-79 -36 -111 -36 q-23 0 -47 18q-27 24 -27 37q0 12 29 41l43 43q45 43 299 315q10 10 25 26.5t39 43t44 47.5q39 55 88 139q-10 27 -45 27q-2 0 -102 -23q-26 0 -111 29q-141 50 -186 74q-105 54 -182 143q-26 33 -55 131q-31 102 -31 154zM606 1176q0 -60 115 -146q108 -78 151 -84 q115 -3 199 -14q65 -9 117 -64q32 54 45 80q33 158 33 189q0 132 -97 180q-87 43 -108 43q-177 0 -250 -17q-62 -16 -131 -73q-74 -59 -74 -94z" />
<glyph unicode=":" horiz-adv-x="546" d="M111 145q0 20 22 62q26 51 57 51q118 -16 132 -16q53 -47 53 -142q0 -15 -4 -51q-101 -49 -164 -49q-9 0 -37 25q-8 5 -17 12t-13.5 10t-6.5 4q-22 55 -22 94zM213 649q0 1 0.5 4.5t1.5 11t2 15.5q6 24 6 29q9 2 35 12q30 12 47 12q54 0 98 -35q43 -34 43 -73 q0 -125 -106 -125q-45 0 -84 51q-43 52 -43 98z" />
<glyph unicode=";" horiz-adv-x="694" d="M-80 -266q20 35 84 123q27 25 131 129q25 25 70 96q9 3 41 27q55 69 119 141q27 35 75 35q14 -9 43 -25q27 -14 47 -24q0 -7 9 -37l8 -31q0 -40 -64 -107q-210 -225 -327 -294q-47 -42 -78 -62t-58 -20q-39 0 -100 49zM319 526q0 76 97 121h41q24 -41 63 -67 q25 -16 25 -66q0 -16 -15 -80q-64 -37 -71 -37q-45 0 -82 11z" />
<glyph unicode="&#x3c;" horiz-adv-x="1011" d="M66 657q93 41 170 84q201 112 366 201q81 42 207 125q125 84 137 84q49 0 94 -45q45 -48 45 -88q0 -23 -4 -35q-61 -50 -399 -233q-287 -154 -287 -179q0 -13 170 -149q249 -204 273 -227q80 -74 80 -113q0 -109 -72 -109q-2 0 -37 15q-37 16 -43 16q-4 0 -12 -4l-9 -2 q-15 0 -53 47q-52 62 -67 74q-120 104 -306 239q-101 54 -114 62q-90 58 -117 104q-22 37 -22 133z" />
<glyph unicode="=" horiz-adv-x="1163" d="M78 285q0 72 41 84l184 12q10 0 51 -8t52 -8l380 38l70 -4q16 -1 49.5 -2t50.5 -2q34 -3 74 -28q39 -23 39 -52q0 -73 -201 -110q-44 -9 -231 -39q-47 -24 -115 -27q-41 -4 -125 2l-71 6q-248 15 -248 138zM180 578q0 65 19 81q16 19 82 19q104 0 188 -2l190 -6q1 0 4 1 l9 3l12 4q23 10 27 10q2 0 22 -10q20 -8 23 -8q2 0 6.5 1l13.5 3t19 4t20 5t14.5 4t6.5 1q22 0 151 -12q40 -14 107 -31q12 -6 12 -39q0 -145 -770 -145q-156 0 -156 117z" />
<glyph unicode="&#x3e;" horiz-adv-x="1017" d="M25 80q0 21 38 76q31 49 58 71q81 67 211 164q42 28 196 107q94 47 164 114q-97 105 -241 242q-20 10 -70 47q-14 16 -148 141q-55 52 -55 132q0 94 51 94q44 0 248 -195q125 -116 324 -309q38 -25 117 -92q40 -37 40 -113q0 -38 -221 -170q-20 -6 -53 -20 q-204 -106 -377 -242q-7 -18 -41 -64q-113 -98 -129 -98q-18 0 -63 10q-14 3 -31 45q-18 40 -18 60z" />
<glyph unicode="?" horiz-adv-x="1124" d="M111 1397l12 94q24 12 252 111q26 11 225 53q183 39 225 39q124 0 170 -11q209 -68 209 -247q0 -167 -227 -322l-426 -235q-225 -126 -225 -224q0 -33 14 -61q4 -8 4 -57q-11 -11 -45 -11q-81 0 -121 82q-28 52 -28 111q0 83 20 127q25 57 133 119q33 20 315 176l29 6 q134 84 195 125q174 113 174 160q0 49 -90 61h-123q-10 0 -31 -8q-27 -6 -31 -6q-151 -9 -221 -37q-38 -14 -180 -82q-114 -51 -121 -51q-37 0 -74 30q-34 30 -34 58zM213 82q0 84 35 133l106 12q8 0 45 -32q36 -39 58 -52q-16 -14 -41 -92q-15 -57 -56 -57q-3 3 -41 20 l-55 4q-51 39 -51 64z" />
<glyph unicode="@" horiz-adv-x="1650" d="M59 442q0 9 25 95q0 32 14 81q74 127 226 273q31 31 231 127q37 23 76 41q20 6 79 24.5t99 30.5q143 64 432 64q80 -23 107 -39q103 -49 155 -133q0 -6 6 -41q3 -3 14 -14.5t17 -18.5q41 -212 43 -211q0 -33 -18 -82q3 -24 -6 -74q-27 -78 -103 -133q-73 -55 -160 -55 q-90 0 -196 53q-88 43 -88 51h4l-34 -12q-7 -2 -25 -8q-53 -16 -89 -27q-157 -49 -198 -49q-63 0 -84 12q-45 23 -72 103q-25 77 -25 108q0 61 84 162v29q-23 -7 -59 -21q-32 -17 -90 -59q-117 -132 -129 -150q-49 -70 -49 -155q0 -73 24 -103q29 -38 131 -100 q67 -43 236 -43q2 0 18 3t55.5 10.5t80.5 15.5q149 28 151 28q1 0 3.5 -0.5t7 -1.5t8.5 -2q12 -4 24 -4t72 16q19 4 37 8.5t25.5 6.5t8.5 2q62 0 62 -53q0 -41 -51 -72q-25 -17 -135 -55q-88 -31 -103 -31q-2 0 -6.5 -0.5l-13.5 -1.5t-17 -2t-17.5 -2t-14.5 -1.5t-7 -0.5 q-19 0 -120 -8l-119 -9q-231 -14 -389 113q-138 111 -138 315zM721 623h20q44 0 105 34l90 48q-2 0 -23 6t-28 6q-49 0 -150 -58q-4 -18 -14 -36zM854 915q244 -24 313 -141q34 -51 37 -92q-22 -22 -22 -55q0 -56 51 -56q89 0 143 66q56 62 56 168q0 89 -76 141 q-74 53 -199 53q-178 0 -303 -84z" />
<glyph unicode="A" horiz-adv-x="1603" d="M25 135q0 64 10 84q58 61 151 197q4 4 4 12q0 -8 -3 3q-5 15 -13 61q-1 7 -1 14q0 30 22 47q20 14 75 33q71 28 90 63q4 2 84 135q13 12 66 68q98 167 295 473q4 24 14 53l133 224q0 5 4 45l70 96l29 12q87 0 137 -153q1 -1 6 -16t19 -58t28 -84q48 -158 64 -217 q42 -255 69 -369q30 -129 129 -360q2 -3 17.5 -28t29.5 -48q35 -52 35 -76q0 -80 -96 -80h-80q-6 0 -61 37q-47 32 -72 45q-127 51 -244 74q-276 55 -450 55q-21 0 -35 -14l-21 14q-82 -3 -153 -147q-29 -32 -72 -90q0 -1 -14 -54q-7 -17 -37 -65q-42 -33 -121 -103 q-59 37 -72 45q-36 26 -36 72zM606 670q5 -5 170 -29q98 -7 340 -37q59 -26 88 -26h37q10 17 10 24q0 4 -24 53q-25 52 -25 54q-60 281 -76 366q-6 9 -14 17q0 55 -4 96q-5 31 -21 98q-12 54 -59 92q-39 -51 -102 -198q-6 -29 -39 -62l-51 -55q-35 -68 -127 -225 q-23 -18 -39 -39q-7 -21 -64 -129z" />
<glyph unicode="B" horiz-adv-x="2013" d="M25 1311q0 64 34 82q138 82 492 200q23 3 65 6q493 136 846 136q13 -3 33 -9q35 -6 41 -6q115 0 289 -104q69 -103 69 -146q0 -125 -133 -243q-69 -59 -307 -207q0 -19 47 -25q79 -12 82 -14q35 -17 35 -20q6 0 14 4q1 1 3 2l3 1.5t2 0.5q16 0 37 -15q86 -13 193 -106 t125 -172q12 -56 12 -90q0 -40 -33 -84q-21 -13 -67 -56q-6 -10 -43 -57q-271 -164 -328 -164q-9 0 -29 17q-8 -9 -24 -23q-24 -24 -33 -24q-4 0 -12 4t-11 4q-11 0 -30 -31h-80l18 16q-15 15 -47 15q-27 0 -57 -15q1 -1 4 -3.5l9 -7.5t13 -11q-100 -60 -135 -60q-4 0 -14 5 q-8 2 -16 2q-6 0 -41 -17q-10 -4 -21 -8.5t-15.5 -6t-6.5 -1.5q-38 0 -47 26q-7 -4 -17 -14q-15 -12 -22 -12q-3 0 -15 6l-16 4q-37 0 -37 -29q0 -12 2 -18l-475 -106q-91 22 -100 26q-53 18 -68 62q1 7 1 18q0 31 -5 90q-33 112 -33 307q0 1 -0.5 6t-1.5 16t-2 23 q-6 38 -6 43q0 73 20 236q0 13 -6 31q12 52 33 198q18 141 18 164q0 27 -16 53q-31 -8 -78 -8q-112 0 -112 109zM389 246q18 -76 66 -76q8 0 106 25q110 31 144 36q397 76 833 240l45 35q180 76 180 141q0 152 -565 152q-1 0 -72 -19q-61 -20 -69 -20t-215 -39 q-131 -23 -197 -23q-4 0 -31 -6t-30 -6q-8 0 -74 14q-49 10 -79 10q-11 0 -19 -1q-1 -8 -23 -115v-348zM399 1296l27 -100q18 -68 18 -74q0 -2 -6 -32q-4 -20 -4 -37q0 -5 -2.5 -31t-3.5 -47q-1 -8 -1 -16q0 -30 19 -46h31h1q12 0 93 25q65 21 123 33q23 15 47 26q16 0 56 7 q207 72 346 124q164 61 356 183q172 111 172 149q0 29 -96 53q-86 21 -121 21q-457 0 -1055 -238zM1102 135q7 -11 10 -22h35l-10 41q-13 -4 -35 -19zM1466 272q-3 -7 23 -30q0 19 14 30h-37z" />
<glyph unicode="C" horiz-adv-x="1970" d="M35 590q0 65 59 201q29 63 152 174q163 153 305 219q446 203 704 256q4 2 74 26q181 25 318 45q1 0 6.5 2t18 6.5t26.5 8.5q43 14 51 14q54 0 100 -37q45 -36 45 -80q0 -23 -22 -65q-19 -16 -55 -33q-100 -4 -242 -22q-36 -16 -113 -35q-32 -8 -124 -29.5t-152 -36.5 q-197 -47 -600 -272q-47 -24 -121 -70q-110 -68 -176 -213q-10 -20 -10 -110q0 -100 116 -179q104 -75 226 -96q5 0 79 -18q68 -19 74 -19l55 4q49 5 82 5q10 0 66 -9q49 -8 59 -8q29 4 88 12q88 15 113 15l821 53q38 3 47 -33l1 -8q0 -7 1 -23.5t2 -35.5q-27 -21 -49 -33 q-360 -107 -506 -107q-1 0 -4.5 1t-11 2.5t-14.5 3.5q-6 2 -13.5 4t-11.5 3t-6 1q-1 0 -5 -2t-13.5 -6t-20.5 -7q-32 -14 -41 -14q-128 -5 -276 -14q-41 -13 -50 -13q-6 0 -18 9l-20 8q-8 0 -35 -12q-7 -2 -15 -5t-11.5 -4.5t-4.5 -1.5q-8 -2 -88 -2q-90 0 -207 27 q-151 32 -201 41q-56 9 -53 47q-96 39 -133 65q-145 109 -244 273q0 29 -6 82q-12 54 -15 50q-1 -1 -1 -5z" />
<glyph unicode="D" horiz-adv-x="2334" d="M25 1436q0 51 79 94q25 15 197 63q220 60 322 60h708q1 0 60 -15q17 -4 33 -7.5t26 -5.5t12 -3q98 -7 170 -20q149 -26 344 -146q189 -116 240 -242q18 -32 37 -88q26 -74 26 -98q0 13 -2 -3q-2 -19 -12 -134q-10 -15 -20 -25q2 -2 2 -10q0 -71 -86 -145l-27 -15 q-59 -68 -139 -131.5t-150 -105.5t-141.5 -77t-109 -50t-56.5 -21q-69 -21 -178 -65t-119 -47q-23 -10 -57.5 -24.5t-87 -36.5t-90.5 -38q-18 0 -58 -6q-71 -28 -207 -67q-328 -90 -471 -90q-20 0 -77 26q-51 23 -72 51q-19 25 -19 66q0 45 88 82q1 0 13 -4q8 -4 12 -4 q17 0 39 14q60 6 147 20q76 14 121 33q-47 415 -47 467q0 5 2.5 26t8 67t10.5 93q24 220 24 291q3 12 17 33q-8 19 -2 47q0 19 38 154q12 3 33 18q-28 19 -47 19q-3 0 -217 -50q-214 -47 -217 -47q-27 0 -66 45q-34 37 -34 52zM666 1442q0 -27 18 -51q25 -21 41 -39 q20 -73 20 -115v-10q0 -29 -20 -185q-21 -168 -29 -272l-14 -321q0 -7 10 -72q3 -15 9.5 -50t9.5 -53q6 -2 13.5 -4t11 -3t5.5 -1q50 0 418 137q318 120 434 175q213 96 402 268q88 82 88 143q0 3 -6 49q-6 47 -6 54q-8 4 -11 12q-20 91 -176 207q-95 68 -207 98 q-168 44 -532 64q-35 12 -39 12q-15 0 -39 -15q-182 0 -401 -28z" />
<glyph unicode="E" horiz-adv-x="1882" d="M45 106q0 6 43 136q56 163 66 200l51 185q0 -4 -10.5 10.5t-34.5 52.5q0 16 -21 74q45 26 127 98q16 19 74 236q-1 -7 -2 4v43l12 14q15 15 15 25q0 20 -43 41q-39 20 -70 20q-21 82 -21 101q0 49 60 71q124 45 301 45q4 0 12 -4q6 -4 10 -4q13 0 33 10q8 3 15 5.5t10 4 t4 1.5q101 4 641 34l401 25h3q27 0 163 -55q6 -2 72 -2q39 -3 61 -25q-66 -29 -98 -29q17 0 -5 -6q-17 -4 -50 -10q7 1 -2 2q-17 2 -74 2l-27 -10q-19 -8 -28 -8q-95 -6 -224 -27l-282 -41q-1 0 -17 4q-4 1 -8.5 2t-7 1.5t-4.5 0.5h1q0 -1 -114 -21q-123 -20 -465 -77 q-80 -100 -110 -350q44 -21 90 -21q2 0 5.5 1t10 3t13.5 4q24 9 28 9t25 -7q18 -6 20 -6q110 0 490 11l309 10q45 0 51 -21q2 -12 7.5 -36.5t7.5 -38.5q-52 -37 -220 -78q-129 -35 -397 -35q-168 0 -481 -43q-34 -6 -45 -47l-10 -51q-70 -174 -70 -234v-45q5 -1 15.5 -4 t15.5 -4l770 104q11 0 135 9h16l115 8q9 0 33 -15q12 -2 147 -2q1 0 8 1.5t20.5 3.5t28.5 4l54 8q62 0 133 -29q17 -63 21 -63q1 0 1 4q0 -31 -41 -66q-39 -33 -75 -33q-1 0 -4 0.5l-9 1.5l-12 2q-18 5 -27 5q-3 0 -47 -15q-13 -3 -25.5 -7t-18 -5.5t-7.5 -1.5l-420 -37 q-103 -9 -497 -70l-316 -49q-25 0 -147 29q-110 29 -146 29z" />
<glyph unicode="F" horiz-adv-x="1765" d="M29 610l32 82q30 68 74 68q1 0 3.5 -0.5t8 -1.5t11.5 -2q14 -2 28 -2q54 0 74 59q9 62 10 80q39 132 66 192q-6 11 -92 52q-68 27 -68 86q0 57 60 82q43 6 178 38q8 4 23.5 13.5t23.5 13.5q44 27 53 27q22 0 43 -15q11 0 25 2q7 1 13 2t9.5 2t5.5 1l516 57q125 0 129 -2 q-18 -6 -34 -6q7 0 43 8q11 2 22.5 4t17 3t7.5 1q1 0 4.5 -0.5t10 -1.5t13.5 -2q32 -4 33 -4t4.5 1t10 3t12.5 4q21 8 28 8l113 2h-2q-20 2 -37 2q82 0 264 -43q52 -46 52 -94q-3 -8 -5 -24q-4 -16 -4 -31q-120 10 -417 10q-7 0 -23 -8q-5 -2 -11.5 -4t-10 -3t-5.5 -1 q-1 0 -4 0.5t-9.5 1.5t-14.5 2q-24 6 -31 6q6 0 -3 -3q-14 -4 -56 -13q-84 -14 -254 -27q-1 0 -39 -10q-37 -13 -39 -13t-5.5 1t-8.5 2t-9 2q-20 4 -22 4q-63 -16 -242 -70q-18 -3 -49 -76q-1 -5 -4.5 -18t-7.5 -29t-8 -31q-41 -97 -70 -184v-53q39 -3 86 -3q132 0 323 25 q99 15 418 27l19 -16q27 16 53 16q-3 0 5 -5q11 -7 38 -20v-28q0 -5 -21 -66q-13 -1 -155 -20q-158 -24 -158 -29q0 -2 8 -2q-4 0 -20 4q-4 1 -8.5 2t-7 1.5t-3.5 0.5q-7 0 -28 -18q-25 -19 -27 -19q-8 -4 -301 -51q-4 0 -12.5 -1.5t-24 -5t-28.5 -5.5q-39 -10 -52 -10 q-17 0 -143 -7q-23 -12 -41 -32q-25 -173 -37 -291q0 -50 -2 -105q-3 -92 -61 -92q-15 5 -31 13q-85 12 -133 53l55 452z" />
<glyph unicode="G" horiz-adv-x="2254" d="M25 588q0 122 43 237q27 71 129 246q108 132 178 184q126 97 327 222q56 15 168 53q50 24 142 59q351 84 401 84q10 0 29 -8t24 -8q1 0 21 4q4 1 9 2l7.5 1.5t3.5 0.5q135 0 135 -115q0 -102 -59 -102q-2 0 -10.5 1t-29.5 4t-42 5q-77 12 -84 12q-59 0 -186 -38 q-22 -3 -162 -29q-25 -18 -74 -43q-178 -57 -393 -203q-246 -173 -317 -352q-62 -92 -62 -180q0 -66 74 -152q69 -80 168 -127q32 -26 100 -59q8 -2 64.5 -15.5t107.5 -25.5q109 -25 170 -25h140q111 0 364 45q229 43 262 53q10 3 33.5 12t63 23.5t79.5 28.5q102 36 148 78 q20 23 20 76q0 31 -30 81q-31 48 -68 66q-42 30 -160 84q-81 17 -241 20q-3 17 -31 35l-207 13q14 0 -18 -5q-35 -5 -125 -16q-32 -4 -60 -29q-30 27 -30 64q0 24 30 45q60 36 94 41q193 37 345 37q33 0 65 -2q1 0 5 1t13 3t19 4q33 8 41 8q18 -4 51 -16q50 -15 59 -15 q154 0 275 -100q180 -148 180 -410q0 -8 -16 -30q0 -27 -19 -86q-108 -132 -307 -185q-44 -13 -334 -82q-22 0 -75 -6q-50 -20 -60 -20q-3 0 -24 6q-16 8 -25 8q8 0 -4 -4t-57 -16q-122 -35 -211 -35q-421 0 -717 180q-68 54 -205 154q-145 219 -145 258z" />
<glyph unicode="H" horiz-adv-x="1896" d="M43 438q0 165 20 279q8 53 56 219q40 54 90 143q25 70 49 119q26 58 51 80q18 -18 78 -18l29 -160q0 -7 -51 -115q-52 -110 -52 -115v-55q39 -10 82 -12q11 -2 25 -2q21 0 49 4q33 2 66 2q14 0 28 -4l27 -10h237q23 2 68 6q71 6 88 6h84q49 -2 115 -2l131 -2q69 0 84 117 q11 90 12 96q8 67 39 155q51 137 131 250q11 17 66 68q50 41 63 41q1 -1 6.5 -4t15 -8.5t19.5 -10.5q41 -87 41 -137q0 -49 -59 -131q-147 -212 -191 -627q-2 -22 -6.5 -62.5t-12.5 -110t-14 -126.5q-13 -107 -20 -233l-12 -8q-5 -63 -5 -70q-10 -41 -30 -59 q-33 -11 -37 -11q-30 0 -86 74q-14 20 -14 65v17l38 604q-8 4 -18 4q-3 0 -51 -20l-55 -25q-200 -51 -408 -51q-1 0 -7.5 0.5t-21.5 1.5t-32 2t-32.5 2t-23 1.5t-8.5 0.5q-7 0 -115 -12q-90 -10 -110 -10q-16 0 -43 2q-12 1 -22.5 2t-15.5 1.5t-7 0.5q-95 0 -101 -12 q-48 -80 -48 -178q0 -11 1 -23q1 -18 1 -35q0 -137 -44 -178q-137 15 -137 274z" />
<glyph unicode="I" horiz-adv-x="550" d="M59 303q0 790 160 1065q83 148 139 148q80 0 80 -160q0 -13 -45 -238q-48 -225 -80 -332q0 -3 -4 -23.5t-10.5 -58t-13.5 -79.5q-50 -276 -109 -555q-42 -32 -47 -35q-14 8 -49 43q-21 38 -21 225z" />
<glyph unicode="J" horiz-adv-x="1611" d="M43 461q0 32 59 82h33q30 -61 76 -88q59 -25 129 -60q48 -32 215 -110q130 -40 218 -40q11 0 20 1q11 0 38 2q62 0 95 2l133 2q40 0 104 55q19 19 72 111l22 24q47 139 56 195q1 5 20 151v187q0 119 -41 424q0 1 -30 63q-23 51 -23 72q0 45 14 59l84 62q70 -45 113 -221 q16 -61 41 -312q20 -250 20 -272q0 -57 -18 -78q14 -58 14 -102q0 -59 -65 -334q-28 -118 -113 -203q-125 -131 -416 -131q-286 0 -530 125q-131 64 -279 209q-61 61 -61 125z" />
<glyph unicode="K" horiz-adv-x="1605" d="M43 90q0 6 6 27t6 26v144q45 272 215 815q3 8 33 49q9 12 -4 37q20 70 35 104q35 74 106 121q11 -8 21 -8t18 8q60 -94 60 -164q0 -46 -41 -149q-101 -250 -121 -412q-17 -13 -33 -39q-62 -256 -131 -604q-18 -12 -111 -59zM399 676q14 14 35 43q4 22 17 47 q51 64 268 203q14 16 57 53q50 32 289 168q65 24 139 55q15 8 72.5 42.5t103.5 60.5q161 96 219 96q30 0 48 -43q12 -30 12 -45q0 -81 -23 -94q-176 -107 -585 -347q-139 -77 -168 -94q-213 -125 -213 -190q0 -43 96 -94q82 -48 115 -56q270 -77 587 -178q43 -15 43 -51 q0 -90 -178 -90q-73 0 -182 31q-37 3 -94 12q-444 122 -586 321q-37 51 -47 99q-21 58 -24 54q-1 -1 -1 -3z" />
<glyph unicode="L" horiz-adv-x="1734" d="M35 193q31 121 31 139q2 24 12 96q56 160 98 297q15 19 43 66q48 127 119 290q25 63 231 435q14 8 41 32l74 103q50 71 92 71q26 0 47 -30q7 -32 13 -62.5t8 -41t2 -9.5q0 -25 -4 -43q-11 -14 -41 -49.5t-45 -54.5q-8 -24 -101 -191q-26 -29 -49 -67q-74 -154 -200 -443 q-3 -15 -13.5 -52t-15.5 -54q-37 -59 -70 -127q-39 -136 -39 -179q0 -73 209 -73q15 0 320 30l321 33q1 0 5 -0.5t12.5 -1.5t17.5 -2q30 -6 35 -6q2 0 8 1.5t20 5.5t29 7t29 6.5t19.5 5t6.5 1.5l160 -7q182 -6 234 -6l161 -47v-45q-43 -24 -98 -71q-91 -27 -129 -27 q-75 0 -397 -33q-265 -31 -395 -43q-78 -18 -134 -27q-144 -18 -288 -18q-84 0 -209 43q-66 22 -103 57q-67 58 -67 91z" />
<glyph unicode="M" horiz-adv-x="1970" d="M35 182q0 41 180 363q174 303 305 502q0 17 15 51q21 29 114 158t164 227q7 1 14 1q52 0 105 -40q55 -43 55 -98v-197q-6 -6 -14 -16q-4 -17 -19 -289q-1 -8 -3.5 -36.5t-4.5 -49.5l-2 -34t-1.5 -26t-0.5 -12q10 -147 10 -156q3 -6 19 -6q21 0 61 49q19 27 43 58 q28 43 187 262q17 23 98 131t147 199q187 260 342 399q34 42 88 102q40 -6 113 -34q1 -2 4.5 -8.5t11 -20t15.5 -27.5q28 -46 28 -53q0 -37 -38 -190q-45 -65 -72 -123q-24 -103 -64 -226q-14 -44 -73 -217q-13 -96 -39 -209q-58 -247 -58 -315q0 -1 2 -12.5t7 -40t10 -60.5 q18 -111 18 -114q0 -1 -1 -5.5t-3.5 -16t-5.5 -23.5q-23 -13 -43 -13q-12 0 -57 31t-56 53q-48 76 -48 264q0 21 1 44q-6 29 -9 27q-1 0 -1 -3q4 14 10 43q3 13 10 64q28 222 140 530q-6 27 -10 27l47 147q-58 -39 -179 -203q-2 -3 -10 -20t-18.5 -38t-22.5 -44 q-101 -177 -409 -582q-21 -25 -97 -92q-95 -86 -127 -86q-157 0 -157 457v405q-33 -17 -140 -174q-63 -125 -210 -411q-12 -24 -77 -148.5t-120 -230.5q-18 -37 -57 -37q-117 0 -117 143z" />
<glyph unicode="N" horiz-adv-x="1941" d="M35 389l330 664q34 70 163 309q12 38 52 131q40 88 106 88q43 0 82 -39q55 -55 78 -102q74 -163 147 -377q6 -16 64 -234q2 -4 9 -13.5t11 -16.5q50 -152 60 -176q42 -116 100 -209q35 44 90 155q92 185 162 349q37 133 119 368q6 8 22 28.5t25 31.5q7 45 8 53 q44 79 47 84q24 16 62 57q11 36 47 88q8 4 24 4q70 0 70 -59q0 -19 -70 -189q0 -34 -8 -81q-4 -14 -17.5 -54t-19.5 -59q-22 -42 -88 -193q-13 -36 -55 -178q-5 -35 -25 -129l-108 -239q-65 -139 -78 -236q-35 -90 -35 -104q0 -11 8 -27q-2 0 -80 -33q-53 -24 -59 -24 q-18 0 -59 24q-39 23 -52 43q-67 111 -229 508q-9 56 -47 168q-11 18 -39 82q-3 52 -16 104q-23 89 -125 295q-44 -15 -88 -116q-35 -85 -105 -258q-69 -114 -172 -308q-25 -67 -98 -235q-32 -22 -64 -72q-10 -2 -26 -2q-41 0 -80 45q-43 46 -43 84z" />
<glyph unicode="O" horiz-adv-x="2318" d="M25 735q0 16 12 48t14 44q3 19 7.5 57t7.5 58q17 23 46 69t33 52q67 105 209 240q6 6 60 24q21 18 45 33q4 4 146 52.5t163 53.5q98 22 291.5 41t308.5 19q412 0 682 -191q176 -124 176 -401q0 -68 -8 -123q25 -10 25 -27l-64 -102l10 -18l-2 2q-1 0 -6.5 -12.5 t-5.5 -14.5q-5 -11 -15.5 -35t-15.5 -35q-5 -5 -16.5 -16t-16.5 -16q-39 -56 -51 -68q-136 -145 -493 -328q-20 -10 -41.5 -19.5t-47 -19t-42 -15.5t-48.5 -15.5t-43.5 -13t-49 -14.5t-44.5 -13t-37.5 -10.5t-41 -11t-38.5 -10t-42 -10.5t-39.5 -8.5t-42.5 -8t-39 -6 t-41.5 -4.5t-38.5 -1q-61 0 -244 62q-120 40 -208.5 81.5t-170.5 101t-132.5 132t-80.5 172.5t-30 225zM195 721l12 -10q0 -6 -1 -20t-1 -21q0 -102 46.5 -186.5t120.5 -139.5t170 -93t191 -54.5t187 -16.5q273 0 684 215q69 36 120.5 67t117.5 80t109.5 97t75.5 113t37 133 q1 9 10 31.5t9 33.5q0 88 -80 191q-50 67 -223.5 137t-268.5 70q-13 0 -38 -4.5t-39 -4.5q-18 0 -40.5 4t-50 11t-40.5 10q-13 -3 -37.5 -12.5t-38.5 -12.5q-24 -6 -60 -8.5t-80 -3.5t-61 -2q-3 0 -25 6.5t-26 7.5q-15 -7 -40.5 -20.5t-35.5 -18.5q-20 -8 -56.5 -16.5 t-82 -17.5t-60.5 -13q-145 -35 -213 -92q1 -7 6 -20.5t5 -18.5q0 -15 -30 -40t-54 -40q-90 -53 -148 -135q-71 -106 -71 -186z" />
<glyph unicode="P" horiz-adv-x="1650" d="M29 1268q0 19 30 67q28 47 45 62q46 20 115 57q2 0 14.5 2t20.5 4q58 43 188 72q214 50 332 63q195 25 244 25q117 0 362 -76q43 -13 62 -45q13 -2 53 -16q37 -37 80 -94q53 -103 53 -146q0 -94 -37 -143q-205 -275 -821 -461q-17 -17 -22 -21q-46 -14 -312 -88 q-62 -17 -78 -59q0 -218 -34 -358q-6 -55 -29 -121h-47q-26 11 -64 59q-29 42 -39 76v199q-11 132 -61 172q-8 8 -8 59q0 59 33 66q35 7 57 49q1 4 16.5 76t26.5 124q11 15 31 64q53 236 145 350l-5 -1q-4 -1 -9 -1q-20 -8 -174 -80q0 -1 -2 -3t-7 -8.5t-10 -16.5 q-51 -21 -57 -21q-47 0 -92 113zM416 756h41q29 0 483 172l41 20q32 17 83.5 48t145.5 87.5t164 98.5q39 74 39 78q0 56 -137 108q-116 45 -182 45q-92 0 -258 -18q-56 -15 -144 -33q-72 -3 -246 -59q89 -44 89 -105q0 -36 -95 -285q-3 -52 -24 -157z" />
<glyph unicode="Q" horiz-adv-x="2297" d="M31 754q0 191 69 354q71 165 187 238q19 12 102 38q82 21 92 21q9 0 31 -16l12 -7l4 -2q61 46 90 68q116 83 179 102q187 58 342 58q3 0 30 -9q40 7 74 7q31 0 68 -2q54 4 139 4q221 0 360 -54q213 -87 330 -315q0 -7 4 -39q31 -70 31 -166q0 -211 -84 -420 q-28 -70 -131 -176q-70 -77 -88 -94q16 -23 80 -96q86 -103 86 -115q0 -20 -17 -51q-21 -33 -41 -33q-2 0 -30 14l-6 3q-28 0 -269 147q-11 -4 -45 -19t-55 -24q-68 -33 -180 -80q-327 -121 -351 -121q-16 0 -112 -8q-99 -8 -117 -8q-21 0 -170 33q-15 3 -37 8t-59 14.5 t-64 16.5q-95 44 -157 122q-4 1 -14 5t-17 6q-179 170 -238 442q0 2 -2.5 14.5l-6 30l-7.5 37.5q-12 52 -12 72zM211 780q0 -356 276 -506q0 -3 11 0q134 -73 348 -73q119 0 192 20q44 20 131 55q94 20 293 111q8 8 11 19q-109 82 -261 210q-22 44 -47 80q-4 8 -4 35 q0 121 66 121q26 0 137 -70q19 -27 182 -164q119 -100 137 -100q87 0 279 268q7 7 35 93q28 85 28 98q0 154 -59 231q-59 81 -215 135q-143 52 -147 52h-238q-13 0 -33 10q-3 1 -7 3.5t-6 3.5t-3 1t-2 -0.5t-3.5 -1.5t-4.5 -2l-35 -14q-31 -4 -246 -4q-1 0 -2 -1t-2 -1 l-14 -9q-15 -12 -31 -12q-2 0 -14 4l-5 4q-17 0 -100 -35q-92 -39 -149 -81q-135 -99 -238 -267q-1 -4 -3.5 -12.5t-7.5 -24t-9 -28.5q-6 -20 -6 -40q0 -16 4 -32q-19 -33 -29 -61q0 -14 14 -76q-9 -28 -35 -96q-29 16 -45 57q-18 38 -18 55v250l16 74q12 48 15 69 q-2 -1 -6.5 -3t-6.5 -3q-90 -116 -110 -166q-33 -65 -33 -176z" />
<glyph unicode="R" horiz-adv-x="1822" d="M55 1194q0 111 62 182q42 49 184 146q21 12 266 59q252 47 344 47q199 0 387 -18q17 -14 41 -19q101 -3 230 -108q135 -107 155 -205q0 -1 1 -2t2 -2.5t2 -3.5q24 -48 24 -58q0 -1 0.5 -5t2 -15t3.5 -23q2 -11 4 -22.5t3 -17t1 -7.5q0 -93 -122 -262q-24 -36 -162 -102 q-32 -37 -129 -99q-64 -19 -197 -65q-11 -7 -127 -68q-4 -1 -26 -4.5t-76 -11.5t-105 -16q-50 -7 -83.5 -17t-44.5 -17.5t-11 -13.5q0 -28 125 -116q102 -72 143 -92q9 -4 126.5 -56.5t230.5 -103.5q49 -16 92.5 -31t61 -21t18.5 -6q124 -56 127 -141q-22 -43 -70 -43 q-10 0 -43 8q-37 6 -43 6q-140 0 -260 56q-27 9 -227 104q-107 66 -138 86q-69 46 -106 90q-28 7 -37 9q-32 52 -182 143q-133 83 -133 139q12 37 41 107q165 34 512 116q5 2 22.5 6t54.5 12.5t76 18.5q77 20 268 148q236 162 236 262q0 88 -80 168q-82 76 -203 94 q-57 25 -65 25q-98 0 -180 2h-123q-4 -8 -13 -17q-34 1 -60 1q-62 0 -83 -5q-50 -16 -160 -61q-1 0 -141 -41q-68 -26 -76 -56q-59 -190 -80 -450q4 -43 4 -207q-3 -5 -6 -12.5t-7.5 -18.5t-8.5 -20q-19 -92 -19 -164q0 -18 1 -35l6 -61q4 -58 4 -111q0 -172 -74 -172 q-2 0 -7.5 2t-18 6.5t-23.5 8.5q-41 14 -55 14q-23 126 -23 385q0 33 16 166q16 172 41 336q26 88 43 161v39l-8 6l-20 -10q-29 -16 -45 -16q-27 0 -49 43q-11 29 -11 47z" />
<glyph unicode="S" horiz-adv-x="1452" d="M-16 121q24 21 55 37q571 129 879 256q194 82 194 131q0 36 -70 80q-8 5 -44.5 26t-65.5 39q-83 52 -221 107q-161 65 -232 96q-61 28 -237 160q-224 166 -224 243q0 19 33 56l47 53q4 4 23 12q12 4 51 21q6 2 33.5 14t50.5 21q84 20 397 61q11 1 36 3.5t68 7.5t83 9 q185 19 297 19q266 0 266 -115q0 -92 -121 -92q-16 0 -84 8q-65 8 -80 8q-2 0 -12.5 -1t-31 -3t-42.5 -4l-104 -12q-9 -2 -25 -2t-39 2q-16 0 -38.5 1t-28.5 1q-10 -1 -36.5 -4t-81.5 -9t-106 -12q-92 -20 -196 -32q-50 -7 -84 -27q18 -30 22 -37q36 -30 164 -125 q61 -34 156 -76q28 -20 65 -43l19 -6q186 -73 426 -190q102 -49 164 -139q63 -84 63 -183q0 -59 -63 -110q-87 -66 -107 -92q-44 0 -78 -3q-1 0 -2.5 -2.5t-3.5 -3.5q-55 -41 -71 -41q-7 0 -17 7q-2 2 -4 2q-35 0 -178 -60q-126 -48 -270 -80l-9 -10q-28 -20 -47 -20 q-2 0 -22 4q-4 1 -8.5 2t-7 1.5t-3.5 0.5q-39 -9 -119 -29q-117 -27 -129 -27q-73 0 -161 -18q-33 13 -64 49q-25 35 -25 61q0 5 1 9z" />
<glyph unicode="T" horiz-adv-x="2336" d="M90 1341q0 77 62 86q1 0 34.5 7.5t62 13t82.5 12.5t111 10l588 33q1 0 74 17q66 16 70 16q8 0 38 -18q30 -15 31 -15l920 43l2 -14q3 6 18 6q23 0 74 -14l84 -21q4 2 14 4q4 1 13 3.5t12 2.5q74 0 123 -73q-26 -62 -140 -62q-219 0 -235 -2q-11 0 -131 -18 q-83 -12 -94 -12q-8 0 -35 16q-1 0 -2 1t-2 1q-234 -25 -281 -25q-23 0 -219 -20q-74 -6 -98 -14q-57 -18 -74 -54q-88 -158 -160 -542q-19 -91 -33 -215q-7 -61 -10 -99q-26 -57 -49 -133v-7q0 -51 -27 -161q-53 -92 -108 -92q-54 0 -83.5 24t-29.5 70q0 3 4 16.5t13.5 42 t17.5 56.5q10 78 14 129q7 9 25 41q3 68 6 86q6 45 31 70v12q0 116 53 287l145 473q-4 4 -14 4q-213 0 -373 -17q-91 -13 -237 -47q-157 -32 -166 -32l-94 40q-27 47 -27 84z" />
<glyph unicode="U" horiz-adv-x="2203" d="M20 877l11 12q-3 45 -6 76q18 101 88 252q104 231 215 231l92 -70q-24 -30 -29 -86q-70 -43 -90 -102l-43 -113q-39 -77 -39 -168q0 -220 27 -319q14 -58 71 -152q36 -63 105 -116q85 -62 113 -76q30 -15 102 -15h119q30 0 237 70q196 66 221 82q64 46 179 121 q99 86 272 229q40 70 131 199q47 73 90 170q39 89 39 112v199v82q0 8 -2 18q5 -1 16.5 -2t16.5 -2q-3 -9 -6 -43q-7 1 -11 1h-5h-2h-3t-8 1q3 70 72 70q13 0 100 -37q0 -17 10 -82l11 -57q0 -13 -11 -35l-6 -14l-2 -2v-66q0 -10 -4 -22q-2 0 -2 -2l-2 -2q1 0 1.5 0.5t2.5 2 t4 3.5l27 24l-35 -22q8 0 16 -4q-22 -93 -78 -219q-59 -132 -86 -209q-20 -25 -28 -33q-5 -41 -29 -80q-158 -191 -170 -205q-104 -82 -151 -115q0 -1 -2.5 -6.5t-5 -13.5t-5.5 -18q-157 -97 -182 -113q-112 -70 -207 -96q-10 -17 -47 -43q-123 -54 -213 -54q-1 0 -9 -0.5 t-25 -1.5t-36 -2q-47 -4 -73 -4q-143 0 -326 76q-205 82 -256 184q-111 214 -129 336q-25 162 -25 271z" />
<glyph unicode="V" horiz-adv-x="1556" d="M72 1417q0 40 24 47q41 13 56 13q87 0 106 -19q26 -26 57 -166q10 -10 13 -16q29 -113 86 -221l116 -289q7 -12 31.5 -51.5t42.5 -69.5q19 -78 98 -237q1 1 3.5 3t3.5 3q7 34 30 102q54 107 125 236l19 32q52 100 207 344q94 142 301 349q117 120 165 120q26 0 64 -30 q41 -32 41 -56q0 -31 -137 -196q-9 -3 -23 -10q-11 -49 -78 -82q0 -29 -37 -62q-3 -3 -57 -53q-24 -35 -90 -94q-9 -36 -55 -105q-13 -9 -47 -47q-12 -36 -29 -76q-15 -15 -43 -57q-6 -48 -39 -143q-18 -13 -39 -37q-16 -62 -110 -363q0 -10 -2 -45t-3 -59q-25 -8 -124 -70 q-25 5 -52 11q-32 46 -137 219q-19 41 -43.5 94.5t-59.5 131.5t-59 130q-28 63 -86 217q-4 6 -20 32.5t-29 47.5q-7 8 -49 88q-3 34 -14 78q-42 48 -45 119z" />
<glyph unicode="W" horiz-adv-x="2222" d="M20 1217q0 33 54 81l43 -14q25 -13 73 -61q37 -85 58 -219l26 -173q2 -14 6.5 -30.5t4.5 -18.5q1 -3 34 -118.5t58 -202.5q17 -59 37 -92q12 6 24 28l66 107l63 139q33 16 60 80q47 104 73 151l129 211q35 27 80 27q86 0 148 -137q15 -15 30 -45q26 -73 66 -168 q8 -18 104 -203q25 -65 41 -98q21 -47 45 -68q10 0 13 6q133 227 397 598q17 39 51 90q75 119 215 304q21 18 64 88q38 60 82 84q5 5 10 5h1q6 0 11 -5q13 -11 37 -58q-32 -37 -98 -149q-71 -118 -78 -125q-27 -30 -43 -70q-27 -68 -80 -151q-160 -251 -215 -361 q-31 -78 -39 -96q4 -8 4 -14q0 -3 -6 -21q-99 -153 -115 -184q-53 -95 -73 -180q-30 -12 -60 -33q-14 -26 -84 -84l-49 35q-82 129 -196 362q-42 135 -82 221q-36 33 -78 168q0 5 -17 17q-40 -16 -43 -56q-44 -121 -114 -209h26q-82 -91 -88 -122q-21 -109 -86 -209 q-44 -68 -110 -168q-9 -13 -113 -58h-39q-31 31 -80 107q-28 69 -57 201l-45 196q-32 77 -51 137q-24 80 -68 340q-27 179 -27 218z" />
<glyph unicode="X" horiz-adv-x="1857" d="M20 229q0 95 25 127q44 60 74 150q71 74 209 203q72 50 170 120q44 30 75 55t42.5 36.5t11.5 15.5q0 3 -16 17t-58 43.5t-102 66.5q-146 94 -267 188q-24 33 -24 108v17q35 24 106 41l547 -360q21 5 74 39q78 50 98 59q191 78 543 252q11 0 47 4q78 33 160 33 q174 0 174 -88q0 -41 -51 -92q-152 -13 -259 -54q-43 -27 -86 -43q-530 -217 -530 -256q0 -3 80 -71l147 -125q20 -38 60 -92q42 -28 108 -91q14 -18 35 -65q24 -15 60 -57q20 -30 141 -207q28 -14 55 -45q17 -39 17 -76q0 -28 -39 -55q-36 -25 -62 -25q-11 2 -78 23l-14 28 l-322 385q-176 210 -307 332q-105 0 -248 -102q-67 -38 -153 -101q-77 -53 -154 -139q-57 -63 -108 -180q0 -5 -1 -17.5t-3 -36t-4 -44.5q-7 -99 -70 -99q-57 0 -84 82q-19 59 -19 96z" />
<glyph unicode="Y" horiz-adv-x="1411" d="M45 1214q0 75 37 162h100q3 -11 56 -51l30 -219q54 -188 201 -188q128 0 385 194q22 16 143 104.5t222 161.5q45 31 84 31q33 0 73 -43q35 -40 35 -59q0 -43 -45 -97q-49 -58 -143 -149q-132 -132 -197 -205q-86 -100 -145 -162q-14 -16 -70.5 -76.5t-99.5 -107.5 q-51 -71 -168 -256q-21 -42 -37 -78q-16 -53 -29 -88q-30 -86 -82 -86q-22 9 -114 61q-1 15 -1 30q0 33 5 61q113 250 186 360q14 22 51 43l4 27q15 23 115 139q4 12 8 18q-16 4 -33 4q-4 0 -98 -20q-90 -20 -106 -20q-76 0 -150 47q-74 50 -108 116q-70 142 -95 244 q-14 58 -14 102z" />
<glyph unicode="Z" horiz-adv-x="1742" d="M20 190q0 76 70 127q109 64 115 68q8 12 47 51q17 10 154 105q13 9 34.5 25t60.5 45.5t70 52.5q181 80 449 270q56 39 105 74t83 60.5t37 27.5q77 63 178 161q-83 27 -364 27l-512 -49q-171 0 -242 43q0 15 -14 53q-4 12 -8.5 24t-6.5 17t-2 6q0 88 66 88q8 0 82 -12 q75 -10 76 -10l61 12q76 17 98 17q11 1 118.5 5t211.5 9l215 10q20 1 41 1q107 0 250 -25q77 -22 111 -27q118 -16 118 -115q0 -93 -131 -203q-80 -69 -141 -112q-44 -25 -47 -27t-53 -35l-78 -59q-19 -16 -113 -80q-155 -111 -471 -315q-219 -141 -360 -254q50 -37 198 -37 q7 0 26 1t55.5 3t72.5 4l145 8q1 1 2.5 1.5l3 1t3.5 1.5t9.5 3t16 4t17.5 4q73 10 303 36q105 15 313 15q109 0 164 -41v-43q-39 -28 -90 -49l-283 -23q-80 -18 -201 -37q-2 -2 -26 -18q-115 -28 -213 -43q-176 -23 -228 -23l-36 -2h-273q-61 0 -237 43q-50 44 -50 135z" />
<glyph unicode="[" horiz-adv-x="792" d="M88 -72q0 -2 3.5 22t10.5 82.5t15 131.5q5 41 22 203.5t31 291.5q11 79 27 375q8 96 8 144q0 272 2 389q10 33 18 80q18 15 80 18l90 8q70 22 207 56q50 12 88 12q41 0 47 -15q40 -59 60 -127v-26q-130 -45 -340 -80q-29 -6 -47 -27q-3 -164 -15 -272q0 -16 -24 -221 q0 -148 -6 -268q-5 -93 -23 -304q-14 -181 -14 -317v-37q129 -15 223 -2q208 33 227 33q34 0 43 -60q8 -39 10 -67q-83 -58 -245 -84q-98 -14 -215 -35q-22 0 -52 -6q-18 -6 -69 0l-55 6h-50q-57 0 -57 96z" />
<glyph unicode="\" horiz-adv-x="1296" d="M74 -90q0 53 55 211q48 140 66 172q117 210 135 242q54 96 315 466q93 131 229 310q12 18 273 272q153 150 186 150q18 0 39 -68q19 -65 19 -78q0 -56 -41 -100q-5 -6 -25 -29t-33 -37q-15 -30 -55 -82q-253 -230 -406 -436q-560 -766 -618 -1120h-94q-1 5 -25 65 q-20 41 -20 62z" />
<glyph unicode="]" horiz-adv-x="989" d="M45 -147q0 35 18 79q80 31 283 48q26 2 51 4t38 3t16 1q10 -2 26 -4q18 -4 33 -4q55 0 55 20q-4 32 -4 72q39 146 60 258q7 240 49 516l88 606q0 8 -2 12q-42 31 -142 31q-6 0 -18 -4q-10 -2 -21 -2q-18 0 -36 12q-41 6 -136 15q-129 15 -129 133q0 88 76 88 q-6 0 21.5 -2.5t95.5 -8t161.5 -13.5t235.5 -19q84 -6 84 -205q0 -97 -78 -594q1 -4 1.5 -10t1 -15.5t1.5 -17.5q-63 -498 -63 -700q0 -106 -10 -170q-25 -174 -35 -197q-26 -66 -111 -66q-5 0 -178 21l-178 20q-13 0 -27 -4q-6 -1 -11.5 -2t-8.5 -1.5t-4 -0.5q-4 0 -51 6 q-14 1 -27 2t-20 1.5t-9 0.5q-14 19 -30 37l-25 12.5t-31 14.5q-7 34 -9 32q-1 0 -1 -5z" />
<glyph unicode="^" horiz-adv-x="665" d="M74 1456q0 18 41 51q15 8 53 35q22 22 102 121q65 80 115 80q16 -8 66 -51l79 -66q1 -3 5 -11t6 -13q74 -57 135 -127q37 -43 37 -74q0 -14 -6 -35q-3 -10 -39 -10q-46 0 -93 14q-166 172 -188 172q-3 0 -117 -102q-110 -101 -131 -101q-50 0 -59 31q1 -3 2 2q2 11 2 53 q-10 20 -10 31z" />
<glyph unicode="_" horiz-adv-x="2519" d="M55 -238q0 26 4 76q2 19 3.5 37.5t2.5 26.5t1 10q40 43 208 43h261l23 -7q7 -1 15 -3q230 -8 244 -8q135 -5 256 -3l268 3h2h3h2h3h2h3h2h2h3h2h3h2h3h2h3h2h3h2h3h2h3h2h3h3h2h3h2h3h3h2h3h2h3h3h3h2h3h3h3h3h2h3h3h3h4h3h3h4h3h4h7l463 -7l233 7q79 3 150 6l57 4 q231 0 289 -49q27 -92 24 -119q-16 -9 -37.5 -23.5t-25.5 -17.5q-12 6 -125 6h-213l-258 -16q-306 -19 -567 -19l-457 4l-72 2q-19 1 -36 2t-26 1.5t-10 0.5h-86q-20 0 -55 2h-26q-92 0 -174 -0.5t-129 -1t-54 -0.5q-14 0 -55 -8q-50 -6 -51 -6q-83 0 -119 10q-29 11 -68 47 z" />
<glyph unicode="`" horiz-adv-x="632" d="M43 1577q0 44 8 57t31 13q10 0 35.5 -8.5t46.5 -17.5l20 -9l246 -111q145 -65 219 -104q29 -40 29 -60q0 -27 -29 -77q-254 67 -596 247q-10 6 -10 70z" />
<glyph unicode="a" horiz-adv-x="1005" d="M49 219q0 62 41 168q10 26 60 47q10 6 61 29q213 131 395 131q53 0 133 -29q23 -9 60 -69q37 -61 37 -88q0 -51 -60 -89q-122 70 -192 70q-76 0 -154 -37q-100 -47 -156 -100q6 -31 70 -31q-2 0 -2 1q0 3 58 23q29 11 73 25q146 49 236 49q23 0 147 -106 q144 -120 199 -145q22 -22 22 -31q0 -39 -20 -68q-21 -30 -49 -30q-44 10 -226 106q-113 61 -116 61q-42 0 -117 -34q-117 -51 -119 -52q-61 -20 -133 -20q-82 0 -205 111q-43 61 -43 108z" />
<glyph unicode="b" horiz-adv-x="1288" d="M41 70q0 15 53 45l56 32q0 18 -37 76q-23 39 -23 88q0 13 12 92q13 86 13 97q0 35 -49 78q0 4 -13 45q-12 37 -12 41q0 35 104 96q6 52 15 117q57 323 139 589q18 63 98 88q43 -21 90 -163q0 -9 -28 -86q-8 -25 -17.5 -54t-14.5 -44.5t-7 -22.5q-11 -98 -23 -191 q0 -11 -18 -78q-5 -19 -10 -36.5l-7 -24.5t-2 -8q0 -51 95 -51q363 0 567 -58q70 -18 133 -96q66 -78 66 -137q0 -128 -230 -271q-201 -125 -327 -131q-1 -1 -46 -28q-54 -16 -159 -37q-269 -57 -328 -57q-32 0 -59 30q-31 31 -31 60zM274 299q33 -100 33 -125h37 q62 26 160 53q152 44 340 131q186 85 186 152q0 53 -194 88q-147 25 -252 25q-1 0 -41 -9q-36 -8 -49 -8q-51 6 -78 6q-15 0 -21 -2q-56 -12 -71 -55q-8 -42 -11 -61q-35 -198 -38 -199q-1 0 -1 4z" />
<glyph unicode="c" horiz-adv-x="1134" d="M41 242q0 79 33 129q43 80 168 178q59 43 147 82q174 76 256 76q1 0 6 -1t14.5 -2t20.5 -2q38 -6 43 -6q94 0 123 -20q31 -25 31 -92q0 -4 -15 -31l-16 -29q-18 -12 -55 -12q-1 0 -4.5 0.5t-10 1.5t-12.5 2q-7 1 -13.5 2t-10 1.5t-5.5 0.5q-128 0 -393 -149 q-68 -35 -92 -129q121 -86 254 -86q2 0 15.5 1t45.5 3.5t66 5.5l125 8q6 0 98 12q94 15 98 15q39 0 64 -19v-28q0 -91 -100 -91l-15 5l-16 4q-5 0 -60 -25q-64 -28 -69 -29q-160 -36 -240 -36q-14 0 -30 4q-19 3 -41 0q-27 -15 -50 -15q-101 0 -204 62q-104 59 -131 143 q-25 72 -25 66z" />
<glyph unicode="d" horiz-adv-x="1488" d="M49 324q0 49 60 118q93 115 352 168q18 9 39 21q60 8 217 39q74 18 233 18q271 0 287 2q6 179 37 455q-14 56 -17 131q5 21 5 82q0 41 -2 100v35q0 119 18 170q12 35 88 35q11 0 47 -19q10 -124 14 -124v1q0 -380 -14 -516q6 -67 6 -174q0 -160 -10 -311 q-21 -30 -63 -100l-39 10q-3 0 -22 1.5t-67.5 6t-97.5 8.5l-188 17q-124 0 -318 -37q-216 -40 -249 -82q-3 -1 -12 -4.5t-21 -8.5t-25 -10q-53 -21 -53 -57q0 -13 33 -49q37 -36 59 -49q91 -51 203 -51q59 0 391 53q319 51 332 51h26q13 0 13 -21q0 -16 -23 -57 q-24 -38 -45 -47q-52 -23 -340 -98q-223 -58 -328 -58q1 0 -2 -0.5t-10 -1t-16 -0.5q-25 -2 -76 -2l-111 -4l-47 23q-25 0 -75 18q-75 56 -109 109q-33 47 -55 116q-25 80 -25 93z" />
<glyph unicode="e" horiz-adv-x="1110" d="M20 328q0 76 21 123q148 292 606 292q148 0 221 -67q53 -45 115 -129q8 -24 8 -63q0 -27 -4 -62q-6 -99 -41 -117q-14 0 -90.5 -9.5t-144.5 -12.5l-181 -11l-109 1q-59 -2 -91 -9q-13 10 -56 10q-2 -3 -4.5 -5.5l-4 -4l-3 -3l-2 -2t-0.5 -1.5q0 -6 10 -17t35 -26t60 -29 t91 -26t122 -17q104 -8 133 -12q125 -15 125 -61q0 -14 -78 -52l-41 -41q-18 -2 -44 -5l-26 -3q-14 0 -102 8q-26 2 -52.5 3.5t-38 2.5t-14.5 1q-33 0 -108 34q-3 2 -32.5 17.5t-53.5 27.5q-82 29 -156 115q-70 79 -70 150zM285 451q0 -17 10 -17h352q114 0 131 33 q-4 15 -22 76q-4 11 -56 35q-149 -11 -280 -33q-37 -6 -84 -39q-51 -36 -51 -55z" />
<glyph unicode="f" horiz-adv-x="1388" d="M35 332q0 16 31 55q30 35 49 41q64 18 75 18q3 0 11 -4q4 -2 12 -2q50 0 72 11q47 28 53 129q27 548 477 854q59 41 131 47q41 7 113 18q16 2 174 2q156 0 266 -45q31 -4 100 -39q52 -36 60 -63q39 -116 39 -154q0 -39 -4 -59q0 -5 -17 -25q-5 -7 8 -9q4 -1 9 -1l-56 -6 q-9 0 -67 55q-74 68 -113 88q-102 57 -325 57q-3 0 -58 -10q-41 -10 -53 -10q-142 -18 -340 -213q-39 -36 -98 -190q-64 -158 -64 -256q0 -1 0.5 -5.5t1.5 -15t2 -22.5q6 -44 6 -54q27 -12 72 -12l111 19h1h1h1h1l1 1h1h1h1h1h1l1 1q99 15 167 26q185 33 311 33q48 0 94 -27 q-3 -24 -51 -69q-51 -41 -90 -56q-129 -15 -291 -45q-50 -20 -307 -108q3 -38 39 -125q55 -58 55 -78t-26 -68q-27 -47 -41 -47q-75 0 -160 142l-84 141q-186 -39 -201 -39q-43 0 -73 37q-31 39 -31 82z" />
<glyph unicode="g" horiz-adv-x="1040" d="M-520 -496q0 169 327 263q112 16 357 59q302 59 545 65q22 9 22 80v170l-2 11q-1 -1 -2 -3.5t-2 -3.5q-4 0 -4 23q-12 126 -80 227q-19 1 -35 1q-38 0 -55 -5q-178 -45 -215 -45q-1 0 -21 8q-13 8 -22 8q-73 0 -129 44q-58 45 -58 94q0 70 50 147q46 69 147 96 q4 1 19 4.5t46.5 11t63.5 15.5q89 29 256 29q33 0 64 -17h12q20 0 55 -4q58 -25 58 -77q-9 -9 -35 -60q-85 14 -137 14q-85 0 -228 -49q-145 -50 -145 -80q14 -2 30 -2q67 0 160 31q37 12 162 12q52 0 68 -22q97 -108 122 -248q7 -42 14 -82.5t10 -58t3 -19.5v-65 q0 -56 -6 -62l-4 -4q1 -3 2.5 -11.5t5 -24t6.5 -31.5q15 -52 15 -56l-15 -30q-14 -22 -14 -29q-24 -238 -174 -530q-123 -147 -285 -240q-163 -94 -293 -94q-179 0 -372 112q-180 104 -248 222q-39 68 -39 206zM-334 -532q0 -86 141 -160q47 -37 144 -92q100 -35 219 -35 q10 0 59 8q53 6 56 6q41 0 155 82q100 71 142 125q61 75 90 154q39 107 39 228v17q-49 17 -70 17q-53 0 -121 -19q-24 -16 -49 -26q-41 -3 -111 -15q-86 -32 -176 -57q-23 -8 -282 -72l-82 -43q-154 -59 -154 -118z" />
<glyph unicode="h" horiz-adv-x="1331" d="M63 162q0 92 97 420q11 17 33 65q10 74 32 160q52 205 244 846q-1 5 -1 10q0 21 9 55q21 43 90 43q29 0 39 -16q3 -9 9.5 -27.5t9.5 -27.5q8 -27 8 -41q0 -21 -88 -330q-64 -229 -105 -361q-45 -127 -108 -380q-53 -223 -53 -246v-25q12 -12 36 -12q10 0 62 22l74 31 q121 34 319 86q274 70 299 70h25q198 0 198 -225q0 -29 -10 -111q0 -19 16 -66l19 -51q0 -17 -35 -76q-3 -1 -22.5 -6t-36.5 -8q18 -6 45 -18l-21 -19q-105 18 -145 139q4 102 4 226q-7 7 -31 28q-137 -17 -278 -51q-69 -16 -391 -151q-207 -86 -254 -86q-45 0 -68 57 q-21 44 -21 76z" />
<glyph unicode="i" horiz-adv-x="495" d="M131 166q-1 4 -1 14q0 31 9 121q15 193 45 342q27 35 68 35q45 0 63 -68q6 -18 15 -481q2 -8 -23 -111l-24 -6h-3q-19 0 -87 25q3 18 -23 61q-30 46 -39 68zM223 1057q0 57 41 121q16 3 86 12q31 -67 31 -125q0 -24 -59 -92q-99 27 -99 84z" />
<glyph unicode="j" horiz-adv-x="677" d="M-160 -770l13 94q37 -27 127 -88q100 -65 153 -65q46 0 64 49q9 33 22 92q2 12 9 49t16.5 85t19.5 99q3 34 49 156q2 6 2 35v12q0 16 9 47q0 -2 -2 -2q0 22 14 105q11 62 31 282v19q0 95 26 278q5 19 35 53q28 31 41 31q7 0 68 -12q38 -35 38 -111q0 -14 -10 -53 q-14 -46 -14 -53q8 -52 8 -113q-3 -202 -55 -452q0 -18 -45 -254q0 -15 -4 -105q-53 -205 -97 -340q-36 -36 -67 -65q-58 -58 -72 -58q4 0 -5 5q-16 9 -54 24q-23 5 -84 22q-109 45 -150 95q-20 45 -86 139zM342 969q0 131 98 131q17 0 60 -15q1 -15 1 -29q0 -147 -87 -147 q-19 0 -45 23q-27 24 -27 37z" />
<glyph unicode="k" horiz-adv-x="1382" d="M63 117q60 169 66 264q3 23 31 115q24 77 28 114q53 166 86 242q46 194 101 436q9 19 23.5 46.5t17.5 33.5q0 31 -2 41q34 70 41 82q9 25 21 54.5t13 33.5q27 49 80 49q64 0 64 -63q0 -69 -12 -103q-95 -262 -95 -362l-141 -522q58 34 90 34q5 0 14 6q11 7 15 7h-4 q0 5 51 24q124 41 170 53q37 12 209 82q151 60 157 60q7 0 48 -21q39 -20 43 -20v-76q0 -58 -43 -82q-55 -26 -279 -96q-221 -71 -266 -107q59 -17 123 -20q55 -14 107.5 -27.5t100.5 -26.5t66 -18q31 -7 170 -94q166 -102 166 -139v-51q-11 -5 -27 -13t-22 -10 q-41 -20 -53 -20q-1 0 -7.5 3t-15 7t-22.5 11t-29 15q-77 41 -139 56q-33 7 -152 47q-113 40 -180 59q-54 20 -144 51q-145 56 -194 105q-11 -38 -37 -128t-35 -124q-39 -14 -51 -62q-11 -38 -45 -38q-23 0 -51 32q-13 14 -26.5 28t-20 21.5t-9.5 10.5z" />
<glyph unicode="l" horiz-adv-x="567" d="M168 233v242l127 860q6 23 16 64q4 18 8.5 36.5t7 29t3.5 14.5q0 13 -8 57l-7 49l60 119l26 14q35 0 91 -53q55 -52 55 -80v-194q-34 -109 -72 -365q-10 -50 -61 -248q2 -14 2 -63q-15 -64 -41 -226v-102q0 -125 12 -178q-5 -10 -12 -31q24 -24 24 -61q0 -44 -26 -80 q-24 -37 -62 -37q-15 0 -59 29q-42 26 -55 49q-4 13 -13 129q-16 19 -16 26z" />
<glyph unicode="m" horiz-adv-x="2105" d="M80 213q0 70 35 219q44 197 100 197q55 0 86 -54l47 -83q60 45 223 159q213 148 306 148q64 0 149 -97q69 -82 72 -100q20 -115 20 -228v-30q6 -6 19 -6q37 0 104 61q21 10 78 50q56 36 223 137q127 58 251 58q17 0 34 -1q16 -36 53 -51q38 -43 94 -152q8 -46 7.5 -109 t-7.5 -143q-1 -12 -1 -25q0 -48 9 -110q15 -124 15 -131q-9 0 -43 -6q-11 -1 -20.5 -2t-14 -1.5t-6.5 -0.5q-39 0 -90 57q3 13 -6 41q-52 85 -58 379q-7 11 -20 21q-123 -3 -322 -158l-309 -240q-26 -20 -82 -20q-127 0 -139 92q0 24 6 135q8 107 8 195q0 96 -10 145 q-12 21 -37 21q-46 0 -176 -103q-8 -7 -32.5 -27t-54.5 -45.5t-61 -52.5q-15 -13 -63 -60t-80 -77q-130 -127 -190 -127q-36 0 -80 59q-37 56 -37 66z" />
<glyph unicode="n" horiz-adv-x="1200" d="M55 399q0 30 43 115q0 7 8 57q5 18 54 111q3 0 30 6t31 6q3 -13 45 -49q45 -33 56 -33q7 0 184 82q180 80 184 80q105 0 221 -149q14 -20 76 -119q55 -137 55 -361q0 -145 -67 -145q-9 0 -47 18q-46 22 -62 25q-57 86 -57 178q0 98 -68 305q-9 15 -47 15q-32 0 -88 -29 q-21 -12 -86 -45q-26 -19 -149 -158q-126 -147 -152 -147q-73 0 -123 90q-41 77 -41 147z" />
<glyph unicode="o" horiz-adv-x="1339" d="M39 362q0 19 24 95q20 71 37 98q18 34 95 70l98 45q95 57 244 116l75 7q15 6 39 18q7 0 66 6q55 6 61 6q300 0 385 -252q43 -125 43 -139q0 -120 -59 -194q-65 -74 -232 -160q-111 -55 -270 -96q-44 -9 -88 -21q-121 0 -283 84q-175 91 -200 215q0 1 -2 6.5t-6.5 18 t-8.5 26.5q-18 44 -18 51zM254 344q0 -61 106 -117q94 -49 156 -49q106 0 281 88q204 101 204 207q0 150 -186 150q-135 0 -315 -62q-6 -5 -19.5 -15t-19.5 -14q-42 -3 -74 -20q-133 -133 -133 -168z" />
<glyph unicode="p" horiz-adv-x="1517" d="M80 317l24 33q-7 21 -4 49q57 117 260 224q202 109 367 112q5 5 18 10q37 13 119 13q187 0 332 -86q36 -19 131 -140q70 -85 70 -200q0 -106 -160 -236q-135 -112 -264 -147q-36 -31 -58 -31l-8 4q-4 4 -14 4q-11 0 -129 -26q-119 -29 -127 -29q-1 0 -5 -0.5t-12.5 -1.5 t-17.5 -2l-16 -2l-12 -1.5t-5 -0.5q-39 0 -100 55q-6 -3 -14 -14q0 -6 -45 -330q-6 -23 -21 -225q-12 -169 -51 -236h-6q-15 0 -25 -2q-21 -6 -26 -6q-57 0 -117 84v190q0 9 14 29q-1 25 -1 56q0 93 7 243q15 35 31 88q14 145 72 484q64 73 92 73q46 0 84 -47 q37 -49 37 -100q0 -78 -39 -217q19 -13 24 -13q46 0 316 117q92 39 243 119q80 60 144 133q14 14 14 45q0 15 -39 60q-35 44 -61 63q-73 51 -182 51q-162 0 -336 -55q-190 -59 -219 -74q-109 -50 -109 -129q0 -4 4 -12q-17 -31 -35 -80q-7 -7 -57 -31q-88 64 -88 135z" />
<glyph unicode="q" horiz-adv-x="1433" d="M55 373q0 51 88 162q86 109 129 112q158 51 541 148q86 8 285 8q13 0 164 -60q24 -9 61 -55q39 -45 39 -70q0 -71 -82 -71q7 0 -106 35q-83 28 -224 28q-50 0 -162 -28q-46 -12 -126 -33q-347 -65 -347 -215q0 -30 39 -53q42 -25 82 -25q69 0 225 27t265 71l243 97 q20 0 131 -117q5 -15 5 -33q0 -11 -25 -78q-28 -64 -41 -108q-48 -173 -78 -344q-2 -12 -14.5 -86t-36 -219t-49.5 -306v-7q0 -25 18 -56q-2 -7 -41 -94q-38 -78 -84 -78q-64 0 -86 35q-39 51 -39 116q0 1 11 23q10 20 10 22q5 93 31 249t26 218l127 576l4 2q-4 4 -22 4 q-129 -74 -199 -90q-31 -7 -96 -13.5t-110.5 -9t-53.5 -2.5h-100q-63 0 -181 47q-133 56 -170 119q-51 91 -51 152z" />
<glyph unicode="r" horiz-adv-x="1302" d="M59 133q2 19 15 139q12 106 20 211q55 125 101 125q10 -4 26 -12q27 -10 33 -10t43 30l35 29q142 73 174 88q87 43 215 43q40 0 532 -82q2 -5 19 -18l102 -12q0 -67 12 -76q-1 -1 -10.5 -6t-32.5 -18t-47 -27l-18 16q-16 -16 -37 -16q-15 0 -229 18l-230 23 q-296 0 -417 -195q-32 -50 -58 -168l-22 -22q0 -62 -25 -181q-46 -16 -92 -16q-109 0 -109 137z" />
<glyph unicode="s" horiz-adv-x="1097" d="M39 90q0 5 31 47l309 58q207 40 268 77q0 9 -2 13q-44 31 -215 100q-200 84 -221 96q-25 8 -115 64q-20 20 -20 86q0 -11 -7 2q-2 4 -4 10q-7 25 16 47.5t79 44.5q104 41 344 84q220 39 375 39q39 0 51 -12q59 -62 59 -96q0 -57 -39 -74q-35 -9 -301 -39q-8 -2 -24 -10 q-22 -11 -33 -11q-6 0 -19 5l-16 4q-56 0 -129 -37q12 -25 47 -43q12 -2 137 -35l38 -14q39 -14 73 -25l14 -6q10 -3 96 -39q46 -18 91 -70q18 -21 26 -75q0 -2 15 -23q12 -18 12 -25q0 -16 -39 -47q-44 -33 -78 -41q-46 -16 -262 -82q-217 -65 -328 -65q-6 0 -43 6 q-33 8 -41 8t-39 -8q-30 -6 -34 -6q-16 0 -43 37q-29 40 -29 55z" />
<glyph unicode="t" horiz-adv-x="1169" d="M-35 721q0 36 27 63q29 29 59 29q5 0 58 -6q35 -4 57 -4q18 0 47 4q29 2 47 2q6 0 25 -8q6 -2 11.5 -4t8.5 -3t4 -1q2 0 9 0.5l21 1.5l28 2q15 1 28.5 2t19.5 1.5t7 0.5q51 0 63 51q31 115 35 131l68 195q13 88 16 104q43 73 51 90q116 244 199 244q34 0 98 -113 q0 -22 -37 -92q-20 -23 -51 -74q-23 -69 -112 -309q-27 -68 -41 -207q73 -20 86 -20l55 6q72 10 98 10q73 0 125 -12l51 -12q123 0 123 -56q0 -36 -28 -53q-29 -18 -111 -33q-69 -12 -92 -28q-14 -3 -41 -7q-44 -6 -49 -6q-96 0 -246 -22q-52 -6 -61 -35q-16 -45 -43 -176 q0 -87 -37 -332q-7 -8 -19 -22q-16 -22 -16 -27q-109 6 -135 35q-13 13 -13 75q0 87 48 465q-31 24 -56 21q-42 -5 -63 -2q-65 4 -199 8q-123 21 -123 123z" />
<glyph unicode="u" horiz-adv-x="1347" d="M70 530q0 128 86 240h51q63 -45 63 -145q0 -27 -2 -66q-1 -16 -2 -32.5t-1.5 -25.5t-0.5 -12q0 -174 187 -223q63 -18 63 -20q15 0 35 2q8 1 17 2l13.5 1.5t6.5 0.5q99 0 270 115q102 65 205 196q99 129 115 211q3 17 36 45q36 31 48 31q53 0 53 -125q0 -67 -15 -102 q-11 -31 -33.5 -88t-29.5 -76q-10 -2 -23 -19q-5 -32 -51 -84l-69 -77q-5 -15 -9 -25q-108 -108 -278 -191q-165 -51 -246 -51q-48 0 -139 27q-350 108 -350 491z" />
<glyph unicode="v" horiz-adv-x="1187" d="M49 598q49 123 90 123q17 0 146 -203q127 -201 149 -201q17 0 94 48q90 56 103 69q66 34 178 103q14 14 84 67q65 28 246 84q43 -30 43 -65q0 -27 -25 -52q-15 -13 -162 -125q-1 -4 -2 -14.5t-2 -15.5q-518 -389 -553 -389q-20 0 -76 39q-57 37 -67 53q-147 252 -211 420 q-2 3 -9 10t-9 12q-17 24 -17 37z" />
<glyph unicode="w" horiz-adv-x="1916" d="M35 700q0 12 49 88q32 13 39 13q27 0 67 -43q42 -45 48 -80q0 -30 4 -55q33 -89 51 -164q0 -51 47 -160h25q58 0 256 195l237 233q19 16 60 16q66 0 124 -120q43 -87 52 -101q5 -9 27 -48.5t40 -70.5q58 -104 96 -104q29 0 152 129q58 62 154 158q47 51 370 307 q33 4 88 22q33 -56 33 -98q0 -41 -121 -121q-5 -12 -35 -55q-25 -20 -77 -72q-12 -27 -52 -82q-24 -19 -71 -63q-9 -13 -29.5 -43.5t-30.5 -46.5q-29 -37 -149 -160q-153 -156 -197 -156q-54 0 -159 105q-73 73 -166 194l-82 105q-11 0 -105 -88q-120 -111 -151 -135 q-262 -197 -299 -197q-62 0 -99 43q-67 77 -137 381q-59 239 -59 274z" />
<glyph unicode="x" horiz-adv-x="1224" d="M51 80q0 76 135 229q128 146 136 146q0 6 -113 125q-113 125 -113 149q0 19 35 66q36 45 55 45q41 0 199 -140q40 -37 84 -76t58.5 -52t13.5 -13q3 0 92 47q94 48 112 53q241 78 357 78q135 0 135 -102q0 -52 -29 -64q-35 -16 -254 -57q-23 -3 -127 -53 q-114 -55 -114 -78q0 -11 49 -57q47 -47 59 -62q128 -159 129 -160q72 -93 72 -163q0 -15 -4 -35q-6 -34 -6 -37q0 -12 -21 -12q-80 0 -117 34q-11 11 -204 226q-139 151 -160 151q-104 0 -289 -200q-8 -8 -16 -48q-48 -26 -66 -26h-45q-40 0 -43 86z" />
<glyph unicode="y" horiz-adv-x="1298" d="M41 471q0 101 14 133q34 76 66 76q86 0 110 -154q8 -38 19 -155q56 -95 151 -95l78 19q43 12 109 29q109 18 223 90q8 6 186 118q22 31 47 58h101q47 -71 47 -135q0 -21 -43 -111q-42 -89 -74 -135q-21 -15 -49 -43q-20 -55 -84 -174l-2 -12l-2 -5q-3 0 -20 -32 q-16 -9 -41 -41q-9 -23 -17 -82q-28 0 -39 -33q-8 -25 -47 -125q-12 -34 -72 -127q5 -25 5 -47q-18 -22 -41 -66l-41 -172q-45 -109 -50 -122q-1 -4 -4.5 -18.5t-12.5 -48t-17 -62.5q-8 -35 -66 -35q-54 0 -90 39q-37 40 -37 94q0 41 51 178q1 3 5 16.5t12 39.5t16 53 q5 5 33 41q10 58 266 677l-12 13q-149 -64 -238 -64q-5 0 -49 12q-13 3 -25.5 6.5t-17.5 5t-6 1.5l-16 -4q-8 -4 -17 -4q-50 0 -125 47q-69 42 -86 61q-48 55 -63 129q4 8 4 12q-1 2 -2 5.5t-2 5.5q-35 41 -35 143z" />
<glyph unicode="z" horiz-adv-x="1392" d="M113 106q7 49 32 109q2 7 109 100q113 65 264 162q40 24 111 113q-12 28 -37 28q-2 0 -19 -1.5t-59.5 -6t-85.5 -8.5l-164 -16q-114 0 -114 86q0 89 79 98q273 43 576 43q9 0 45 -20q7 -4 20.5 -12.5t20.5 -12.5q24 -41 24 -66q0 -191 -440 -473q29 -26 111 -26l495 41 h-6q0 1 84 6q18 1 34 1q47 0 69 -7q27 -17 41 -31q4 -12 4 -33q0 -60 -84 -84q-76 -10 -146 -20q-128 -20 -317 -39q-359 -37 -469 -37q-34 0 -96 20q-3 22 -82 86z" />
<glyph unicode="{" horiz-adv-x="923" d="M35 834q2 34 4.5 65.5t4 48.5t1.5 21l25 18q8 -8 24 -8q46 0 244 121q55 34 55 92q0 23 -139 215q-4 16 -4 68q0 130 43 170q31 28 242 77q16 10 57 27q58 4 280 4q44 0 82 -41q37 -40 37 -88q0 -29 -6 -47q-2 -1 -39 -31q-24 -18 -45 -18l-16 6q-15 5 -49 14 q-14 2 -80 2q-99 0 -264 -49q-35 -12 -35 -43q139 -194 139 -225q0 5 -1 -1q-1 -5 -6 -27q-5 -27 -9 -46q-6 -80 -84 -184q-63 -82 -74 -82q-2 2 -2 4q0 -2 41 -43q43 -46 43 -131q0 -29 -94 -221q-95 -198 -95 -226q0 -12 15 -34q19 -90 63 -140l76 -86q53 -28 119 -65 q20 -16 53 -29h281q10 -15 10 -57q0 -41 -2 -45q-26 -33 -111 -72q-52 -20 -119 -20q-98 0 -266 77q-165 77 -209 146q-41 70 -61 127q-3 4 -10.5 15t-12.5 18q-28 176 -28 200q0 105 61 203q78 129 96 201q-28 15 -155 39q-83 16 -80 80z" />
<glyph unicode="|" horiz-adv-x="356" d="M35 -2l22 395q27 515 27 641q0 358 8 639q0 20 29 49q27 30 49 33q26 3 59 -39q39 -45 39 -67q2 -2 -4 -146q-10 -195 -10 -207q6 -357 6 -606q-9 -41 -18 -131q-21 -340 -4 -487q6 -76 -7 -129q-24 -70 -24 -95q0 -4 1 -8l1 -4q-2 -5 -31 -20q-39 12 -90 78 q-50 62 -53 104z" />
<glyph unicode="}" horiz-adv-x="845" d="M-10 -342q0 44 30 53q40 16 93 37.5t61 24.5q108 50 176 92q66 32 115 65q49 49 49 111q0 1 -14 33q-15 24 -15 35q0 8 2 14q-6 15 -17.5 42t-29.5 70.5t-34 81.5q-70 162 -70 203l8 54q7 48 12 81q5 9 13 23q14 28 14 29q0 6 -31 45q-5 6 -16.5 18t-16.5 18 q-20 44 -20 99q0 80 61 162q11 16 140 155q12 24 26 45q32 34 68 73t41 44q72 87 86 143q-25 35 -180 35q-15 0 -86 -8q-23 -2 -44.5 -4t-32 -3t-11.5 -1q-70 0 -82 45q-6 61 -15 123q25 25 140 43q91 16 118 16q80 0 252 -45q26 -6 68 -43q42 -33 45 -53q14 -71 14 -121 q0 -118 -149 -276q-244 -265 -244 -310q0 -43 66 -55q14 0 82 -12l90 -54q14 -21 14 -38q0 -94 -35 -121q-10 -7 -106 -33q-74 -18 -74 -74q0 -31 51 -127q4 -7 23 -42.5t34 -65.5q68 -145 68 -295q0 -106 -43 -170q-49 -64 -164 -135q-28 -10 -225 -95q-2 -3 -11.5 -12 t-15.5 -14q-168 -33 -153 -35q-125 0 -125 129z" />
<glyph unicode="~" horiz-adv-x="1036" d="M35 1380q0 56 4 64q18 35 166 143q156 117 215 117q49 0 155 -74l107 -71q43 0 377 178q51 -12 51 -66q0 -31 -63 -100q-3 -19 -25 -51q-229 -179 -375 -179q-23 0 -115 68t-104 68q-30 0 -76 -27q-13 -9 -38.5 -26.5t-37.5 -26.5q-20 -14 -77 -92q-18 -27 -70 -27 q-24 0 -90 41v10q6 21 6 33q0 15 -10 18z" />
<glyph unicode="&#xa1;" horiz-adv-x="493" d="M43 -410q0 -3 25 25l2 2q18 330 190 991q5 13 31 39q26 23 39 23q22 -9 63 -21q43 -61 43 -112q0 -14 -41 -183q-40 -162 -37 -198q-39 -17 -39 -146q-4 -9 -14 -16q-3 -58 -37 -176q-30 -114 -30 -168q0 -35 8 -56q-13 -30 -56 -92q-43 -10 -40 -12q-14 0 -48 37 q-35 39 -59 63zM313 1055l15 30q10 23 10 43q0 3 -1 8.5t-1 8.5h84q14 0 72 -27q0 -1 0.5 -4t1.5 -9.5t2 -14.5q1 -7 2 -15.5t1.5 -13t0.5 -6.5l-12 -70q-1 -2 -1 -4l-26 -25q-14 -14 -29 -14q-41 0 -80 39q-39 36 -39 74z" />
<glyph unicode="&#xa2;" horiz-adv-x="894" d="M55 621q0 30 60 112q13 18 45 33l24 22q61 25 215 70q34 -3 95 16q25 22 98 162q11 19 4 33q82 94 123 94q3 0 26 -10q-3 -35 3 -41q28 -48 28 -49q-1 -3 -7.5 -28.5t-17 -67.5l-22.5 -90q27 -6 68 -39q28 -51 28 -78q-9 -9 -34 -49q-23 -29 -97 -29q-6 0 -8 2q-2 4 -8 4 q-59 0 -76 -33q-7 -18 -16 -86q22 -16 69 -16q3 0 58 6q53 6 55 6q41 0 41 -57q0 -35 -4 -43l-39 -55q-71 -45 -270 -60q-36 -39 -54 -112q-17 -85 -36 -121q14 -20 14 -37q0 -16 -37 -43t-53 -27q-42 0 -66 58q-18 44 -18 71q0 3 22 99q7 27 13.5 51.5t9 34t2.5 10.5 q0 35 -100 82q-44 19 -93 90q-45 65 -45 115zM293 604q14 -14 78 -33l24 52q0 17 -10 24q-63 -21 -92 -43z" />
<glyph unicode="&#xa3;" horiz-adv-x="1396" d="M49 272q0 93 31 129q159 164 319 164q17 0 35 -2q18 -4 31 -4q22 0 49 53q23 51 23 64q0 27 -35 33q-77 9 -109 14q-74 16 -96 47q-12 21 -12 80q0 69 20 92q10 0 51 10l24 4t18.5 3.5t7.5 1.5t8.5 -1t22.5 -2t32 -2q16 -1 30.5 -2t22 -1.5t8.5 -0.5q29 0 60.5 1t32.5 1 q10 17 73 207q13 41 113 248q22 51 57 82q36 36 166 96q24 12 125 12q57 0 180 -53q8 -3 19 -8t29 -13t32 -14q56 -24 56 -86q0 -35 -31 -77t-70 -48q-156 105 -233 105q-35 0 -88 -29t-64 -57q-28 -55 -76 -207q-39 -118 -39 -143q0 -49 58 -58q15 0 88 -8q31 -9 112 -43 q31 -12 31 -43q0 -5 -6 -35q-1 -8 -2 -17l-1.5 -13.5t-0.5 -6.5q-15 -3 -96 -30l-80 -27q-1 0 -10 0.5t-27.5 1.5t-38.5 2l-78 2q-48 3 -76 -80q-11 -35 -26 -92q-33 -39 -33 -51q0 -13 35 -43q33 -29 55 -51q102 -141 297 -141q34 0 135 36l99 37q51 0 51 -61 q0 -71 -41 -115q-28 -28 -133 -88q-62 -35 -158 -35q-16 0 -115 27q-109 30 -155 57q-109 86 -111 88q-37 37 -57 54q-27 -18 -158 -152q-74 -74 -170 -74q-211 0 -211 262zM248 254l12 -8q17 3 33 22q16 22 16 35q0 4 -2 6q-5 -2 -24.5 -13.5t-34.5 -19.5v-22z" />
<glyph unicode="&#xa5;" horiz-adv-x="1271" d="M53 549q0 6 15 33q16 29 16 30q4 0 72 6q79 7 80 7h55l74 -2h90q96 0 96 92q0 69 -33 110q-115 117 -340 373q-39 45 -39 94q0 74 39 119q34 -5 113 -35q36 -19 86 -69q173 -234 219 -234l184 121q10 15 17 29q217 182 407 315q12 10 53 10q95 0 95 -104q0 -65 -29 -84 q-230 -152 -395 -324q-10 -2 -45 -20q-3 -2 -13 -10t-28 -22.5t-37 -29.5q-41 -28 -57 -71q-21 -61 -21 -189q0 -49 70 -49q47 2 141 4l139 6q107 3 107 -53q0 -69 -78 -98q-210 -82 -285 -82q-10 0 -20 2q-12 4 -23 4q-39 0 -59 -20q-3 -14 5 -21.5t26 -7.5q2 0 19 1.5 t55.5 5.5t80.5 7l154 10q80 0 80 -63q-10 -25 -45 -78q-83 -38 -138 -57q-140 -19 -288 -55q-16 -3 -31 -41q-7 -14 -27 -64q-46 -18 -73 -45h-62q-33 112 -33 117q-2 9 -20 30q-34 -18 -121 -18q-93 0 -178 29q-43 105 -43 94q4 14 12 41q10 42 10 45q2 2 4.5 4t7 5l7.5 5 l190 4q81 3 174 23q2 6 -7 12t-27 10q-83 10 -330 13q-68 53 -68 135z" />
<glyph unicode="&#xa6;" horiz-adv-x="483" d="M53 111q-2 19 21 57q0 8 -11 65l9 13q10 12 16 20q24 94 37 152q4 44 14 96q19 33 31 72q44 20 84 20l23 -5q15 -2 34 -5q11 -9 49 -70q39 -59 39 -80q0 -3 -16 -22q-2 5 -21 -76l-40 -180q2 -17 -11 -51q-4 -32 -4 -78q-1 -3 -3 -7t-5.5 -9.5t-5.5 -10.5q0 -4 1 -17 t1 -20q0 -47 -10 -145q-8 -4 -25 -35q-6 -85 -6 -86q-6 -61 -57 -100q-38 17 -95 65q-10 41 -39 101q5 15 5 20q0 21 -15 43q18 15 0 273zM166 989l94 694q0 54 125 54q98 0 98 -234q-3 3 -12 -10q-4 -2 -4 -10q0 -12 8 -25v-14q0 -91 -35 -260q-13 -57 -10 -129 q-24 -39 -29 -80v-96q0 -39 -8 -66q-9 -9 -16 -27q-12 -84 -76 -84q-29 0 -70 56l-41 55q-24 89 -24 176z" />
<glyph unicode="&#xa7;" horiz-adv-x="1030" d="M57 1210q0 100 13 123q56 111 215 176q158 64 360 58l27 12q30 10 35 10l49 -12q131 -143 131 -174q0 -82 -66 -82q-1 0 -94 22q-88 23 -96 23q-160 0 -303 -53q-27 -27 -47 -45q64 -45 286 -72q48 -6 135 -47q31 -19 103 -70q2 -3 22 -55q27 -27 56 -72q20 -41 20 -106 q0 -77 -20 -113q-4 -7 -41 -39q-41 -38 -41 -39q36 -36 57 -61q107 -116 107 -258q0 -120 -129 -219q-122 -94 -267 -94q-133 0 -250 47q-161 62 -225 176q2 10 2 45q-6 10 -10.5 16t-7.5 8.5t-4 1.5q0 60 67 60q31 0 127 -45q18 -8 36.5 -16t34 -15.5t21.5 -9.5 q69 -22 113 -29q9 -2 23 -8q18 -10 26 -10q68 0 133 26q86 35 86 92q0 41 -65 103q-91 81 -248 123q-39 3 -88 14q-169 73 -203 100q-63 51 -63 148q0 77 10 100q2 7 31 64q18 34 18 43q0 7 -39 78q-37 73 -37 75zM281 905q0 -45 84 -69q20 -8 106 -27q39 -11 215 -70 q3 14 7 29.5t5.5 22t1.5 8.5q0 78 -84 135q-82 55 -196 55q-79 0 -94 -18q-45 -51 -45 -66z" />
<glyph unicode="&#xa8;" horiz-adv-x="659" d="M80 1516q0 64 53 108q57 -21 88 -35q76 -30 76 -71q0 -36 -31 -72q-33 -33 -76 -33q-42 0 -75 33q-35 30 -35 70zM530 1516q0 50 11 83h69q99 0 99 -124q0 -76 -72 -76q-107 0 -107 117z" />
<glyph unicode="&#xa9;" horiz-adv-x="1220" d="M45 608q0 82 33 217q37 61 61 99q5 4 20.5 15.5t24.5 18.5q62 86 193 140q109 31 223 69q37 11 135 11q269 0 398 -267q43 -87 43 -166q-21 -126 -21 -137q-12 -246 -295 -362q-43 -24 -125 -58q-90 -20 -151 -20q-127 0 -254 59q-134 58 -170 131q-44 51 -82 107 q-33 76 -33 143zM240 608q0 -100 88 -166q85 -65 221 -65q49 0 96 18q90 31 113 37q7 10 24 23q93 18 148 129q43 85 43 182q0 70 -41 166q-24 55 -211 55q-141 0 -279 -117q179 23 238 23q9 0 47 -23l49 -34q0 -10 8 -43q3 -10 5.5 -19t4 -13t1.5 -5q0 -25 -47 -43 q-13 -8 -43 -8q-2 0 -6.5 0.5t-13 1.5t-15.5 2q-20 2 -33 2q-21 0 -70 -17q-55 -24 -55 -57q0 -27 59 -27q7 0 95 15q88 12 92 12q12 0 37 -25q22 -25 22 -39q0 -151 -239 -151q-109 0 -185 49q-74 50 -74 123q0 210 115 256q-6 4 -18 8q-176 -99 -176 -250z" />
<glyph unicode="&#xaa;" horiz-adv-x="587" d="M35 1509q0 26 31 90q3 3 38 33q4 8 7 17q23 20 149 71q1 0 14 1t25 1q84 0 166 -55q2 -2 24 -37q-10 -24 -14 -49q0 -6 78 -72q78 -69 78 -84q0 -19 -33 -36q-32 -19 -59 -19h-60q-74 62 -108 62q-3 0 -88 -21q-79 -20 -88 -20q-44 0 -115 32q-45 17 -45 86zM207 1552 q0 -40 74 -22q51 12 51 37q0 40 -72 22q-53 -12 -53 -37z" />
<glyph unicode="&#xab;" horiz-adv-x="1554" d="M43 367q0 72 115 141q39 24 116 98l121 121q34 24 119 80q79 55 123 55q39 0 80 -33q39 -33 39 -69l-72 -121q-64 -14 -174 -94l-117 -117q-4 -8 -4 -22q0 -32 17 -35q73 -12 210 -105q148 -100 148 -157q0 -35 -51 -95q-13 2 -68 13q-219 94 -543 217q-21 6 -39 49 q-20 41 -20 74zM721 358q0 71 115 142q43 25 116 98l119 123q19 13 58 39t59 39q83 55 129 55q42 0 78 -33q37 -34 37 -67l-70 -123q-67 -17 -174 -92l-119 -117q0 -2 -1 -11t-1 -14q0 -32 16 -35q79 -12 211 -104q148 -103 148 -158q0 -37 -51 -94q-25 0 -68 12 q-290 123 -543 215q-22 11 -39 50q-20 41 -20 75z" />
<glyph unicode="&#xac;" horiz-adv-x="1789" d="M80 481q0 28 51 56q41 18 59 18l44 -9q19 -3 30 -5q29 -2 383 -2q7 0 80 12t80 12q-16 0 5 -6q15 -3 42 -8q47 -3 113 0l131 6q4 1 63 -8l56 -8q2 0 7.5 1t17.5 3l24 4q41 8 51 8q5 0 24 -8q5 -2 11.5 -4t10 -3t5.5 -1q1 0 5.5 1t14 3t19.5 4q33 8 41 8q10 0 115 -10 q6 -2 41 -17q28 -9 45 2q80 -115 80 -139q0 -3 -2.5 -12t-8 -30t-10.5 -42q-18 -64 -33 -121q-2 -2 -4.5 -5t-7 -9t-8.5 -10q0 -76 -99 -287q-15 -12 -71 -68q-7 -15 -15 -49q-6 -2 -31 -13t-46 -19q-9 5 -35 61q-23 50 -23 66q0 40 148 464q0 24 -33 27q-88 8 -182 8 q-12 0 -520 -10l-523 -12q-48 0 -96 51q-49 52 -49 100z" />
<glyph unicode="&#xad;" horiz-adv-x="770" d="M53 442q0 46 25 70.5t72 24.5q154 0 174 -5q52 -8 157 -8l29 6q36 0 86 -16q35 -41 35 -74q0 -26 -39 -43q-5 -5 -16.5 -16t-16.5 -16q-21 -21 -84 -15q-37 -10 -94 -18q-23 2 -135 2q-1 0 -135 16q-3 1 -9 4.5t-17.5 10.5t-21.5 12q-10 45 -10 65z" />
<glyph unicode="&#xae;" horiz-adv-x="1290" d="M74 623q0 52 35 245q18 18 22 23q2 12 19 45q49 64 217 147q7 3 21.5 10.5t21.5 10.5q6 0 10 -2q6 -2 12 -2q-8 0 3 4q9 3 34 10q192 55 236 55q1 -1 3 -2.5l6 -4.5t7 -5q158 12 272 -141q39 -45 68 -78q17 -34 26 -49q0 -1 13 -45q17 -14 67 -168v-51q0 -129 -65 -203 q-69 -78 -260 -176q-60 -29 -156 -29q-11 -2 -27 -4q-18 -2 -30 -2q-47 8 -60 8q-107 -9 -286 80q-61 30 -117 98q-53 72 -62 125q0 1 -16 51q-3 13 -7 25.5t-5.5 18t-1.5 6.5zM233 653q0 -35 9 -108q3 -7 10 -26.5t12 -31.5q162 -110 246 -110q8 0 14 2q3 1 6.5 2t5.5 1.5 t3 0.5q2 0 20 -6q15 -6 19 -6l45 10l45 12q139 12 325 180q19 25 19 86q0 82 -37 146q-26 31 -37 47q-54 156 -227 156q-81 0 -236 -58q-1 0 -5 1t-7 1l-12 4q-36 0 -103 -55q-70 -58 -84 -92q-31 -109 -31 -156zM399 688q10 10 13 14q-3 48 8 115q17 9 80 53q91 64 168 64 q83 0 137 -78q33 -47 33 -76q0 -3 -37 -55q-35 -53 -35 -57q0 -18 90 -64q-3 -17 8 -59q-33 -41 -86 -41q-81 0 -178 53q-13 13 -25 27q-16 -79 -20 -97q-4 -5 -20 -19.5t-25 -23.5q-23 14 -80 78q4 12 4 23q-29 80 -24 127l-4 6t-3.5 5t-2.5 3t-1 2zM557 709q0 -23 29 -17 q54 51 51 80q-80 -27 -80 -63z" />
<glyph unicode="&#xaf;" horiz-adv-x="927" d="M53 1608v30v31q0 2 1 4l1 -2q61 43 95 43q1 0 11.5 -1.5t36.5 -6t54 -8.5q89 -17 104 -17q10 0 35 5q20 2 35 2q6 0 145 -11q28 -2 199 -26q127 -19 131 -19q1 0 29 4q4 1 10 2l9 1.5t5 0.5q41 0 41 -34q0 10 -4 -15q-3 -20 -8 -61q-50 -12 -68 -47q-3 0 -10.5 -1 t-25.5 -4t-35 -5q-61 -9 -66 -9q-8 0 -55 -8q-44 -8 -55 -8q-64 0 -340 20l-105 -4q-170 -3 -170 144z" />
<glyph unicode="&#xb0;" horiz-adv-x="563" d="M51 1466q0 158 117 238q60 13 117 20q13 12 20 17q12 0 37 4q10 1 19.5 2t14.5 1.5t7 0.5q37 0 96 -27q58 -30 72 -55q29 -58 41 -84q10 -17 10 -59q0 -64 -10 -74q-127 -154 -223 -160q-4 -2 -13.5 -7t-13.5 -7q-28 -14 -29 -14q-116 0 -188 57q-74 56 -74 147z M219 1462q34 -18 66 -18q50 0 65 6q50 26 74 59q13 18 10 47q-48 25 -74 25q-20 0 -69 -27q-32 -19 -41 -59q-31 -15 -31 -12v-21z" />
<glyph unicode="&#xb1;" horiz-adv-x="782" d="M61 141q0 36 23 80q95 29 131 29l-6 -1q3 -1 27 -1q54 -4 94 -4q47 -2 176 -2q4 2 10 2q20 0 68 -25q57 -34 57 -67q0 -36 -94 -70q-172 -66 -283 -66h-104q-99 0 -99 125zM84 686q0 32 53 59q60 29 109 29q1 0 3 -0.5t7 -1.5l10 -2q20 -4 21 -4q19 0 80 108 q62 109 84 109q31 0 75 -53q4 -37 9 -78q6 -47 45 -47q16 0 84 8q71 8 86 8q31 0 59 -28q29 -32 29 -52q0 -11 -17 -45q-20 -33 -28 -37q-104 -55 -193 -55q-4 0 -12 4t-13 4q-58 0 -79 -30q-14 -45 -25 -105q-4 -8 -13 -28t-20 -42t-22 -45h-80q-31 55 -37 101q0 15 -6 86 q-26 23 -98 26q-111 3 -111 111z" />
<glyph unicode="&#xb2;" horiz-adv-x="1017" d="M63 985q3 5 13 19q28 28 78 59q12 9 22 29q33 11 64 47q47 12 116 75q14 14 9 25q15 0 41 33q2 0 8 16q4 2 8 4.5t10 7l10 7.5q23 26 109 159q55 88 55 107q0 26 -55 26q-62 0 -158 -47q-13 0 -98 -61q-89 -59 -100 -59q-50 0 -84 63q-15 30 -15 47q0 23 94 86 q84 56 123 68q107 43 183 43q22 0 47 2l43 2q36 0 76 -21q25 -19 38 -26q13 -22 39 -45q29 -43 29 -70q0 -6 -4 -14q-6 -15 -4 -19q-6 0 -15 -6q5 -36 -36 -108q-15 -42 -58 -93q0 -9 -37 -61q-39 -48 -39 -57q-46 -39 -102 -109q0 -4 4 -6q-9 0 -22 -10h20q24 0 29 10 q62 17 182 45q55 3 145 37q3 0 41 10t39 10t5 -1t8 -1q2 -1 5 -2l4.5 -1.5t2.5 -0.5q59 0 100 23q15 -8 56 -37q-10 -26 -50 -84q-15 -3 -96 -21q2 -2 21 -2q-14 -5 -80 -16q-3 -20 -101 -41q-63 0 -63 -10l6 -6q-86 -25 -174 -39l-4 -4q0 -4 10 -4q-13 -8 -51 -21 q-54 -6 -76 -10l-4 -4q0 -2 2 -4q-5 3 -20 -6q10 -5 10 -11q-13 -2 -33 -4t-39 -2v-4q0 -6 10 -6l-186 -12q-111 -9 -111 106z" />
<glyph unicode="&#xb3;" horiz-adv-x="858" d="M59 1487q0 32 11 72q43 43 137 57q29 5 205 31q30 12 39 12q138 0 221 -45q25 -11 45 -70q31 -85 31 -100q0 -28 -52 -92q-14 -21 -67 -90q37 -23 94 -72q29 -42 35 -72q0 -4 6 -31t6 -32q0 -103 -268 -211q-232 -90 -328 -90q-11 0 -61 20v70q49 30 229 108 q122 54 217 133q-58 43 -160 43q-4 0 -12 -4q-2 -1 -5 -2l-4.5 -1.5t-2.5 -0.5q-46 0 -105 35q-30 18 -30 62q0 45 16 61q7 3 109 41q15 15 45 35q84 41 135 110q-13 23 -70 23q-37 0 -184 -39l-144 -39q-88 0 -88 78z" />
<glyph unicode="&#xb4;" horiz-adv-x="604" d="M35 1450q0 5 6 29q1 8 2 15l1.5 10.5t0.5 4.5q69 32 250 105q27 19 43 26q206 99 246 99q15 0 39 -15q24 -12 24 -26q0 -48 -211 -168q-56 -21 -76 -29q-200 -123 -245 -123q-80 0 -80 72z" />
<glyph unicode="&#xb5;" horiz-adv-x="2490" d="M43 549q0 46 51 55q184 27 234 27l24 -4q5 -1 11.5 -2t10 -1.5t5.5 -0.5q45 0 86 20q3 59 -4 80q-35 93 -35 233q0 143 20 277q6 36 58 160q33 50 55 102q90 100 178 139q17 3 121 31q98 39 209 39q154 0 291 -70q108 -57 168 -129q78 -93 78 -143v-68q-21 -18 -41 -18 q-9 0 -125 84q-155 117 -201 133l-139 10q-62 6 -66 6q-8 0 -24 -8l-25 -14q-360 -67 -360 -553q0 -287 73 -287q8 0 84 21q22 5 42 10t28.5 7.5t9.5 2.5q9 0 21 -6l8 -2l6 -1.5t4 -0.5q40 0 381 63q105 3 139 7q98 14 144 67q21 148 53 272q50 219 227 355q58 46 232 108 q128 49 170 49q168 0 233 -83q22 -35 43 -105q27 -90 31 -82q0 -18 -15 -24q31 -12 31 -50q0 -175 -276 -354q-90 -63 -340 -147q-41 -12 -119 -39q-61 -27 -61 -92q0 -31 12 -74q18 -55 39 -55q1 0 6 1t15.5 3t23.5 4q39 8 51 8q3 0 467 -35q59 -47 59 -86q0 -14 -22 -33 q-22 -16 -43 -16q-3 0 -23 4q-4 1 -8.5 2t-7 1.5t-4.5 0.5q5 0 -6 -4q-17 -6 -60 -18q-135 0 -198 -2q-108 -3 -181 -54q3 -17 27 -110q20 -84 20 -92q0 -13 -61 -68q-12 35 -59 35q-21 0 -33 -8q0 1 -8.5 13.5t-25 40t-34.5 60.5q-50 83 -100 119q-48 -33 -86 -33l-66 -16 q-127 -35 -127 104q0 21 9 62q12 56 34 72q27 9 121 12q68 0 90 28q-14 56 -45 142h-22q-161 -44 -496 -119q-42 0 -112 -12q-173 -62 -173 -103q0 -5 21 -32q5 -7 10.5 -14.5t7.5 -10.5t2 -4q33 -122 33 -156q0 -90 -71 -90q-15 0 -52 29q-33 26 -51 59q-19 42 -35 92 q-11 11 -41 58q0 32 -14 78q-23 9 -56 20l-30 12q-9 0 -150 -12l-149 -14q-7 0 -96 28q0 4 -17 60zM1790 909q0 -37 14 -45q148 35 338 137q264 141 264 271q0 48 -30 86q-33 39 -82 39q-4 0 -60 -15q-16 -4 -31 -8t-23.5 -5.5t-10.5 -2.5q-90 -9 -225 -111 q-50 -38 -101 -155q-53 -118 -53 -191z" />
<glyph unicode="&#xb6;" horiz-adv-x="1187" d="M74 934q0 125 61 192q61 70 250 156q14 7 133 45q104 35 119 35q3 0 27 -6q6 -1 11.5 -2t8.5 -1.5t4 -0.5q1 1 4 2.5t9 5t12 6.5q124 31 172 31q8 0 106 -8q2 -1 53 -33q0 -8 3 -23q18 -15 36 -39q7 -75 7 -215q-4 -176 -7 -219l-6 -108q-7 -163 -14 -539 q-3 -194 -16 -213q-35 -18 -70 -18q-55 0 -55 49q-6 234 8 612l12 373q6 145 -10 201q-6 28 -47 28q-20 0 -33 -16q0 -9 2 -21q2 -14 2 -22v-154q0 4 -2 -2q-5 -14 -16 -65q0 -76 -2 -107q-4 -55 -12.5 -154.5t-22 -260.5t-25.5 -302q-27 -30 -74 -30q-45 0 -51 249l2 -33 q2 32 2 298q0 26 2 63q1 16 2 31.5t2 24.5t1 12l-13 10l-24 -16q-198 -19 -250 -19q-127 0 -213 57q-88 58 -88 146zM471 909q0 -32 78 -32q18 2 51 4q14 1 29.5 2t23.5 1.5t11 0.5q30 15 30 45v51q1 4 4.5 31.5t6.5 52.5l6 57q0 12 -21 82h-35q-42 0 -116 -41 q0 -12 -35 -102q-33 -82 -33 -152z" />
<glyph unicode="&#xb7;" horiz-adv-x="464" d="M88 389q0 143 76 164h86q74 -44 74 -113q0 -60 16 -65q-51 -70 -125 -70q-127 0 -127 84z" />
<glyph unicode="&#xb8;" horiz-adv-x="686" d="M2 -489q0 87 109 114q22 0 182 8q30 10 78 21q103 15 155 49q-58 37 -88 37q-1 0 -8 -0.5t-20.5 -1.5t-28.5 -2q-53 -6 -55 -6q-57 0 -95 41q-10 24 -26 51q10 3 10 31q0 36 10 59l29 57q6 33 37 97q8 3 74 18q53 -50 59 -131q-4 -8 -4 -43q8 2 51 -2q119 -41 158 -60 q84 -47 90 -110q0 -4 8 -17t8 -18q0 -12 -45 -92q-38 -69 -121 -92q-9 -4 -145 -31q-150 -29 -139 -31q-5 2 -11 2q-8 2 -18 2q-3 0 -92 -12q-83 -14 -94 -14q-26 0 -47 24t-21 52z" />
<glyph unicode="&#xb9;" horiz-adv-x="350" d="M98 948v158q0 18 58 143l43 150q27 92 67 104q5 -2 25.5 -9.5t36.5 -12.5q47 -74 47 -88q0 -5 -74 -209q0 -25 -4 -45q-33 -80 -47 -121q-3 -31 -35 -111q-18 -7 -39 -28q-21 7 -47 30q-31 28 -31 39z" />
<glyph unicode="&#xba;" horiz-adv-x="614" d="M74 1552q6 34 30 93q23 29 156 77q10 -2 43 -2q50 8 47 11q52 0 172 -54q18 -18 23 -22q22 0 49 -17q65 -53 65 -100q0 -46 -34 -92q-36 -48 -80 -57q-9 -7 -23 -15q-20 -14 -26 -14t-58 -6q-47 -8 -57 -8q-65 0 -152 34q-23 10 -82 50q-10 19 -43 61q-3 23 -30 61z M295 1540q33 -33 90 -33q-6 0 16 6q18 5 58 15q-53 47 -123 47q-26 0 -41 -12v-23z" />
<glyph unicode="&#xbb;" horiz-adv-x="1449" d="M-2 76q0 58 147 157q136 92 211 107q15 3 15 35q0 16 -2 20q-37 46 -119 117q-87 78 -172 94l-72 121q0 36 37 70q40 32 80 32q55 0 125 -55q46 -27 119 -78q77 -86 237 -219q115 -71 115 -145q0 -21 -21 -72q-17 -42 -39 -49q-310 -117 -544 -217q-16 0 -68 -10 q-49 55 -49 92zM674 84q0 58 147 160q133 89 211 104q17 3 17 35q0 16 -2 20q-41 47 -117 117q-103 78 -174 94l-72 121q0 36 37 70q36 33 80 33q54 0 125 -56q48 -28 121 -77q81 -90 233 -222q113 -70 113 -141q0 -31 -19 -74q-17 -42 -39 -49q-310 -117 -540 -219 q-31 0 -70 -8q-51 54 -51 92z" />
<glyph unicode="&#xbc;" horiz-adv-x="1388" d="M20 186q0 84 156 287q60 68 121 143l53 62q8 9 22.5 26t40 47t48.5 56l422 487q9 14 53 76q63 59 96 96q211 217 246 217q41 0 68 -34q28 -32 28 -76q0 -10 -102 -121q-148 -160 -191 -215q-21 -24 -49 -68q-16 -18 -79.5 -90.5t-139.5 -160t-158 -183.5q-8 -10 -24 -29 t-41.5 -49.5t-48.5 -58.5q-7 -5 -17 -13.5t-26.5 -22t-28.5 -23.5q-8 -10 -90 -115q-9 -3 -33 -55q0 -23 -2 -33q-5 -24 -45 -64q-4 -16 -6 -26q-18 -58 -78 -109q-19 -16 -80 -16q-11 11 -51 33q-1 0 -37 -4q-9 6 -16 6q-11 29 -11 30zM111 827v197q0 113 34 274 q-6 18 -6 37t11 56q21 53 55 53q110 0 110 -164q0 -180 -41 -385q-10 -13 -34 -64q-5 -33 -31 -86q-2 -2 -14 -10q-2 0 -6.5 1t-13 3t-15.5 4q-49 70 -49 84zM702 446q0 72 37 156q46 107 117 107q22 0 64 -45q6 -52 34 -138q8 -4 76 -4q72 0 80 4q15 11 72 111q-4 12 -4 22 q43 84 112 183q6 2 31 2q106 0 106 -121q0 -8 -71 -168q-85 -183 -115 -260q0 -25 -24 -107q-14 -22 -27 -55q-7 -14 -23 -92q-53 -35 -77 -35q-62 0 -68 43v-1v-1v1v1v1v1v1v1v1v1v1v1v1v1v1v1v1v1v1v1v1v1v1v1v1v1v1v1v1v1v1v1v1v1v1v1v1v1v1v1v1v1v1v1v1v1v1v1v1v1v1v1v1 v1v1v1v1v9q0 17 22 174q1 9 2 22t2 22t1 15q0 21 -19 37q-159 -27 -235 -27q-9 0 -82 49q-8 46 -11 43z" />
<glyph unicode="&#xbd;" horiz-adv-x="1771" d="M78 57q0 31 137 211q20 12 33 25q131 179 356 444q8 10 23 27.5t42 47.5t48 54q43 80 157 226q0 3 2 12t3 14q21 9 45 56q20 41 30 51q77 91 138 190l82 127l26 64l6 4q6 5 11 10q41 111 96 111q31 0 61 -37q33 -41 33 -68q0 -52 -18 -82q-42 -55 -156 -231q0 -8 -10 -31 q-21 -29 -162 -238q-42 -42 -90 -133q-90 -102 -135 -157q-4 -8 -14 -29.5t-17 -36.5q-31 -19 -84 -63q-28 -52 -98 -170q4 -4 22 -4q34 0 119 36q10 4 27 11.5t45 19t51 21.5q172 65 284 65q55 0 84 -20q56 -44 56 -70q0 -69 -54 -166q-2 -5 -55 -100v-37q7 0 244 37 t285 37q77 0 77 -62q0 -58 -204 -119q-123 -39 -258 -63q-38 -6 -89 -18q-58 -17 -67 -17l-27 4q-16 2 -37 2l-24 -6q-24 -6 -29 -6q-2 0 -14 6q-9 6 -12 6h-80q0 21 6 27q-90 24 -90 84q0 82 24 106q42 49 142 160v17q-4 4 -19 4q-45 0 -143 -43q-33 -16 -64 -30.5 t-45.5 -21t-17.5 -8.5q-80 -41 -209 -129q-147 -106 -207 -135q4 -4 -2 -12q-91 -76 -152 -76q-32 0 -86 45q-26 20 -26 57zM205 834v159q0 14 59 144l43 149q27 93 68 105q3 -2 61 -23q45 -74 45 -90q0 -5 -71 -209q-5 -25 -7 -43q-27 -66 -43 -123t-38 -110 q-17 -7 -37 -27q-16 3 -49 29q-31 28 -31 39z" />
<glyph unicode="&#xbe;" horiz-adv-x="1867" d="M39 1399q0 30 10 71q10 13 25 19q94 31 319 72q27 12 37 12q136 0 221 -45q24 -12 45 -70q33 -87 33 -100q0 -28 -51 -94q-11 -16 -72 -90q32 -17 96 -74q31 -38 37 -70q0 -4 6 -31q2 -7 3.5 -14.5t2.5 -11t1 -4.5q0 -103 -271 -211q-224 -90 -329 -90q-24 6 -58 20v70 q51 30 230 108q133 60 215 131q-55 43 -158 43q-2 0 -14 -4q-6 -2 -13 -2q-46 0 -102 33q-31 19 -31 63q0 43 17 60q8 8 106 41q36 30 45 37q85 37 137 110q-12 21 -69 21q-48 0 -187 -39t-145 -39q-86 0 -86 78zM283 129q0 90 84 186q227 251 344 363l280 280 q169 177 455 447q124 118 289 242q55 41 114 41q87 0 78 -138q-193 -113 -647 -573l-137 -137q-109 -84 -320 -308q-16 -13 -54 -46.5t-52 -45.5q-5 -7 -22.5 -29t-54 -67t-73.5 -92q-39 -55 -127 -189q-19 0 -26 7l-21 -7q-18 -6 -24 -6q-15 0 -52 29q-34 27 -34 43z M1139 530q0 83 53 183q46 89 117 153q12 8 80 11q16 -16 28 -31q27 -40 27 -86q0 -31 -35 -74q-38 -53 -41 -68q2 -4 23 -4q90 0 192 41l55 56q0 6 4 26q24 21 48 70q21 46 65 67q4 0 13.5 1.5t15.5 1.5q84 0 84 -142q-3 -4 -9.5 -16.5t-21 -38t-27.5 -49.5 q-45 -83 -81 -158q0 -12 -11 -41q-51 -91 -106 -295q-40 -145 -94 -145q-82 0 -82 104q0 87 32 201q43 166 52 166v-6q0 7 -13 20h-22q-15 -9 -45 -18q-39 -4 -76.5 -8.5t-53.5 -6.5t-18 -2q-74 0 -151 56q-2 10 -2 32z" />
<glyph unicode="&#xbf;" horiz-adv-x="1118" d="M6 -83v-1q0 9 17 33q-12 34 16 88q95 173 346 258q61 23 420 102q12 3 31 19q15 37 38 123q0 83 25 272q4 14 31 90q8 22 -4 64q16 16 28 26q138 0 138 -129q-16 -49 -25 -92q-6 -158 -49 -395q3 -45 -25 -139q-21 -41 -80 -41q-6 0 -12 4q-6 2 -14 2q-3 0 -10 -2 t-22.5 -6t-29.5 -7q-48 -3 -139 -18q-40 -14 -125.5 -41.5t-126.5 -40.5q-10 -6 -52 -29.5t-65 -38.5q-104 -68 -104 -118q0 -95 305 -95l68 -4q41 -2 69 -2l394 23q37 3 108 -41q-13 -25 -20 -66q-63 -47 -111 -65q-118 -45 -184 -45h-254q-401 0 -568 176l-6 72zM961 1294 q0 6 14 41q16 40 16 43q25 25 41 25q12 0 105 -19q57 -15 57 -63q0 -33 -43 -76t-78 -43q-27 0 -69 33q-43 37 -43 59z" />
<glyph unicode="&#xc0;" horiz-adv-x="1212" d="M25 135q0 64 10 84q58 61 151 197q4 4 4 12q0 -8 -3 3q-5 15 -13 61q-6 40 21 61q20 14 75 33q71 28 90 63q4 2 84 135q13 12 66 68q98 167 295 473q4 24 14 53l133 224q0 5 4 45l70 96l29 12q87 0 137 -153q1 -1 6 -16t19 -58t28 -84q48 -158 64 -217q42 -255 69 -369 q30 -129 129 -360q2 -3 17.5 -28t29.5 -48q35 -52 35 -76q0 -80 -96 -80h-80q-6 0 -61 37q-47 32 -72 45q-127 51 -244 74q-276 55 -450 55q-21 0 -35 -14l-21 14q-82 -3 -153 -147q-29 -32 -72 -90q0 -1 -14 -54q-7 -17 -37 -65q-42 -33 -121 -103q-59 37 -72 45 q-36 26 -36 72zM489 1673q0 44 8 57t31 13q10 0 36 -8.5t46 -17.5l21 -9l246 -111q145 -65 219 -104q28 -39 28 -59q0 -30 -28 -78q-251 66 -596 248q-11 7 -11 69zM606 670q5 -5 170 -29q98 -7 340 -37q59 -26 88 -26h37q10 17 10 24q0 4 -24 53q-25 52 -25 54 q-60 281 -76 366q-6 9 -14 17q0 55 -4 96q-5 31 -21 98q-12 54 -59 92q-39 -51 -102 -198q-6 -29 -39 -62l-51 -55q-35 -68 -127 -225q-23 -18 -39 -39q-7 -21 -64 -129z" />
<glyph unicode="&#xc1;" horiz-adv-x="1193" d="M25 135q0 64 10 84q58 61 151 197q4 4 4 12q0 -8 -3 3q-5 15 -13 61q-6 40 21 61q20 14 75 33q71 28 90 63q4 2 84 135q13 12 66 68q98 167 295 473q4 24 14 53l133 224q0 5 4 45l70 96l29 12q87 0 137 -153q1 -1 6 -16t19 -58t28 -84q48 -158 64 -217q42 -255 69 -369 q30 -129 129 -360q2 -3 17.5 -28t29.5 -48q35 -52 35 -76q0 -80 -96 -80h-80q-6 0 -61 37q-47 32 -72 45q-127 51 -244 74q-276 55 -450 55q-21 0 -35 -14l-21 14q-82 -3 -153 -147q-29 -32 -72 -90q0 -1 -14 -54q-7 -17 -37 -65q-42 -33 -121 -103q-59 37 -72 45 q-36 26 -36 72zM469 1438q0 4 6 28q1 8 2 15.5t1.5 11t0.5 4.5q69 32 250 105q27 19 43 26q203 98 246 98q17 0 39 -14q24 -12 24 -26q0 -48 -211 -168q-40 -15 -75 -29q-199 -123 -246 -123q-80 0 -80 72zM606 670q5 -5 170 -29q98 -7 340 -37q59 -26 88 -26h37 q10 17 10 24q0 4 -24 53q-25 52 -25 54q-60 281 -76 366q-6 9 -14 17q0 55 -4 96q-5 31 -21 98q-12 54 -59 92q-39 -51 -102 -198q-6 -29 -39 -62l-51 -55q-35 -68 -127 -225q-23 -18 -39 -39q-7 -21 -64 -129z" />
<glyph unicode="&#xc2;" horiz-adv-x="1243" d="M25 135q0 64 10 84q58 61 151 197q4 4 4 12q0 -8 -3 3q-5 15 -13 61q-6 40 21 61q20 14 75 33q71 28 90 63q4 2 84 135q13 12 66 68q98 167 295 473q4 24 14 53l133 224q0 5 4 45l70 96l29 12q87 0 137 -153q1 -1 6 -16t19 -58t28 -84q48 -158 64 -217q42 -255 69 -369 q30 -129 129 -360q2 -3 17.5 -28t29.5 -48q35 -52 35 -76q0 -80 -96 -80h-80q-6 0 -61 37q-47 32 -72 45q-127 51 -244 74q-276 55 -450 55q-21 0 -35 -14l-21 14q-82 -3 -153 -147q-29 -32 -72 -90q0 -1 -14 -54q-7 -17 -37 -65q-42 -33 -121 -103q-59 37 -72 45 q-36 26 -36 72zM412 1473q66 15 180 110l180 148q33 3 113 -35q84 -43 104 -68q87 -60 160 -115q106 -78 106 -151q0 -53 -67 -53q-2 0 -6 0.5l-12 1.5t-15 2q-30 6 -33 6q-16 0 -147 104q-135 105 -148 105q-32 0 -55 -23q-20 -27 -29 -37q-68 -53 -141 -104 q-17 -12 -88 -12q-54 0 -78 43q-15 41 -24 78zM606 670q5 -5 170 -29q98 -7 340 -37q59 -26 88 -26h37q10 17 10 24q0 4 -24 53q-25 52 -25 54q-60 281 -76 366q-6 9 -14 17q0 55 -4 96q-5 31 -21 98q-12 54 -59 92q-39 -51 -102 -198q-6 -29 -39 -62l-51 -55 q-35 -68 -127 -225q-23 -18 -39 -39q-7 -21 -64 -129z" />
<glyph unicode="&#xc3;" horiz-adv-x="1222" d="M25 135q0 64 10 84q58 61 151 197q4 4 4 12q0 -8 -3 3q-5 15 -13 61q-6 40 21 61q20 14 75 33q71 28 90 63q4 2 84 135q13 12 66 68q98 167 295 473q4 24 14 53l133 224q0 5 4 45l70 96l29 12q87 0 137 -153q1 -1 6 -16t19 -58t28 -84q48 -158 64 -217q42 -255 69 -369 q30 -129 129 -360q2 -3 17.5 -28t29.5 -48q35 -52 35 -76q0 -80 -96 -80h-80q-6 0 -61 37q-47 32 -72 45q-127 51 -244 74q-276 55 -450 55q-21 0 -35 -14l-21 14q-82 -3 -153 -147q-29 -32 -72 -90q0 -1 -14 -54q-7 -17 -37 -65q-42 -33 -121 -103q-59 37 -72 45 q-36 26 -36 72zM362 1505q0 5 17 19l14 14q36 52 191 170q2 0 8 1t10 1q42 29 80 29q93 0 180 -78q101 -88 133 -88q38 0 203 80q165 82 156 82q2 0 5.5 -1.5t10 -3.5t12.5 -4v-40q0 -16 -39 -41q0 -26 -4 -46q-232 -180 -348 -180q-44 0 -174 86t-117 86q-28 0 -141 -98 l-113 -96q-1 0 -4.5 0.5t-10 1.5t-13.5 2q-6 1 -12.5 2t-10 1.5t-4.5 0.5q-29 73 -29 100zM606 670q5 -5 170 -29q98 -7 340 -37q59 -26 88 -26h37q10 17 10 24q0 4 -24 53q-25 52 -25 54q-60 281 -76 366q-6 9 -14 17q0 55 -4 96q-5 31 -21 98q-12 54 -59 92 q-39 -51 -102 -198q-6 -29 -39 -62l-51 -55q-35 -68 -127 -225q-23 -18 -39 -39q-7 -21 -64 -129z" />
<glyph unicode="&#xc4;" horiz-adv-x="1193" d="M25 135q0 64 10 84q58 61 151 197q4 4 4 12q0 -8 -3 3q-5 15 -13 61q-6 40 21 61q20 14 75 33q71 28 90 63q4 2 84 135q13 12 66 68q98 167 295 473q4 24 14 53l133 224q0 5 4 45l70 96l29 12q87 0 137 -153q1 -1 6 -16t19 -58t28 -84q48 -158 64 -217q42 -255 69 -369 q30 -129 129 -360q2 -3 17.5 -28t29.5 -48q35 -52 35 -76q0 -80 -96 -80h-80q-6 0 -61 37q-47 32 -72 45q-127 51 -244 74q-276 55 -450 55q-21 0 -35 -14l-21 14q-82 -3 -153 -147q-29 -32 -72 -90q0 -1 -14 -54q-7 -17 -37 -65q-42 -33 -121 -103q-59 37 -72 45 q-36 26 -36 72zM469 1587q0 65 53 109q57 -21 88 -35q76 -30 76 -72q0 -35 -31 -71q-33 -33 -75 -33q-43 0 -76 33q-35 30 -35 69zM606 670q5 -5 170 -29q98 -7 340 -37q59 -26 88 -26h37q10 17 10 24q0 4 -24 53q-25 52 -25 54q-60 281 -76 366q-6 9 -14 17q0 55 -4 96 q-5 31 -21 98q-12 54 -59 92q-39 -51 -102 -198q-6 -29 -39 -62l-51 -55q-35 -68 -127 -225q-23 -18 -39 -39q-7 -21 -64 -129zM920 1587q0 54 10 84h69q99 0 99 -125q0 -76 -72 -76q-106 0 -106 117z" />
<glyph unicode="&#xc5;" horiz-adv-x="1212" d="M25 135q0 64 10 84q58 61 151 197q4 4 4 12q0 -8 -3 3q-5 15 -13 61q-6 40 21 61q20 14 75 33q71 28 90 63q4 2 84 135q13 12 66 68q98 167 295 473q4 24 14 53l133 224q0 5 4 45l70 96l29 12q87 0 137 -153q1 -1 6 -16t19 -58t28 -84q48 -158 64 -217q42 -255 69 -369 q30 -129 129 -360q2 -3 17.5 -28t29.5 -48q35 -52 35 -76q0 -80 -96 -80h-80q-6 0 -61 37q-47 32 -72 45q-127 51 -244 74q-276 55 -450 55q-21 0 -35 -14l-21 14q-82 -3 -153 -147q-29 -32 -72 -90q0 -1 -14 -54q-7 -17 -37 -65q-42 -33 -121 -103q-59 37 -72 45 q-36 26 -36 72zM567 1858q18 111 15 141q-6 47 110 123q74 47 215 47q51 0 140 -27q39 -14 120 -69q45 -116 45 -138q0 -45 -18 -98q-9 -30 -72 -84q-3 -1 -40 -17t-64 -26q-87 -35 -170 -35q-81 0 -172 49q-109 56 -109 134zM606 670q5 -5 170 -29q98 -7 340 -37 q59 -26 88 -26h37q10 17 10 24q0 4 -24 53q-25 52 -25 54q-60 281 -76 366q-6 9 -14 17q0 55 -4 96q-5 31 -21 98q-12 54 -59 92q-39 -51 -102 -198q-6 -29 -39 -62l-51 -55q-35 -68 -127 -225q-23 -18 -39 -39q-7 -21 -64 -129zM727 1880q4 -2 21.5 -13.5t29.5 -17.5 q13 -8 64 -8t116 19q99 27 99 79q0 51 -191 72q-20 -2 -49 -2q-3 -3 -29 -16q-61 -55 -61 -86v-27z" />
<glyph unicode="&#xc6;" horiz-adv-x="1914" d="M45 106q0 39 39 87q54 65 70 98q47 89 102 149q85 91 131 148q17 21 116.5 147.5t188.5 233.5q18 21 51 57.5t90.5 100t104.5 116.5q16 21 156 223q22 34 55 41q122 19 283 33q12 2 297 2q176 0 176 -67q0 -87 -211 -105q-19 -2 -50.5 -4t-84.5 -5.5t-97 -6.5 q-179 -15 -250 -74q18 -75 35 -129q0 -5 -12 -14q8 -76 16 -179l11 -120q12 -127 41 -127q3 0 165 26l29 21q46 5 174 24q117 19 121 19q131 0 131 -84q0 -42 -59 -60q-91 -28 -391 -112q-80 -16 -191 -58q-10 -83 -10 -125q0 -109 55 -118l465 71q14 9 20 9q23 0 54 -25 q28 -22 28 -39q0 -78 -280 -158q-232 -67 -332 -67q-188 0 -188 168q0 34 10 92q-2 29 -23 145q-12 15 -26 15q-9 0 -185 -21l-184 -20h-8q-8 1 -24.5 2t-35.5 2t-35.5 2t-24.5 2h-7q-31 0 -80 -55q-24 -21 -59 -56q-10 -14 -49.5 -70t-69.5 -100q-100 -139 -141 -139h-68 q-39 79 -39 104zM700 631h154q3 3 47 12q81 9 180 45q0 3 -4 39l-4 27v202q0 46 -31 103q-37 -25 -192 -207q-150 -172 -150 -188v-33z" />
<glyph unicode="&#xc7;" horiz-adv-x="1839" d="M35 590q0 65 59 201q29 63 152 174q163 153 305 219q446 203 704 256q4 2 74 26q181 25 318 45q1 0 6.5 2t18 6.5t26.5 8.5q43 14 51 14q54 0 100 -37q45 -36 45 -80q0 -23 -22 -65q-19 -16 -55 -33q-100 -4 -242 -22q-36 -16 -113 -35q-32 -8 -124 -29.5t-152 -36.5 q-197 -47 -600 -272q-47 -24 -121 -70q-110 -68 -176 -213q-10 -20 -10 -110q0 -100 116 -179q104 -75 226 -96q5 0 79 -18q68 -19 74 -19l55 4q49 5 82 5q10 0 66 -9q49 -8 59 -8q29 4 88 12q88 15 113 15l821 53q38 3 47 -33l1 -8q0 -7 1 -23.5t2 -35.5q-27 -21 -49 -33 q-360 -107 -506 -107q-1 0 -4.5 1t-11 2.5t-14.5 3.5q-6 2 -13.5 4t-11.5 3t-6 1q-1 0 -5 -2t-13.5 -6t-20.5 -7q-32 -14 -41 -14q-128 -5 -276 -14q-41 -13 -50 -13q-6 0 -18 9l-20 8q-8 0 -35 -12q-7 -2 -15 -5t-11.5 -4.5t-4.5 -1.5q-8 -2 -88 -2q-90 0 -207 27 q-151 32 -201 41q-56 9 -53 47q-96 39 -133 65q-145 109 -244 273q0 29 -6 82q-12 54 -15 50q-1 -1 -1 -5zM586 -508q0 89 108 115q23 0 183 8q23 8 77 20q102 15 156 50q-56 36 -88 36q-1 0 -8 -0.5t-20.5 -1.5t-28.5 -2q-53 -6 -56 -6q-56 0 -94 41q-8 19 -27 51 q11 4 11 31q0 37 10 60l29 57q6 35 36 96q18 6 74 19q54 -51 60 -132q-4 -8 -4 -43q8 2 51 -2q123 -43 157 -59q85 -48 91 -111q0 -3 8 -16t8 -18q0 -13 -45 -93q-38 -69 -121 -92q-5 -3 -145 -30q-152 -29 -140 -31q-4 2 -10 2q-8 2 -18 2q-4 0 -92 -12q-88 -15 -95 -15 q-25 0 -47 25q-20 23 -20 51z" />
<glyph unicode="&#xc8;" horiz-adv-x="1406" d="M45 106q0 6 43 136q56 163 66 200l51 185q0 -4 -10.5 10.5t-34.5 52.5q0 16 -21 74q45 26 127 98q16 19 74 236q-1 -7 -2 4v43l12 14q15 15 15 25q0 20 -43 41q-39 20 -70 20q-21 82 -21 101q0 49 60 71q124 45 301 45q4 0 12 -4q6 -4 10 -4q13 0 33 10q8 3 15 5.5t10 4 t4 1.5q101 4 641 34l401 25q23 3 166 -55q6 -2 72 -2q39 -3 61 -25q-66 -29 -98 -29q17 0 -5 -6q-17 -4 -50 -10q7 1 -2 2q-17 2 -74 2l-27 -10q-19 -8 -28 -8q-95 -6 -224 -27l-282 -41q-1 0 -17 4q-4 1 -8.5 2t-7 1.5t-4.5 0.5q10 0 -113 -20.5l-465 -77.5 q-80 -100 -110 -350q44 -21 90 -21q2 0 5.5 1t10 3t13.5 4q24 9 28 9t25 -7q18 -6 20 -6q110 0 490 11l309 10q45 0 51 -21q2 -12 7.5 -36.5t7.5 -38.5q-52 -37 -220 -78q-129 -35 -397 -35q-168 0 -481 -43q-34 -6 -45 -47l-10 -51q-70 -174 -70 -234v-45q5 -1 15.5 -4 t15.5 -4l770 104q11 0 135 9h16l115 8q9 0 33 -15q12 -2 147 -2q1 0 8 1.5t20.5 3.5t28.5 4l54 8q62 0 133 -29q18 -68 21 -63q1 1 1 4q0 -31 -41 -66q-39 -33 -75 -33q-1 0 -4 0.5l-9 1.5l-12 2q-18 5 -27 5q-3 0 -47 -15q-13 -3 -25.5 -7t-18 -5.5t-7.5 -1.5l-420 -37 q-103 -9 -497 -70l-316 -49q-25 0 -147 29q-110 29 -146 29zM471 1589q0 44 8 57t31 13q10 0 35.5 -8.5t46.5 -17.5l20 -9l246 -111q145 -65 219 -104q29 -40 29 -59q0 -28 -29 -78q-251 66 -596 248q-10 6 -10 69z" />
<glyph unicode="&#xc9;" horiz-adv-x="1411" d="M45 106q0 6 43 136q56 163 66 200l51 185q0 -4 -10.5 10.5t-34.5 52.5q0 16 -21 74q45 26 127 98q16 19 74 236q-1 -7 -2 4v43l12 14q15 15 15 25q0 20 -43 41q-39 20 -70 20q-21 82 -21 101q0 49 60 71q124 45 301 45q4 0 12 -4q6 -4 10 -4q13 0 33 10q8 3 15 5.5t10 4 t4 1.5q101 4 641 34l401 25q23 3 166 -55q6 -2 72 -2q39 -3 61 -25q-66 -29 -98 -29q17 0 -5 -6q-17 -4 -50 -10q7 1 -2 2q-17 2 -74 2l-27 -10q-19 -8 -28 -8q-95 -6 -224 -27l-282 -41q-1 0 -17 4q-4 1 -8.5 2t-7 1.5t-4.5 0.5q10 0 -113 -20.5l-465 -77.5 q-80 -100 -110 -350q44 -21 90 -21q2 0 5.5 1t10 3t13.5 4q24 9 28 9t25 -7q18 -6 20 -6q110 0 490 11l309 10q45 0 51 -21q2 -12 7.5 -36.5t7.5 -38.5q-52 -37 -220 -78q-129 -35 -397 -35q-168 0 -481 -43q-34 -6 -45 -47l-10 -51q-70 -174 -70 -234v-45q5 -1 15.5 -4 t15.5 -4l770 104q11 0 135 9h16l115 8q9 0 33 -15q12 -2 147 -2q1 0 8 1.5t20.5 3.5t28.5 4l54 8q62 0 133 -29q18 -68 21 -63q1 1 1 4q0 -31 -41 -66q-39 -33 -75 -33q-1 0 -4 0.5l-9 1.5l-12 2q-18 5 -27 5q-3 0 -47 -15q-13 -3 -25.5 -7t-18 -5.5t-7.5 -1.5l-420 -37 q-103 -9 -497 -70l-316 -49q-25 0 -147 29q-110 29 -146 29zM514 1327q0 5 6 29q1 8 2 15l1.5 10.5t0.5 4.5q69 32 250 105q30 21 43 27q203 98 246 98q17 0 39 -14q24 -12 24 -27q0 -48 -211 -168q-40 -15 -75 -29q-200 -123 -246 -123q-80 0 -80 72z" />
<glyph unicode="&#xca;" horiz-adv-x="1413" d="M45 106q0 6 43 136q56 163 66 200l51 185q0 -4 -10.5 10.5t-34.5 52.5q0 16 -21 74q45 26 127 98q16 19 74 236q-1 -7 -2 4v43l12 14q15 15 15 25q0 20 -43 41q-39 20 -70 20q-21 82 -21 101q0 49 60 71q124 45 301 45q4 0 12 -4q6 -4 10 -4q13 0 33 10q8 3 15 5.5t10 4 t4 1.5q101 4 641 34l401 25q23 3 166 -55q6 -2 72 -2q39 -3 61 -25q-66 -29 -98 -29q17 0 -5 -6q-17 -4 -50 -10q7 1 -2 2q-17 2 -74 2l-27 -10q-19 -8 -28 -8q-95 -6 -224 -27l-282 -41q-1 0 -17 4q-4 1 -8.5 2t-7 1.5t-4.5 0.5q10 0 -113 -20.5l-465 -77.5 q-80 -100 -110 -350q44 -21 90 -21q2 0 5.5 1t10 3t13.5 4q24 9 28 9t25 -7q18 -6 20 -6q110 0 490 11l309 10q45 0 51 -21q2 -12 7.5 -36.5t7.5 -38.5q-52 -37 -220 -78q-129 -35 -397 -35q-168 0 -481 -43q-34 -6 -45 -47l-10 -51q-70 -174 -70 -234v-45q5 -1 15.5 -4 t15.5 -4l770 104q11 0 135 9h16l115 8q9 0 33 -15q12 -2 147 -2q1 0 8 1.5t20.5 3.5t28.5 4l54 8q62 0 133 -29q18 -68 21 -63q1 1 1 4q0 -31 -41 -66q-39 -33 -75 -33q-1 0 -4 0.5l-9 1.5l-12 2q-18 5 -27 5q-3 0 -47 -15q-13 -3 -25.5 -7t-18 -5.5t-7.5 -1.5l-420 -37 q-103 -9 -497 -70l-316 -49q-25 0 -147 29q-110 29 -146 29zM399 1427q65 15 181 111l180 148q32 3 112 -35q85 -44 105 -68q87 -60 160 -115q106 -78 106 -151q0 -53 -67 -53q-2 0 -6 0.5l-12 1.5t-15 2q-30 6 -33 6q-16 0 -147 104q-135 105 -148 105q-32 0 -55 -23 q-20 -27 -29 -37q-68 -53 -141 -104q-17 -12 -88 -12q-54 0 -78 43q-19 50 -25 77z" />
<glyph unicode="&#xcb;" horiz-adv-x="1409" d="M45 106q0 6 43 136q56 163 66 200l51 185q0 -4 -10.5 10.5t-34.5 52.5q0 16 -21 74q45 26 127 98q16 19 74 236q-1 -7 -2 4v43l12 14q15 15 15 25q0 20 -43 41q-39 20 -70 20q-21 82 -21 101q0 49 60 71q124 45 301 45q4 0 12 -4q6 -4 10 -4q13 0 33 10q8 3 15 5.5t10 4 t4 1.5q101 4 641 34l401 25q23 3 166 -55q6 -2 72 -2q39 -3 61 -25q-66 -29 -98 -29q17 0 -5 -6q-17 -4 -50 -10q7 1 -2 2q-17 2 -74 2l-27 -10q-19 -8 -28 -8q-95 -6 -224 -27l-282 -41q-1 0 -17 4q-4 1 -8.5 2t-7 1.5t-4.5 0.5q10 0 -113 -20.5l-465 -77.5 q-80 -100 -110 -350q44 -21 90 -21q2 0 5.5 1t10 3t13.5 4q24 9 28 9t25 -7q18 -6 20 -6q110 0 490 11l309 10q45 0 51 -21q2 -12 7.5 -36.5t7.5 -38.5q-52 -37 -220 -78q-129 -35 -397 -35q-168 0 -481 -43q-34 -6 -45 -47l-10 -51q-70 -174 -70 -234v-45q5 -1 15.5 -4 t15.5 -4l770 104q11 0 135 9h16l115 8q9 0 33 -15q12 -2 147 -2q1 0 8 1.5t20.5 3.5t28.5 4l54 8q62 0 133 -29q18 -68 21 -63q1 1 1 4q0 -31 -41 -66q-39 -33 -75 -33q-1 0 -4 0.5l-9 1.5l-12 2q-18 5 -27 5q-3 0 -47 -15q-13 -3 -25.5 -7t-18 -5.5t-7.5 -1.5l-420 -37 q-103 -9 -497 -70l-316 -49q-25 0 -147 29q-110 29 -146 29zM494 1458q0 65 53 109q57 -21 88 -35q76 -30 76 -72q0 -35 -31 -71q-33 -33 -76 -33t-76 33q-34 30 -34 69zM944 1458q0 54 10 84h70q98 0 98 -125q0 -76 -71 -76q-107 0 -107 117z" />
<glyph unicode="&#xcc;" horiz-adv-x="528" d="M43 1556q0 44 8 57t31 13q10 0 35.5 -9t46.5 -17l20 -9l246 -110q145 -66 219 -105q29 -40 29 -59q0 -28 -29 -78q-251 66 -596 248q-10 6 -10 69zM152 303q0 792 159 1065q83 148 140 148q79 0 79 -160q0 -13 -45 -238q-50 -236 -79 -332q0 -3 -4 -23.5t-11 -58 t-14 -79.5q-50 -276 -109 -555q-42 -32 -47 -35q-14 8 -49 43q-20 36 -20 225z" />
<glyph unicode="&#xcd;" horiz-adv-x="499" d="M29 1339q0 5 6 29q1 8 2 15.5t1.5 11t0.5 4.5q50 23 250 104q30 21 43 27q203 98 246 98q16 0 38 -14q25 -12 25 -27q0 -48 -211 -168q-5 -2 -18 -6.5t-28 -10t-30 -11.5q-200 -123 -245 -123q-80 0 -80 71zM111 303q0 792 159 1065q83 148 140 148q79 0 79 -160 q0 -13 -45 -238q-50 -236 -79 -332q0 -3 -4 -23.5t-11 -58t-14 -79.5q-50 -276 -109 -555q-42 -32 -47 -35q-14 8 -49 43q-20 36 -20 225z" />
<glyph unicode="&#xce;" horiz-adv-x="692" d="M43 1415q64 15 180 111l180 147q33 3 113 -35q87 -44 105 -67q74 -51 159 -115q107 -79 107 -151q0 -54 -68 -54q-2 0 -6 0.5l-12 1.5t-15 2q-8 2 -16 3.5t-11.5 2.5t-4.5 1q-17 0 -148 104q-134 104 -147 104q-34 0 -56 -22q-26 -35 -28 -37q-60 -47 -142 -104 q-18 -13 -88 -13q-53 0 -77 43q-18 48 -25 78zM221 303q0 790 160 1065q83 148 139 148q80 0 80 -160q0 -13 -45 -238q-48 -225 -80 -332q0 -3 -4 -23.5t-11 -58t-14 -79.5q-55 -307 -108 -555q-42 -32 -47 -35q-14 8 -49 43q-21 38 -21 225z" />
<glyph unicode="&#xcf;" horiz-adv-x="516" d="M41 1380q0 65 53 109q57 -21 88 -35q76 -30 76 -72q0 -35 -31 -71q-33 -33 -75 -33q-43 0 -76 33q-35 30 -35 69zM152 303q0 792 159 1065q83 148 140 148q79 0 79 -160q0 -13 -45 -238q-50 -236 -79 -332q0 -3 -4 -23.5t-11 -58t-14 -79.5q-50 -276 -109 -555 q-42 -32 -47 -35q-14 8 -49 43q-20 36 -20 225zM492 1380q0 54 10 84h69q99 0 99 -125q0 -75 -72 -75q-106 0 -106 116z" />
<glyph unicode="&#xd0;" horiz-adv-x="2355" d="M6 1501q0 81 41 90q79 17 203 23q127 5 211 14q219 31 655 31q34 0 346 -35q52 -22 78 -22q2 0 14 4q6 6 13 6q18 0 172 -43q187 -51 266 -84q119 -74 129 -80q92 -59 139 -121q20 -27 60 -117q37 -90 37 -114q0 -61 -50 -164q-43 -88 -235 -240q-198 -154 -313 -194 q-15 -17 -46 -45q-87 -35 -198 -84q-41 -29 -66 -43q-27 -11 -67.5 -28t-106 -44.5t-114.5 -48.5l-68 -15q-41 -22 -141 -67q-59 -23 -211 -68q-165 -47 -195 -47q-45 0 -63 21q-103 112 -150 198q-2 4 -2 54q0 1 1 8l3.5 24.5t5.5 36.5q2 17 5 38t4.5 30.5t1.5 13.5 q5 10 14 17q35 241 59 385q-17 14 -32 14q-2 0 -14 -2t-39.5 -6.5t-57.5 -8.5q-105 -18 -111 -18q-159 0 -159 162q0 88 149 88q15 0 27 -2q5 -1 10.5 -2t8 -1.5t3.5 -0.5q94 0 236 33q22 13 33 26q59 263 59 303q0 33 -53 33l-365 -33q-40 0 -82 45q-45 42 -45 80zM596 291 q0 -31 10 -51l80 6q83 0 461 153q296 116 373 156q71 38 288 164q3 4 45 41q43 18 156 117q129 114 129 170q0 323 -911 387l-180 14l-101 -8q-91 -8 -133 -8q-76 -273 -76 -287q0 -1 0.5 -4.5t1.5 -10t2 -12.5l4 -22q3 0 9.5 -1.5t17 -3.5t19.5 -4l32 -8q-9 0 117 6 q143 7 158 7q1 0 6 -1t14 -2t19 -2q12 0 25 -1l14 -1q12 0 65 -18q49 -14 62 -27q11 -71 14 -67q0 -49 -43 -49q-2 0 -14 4q-6 4 -15 4l-257 -41h-1h-1h-1h-1l-1 -1h-1h-1h-1h-1h-1h-1v-1h-1h-1h-1h-1h-1l-1 -1h-1h-1h-1h-1h-1h-1l-1 -1h-1h-1h-1h-1h-1h-1l-1 -1h-1h-1h-1 h-1h-1l-1 -1h-1h-1h-1h-1h-1h-1v-1h-1h-1h-1h-1h-1h-1v-1h-1h-1h-1h-1h-1h-1l-1 -1h-1h-1h-1h-1h-1h-1v-1h-1h-1h-1h-1h-1h-1l-1 -1h-1h-1h-1h-1h-1h-1l-1 -1h-1h-1h-1h-1h-1l-1 -1h-1h-1h-1h-1h-1l-1 -1h-1h-1h-1h-1h-1l-1 -1h-1h-1h-1h-1h-1h-1h-1v-1h-1h-1h-1h-1h-1h-1 l-1 -1h-1h-1h-1h-1h-1l-1 -1h-1h-1h-1h-1h-1h-1v-1h-1h-1h-1h-1h-1h-1l-1 -1h-1h-1h-1h-1h-1l-1 -1h-1h-1h-1h-1h-1h-1l-1 -1h-1h-1h-1h-1h-1l-1 -1h-1h-1h-1h-1h-1h-1l-1 -1h-1h-1h-1h-1l-1 -1h-1h-1h-1h-1h-1h-1l-1 -1h-1h-1h-1h-1h-1h-1l-1 -1h-1h-1h-1h-1h-1l-1 -1h-1 h-1h-1h-1h-1h-1l-1 -1h-1h-1h-1h-1h-1l-1 -1h-1h-1h-1h-1h-1l-1 -1h-1h-1h-1h-1h-1h-1l-1 -1h-1h-1h-1h-1h-1l-1 -1h-1h-1h-1h-1h-1h-1l-1 -1h-1h-1h-1h-1h-1l-1 -1h-1h-1h-1h-1h-1l-1 -1h-1h-1h-1h-1h-1h-1l-1 -1h-1h-1h-1h-1h-1l-1 -1h-1h-1h-1h-1h-1h-1l-1 -1h-1h-1h-1 h-1h-1l-1 -1h-1h-1h-1h-1h-1h-1l-1 -1h-1h-1h-1h-1h-1l-1 -1h-1h-1h-1h-1h-1h-1l-1 -1h-1h-1q-13 -13 -27 -31q-24 -100 -35 -178q-9 -56 -18 -184q-8 -13 -15 -17q0 -18 -10 -86z" />
<glyph unicode="&#xd1;" horiz-adv-x="1378" d="M35 389l330 664q34 70 163 309q12 38 52 131q40 88 106 88q43 0 82 -39q55 -55 78 -102q74 -163 147 -377q6 -16 64 -234q2 -4 9 -13.5t11 -16.5q50 -152 60 -176q42 -116 100 -209q35 44 90 155q92 185 162 349q37 133 119 368q6 8 22 28.5t25 31.5q7 45 8 53 q44 79 47 84q24 16 62 57q11 36 47 88q8 4 24 4q70 0 70 -59q0 -19 -70 -189q0 -34 -8 -81q-4 -14 -17.5 -54t-19.5 -59q-22 -42 -88 -193q-13 -36 -55 -178q-5 -35 -25 -129l-108 -239q-65 -139 -78 -236q-35 -90 -35 -104q0 -11 8 -27q-2 0 -80 -33q-53 -24 -59 -24 q-18 0 -59 24q-39 23 -52 43q-67 111 -229 508q-9 56 -47 168q-11 18 -39 82q-3 52 -16 104q-23 89 -125 295q-44 -15 -88 -116q-35 -85 -105 -258q-69 -114 -172 -308q-25 -67 -98 -235q-32 -22 -64 -72q-10 -2 -26 -2q-41 0 -80 45q-43 46 -43 84zM557 1473q0 5 16 18 l15 14q37 54 190 170q2 0 8 1t11 1q42 29 80 29q93 0 180 -78q101 -88 133 -88q38 0 203 80q165 82 155 82q1 0 29 -8v-41q0 -16 -39 -41q0 -25 -4 -45q-233 -181 -348 -181q-43 0 -174 87q-130 86 -117 86q-27 0 -141 -99l-113 -96q-1 0 -4.5 0.5l-10.5 1.5l-14 2 q-6 1 -12.5 2t-9.5 1.5t-4 0.5q-29 73 -29 101z" />
<glyph unicode="&#xd2;" horiz-adv-x="1775" d="M25 735q0 16 12 48t14 44q3 19 7.5 57t7.5 58q17 23 46 69t33 52q67 105 209 240q6 6 60 24q21 18 45 33q4 4 146 52.5t163 53.5q98 22 291.5 41t308.5 19q412 0 682 -191q176 -124 176 -401q0 -68 -8 -123q25 -10 25 -27l-64 -102l10 -18l-2 2q-1 0 -6.5 -12.5 t-5.5 -14.5q-5 -11 -15.5 -35t-15.5 -35q-5 -5 -16.5 -16t-16.5 -16q-39 -56 -51 -68q-136 -145 -493 -328q-20 -10 -41.5 -19.5t-47 -19t-42 -15.5t-48.5 -15.5t-43.5 -13t-49 -14.5t-44.5 -13t-37.5 -10.5t-41 -11t-38.5 -10t-42 -10.5t-39.5 -8.5t-42.5 -8t-39 -6 t-41.5 -4.5t-38.5 -1q-61 0 -244 62q-120 40 -208.5 81.5t-170.5 101t-132.5 132t-80.5 172.5t-30 225zM195 721l12 -10q0 -6 -1 -20t-1 -21q0 -102 46.5 -186.5t120.5 -139.5t170 -93t191 -54.5t187 -16.5q273 0 684 215q69 36 120.5 67t117.5 80t109.5 97t75.5 113t37 133 q1 9 10 31.5t9 33.5q0 88 -80 191q-50 67 -223.5 137t-268.5 70q-13 0 -38 -4.5t-39 -4.5q-18 0 -40.5 4t-50 11t-40.5 10q-13 -3 -37.5 -12.5t-38.5 -12.5q-24 -6 -60 -8.5t-80 -3.5t-61 -2q-3 0 -25 6.5t-26 7.5q-15 -7 -40.5 -20.5t-35.5 -18.5q-20 -8 -56.5 -16.5 t-82 -17.5t-60.5 -13q-145 -35 -213 -92q1 -7 6 -20.5t5 -18.5q0 -15 -30 -40t-54 -40q-90 -53 -148 -135q-71 -106 -71 -186zM551 1638q0 44 8 57t31 13q10 0 35.5 -9t46.5 -17l20 -9l246 -110q145 -66 219 -105q29 -40 29 -59q0 -28 -29 -78q-251 66 -596 248 q-10 6 -10 69z" />
<glyph unicode="&#xd3;" horiz-adv-x="1785" d="M25 735q0 16 12 48t14 44q3 19 7.5 57t7.5 58q17 23 46 69t33 52q67 105 209 240q6 6 60 24q21 18 45 33q4 4 146 52.5t163 53.5q98 22 291.5 41t308.5 19q412 0 682 -191q176 -124 176 -401q0 -68 -8 -123q25 -10 25 -27l-64 -102l10 -18l-2 2q-1 0 -6.5 -12.5 t-5.5 -14.5q-5 -11 -15.5 -35t-15.5 -35q-5 -5 -16.5 -16t-16.5 -16q-39 -56 -51 -68q-136 -145 -493 -328q-20 -10 -41.5 -19.5t-47 -19t-42 -15.5t-48.5 -15.5t-43.5 -13t-49 -14.5t-44.5 -13t-37.5 -10.5t-41 -11t-38.5 -10t-42 -10.5t-39.5 -8.5t-42.5 -8t-39 -6 t-41.5 -4.5t-38.5 -1q-61 0 -244 62q-120 40 -208.5 81.5t-170.5 101t-132.5 132t-80.5 172.5t-30 225zM195 721l12 -10q0 -6 -1 -20t-1 -21q0 -102 46.5 -186.5t120.5 -139.5t170 -93t191 -54.5t187 -16.5q273 0 684 215q69 36 120.5 67t117.5 80t109.5 97t75.5 113t37 133 q1 9 10 31.5t9 33.5q0 88 -80 191q-50 67 -223.5 137t-268.5 70q-13 0 -38 -4.5t-39 -4.5q-18 0 -40.5 4t-50 11t-40.5 10q-13 -3 -37.5 -12.5t-38.5 -12.5q-24 -6 -60 -8.5t-80 -3.5t-61 -2q-3 0 -25 6.5t-26 7.5q-15 -7 -40.5 -20.5t-35.5 -18.5q-20 -8 -56.5 -16.5 t-82 -17.5t-60.5 -13q-145 -35 -213 -92q1 -7 6 -20.5t5 -18.5q0 -15 -30 -40t-54 -40q-90 -53 -148 -135q-71 -106 -71 -186zM561 1337q0 5 6 29q1 8 2 15.5t1.5 11t0.5 4.5q50 23 250 104q30 21 43 27q203 98 246 98q17 0 39 -14q25 -12 25 -27q0 -48 -211 -168 q-5 -2 -18 -6.5t-28 -10t-30 -11.5q-199 -123 -246 -123q-80 0 -80 71z" />
<glyph unicode="&#xd4;" horiz-adv-x="1703" d="M25 735q0 16 12 48t14 44q3 19 7.5 57t7.5 58q17 23 46 69t33 52q67 105 209 240q6 6 60 24q21 18 45 33q4 4 146 52.5t163 53.5q98 22 291.5 41t308.5 19q412 0 682 -191q176 -124 176 -401q0 -68 -8 -123q25 -10 25 -27l-64 -102l10 -18l-2 2q-1 0 -6.5 -12.5 t-5.5 -14.5q-5 -11 -15.5 -35t-15.5 -35q-5 -5 -16.5 -16t-16.5 -16q-39 -56 -51 -68q-136 -145 -493 -328q-20 -10 -41.5 -19.5t-47 -19t-42 -15.5t-48.5 -15.5t-43.5 -13t-49 -14.5t-44.5 -13t-37.5 -10.5t-41 -11t-38.5 -10t-42 -10.5t-39.5 -8.5t-42.5 -8t-39 -6 t-41.5 -4.5t-38.5 -1q-61 0 -244 62q-120 40 -208.5 81.5t-170.5 101t-132.5 132t-80.5 172.5t-30 225zM195 721l12 -10q0 -6 -1 -20t-1 -21q0 -102 46.5 -186.5t120.5 -139.5t170 -93t191 -54.5t187 -16.5q273 0 684 215q69 36 120.5 67t117.5 80t109.5 97t75.5 113t37 133 q1 9 10 31.5t9 33.5q0 88 -80 191q-50 67 -223.5 137t-268.5 70q-13 0 -38 -4.5t-39 -4.5q-18 0 -40.5 4t-50 11t-40.5 10q-13 -3 -37.5 -12.5t-38.5 -12.5q-24 -6 -60 -8.5t-80 -3.5t-61 -2q-3 0 -25 6.5t-26 7.5q-15 -7 -40.5 -20.5t-35.5 -18.5q-20 -8 -56.5 -16.5 t-82 -17.5t-60.5 -13q-145 -35 -213 -92q1 -7 6 -20.5t5 -18.5q0 -15 -30 -40t-54 -40q-90 -53 -148 -135q-71 -106 -71 -186zM600 1403q0 18 41 51q15 8 53 35q27 27 103 121q65 80 114 80q14 -7 66 -52l80 -65l10 -25q74 -57 135 -127q37 -43 37 -73q0 -14 -6 -35 q-3 -10 -39 -10q-45 0 -92 14q-166 172 -189 172q-1 0 -116 -103q-109 -100 -131 -100q-51 0 -60 31q1 -3 2 2q2 11 2 53q-10 20 -10 31z" />
<glyph unicode="&#xd5;" horiz-adv-x="1695" d="M25 735q0 16 12 48t14 44q3 19 7.5 57t7.5 58q17 23 46 69t33 52q67 105 209 240q6 6 60 24q21 18 45 33q4 4 146 52.5t163 53.5q98 22 291.5 41t308.5 19q412 0 682 -191q176 -124 176 -401q0 -68 -8 -123q25 -10 25 -27l-64 -102l10 -18l-2 2q-1 0 -6.5 -12.5 t-5.5 -14.5q-5 -11 -15.5 -35t-15.5 -35q-5 -5 -16.5 -16t-16.5 -16q-39 -56 -51 -68q-136 -145 -493 -328q-20 -10 -41.5 -19.5t-47 -19t-42 -15.5t-48.5 -15.5t-43.5 -13t-49 -14.5t-44.5 -13t-37.5 -10.5t-41 -11t-38.5 -10t-42 -10.5t-39.5 -8.5t-42.5 -8t-39 -6 t-41.5 -4.5t-38.5 -1q-61 0 -244 62q-120 40 -208.5 81.5t-170.5 101t-132.5 132t-80.5 172.5t-30 225zM195 721l12 -10q0 -6 -1 -20t-1 -21q0 -102 46.5 -186.5t120.5 -139.5t170 -93t191 -54.5t187 -16.5q273 0 684 215q69 36 120.5 67t117.5 80t109.5 97t75.5 113t37 133 q1 9 10 31.5t9 33.5q0 88 -80 191q-50 67 -223.5 137t-268.5 70q-13 0 -38 -4.5t-39 -4.5q-18 0 -40.5 4t-50 11t-40.5 10q-13 -3 -37.5 -12.5t-38.5 -12.5q-24 -6 -60 -8.5t-80 -3.5t-61 -2q-3 0 -25 6.5t-26 7.5q-15 -7 -40.5 -20.5t-35.5 -18.5q-20 -8 -56.5 -16.5 t-82 -17.5t-60.5 -13q-145 -35 -213 -92q1 -7 6 -20.5t5 -18.5q0 -15 -30 -40t-54 -40q-90 -53 -148 -135q-71 -106 -71 -186zM455 1419q0 6 16 19l14 14q36 52 191 170q2 0 8 1t10 1q42 29 80 29q93 0 180 -78q101 -88 133 -88q38 0 203 80q165 82 156 82q2 0 6 -1.5 t10.5 -3.5t12.5 -4v-41q0 -15 -39 -40q0 -26 -4 -46q-232 -180 -349 -180q-44 0 -174 86q-127 84 -116 86q-29 0 -142 -98l-112 -96q-1 0 -4.5 0.5l-10.5 1.5l-14 2q-6 1 -12.5 2t-10 1.5t-4.5 0.5q-28 70 -28 100z" />
<glyph unicode="&#xd6;" horiz-adv-x="1703" d="M25 735q0 16 12 48t14 44q3 19 7.5 57t7.5 58q17 23 46 69t33 52q67 105 209 240q6 6 60 24q21 18 45 33q4 4 146 52.5t163 53.5q98 22 291.5 41t308.5 19q412 0 682 -191q176 -124 176 -401q0 -68 -8 -123q25 -10 25 -27l-64 -102l10 -18l-2 2q-1 0 -6.5 -12.5 t-5.5 -14.5q-5 -11 -15.5 -35t-15.5 -35q-5 -5 -16.5 -16t-16.5 -16q-39 -56 -51 -68q-136 -145 -493 -328q-20 -10 -41.5 -19.5t-47 -19t-42 -15.5t-48.5 -15.5t-43.5 -13t-49 -14.5t-44.5 -13t-37.5 -10.5t-41 -11t-38.5 -10t-42 -10.5t-39.5 -8.5t-42.5 -8t-39 -6 t-41.5 -4.5t-38.5 -1q-61 0 -244 62q-120 40 -208.5 81.5t-170.5 101t-132.5 132t-80.5 172.5t-30 225zM195 721l12 -10q0 -6 -1 -20t-1 -21q0 -102 46.5 -186.5t120.5 -139.5t170 -93t191 -54.5t187 -16.5q273 0 684 215q69 36 120.5 67t117.5 80t109.5 97t75.5 113t37 133 q1 9 10 31.5t9 33.5q0 88 -80 191q-50 67 -223.5 137t-268.5 70q-13 0 -38 -4.5t-39 -4.5q-18 0 -40.5 4t-50 11t-40.5 10q-13 -3 -37.5 -12.5t-38.5 -12.5q-24 -6 -60 -8.5t-80 -3.5t-61 -2q-3 0 -25 6.5t-26 7.5q-15 -7 -40.5 -20.5t-35.5 -18.5q-20 -8 -56.5 -16.5 t-82 -17.5t-60.5 -13q-145 -35 -213 -92q1 -7 6 -20.5t5 -18.5q0 -15 -30 -40t-54 -40q-90 -53 -148 -135q-71 -106 -71 -186zM528 1417q0 64 54 109q57 -21 88 -35q75 -29 75 -72q0 -37 -30 -71q-33 -33 -76 -33t-76 33q-35 30 -35 69zM979 1417q0 54 10 84h70 q98 0 98 -125q0 -76 -72 -76q-106 0 -106 117z" />
<glyph unicode="&#xd7;" horiz-adv-x="968" d="M61 98q0 46 35 90q43 53 54 70q98 46 155 115q15 25 35 45q-28 28 -39 28q-4 0 -16 -4q2 0 20 9q-13 3 -20 8q-34 46 -101 153q-11 46 -20 74q37 43 143 43q21 0 51 -10q27 -29 80 -82q75 -78 94 -78q8 8 37 23q12 0 113 55q89 51 149 51q1 0 6.5 -0.5t19 -1.5t28.5 -2 q33 -4 61 -4q0 -1 10 -43q11 -34 11 -41q0 -14 -23 -47t-43 -43q-82 -44 -194 -137q14 -17 70.5 -85.5t96.5 -115.5q-23 -45 -28 -64q-28 -28 -76 -28q-37 0 -119 59q-22 19 -80 62q-42 12 -67 32q-22 -23 -33 -26q-18 -5 -55 -23q-11 -22 -37 -51q-17 -3 -39 -20 q-30 -43 -70 -95q2 7 9 25q12 23 20 18q-59 -14 -59 -49v-12q-4 0 -35 -8q-9 -2 -18.5 -5t-14 -4.5t-6.5 -1.5q-58 0 -82 74q-15 50 -21 53q0 -1 -1 -3t-1 -3z" />
<glyph unicode="&#xd8;" horiz-adv-x="1531" d="M35 637q0 326 397 561q34 6 90 21q129 57 238 57q1 0 5.5 -0.5t14.5 -1.5t21 -2q25 -4 41 -4q6 0 37 8q38 6 43 6q4 0 34 -6q27 -8 35 -8q107 0 125 -4q3 0 58 -25q52 -22 53 -22q-1 0 10.5 9t39.5 28t64 44q116 82 140 82q86 0 86 -110q0 -38 -41 -82q-24 -24 -84 -70 q-51 -42 -51 -53q0 4 2 4q7 0 53 -123q57 -143 57 -250q0 -102 -80 -288q-36 -52 -147 -129q-1 -1 -15 -6.5t-50 -19.5t-74 -30q-12 -4 -160 -61q-82 -33 -166 -33q-161 0 -250 18q-44 7 -82 19q-15 3 -43 10q-12 4 0 4q-84 0 -190 -160q-27 -43 -72 -43q-28 0 -61 39 q-33 41 -33 66q0 22 57 119q6 11 11.5 21t10.5 18t9.5 15t8 13t6.5 10.5l5 7.5t3.5 5.5t2.5 2.5l1 1q0 9 -56 74q-71 85 -82 108q-22 40 -22 160zM223 612q0 -14 41 -75q49 -76 84 -76q4 0 299 252q24 20 209 172q188 159 188 178q0 5 -22 27h-84q-86 0 -207 -37 q-19 9 -41 0q-70 -22 -233 -97q-102 -65 -168 -161q-66 -101 -66 -183zM606 373q77 -25 144 -25q146 0 303 68q125 52 174 110q80 103 80 244q0 136 -70 166q-200 -176 -492 -410q-139 -115 -139 -127v-26z" />
<glyph unicode="&#xd9;" horiz-adv-x="1560" d="M20 877l11 12q-3 45 -6 76q18 101 88 252q104 231 215 231l92 -70q-24 -30 -29 -86q-70 -43 -90 -102l-43 -113q-39 -77 -39 -168q0 -220 27 -319q14 -58 71 -152q36 -63 105 -116q85 -62 113 -76q30 -15 102 -15h119q30 0 237 70q196 66 221 82q64 46 179 121 q99 86 272 229q40 70 131 199q47 73 90 170q39 89 39 112v199v82q0 8 -2 18q5 -1 16.5 -2t16.5 -2q-3 -9 -6 -43q-7 1 -11 1h-5h-2h-3t-8 1q3 70 72 70q13 0 100 -37q0 -17 10 -82l11 -57q0 -13 -11 -35l-6 -14l-2 -2v-66q0 -10 -4 -22q-2 0 -2 -2l-2 -2q1 0 1.5 0.5t2.5 2 t4 3.5l27 24l-35 -22q8 0 16 -4q-22 -93 -78 -219q-59 -132 -86 -209q-20 -25 -28 -33q-5 -41 -29 -80q-158 -191 -170 -205q-104 -82 -151 -115q0 -1 -2.5 -6.5t-5 -13.5t-5.5 -18q-157 -97 -182 -113q-112 -70 -207 -96q-10 -17 -47 -43q-123 -54 -213 -54q-1 0 -9 -0.5 t-25 -1.5t-36 -2q-47 -4 -73 -4q-143 0 -326 76q-205 82 -256 184q-111 214 -129 336q-25 162 -25 271zM496 1532q0 44 8 57t31 13q10 0 35.5 -9t45.5 -17l21 -9l246 -111q145 -65 219 -104q28 -39 28 -60q0 -30 -28 -78q-251 66 -596 248q-10 6 -10 70z" />
<glyph unicode="&#xda;" horiz-adv-x="1560" d="M20 877l11 12q-3 45 -6 76q18 101 88 252q104 231 215 231l92 -70q-24 -30 -29 -86q-70 -43 -90 -102l-43 -113q-39 -77 -39 -168q0 -220 27 -319q14 -58 71 -152q36 -63 105 -116q85 -62 113 -76q30 -15 102 -15h119q30 0 237 70q196 66 221 82q64 46 179 121 q99 86 272 229q40 70 131 199q47 73 90 170q39 89 39 112v199v82q0 8 -2 18q5 -1 16.5 -2t16.5 -2q-3 -9 -6 -43q-7 1 -11 1h-5h-2h-3t-8 1q3 70 72 70q13 0 100 -37q0 -17 10 -82l11 -57q0 -13 -11 -35l-6 -14l-2 -2v-66q0 -10 -4 -22q-2 0 -2 -2l-2 -2q1 0 1.5 0.5t2.5 2 t4 3.5l27 24l-35 -22q8 0 16 -4q-22 -93 -78 -219q-59 -132 -86 -209q-20 -25 -28 -33q-5 -41 -29 -80q-158 -191 -170 -205q-104 -82 -151 -115q0 -1 -2.5 -6.5t-5 -13.5t-5.5 -18q-157 -97 -182 -113q-112 -70 -207 -96q-10 -17 -47 -43q-123 -54 -213 -54q-1 0 -9 -0.5 t-25 -1.5t-36 -2q-47 -4 -73 -4q-143 0 -326 76q-205 82 -256 184q-111 214 -129 336q-25 162 -25 271zM586 1307q0 4 6 28q1 8 2 15.5t1.5 11t0.5 4.5q50 23 250 104q30 21 43 27q203 98 246 98q17 0 39 -14q24 -12 24 -27q0 -48 -211 -168q-5 -2 -18 -6.5t-28 -10 t-30 -11.5q-200 -123 -245 -123q-80 0 -80 72z" />
<glyph unicode="&#xdb;" horiz-adv-x="1560" d="M20 877l11 12q-3 45 -6 76q18 101 88 252q104 231 215 231l92 -70q-24 -30 -29 -86q-70 -43 -90 -102l-43 -113q-39 -77 -39 -168q0 -220 27 -319q14 -58 71 -152q36 -63 105 -116q85 -62 113 -76q30 -15 102 -15h119q30 0 237 70q196 66 221 82q64 46 179 121 q99 86 272 229q40 70 131 199q47 73 90 170q39 89 39 112v199v82q0 8 -2 18q5 -1 16.5 -2t16.5 -2q-3 -9 -6 -43q-7 1 -11 1h-5h-2h-3t-8 1q3 70 72 70q13 0 100 -37q0 -17 10 -82l11 -57q0 -13 -11 -35l-6 -14l-2 -2v-66q0 -10 -4 -22q-2 0 -2 -2l-2 -2q1 0 1.5 0.5t2.5 2 t4 3.5l27 24l-35 -22q8 0 16 -4q-22 -93 -78 -219q-59 -132 -86 -209q-20 -25 -28 -33q-5 -41 -29 -80q-158 -191 -170 -205q-104 -82 -151 -115q0 -1 -2.5 -6.5t-5 -13.5t-5.5 -18q-157 -97 -182 -113q-112 -70 -207 -96q-10 -17 -47 -43q-123 -54 -213 -54q-1 0 -9 -0.5 t-25 -1.5t-36 -2q-47 -4 -73 -4q-143 0 -326 76q-205 82 -256 184q-111 214 -129 336q-25 162 -25 271zM432 1636q0 19 41 52q20 10 53 34q27 27 103 121q65 80 114 80q16 -8 66 -51l80 -66q1 -3 4.5 -11.5t5.5 -12.5q74 -57 135 -127q37 -43 37 -74q0 -14 -6 -35 q-3 -10 -39 -10q-45 0 -92 14q-166 172 -189 172q-2 0 -116 -102q-109 -100 -131 -100q-51 0 -60 30q1 -3 2 1q2 12 2 55q-10 20 -10 30z" />
<glyph unicode="&#xdc;" horiz-adv-x="1568" d="M20 877l11 12q-3 45 -6 76q18 101 88 252q104 231 215 231l92 -70q-24 -30 -29 -86q-70 -43 -90 -102l-43 -113q-39 -77 -39 -168q0 -220 27 -319q14 -58 71 -152q36 -63 105 -116q85 -62 113 -76q30 -15 102 -15h119q30 0 237 70q196 66 221 82q64 46 179 121 q99 86 272 229q40 70 131 199q47 73 90 170q39 89 39 112v199v82q0 8 -2 18q5 -1 16.5 -2t16.5 -2q-3 -9 -6 -43q-7 1 -11 1h-5h-2h-3t-8 1q3 70 72 70q13 0 100 -37q0 -17 10 -82l11 -57q0 -13 -11 -35l-6 -14l-2 -2v-66q0 -10 -4 -22q-2 0 -2 -2l-2 -2q1 0 1.5 0.5t2.5 2 t4 3.5l27 24l-35 -22q8 0 16 -4q-22 -93 -78 -219q-59 -132 -86 -209q-20 -25 -28 -33q-5 -41 -29 -80q-158 -191 -170 -205q-104 -82 -151 -115q0 -1 -2.5 -6.5t-5 -13.5t-5.5 -18q-157 -97 -182 -113q-112 -70 -207 -96q-10 -17 -47 -43q-123 -54 -213 -54q-1 0 -9 -0.5 t-25 -1.5t-36 -2q-47 -4 -73 -4q-143 0 -326 76q-205 82 -256 184q-111 214 -129 336q-25 162 -25 271zM526 1405q0 63 54 108q72 -27 88 -34q75 -29 75 -72q0 -37 -30 -72q-32 -32 -76 -32t-76 32q-35 30 -35 70zM977 1405q0 54 10 84h70q98 0 98 -125q0 -76 -72 -76 q-106 0 -106 117z" />
<glyph unicode="&#xdd;" horiz-adv-x="1046" d="M45 1214q0 75 37 162h100q3 -11 56 -51l30 -219q54 -188 201 -188q128 0 385 194q22 16 143 104.5t222 161.5q45 31 84 31q33 0 73 -43q35 -40 35 -59q0 -43 -45 -97q-49 -58 -143 -149q-132 -132 -197 -205q-86 -100 -145 -162q-14 -16 -70.5 -76.5t-99.5 -107.5 q-51 -71 -168 -256q-21 -42 -37 -78q-16 -53 -29 -88q-30 -86 -82 -86q-22 9 -114 61q-3 51 4 91q113 250 186 360q14 22 51 43l4 27q15 23 115 139q4 12 8 18q-16 4 -33 4q-4 0 -98 -20q-90 -20 -106 -20q-76 0 -150 47q-74 50 -108 116q-70 142 -95 244q-14 58 -14 102z M242 1282q0 5 6 29q1 8 2 15l1.5 10.5t0.5 4.5q69 32 250 105q30 21 43 27q203 98 246 98q14 0 38 -15q25 -12 25 -26q0 -48 -211 -168q-56 -21 -76 -29q-200 -123 -245 -123q-80 0 -80 72z" />
<glyph unicode="&#xde;" horiz-adv-x="1406" d="M41 270q0 1 1.5 10t5.5 30t7 44q15 76 15 84v238q28 219 28 242q-1 11 -4 34.5t-5.5 45t-4.5 42.5q-11 82 8 129q38 24 41 80q0 10 2.5 42.5t3.5 56.5q4 22 31 90q-1 -3 -3 10q-1 17 -1 53q0 3 10 23q10 18 10 24q0 22 9 74q6 64 10 72q19 28 51 28q75 0 98 -39 q52 -84 52 -131q0 -54 -46 -254q12 -28 52 -28q2 0 43 12q35 14 47 14q11 1 123 19q67 12 104 6q3 0 37 12q9 2 18.5 5t13.5 4t5 1t8.5 -1l22.5 -3t32 -4q52 -8 64 -8q20 0 55 4q37 2 62 2q301 0 393 -139q67 -101 67 -166q0 -49 -67 -137q-39 -49 -273 -164 q-37 -19 -131 -59q-86 -38 -149 -45q-10 -10 -56 -29q-69 -18 -436 -145l-86 -5q-16 -11 -16 -43q0 -16 10 -55q10 -41 10 -55v-131q0 -76 -32 -129q-113 -31 -113 -33q-127 0 -127 272zM303 729q0 -39 21 -80q181 42 507 148q194 81 216 92q121 62 190 137q20 23 45 55 q0 29 -49 56l-146 6q-70 4 -73 4l-4 2q-130 0 -336 -37q-117 -20 -209 -49q-54 -9 -123 -43q-27 -49 -27 -111q0 -4 4 -102q0 -2 -1 -7t-3 -14.5t-4 -19.5q-8 -31 -8 -37z" />
<glyph unicode="&#xdf;" horiz-adv-x="1191" d="M29 72q24 74 28 90q0 41 39 180q39 136 39 150q9 160 58 360q39 165 67 246q0 1 12.5 15.5t20.5 25.5q14 30 82 159q5 5 41 45q25 64 104 140q22 22 121 82q88 55 107 55q40 0 92 -27q25 0 41 -4q98 -39 211 -119q15 -38 20 -49q39 -83 39 -139q0 -51 -59 -137 q-14 -19 -183 -176q-129 -114 -141 -203q195 -130 242 -172q116 -101 116 -186q0 -9 -71 -95q-31 -50 -94 -127q-3 -3 -16 -13t-39.5 -30.5t-51.5 -40.5q-77 -59 -80 -84q-89 -71 -115 -71q-31 0 -108 65v49q0 40 49 125q26 23 66 60q2 0 22 4q92 77 162 160q2 7 33 67 q-16 16 -47 43q-2 4 -105 55q-52 22 -121 82q-20 35 -78 84v97q15 13 33 41q0 27 21 77q40 56 223 211q131 113 131 199q0 70 -104 70q-30 0 -109 -54q-24 -19 -82 -61q-8 -9 -104 -121q-1 -4 -21 -55q-9 -12 -26 -29q-3 -33 -21 -98q-64 -124 -78 -197q-21 -115 -45 -301 q-17 -17 -26 -37q-2 -24 -23 -149q-8 -19 -16 -47q-13 -98 -49 -273q-1 -1 -6 -8.5l-17 -25.5t-25 -37q-33 -7 -32 -10q0 -1 4 -1q-41 0 -115 80q0 7 -8 31q-8 21 -8 29z" />
<glyph unicode="&#xe0;" horiz-adv-x="1048" d="M49 219q0 62 41 168q10 26 60 47q10 6 61 29q213 131 395 131q53 0 133 -29q23 -9 60 -69q37 -61 37 -88q0 -51 -60 -89q-122 70 -192 70q-76 0 -154 -37q-100 -47 -156 -100q6 -31 70 -31q-13 0 56 24q29 11 73 25q146 49 236 49q23 0 147 -106q144 -120 199 -145 q22 -22 22 -31q0 -39 -20 -68q-21 -30 -49 -30q-44 10 -226 106q-113 61 -116 61q-42 0 -117 -34q-117 -51 -119 -52q-61 -20 -133 -20q-82 0 -205 111q-43 61 -43 108zM201 930q0 44 8 56.5t31 12.5q10 0 35.5 -8.5t46.5 -16.5l20 -9l246 -111q145 -65 219 -104 q29 -40 29 -60q0 -28 -29 -78q-251 66 -596 248q-10 6 -10 70z" />
<glyph unicode="&#xe1;" horiz-adv-x="886" d="M49 219q0 62 41 168q10 26 60 47q10 6 61 29q213 131 395 131q53 0 133 -29q23 -9 60 -69q37 -61 37 -88q0 -51 -60 -89q-122 70 -192 70q-76 0 -154 -37q-100 -47 -156 -100q6 -31 70 -31q-13 0 56 24q29 11 73 25q146 49 236 49q23 0 147 -106q144 -120 199 -145 q22 -22 22 -31q0 -39 -20 -68q-21 -30 -49 -30q-44 10 -226 106q-113 61 -116 61q-42 0 -117 -34q-117 -51 -119 -52q-61 -20 -133 -20q-82 0 -205 111q-43 61 -43 108zM176 684q0 5 6 29q1 8 2 15l1.5 10.5t0.5 4.5q69 32 250 105q27 19 43 26q205 99 246 99q15 0 39 -15 q24 -12 24 -26q0 -49 -210 -168q-56 -21 -76 -29q-200 -123 -246 -123q-80 0 -80 72z" />
<glyph unicode="&#xe2;" horiz-adv-x="1036" d="M49 219q0 62 41 168q10 26 60 47q10 6 61 29q213 131 395 131q53 0 133 -29q23 -9 60 -69q37 -61 37 -88q0 -51 -60 -89q-122 70 -192 70q-76 0 -154 -37q-100 -47 -156 -100q6 -31 70 -31q-13 0 56 24q29 11 73 25q146 49 236 49q23 0 147 -106q144 -120 199 -145 q22 -22 22 -31q0 -39 -20 -68q-21 -30 -49 -30q-44 10 -226 106q-113 61 -116 61q-42 0 -117 -34q-117 -51 -119 -52q-61 -20 -133 -20q-82 0 -205 111q-43 61 -43 108zM102 778q65 15 181 111l180 147q32 3 112 -35q87 -44 105 -67q87 -60 160 -115q106 -78 106 -151 q0 -54 -67 -54q-2 0 -6 0.5l-12 1.5t-15 2q-8 2 -16.5 3.5t-12 2.5t-4.5 1q-16 0 -147 104q-135 105 -148 105q-32 0 -55 -23q-20 -27 -29 -37q-68 -53 -141 -104q-18 -13 -88 -13q-54 0 -78 43q-18 48 -25 78z" />
<glyph unicode="&#xe3;" horiz-adv-x="1044" d="M47 786q0 6 16 19l15 14q37 54 190 170q2 0 8 1t11 1q42 29 80 29q93 0 180 -78q101 -88 133 -88q38 0 203 80q165 82 155 82q1 0 29 -8v-41q0 -16 -39 -41q0 -25 -4 -45q-233 -181 -348 -181q-44 0 -174 86t-117 86q-28 0 -141 -98l-113 -96q-1 0 -4.5 0.5l-10.5 1.5 l-14 2q-6 1 -12.5 2t-9.5 1.5t-4 0.5q-29 72 -29 100zM49 219q0 62 41 168q10 26 60 47q10 6 61 29q213 131 395 131q53 0 133 -29q23 -9 60 -69q37 -61 37 -88q0 -51 -60 -89q-122 70 -192 70q-76 0 -154 -37q-100 -47 -156 -100q6 -31 70 -31q-13 0 56 24q29 11 73 25 q146 49 236 49q23 0 147 -106q144 -120 199 -145q22 -22 22 -31q0 -39 -20 -68q-21 -30 -49 -30q-44 10 -226 106q-113 61 -116 61q-42 0 -117 -34q-117 -51 -119 -52q-61 -20 -133 -20q-82 0 -205 111q-43 61 -43 108z" />
<glyph unicode="&#xe4;" horiz-adv-x="940" d="M49 219q0 62 41 168q10 26 60 47q10 6 61 29q213 131 395 131q53 0 133 -29q23 -9 60 -69q37 -61 37 -88q0 -51 -60 -89q-122 70 -192 70q-76 0 -154 -37q-100 -47 -156 -100q6 -31 70 -31q-13 0 56 24q29 11 73 25q146 49 236 49q23 0 147 -106q144 -120 199 -145 q22 -22 22 -31q0 -39 -20 -68q-21 -30 -49 -30q-44 10 -226 106q-113 61 -116 61q-42 0 -117 -34q-117 -51 -119 -52q-61 -20 -133 -20q-82 0 -205 111q-43 61 -43 108zM213 793q0 64 53 108q57 -21 88 -35q76 -30 76 -71q0 -36 -31 -72q-33 -33 -75 -33q-43 0 -76 33 q-35 30 -35 70zM664 793q0 54 10 84h69q99 0 99 -125q0 -76 -72 -76q-106 0 -106 117z" />
<glyph unicode="&#xe5;" horiz-adv-x="956" d="M49 219q0 62 41 168q10 26 60 47q10 6 61 29q213 131 395 131q53 0 133 -29q23 -9 60 -69q37 -61 37 -88q0 -51 -60 -89q-122 70 -192 70q-76 0 -154 -37q-100 -47 -156 -100q6 -31 70 -31q-13 0 56 24q29 11 73 25q146 49 236 49q23 0 147 -106q144 -120 199 -145 q22 -22 22 -31q0 -39 -20 -68q-21 -30 -49 -30q-44 10 -226 106q-113 61 -116 61q-42 0 -117 -34q-117 -51 -119 -52q-61 -20 -133 -20q-82 0 -205 111q-43 61 -43 108zM219 922q17 107 14 141q-6 47 111 123q74 47 215 47q51 0 139 -27q41 -14 121 -69q45 -116 45 -138 q0 -45 -18 -98q-9 -30 -72 -84q-3 -1 -40 -17t-64 -26q-87 -35 -170 -35q-81 0 -172 49q-109 56 -109 134zM379 944q4 -2 21.5 -13.5t29.5 -17.5q13 -8 64 -8t116 19q99 27 99 80q0 50 -191 71q-20 -2 -49 -2q-3 -3 -29 -16q-61 -55 -61 -86v-27z" />
<glyph unicode="&#xe6;" horiz-adv-x="1093" d="M35 528q0 21 4 41q15 18 41 41q93 37 123 37q2 -1 6 -2t10.5 -3t13.5 -5q160 3 287 -59q11 16 96 61q82 43 107 43l27 -10q26 -13 30 -13q1 0 3.5 1t7.5 2l10 2q4 1 8.5 2t7 1.5t4.5 0.5q26 0 58 -29q16 -13 39.5 -32.5t31.5 -26.5q37 -73 37 -123q0 -64 -37 -113 q-13 -18 -127 -96q16 -13 97 -25q87 -9 92 -14q4 -16 4 -41q0 -29 -2 -39q-8 -15 -39 -43q-84 -35 -121 -35q3 0 -4.5 1.5t-28.5 6.5q-8 -2 -80 -2q-105 0 -211 62q-10 -17 -92 -60q-80 -45 -108 -45q-1 0 -4 1.5t-9.5 4t-13.5 5.5q-24 12 -29 12q-1 0 -3 -0.5t-6.5 -1.5 t-8.5 -2q-12 -2 -23 -2q-35 0 -63 28q-48 45 -66 56q-34 69 -34 127q0 68 34 110q8 17 125 97q-15 15 -90 24q-79 6 -100 14q-4 16 -4 41zM246 217q0 -14 18 -29h49q24 0 66 39q43 40 43 58h-35q-17 0 -76 -19q-65 -24 -65 -49zM631 410h35q17 0 75 22q68 21 68 47 q0 14 -18 29h-50q-25 0 -65 -37q-42 -39 -45 -61z" />
<glyph unicode="&#xe7;" horiz-adv-x="944" d="M41 242q0 79 33 129q43 80 168 178q59 43 147 82q174 76 256 76q1 0 6 -1t14.5 -2t20.5 -2q38 -6 43 -6q94 0 123 -20q31 -25 31 -92q0 -4 -15 -31l-16 -29q-18 -12 -55 -12q-1 0 -4.5 0.5t-10 1.5t-12.5 2q-7 1 -13.5 2t-10 1.5t-5.5 0.5q-128 0 -393 -149 q-68 -35 -92 -129q121 -86 254 -86q2 0 15.5 1t45.5 3.5t66 5.5l125 8q6 0 98 12q94 15 98 15q39 0 64 -19v-28q0 -91 -100 -91l-15 5l-16 4q-5 0 -60 -25q-64 -28 -69 -29q-160 -36 -240 -36q-14 0 -30 4q-19 3 -41 0q-27 -15 -50 -15q-101 0 -204 62q-104 59 -131 143 q-25 72 -25 66zM160 -516q0 89 108 115q23 0 183 8q23 8 77 20q104 15 156 49q-58 37 -88 37q-1 0 -8 -0.5t-20.5 -1.5t-28.5 -2q-52 -6 -56 -6q-56 0 -94 41q-8 19 -27 51q11 4 11 31q0 36 10 59l29 58q5 31 37 96q10 3 73 18q54 -51 60 -131q-4 -8 -4 -43q8 2 51 -2 q123 -43 157 -59q85 -48 91 -111q0 -3 8 -16t8 -19q0 -12 -45 -92q-38 -69 -121 -92q-9 -4 -145 -31q-152 -29 -140 -30q-4 2 -10 2q-8 2 -18 2q-1 0 -10.5 -1.5t-33 -5t-48.5 -6.5q-83 -14 -95 -14q-25 0 -47 25q-20 23 -20 51z" />
<glyph unicode="&#xe8;" horiz-adv-x="1003" d="M20 328q0 76 21 123q148 292 606 292q148 0 221 -67q53 -45 115 -129q13 -40 4 -125q-6 -99 -41 -117q-14 0 -90.5 -9.5t-144.5 -12.5l-181 -11l-109 1q-59 -2 -91 -9q-13 10 -56 10q-2 -3 -4.5 -5.5l-4 -4l-3 -3l-2 -2t-0.5 -1.5q0 -6 10 -17t35 -26t60 -29t91 -26 t122 -17q104 -8 133 -12q125 -15 125 -61q0 -14 -78 -52l-41 -41q-18 -2 -44 -5l-26 -3q-14 0 -102 8q-26 2 -52.5 3.5t-38 2.5t-14.5 1q-33 0 -108 34q-3 2 -32.5 17.5t-53.5 27.5q-82 29 -156 115q-70 79 -70 150zM174 1096q0 44 8 56.5t31 12.5q10 0 35.5 -8.5 t45.5 -17.5l21 -9l246 -110q145 -66 219 -105q29 -40 29 -59q0 -28 -29 -78q-251 66 -596 248q-10 6 -10 70zM285 451q0 -17 10 -17h352q114 0 131 33q-4 15 -22 76q-4 11 -56 35q-149 -11 -280 -33q-37 -6 -84 -39q-51 -36 -51 -55z" />
<glyph unicode="&#xe9;" horiz-adv-x="1003" d="M20 328q0 76 21 123q148 292 606 292q148 0 221 -67q53 -45 115 -129q13 -40 4 -125q-6 -99 -41 -117q-14 0 -90.5 -9.5t-144.5 -12.5l-181 -11l-109 1q-59 -2 -91 -9q-13 10 -56 10q-2 -3 -4.5 -5.5l-4 -4l-3 -3l-2 -2t-0.5 -1.5q0 -6 10 -17t35 -26t60 -29t91 -26 t122 -17q104 -8 133 -12q125 -15 125 -61q0 -14 -78 -52l-41 -41q-18 -2 -44 -5l-26 -3q-14 0 -102 8q-26 2 -52.5 3.5t-38 2.5t-14.5 1q-33 0 -108 34q-3 2 -32.5 17.5t-53.5 27.5q-82 29 -156 115q-70 79 -70 150zM186 877l7 28q1 8 2 15.5t1.5 11t0.5 4.5q58 26 249 104 q30 21 43 27q203 98 246 98q17 0 39 -14q25 -13 25 -27q0 -48 -211 -168q-5 -2 -18 -6.5t-28 -10t-30 -11.5q-200 -123 -246 -123q-80 0 -80 72zM285 451q0 -17 10 -17h352q114 0 131 33q-4 15 -22 76q-4 11 -56 35q-149 -11 -280 -33q-37 -6 -84 -39q-51 -36 -51 -55z" />
<glyph unicode="&#xea;" horiz-adv-x="1017" d="M20 328q0 76 21 123q148 292 606 292q148 0 221 -67q53 -45 115 -129q13 -40 4 -125q-6 -99 -41 -117q-14 0 -90.5 -9.5t-144.5 -12.5l-181 -11l-109 1q-59 -2 -91 -9q-13 10 -56 10q-2 -3 -4.5 -5.5l-4 -4l-3 -3l-2 -2t-0.5 -1.5q0 -6 10 -17t35 -26t60 -29t91 -26 t122 -17q104 -8 133 -12q125 -15 125 -61q0 -14 -78 -52l-41 -41q-18 -2 -44 -5l-26 -3q-14 0 -102 8q-26 2 -52.5 3.5t-38 2.5t-14.5 1q-33 0 -108 34q-3 2 -32.5 17.5t-53.5 27.5q-82 29 -156 115q-70 79 -70 150zM90 961q66 15 180 110l181 148q32 3 112 -35 q85 -44 105 -68q74 -51 159 -115q107 -79 107 -151q0 -53 -68 -53q-2 0 -6 0.5t-11.5 1.5t-14.5 2q-30 6 -33 6q-17 0 -148 104q-135 105 -147 105q-32 0 -55 -23q-20 -27 -29 -37q-68 -53 -141 -104q-17 -12 -88 -12q-54 0 -78 43q-18 48 -25 78zM285 451q0 -17 10 -17h352 q114 0 131 33q-4 15 -22 76q-4 11 -56 35q-149 -11 -280 -33q-37 -6 -84 -39q-51 -36 -51 -55z" />
<glyph unicode="&#xeb;" horiz-adv-x="1007" d="M20 328q0 76 21 123q148 292 606 292q148 0 221 -67q53 -45 115 -129q13 -40 4 -125q-6 -99 -41 -117q-14 0 -90.5 -9.5t-144.5 -12.5l-181 -11l-109 1q-59 -2 -91 -9q-13 10 -56 10q-2 -3 -4.5 -5.5l-4 -4l-3 -3l-2 -2t-0.5 -1.5q0 -6 10 -17t35 -26t60 -29t91 -26 t122 -17q104 -8 133 -12q125 -15 125 -61q0 -14 -78 -52l-41 -41q-18 -2 -44 -5l-26 -3q-14 0 -102 8q-26 2 -52.5 3.5t-38 2.5t-14.5 1q-33 0 -108 34q-3 2 -32.5 17.5t-53.5 27.5q-82 29 -156 115q-70 79 -70 150zM205 936q0 64 53 108q72 -27 88 -34q76 -30 76 -72 q0 -36 -31 -72q-32 -32 -76 -32q-43 0 -75 32q-35 30 -35 70zM285 451q0 -17 10 -17h352q114 0 131 33q-4 15 -22 76q-4 11 -56 35q-149 -11 -280 -33q-37 -6 -84 -39q-51 -36 -51 -55zM655 936q0 51 11 84h69q99 0 99 -125q0 -76 -72 -76q-107 0 -107 117z" />
<glyph unicode="&#xec;" horiz-adv-x="737" d="M37 940q0 44 8 57t31 13q10 0 35.5 -9t46.5 -17l20 -9l246 -111q145 -65 219 -104q29 -40 29 -60q0 -27 -29 -77q-254 67 -596 247q-10 6 -10 70zM223 166q-4 13 8 135q15 144 39 252q26 33 70 33q40 0 61 -66q15 -44 21 -391q2 -8 -23 -111l-24 -6q-15 -3 -90 25 q3 18 -23 61q-30 46 -39 68z" />
<glyph unicode="&#xed;" horiz-adv-x="552" d="M41 709q0 4 6 28q1 8 2 15.5t1.5 11t0.5 4.5q50 23 250 104q30 21 43 27q203 98 246 98q17 0 39 -14q24 -12 24 -27q0 -48 -211 -168q-5 -2 -17.5 -6.5t-27 -10t-30.5 -11.5q-199 -123 -246 -123q-80 0 -80 72zM233 166q-4 11 9 135q15 144 39 252q26 33 69 33 q41 0 62 -66q14 -41 20 -391q2 -10 -22 -111l-25 -6q-15 -3 -90 25q3 18 -23 61q-30 46 -39 68z" />
<glyph unicode="&#xee;" horiz-adv-x="876" d="M31 764q66 15 180 110l180 148q33 3 113 -35q85 -43 104 -67q87 -60 160 -115q106 -78 106 -152q0 -53 -67 -53q-2 0 -6 0.5l-12 1.5t-15 2q-30 6 -33 6q-15 0 -147 105q-134 104 -148 104q-33 0 -55 -22q-20 -27 -29 -37q-79 -62 -141 -105q-17 -12 -88 -12 q-54 0 -78 43q-15 40 -24 78zM303 166q-4 13 8 135q15 144 39 252q26 33 70 33q40 0 61 -66q15 -44 21 -391q2 -8 -23 -111l-24 -6q-15 -3 -90 25q3 18 -23 61q-30 46 -39 68z" />
<glyph unicode="&#xef;" horiz-adv-x="729" d="M35 786q0 65 53 109q57 -21 88 -35q76 -30 76 -72q0 -35 -31 -71q-33 -33 -76 -33q-42 0 -75 33q-35 30 -35 69zM209 160q-4 13 8 135q15 144 39 252q26 33 70 33q40 0 61 -66q15 -44 21 -391q2 -8 -23 -111l-25 -6q-15 -3 -90 25q3 19 -22 61q-30 46 -39 68zM485 786 q0 51 11 84h69q99 0 99 -125q0 -75 -72 -75q-107 0 -107 116z" />
<glyph unicode="&#xf0;" horiz-adv-x="1140" d="M41 123q0 97 174 239q45 36 250 181q83 57 180 112q3 4 45 41q11 11 19 11h41q22 0 41 22q0 21 -5 31q-54 97 -217 313q-24 -10 -194 -112q-157 -91 -180 -91q-30 0 -45 27q-52 73 -52 115q0 31 43 55q5 3 14.5 8t26.5 14t31 17q2 2 141 90q88 55 88 72q-7 15 -49 65 q-2 12 -16 39q-156 141 -156 221q0 42 8 74q12 4 35 4q95 0 191 -108q72 -84 163 -193q32 11 101 43q59 38 158 90q112 62 190 62q59 0 59 -76q0 -23 -194 -164q-197 -144 -197 -147q0 2 23.5 -31t75.5 -109t120 -178q0 -5 4 -33q55 -67 105 -268q-12 -41 -12 -22l10 -9 q8 -5 8 -16q0 -34 -29 -219q-22 -117 -151 -207q-133 -92 -289 -104q-2 -1 -6 -6t-6 -7q-48 0 -101 -4l-81 -4q-177 -12 -271 33t-94 129zM416 186h59q11 0 27 11q21 12 28 12q9 0 13 -4l8 -4q1 0 39 20q130 18 201 133q55 88 55 187l-17 51q-10 32 -16 53q-39 -55 -47 -67 q6 -9 6 -19q0 -57 -117 -145q-215 -161 -239 -183v-45z" />
<glyph unicode="&#xf1;" horiz-adv-x="1099" d="M55 399q0 30 43 115q0 7 8 57q5 18 54 111q3 0 30 6t31 6q3 -13 45 -49q45 -33 56 -33q7 0 184 82q180 80 184 80q105 0 221 -149q14 -20 76 -119q55 -137 55 -361q0 -145 -67 -145q-9 0 -47 18q-46 22 -62 25q-57 86 -57 178q0 98 -68 305q-9 15 -47 15q-32 0 -88 -29 q-21 -12 -86 -45q-26 -19 -149 -158q-126 -147 -152 -147q-73 0 -123 90q-41 77 -41 147zM66 958q0 6 16 19l14 14q36 52 191 170q1 0 7 1t11 1q42 29 80 29q93 0 180 -78q101 -88 133 -88q38 0 203 80q165 82 156 82l28 -8v-41q0 -17 -38 -41q0 -20 -5 -45 q-233 -181 -348 -181q-44 0 -174 86t-117 86q-28 0 -141 -98l-112 -96q-1 0 -4.5 0.5l-10.5 1.5l-14 2q-6 1 -12.5 2t-10 1.5t-4.5 0.5q-28 70 -28 100z" />
<glyph unicode="&#xf2;" horiz-adv-x="1218" d="M39 362q0 19 24 95q20 71 37 98q18 34 95 70l98 45q95 57 244 116l75 7q15 6 39 18q7 0 66 6q55 6 61 6q300 0 385 -252q43 -125 43 -139q0 -120 -59 -194q-65 -74 -232 -160q-111 -55 -270 -96q-44 -9 -88 -21q-121 0 -283 84q-175 91 -200 215q0 1 -2 6.5t-6.5 18 t-8.5 26.5q-18 44 -18 51zM254 344q0 -61 106 -117q94 -49 156 -49q106 0 281 88q204 101 204 207q0 150 -186 150q-135 0 -315 -62q-6 -5 -19.5 -15t-19.5 -14q-42 -3 -74 -20q-133 -133 -133 -168zM289 1180q0 44 8 56.5t31 12.5q10 0 35.5 -8.5t46.5 -17.5l20 -9 l246 -110q145 -66 219 -105q29 -40 29 -59q0 -28 -29 -78q-251 66 -596 248q-10 6 -10 70z" />
<glyph unicode="&#xf3;" horiz-adv-x="1216" d="M39 362q0 19 24 95q20 71 37 98q18 34 95 70l98 45q95 57 244 116l75 7q15 6 39 18q7 0 66 6q55 6 61 6q300 0 385 -252q43 -125 43 -139q0 -120 -59 -194q-65 -74 -232 -160q-111 -55 -270 -96q-44 -9 -88 -21q-121 0 -283 84q-175 91 -200 215q0 1 -2 6.5t-6.5 18 t-8.5 26.5q-18 44 -18 51zM254 344q0 -61 106 -117q94 -49 156 -49q106 0 281 88q204 101 204 207q0 150 -186 150q-135 0 -315 -62q-6 -5 -19.5 -15t-19.5 -14q-42 -3 -74 -20q-133 -133 -133 -168zM272 895q0 1 7 29q1 8 2 15l1.5 10.5t0.5 4.5q77 35 249 105q26 19 43 26 q205 99 246 99q15 0 39 -15q25 -13 25 -26q0 -48 -211 -168q-56 -21 -76 -29q-200 -123 -246 -123q-80 0 -80 72z" />
<glyph unicode="&#xf4;" horiz-adv-x="1212" d="M39 362q0 19 24 95q20 71 37 98q18 34 95 70l98 45q95 57 244 116l75 7q15 6 39 18q7 0 66 6q55 6 61 6q300 0 385 -252q43 -125 43 -139q0 -120 -59 -194q-65 -74 -232 -160q-111 -55 -270 -96q-44 -9 -88 -21q-121 0 -283 84q-175 91 -200 215q0 1 -2 6.5t-6.5 18 t-8.5 26.5q-18 44 -18 51zM236 1028q64 15 180 111l180 147q33 3 113 -35q85 -43 104 -67q87 -60 160 -115q106 -78 106 -151q0 -54 -67 -54q-2 0 -6 0.5l-12 1.5t-15 2q-30 6 -33 6q-15 0 -147 105q-134 104 -148 104q-33 0 -55 -22q-20 -27 -29 -37q-68 -53 -141 -104 q-18 -13 -88 -13q-54 0 -78 43q-15 40 -24 78zM254 344q0 -61 106 -117q94 -49 156 -49q106 0 281 88q204 101 204 207q0 150 -186 150q-135 0 -315 -62q-6 -5 -19.5 -15t-19.5 -14q-42 -3 -74 -20q-133 -133 -133 -168z" />
<glyph unicode="&#xf5;" horiz-adv-x="1212" d="M39 362q0 19 24 95q20 71 37 98q18 34 95 70l98 45q95 57 244 116l75 7q15 6 39 18q7 0 66 6q55 6 61 6q300 0 385 -252q43 -125 43 -139q0 -120 -59 -194q-65 -74 -232 -160q-111 -55 -270 -96q-44 -9 -88 -21q-121 0 -283 84q-175 91 -200 215q0 1 -2 6.5t-6.5 18 t-8.5 26.5q-18 44 -18 51zM123 1018q0 5 16 18l15 15q37 54 190 170q2 0 8 1t10 1q41 28 80 28q95 0 181 -77q103 -89 133 -89q37 0 202 80q165 82 156 82q1 0 29 -8v-41q0 -16 -39 -41q0 -25 -4 -45q-232 -180 -348 -180q-44 0 -174 86t-117 86q-29 0 -142 -98l-112 -97 q-1 0 -4.5 0.5l-10.5 1.5l-14 2l-12 2t-9.5 2t-4.5 1q-29 72 -29 100zM254 344q0 -61 106 -117q94 -49 156 -49q106 0 281 88q204 101 204 207q0 150 -186 150q-135 0 -315 -62q-6 -5 -19.5 -15t-19.5 -14q-42 -3 -74 -20q-133 -133 -133 -168z" />
<glyph unicode="&#xf6;" horiz-adv-x="1218" d="M39 362q0 19 24 95q20 71 37 98q18 34 95 70l98 45q95 57 244 116l75 7q15 6 39 18q7 0 66 6q55 6 61 6q300 0 385 -252q43 -125 43 -139q0 -120 -59 -194q-65 -74 -232 -160q-111 -55 -270 -96q-44 -9 -88 -21q-121 0 -283 84q-175 91 -200 215q0 1 -2 6.5t-6.5 18 t-8.5 26.5q-18 44 -18 51zM254 344q0 -61 106 -117q94 -49 156 -49q106 0 281 88q204 101 204 207q0 150 -186 150q-135 0 -315 -62q-6 -5 -19.5 -15t-19.5 -14q-42 -3 -74 -20q-133 -133 -133 -168zM326 1026q0 65 53 109q57 -21 88 -35q76 -30 76 -72q0 -36 -31 -72 q-32 -32 -76 -32t-76 32q-34 30 -34 70zM776 1026q0 54 10 84h70q98 0 98 -125q0 -76 -71 -76q-107 0 -107 117z" />
<glyph unicode="&#xf7;" horiz-adv-x="1581" d="M53 496q0 86 88 86q3 0 19 -4q3 -1 6.5 -2t5 -2t2.5 -1q11 0 223 37l221 35l861 64q41 3 80 -45q39 -41 55 -115q-54 -19 -86 -55q-43 2 -260 -11q-232 -16 -260 -16l-33 10q3 0 -1 -1q-14 -5 -73 -15q-308 -24 -461 -51q-263 -47 -245 -48q-45 0 -97 52q-45 45 -45 82z M700 135v90q68 41 93 41q54 0 98 -41q41 -41 41 -92q0 -108 -96 -108q-50 0 -93 34q-43 37 -43 76zM723 909q0 17 4 49q17 17 49 17q41 0 174 -74q-35 -21 -59 -117q-6 -2 -70 -2q-98 0 -98 127z" />
<glyph unicode="&#xf8;" horiz-adv-x="1103" d="M25 455q0 29 81 125q104 121 187 165q60 29 139 29q10 0 43 -8t41 -8q6 0 55 14q47 16 58 16q1 0 45 -6q39 -8 47 -8q73 51 209 119q47 -75 47 -96q0 -4 -31 -64q-9 -18 -17.5 -33.5t-12 -22t-3.5 -7.5q12 -21 35 -64q31 -55 35 -80q13 -67 16 -77l13 -15q14 -11 14 -24 q-1 -3 -16 -21q2 -10 2 -33q0 -39 -8 -80q-49 -81 -138 -131q-4 -3 -159 -71q-58 -27 -152 -27l-16 4q-16 4 -19 4q-43 0 -114 -100q-63 -59 -115 -117q0 42 -76 51q-41 30 -41 60q0 1 3 7.5t10.5 22t15.5 31.5q28 57 28 66q0 31 -53 78q-72 63 -98 102q-55 79 -55 199z M270 389q36 -22 60 -43q34 22 86 80q62 65 65 96q-51 -11 -106 -26l-105 -70v-37zM578 307h32q73 12 127 55q56 44 56 84q0 16 -43 46q-104 -61 -172 -185z" />
<glyph unicode="&#xf9;" horiz-adv-x="1337" d="M70 530q0 128 86 240h51q63 -45 63 -145q0 -27 -2 -66q-1 -16 -2 -32.5t-1.5 -25.5t-0.5 -12q0 -174 187 -223q63 -18 63 -20q15 0 35 2q8 1 17 2l13.5 1.5t6.5 0.5q99 0 270 115q102 65 205 196q99 129 115 211q3 17 36 45q36 31 48 31q53 0 53 -125q0 -67 -15 -102 q-11 -31 -33.5 -88t-29.5 -76q-10 -2 -23 -19q-5 -32 -51 -84l-69 -77q-5 -15 -9 -25q-108 -108 -278 -191q-165 -51 -246 -51q-48 0 -139 27q-350 108 -350 491zM354 1098q0 44 8 56.5t31 12.5q10 0 36 -8.5t47 -16.5l20 -9l245 -111q146 -65 220 -104q28 -39 28 -60 q0 -30 -28 -78q-251 66 -596 248q-11 7 -11 70z" />
<glyph unicode="&#xfa;" horiz-adv-x="1339" d="M70 530q0 128 86 240h51q63 -45 63 -145q0 -27 -2 -66q-1 -16 -2 -32.5t-1.5 -25.5t-0.5 -12q0 -174 187 -223q63 -18 63 -20q15 0 35 2q8 1 17 2l13.5 1.5t6.5 0.5q99 0 270 115q102 65 205 196q99 129 115 211q3 17 36 45q36 31 48 31q53 0 53 -125q0 -67 -15 -102 q-11 -31 -33.5 -88t-29.5 -76q-10 -2 -23 -19q-5 -32 -51 -84l-69 -77q-5 -15 -9 -25q-108 -108 -278 -191q-165 -51 -246 -51q-48 0 -139 27q-350 108 -350 491zM358 905q0 1 7 29q1 8 2 15.5t1.5 11t0.5 4.5q58 26 249 104q28 20 44 27q203 98 245 98q17 0 39 -14 q25 -12 25 -27q0 -48 -211 -168q-56 -21 -76 -29q-198 -122 -246 -122q-80 0 -80 71z" />
<glyph unicode="&#xfb;" horiz-adv-x="1339" d="M70 530q0 128 86 240h51q63 -45 63 -145q0 -27 -2 -66q-1 -16 -2 -32.5t-1.5 -25.5t-0.5 -12q0 -174 187 -223q63 -18 63 -20q15 0 35 2q8 1 17 2l13.5 1.5t6.5 0.5q99 0 270 115q102 65 205 196q99 129 115 211q3 17 36 45q36 31 48 31q53 0 53 -125q0 -67 -15 -102 q-11 -31 -33.5 -88t-29.5 -76q-10 -2 -23 -19q-5 -32 -51 -84l-69 -77q-5 -15 -9 -25q-108 -108 -278 -191q-165 -51 -246 -51q-48 0 -139 27q-350 108 -350 491zM244 1040q64 15 180 111l180 147q35 3 113 -34q84 -43 104 -68q87 -60 160 -115q106 -78 106 -151 q0 -53 -67 -53q-2 0 -6 0.5l-12 1.5t-15 2q-30 6 -33 6q-16 0 -147 104q-135 105 -148 105q-32 0 -55 -23q-20 -27 -29 -37q-68 -53 -141 -104q-17 -12 -88 -12q-54 0 -78 43q-16 42 -24 77z" />
<glyph unicode="&#xfc;" horiz-adv-x="1343" d="M70 530q0 128 86 240h51q63 -45 63 -145q0 -27 -2 -66q-1 -16 -2 -32.5t-1.5 -25.5t-0.5 -12q0 -174 187 -223q63 -18 63 -20q15 0 35 2q8 1 17 2l13.5 1.5t6.5 0.5q99 0 270 115q102 65 205 196q99 129 115 211q3 17 36 45q36 31 48 31q53 0 53 -125q0 -67 -15 -102 q-11 -31 -33.5 -88t-29.5 -76q-10 -2 -23 -19q-5 -32 -51 -84l-69 -77q-5 -15 -9 -25q-108 -108 -278 -191q-165 -51 -246 -51q-48 0 -139 27q-350 108 -350 491zM365 1030q0 65 53 109q57 -21 88 -35q76 -30 76 -72q0 -35 -31 -71q-33 -33 -76 -33t-76 33q-34 30 -34 69z M815 1030q0 54 10 84h70q98 0 98 -125q0 -76 -71 -76q-107 0 -107 117z" />
<glyph unicode="&#xfd;" horiz-adv-x="1196" d="M41 471q0 101 14 133q34 76 66 76q86 0 110 -154q8 -38 19 -155q56 -95 151 -95l78 19q43 12 109 29q109 18 223 90q8 6 186 118q22 31 47 58h101q47 -71 47 -135q0 -21 -43 -111q-42 -89 -74 -135q-21 -15 -49 -43q-20 -55 -84 -174l-2 -12l-2 -5q-3 0 -20 -32 q-16 -9 -41 -41q-9 -23 -17 -82q-28 0 -39 -33q-8 -25 -47 -125q-12 -34 -72 -127q5 -25 5 -47q-18 -22 -41 -66l-41 -172q-45 -109 -50 -122q-1 -4 -4.5 -18.5t-12.5 -48t-17 -62.5q-8 -35 -66 -35q-54 0 -90 39q-37 40 -37 94q0 41 51 178q1 3 5 16.5t12 39.5t16 53 q5 5 33 41q10 58 266 677l-12 13q-149 -64 -238 -64q-5 0 -49 12q-13 3 -25.5 6.5t-17.5 5t-6 1.5l-16 -4q-8 -4 -17 -4q-50 0 -125 47q-69 42 -86 61q-48 55 -63 129q4 8 4 12q-1 2 -2 5.5t-2 5.5q-35 41 -35 143zM293 764q0 5 6 29q1 8 2 15l1.5 10.5t0.5 4.5 q69 32 250 105q26 19 43 26q206 99 246 99q15 0 39 -15q24 -12 24 -26q0 -48 -211 -168q-56 -21 -76 -29q-200 -123 -245 -123q-80 0 -80 72z" />
<glyph unicode="&#xfe;" horiz-adv-x="1042" d="M47 -270q0 138 53 200q-16 37 -16 56q6 6 27 59q4 16 4 86q0 -6 1 1q6 35 19 200q-10 85 -10 141q3 187 45 633q2 12 29 35q27 20 41 20q35 0 84 -37q46 -76 43 -299l-11 -75q-6 -54 23 -66q24 15 133 39q117 27 150 27q143 0 239 -54q3 -4 10 -11.5t11 -12.5 q61 -107 61 -142q0 -44 -53 -124q-76 -112 -201 -173q-24 -12 -56.5 -27t-79.5 -36.5t-79 -36.5q-21 -11 -131 -90q-14 0 -43 -16q-10 -45 4 -138q6 -46 -8 -96l-10 -104q-6 -66 -66 -123q-30 -6 -55 -6q-158 0 -158 170zM346 362q0 -6 6 -30t6 -27q144 61 201 88 q115 52 162 135l-51 11q-197 -39 -310 -107q-1 -6 -3 -16z" />
<glyph unicode="&#xff;" horiz-adv-x="1200" d="M41 471q0 101 14 133q34 76 66 76q86 0 110 -154q8 -38 19 -155q56 -95 151 -95l78 19q43 12 109 29q109 18 223 90q8 6 186 118q22 31 47 58h101q47 -71 47 -135q0 -21 -43 -111q-42 -89 -74 -135q-21 -15 -49 -43q-20 -55 -84 -174l-2 -12l-2 -5q-3 0 -20 -32 q-16 -9 -41 -41q-9 -23 -17 -82q-28 0 -39 -33q-8 -25 -47 -125q-12 -34 -72 -127q5 -25 5 -47q-18 -22 -41 -66l-41 -172q-45 -109 -50 -122q-1 -4 -4.5 -18.5t-12.5 -48t-17 -62.5q-8 -35 -66 -35q-54 0 -90 39q-37 40 -37 94q0 41 51 178q1 3 5 16.5t12 39.5t16 53 q5 5 33 41q10 58 266 677l-12 13q-149 -64 -238 -64q-5 0 -49 12q-13 3 -25.5 6.5t-17.5 5t-6 1.5l-16 -4q-8 -4 -17 -4q-50 0 -125 47q-69 42 -86 61q-48 55 -63 129q4 8 4 12q-1 2 -2 5.5t-2 5.5q-35 41 -35 143zM307 889q0 64 53 108q79 -30 89 -34q75 -29 75 -72 q0 -37 -30 -72q-33 -33 -76 -33t-76 33q-35 30 -35 70zM758 889q0 54 10 84h70q98 0 98 -125q0 -76 -72 -76q-106 0 -106 117z" />
<glyph unicode="&#x152;" horiz-adv-x="2811" d="M45 549q0 155 94 321q2 7 -10 66q-8 21 -8 53q0 86 78 170q39 42 161 103q4 0 205 65q100 33 129 33q11 0 21 -2q4 -1 10 -2l9 -1.5t5 -0.5q10 0 13 10q4 8 4 10q4 1 14.5 5t24 9t28.5 9q80 24 209 24q297 0 371 -41q14 0 119 -12q17 -1 38.5 -3.5t33.5 -3.5t18 -1 q11 0 143 29q36 4 178 4q1 0 4 1l9 3l12 4q24 6 27 6q5 0 32 -6q21 -8 29 -8q2 0 5.5 0.5t10 1.5t11.5 2q21 6 26 6q23 4 211 4h266q5 0 113 12q31 3 59 5.5t40.5 4t13.5 1.5q149 0 149 -99q0 -78 -137 -90q-6 0 -182 -12q-8 2 -33 2q-90 -23 -238 -29q-73 -3 -235 -12 q-53 -3 -137 -29v-22q17 -11 30 -31q48 -58 60 -137q6 -47 6 -205q43 -12 84 -12q2 0 125 6l123 8q60 3 209 -49q26 -9 26 -43q0 -70 -174 -88q-14 -1 -76 -4.5t-110 -5.5q-18 -9 -228 -33q-52 3 -137 -6q-99 -77 -129 -99q-42 -32 -182 -108q-98 -51 -115 -80q399 0 733 18 q10 0 39 3t92 9.5t119 12.5l178 20q115 0 115 -127q0 -22 -2 -38q-51 -27 -100 -44q-197 -24 -240 -24l-98 -6q-259 -15 -492 -29l-588 -33q-101 -3 -153 49q0 1 -4 21q-32 35 -51 35q-8 0 -41 -8q-34 -11 -41 -11q-205 -24 -285 -24q-43 0 -168 16q-112 17 -143 31 q-9 9 -52 39q-20 5 -69 28q-7 6 -23.5 22.5t-50.5 50t-65 63.5q-9 9 -35 104q-31 105 -31 119zM229 623q0 -25 11 -70q21 -90 98 -170q72 -81 156 -102q103 -25 217 -25q105 0 379 70q165 43 313 114q255 117 401 254q99 92 99 158q0 54 -64 133q-66 81 -121 102 q-160 65 -288 107q-80 23 -103 27q-62 10 -170 10q-2 0 -7 0.5l-15 1.5t-21 2q-38 6 -41 6q-104 0 -334 -47q-10 -4 -34.5 -14.5l-38.5 -16.5q8 -12 8 -24q0 -3 -10 -33q-13 -29 -13 -33q-32 -46 -168 -90q-3 -2 -11 -11.5t-13 -15.5q-60 -19 -137 -127q-79 -107 -82 -170 q0 -1 -7 -18q-1 -4 -2 -8.5t-1.5 -6.5t-0.5 -3z" />
<glyph unicode="&#x153;" horiz-adv-x="1677" d="M35 328q0 139 110 252q39 23 101 79q15 35 59 91q59 41 152 41q67 0 153 -11q65 -11 152 -45q15 -9 39 -24q38 -21 49 -21q3 0 59 35q61 39 82 47q153 66 195 66q50 0 127 -15q6 -3 32.5 -16t47.5 -23q137 -65 151 -112q12 -37 12 -66q0 -59 -118 -207q-74 0 -107 -10 q-94 -28 -274 -80q17 -33 59 -39q123 -18 168 -18q2 0 8 0.5t19.5 1.5t27.5 2q31 4 54 4q183 0 229 -37q23 -20 23 -65q0 -33 2 -35q2 4 2 6q-3 -14 -52 -43q-20 -1 -186 -29q-105 -18 -154 -18q-104 0 -108 -2h10q-40 0 -168 35q-24 12 -57 30q-51 29 -57 29q-16 0 -72 -33 q-79 -42 -96 -49q-65 -26 -134 -26h-124q-91 0 -226 69q-136 67 -178 133q-12 15 -12 103zM229 356q0 -54 150 -92q107 -26 194 -26q101 0 152 65q31 39 31 131q0 56 -4 64q-37 43 -107 67q-30 10 -80 10q-20 -10 -65 -28q-30 -3 -72 -15q-199 -129 -199 -176zM1014 530 q75 0 157 23q85 20 119 51q-68 19 -82 19q-98 0 -153 -39q-23 -16 -41 -54z" />
<glyph unicode="&#x178;" horiz-adv-x="1048" d="M45 1214q0 75 37 162h100q3 -11 56 -51l30 -219q54 -188 201 -188q128 0 385 194q22 16 143 104.5t222 161.5q45 31 84 31q33 0 73 -43q35 -40 35 -59q0 -43 -45 -97q-49 -58 -143 -149q-132 -132 -197 -205q-86 -100 -145 -162q-14 -16 -70.5 -76.5t-99.5 -107.5 q-51 -71 -168 -256q-21 -42 -37 -78q-16 -53 -29 -88q-30 -86 -82 -86q-22 9 -114 61q-3 51 4 91q113 250 186 360q14 22 51 43l4 27q15 23 115 139q4 12 8 18q-16 4 -33 4q-4 0 -98 -20q-90 -20 -106 -20q-76 0 -150 47q-74 50 -108 116q-70 142 -95 244q-14 58 -14 102z M281 1380q0 65 53 109q57 -21 88 -35q76 -30 76 -72q0 -35 -31 -71q-33 -33 -76 -33t-76 33q-34 30 -34 69zM731 1380q0 54 10 84h70q98 0 98 -125q0 -75 -71 -75q-107 0 -107 116z" />
<glyph unicode="&#x2c6;" horiz-adv-x="827" d="M43 1415q64 15 180 111l180 147q33 3 113 -35q87 -44 105 -67q74 -51 159 -115q107 -79 107 -151q0 -54 -68 -54q-2 0 -6 0.5l-12 1.5t-15 2q-8 2 -16 3.5t-11.5 2.5t-4.5 1q-17 0 -148 104q-134 104 -147 104q-34 0 -56 -22q-26 -35 -28 -37q-60 -47 -142 -104 q-18 -13 -88 -13q-53 0 -77 43q-18 48 -25 78z" />
<glyph unicode="&#x2dc;" horiz-adv-x="993" d="M45 1505q0 6 16 19l15 14q37 54 190 170q2 0 8 1t11 1q42 29 80 29q93 0 180 -78q101 -88 133 -88q38 0 203 80q165 82 155 82q2 0 6 -1.5t10.5 -3.5t12.5 -4v-40q0 -16 -39 -41q0 -26 -4 -46q-232 -180 -348 -180q-44 0 -174 86t-117 86q-28 0 -141 -98l-113 -96 q-1 0 -4.5 0.5l-10.5 1.5l-14 2q-6 1 -12.5 2t-9.5 1.5t-4 0.5q-29 73 -29 100z" />
<glyph unicode="&#x2000;" horiz-adv-x="1084" />
<glyph unicode="&#x2001;" horiz-adv-x="2169" />
<glyph unicode="&#x2002;" horiz-adv-x="1084" />
<glyph unicode="&#x2003;" horiz-adv-x="2169" />
<glyph unicode="&#x2004;" horiz-adv-x="723" />
<glyph unicode="&#x2005;" horiz-adv-x="542" />
<glyph unicode="&#x2006;" horiz-adv-x="361" />
<glyph unicode="&#x2007;" horiz-adv-x="361" />
<glyph unicode="&#x2008;" horiz-adv-x="271" />
<glyph unicode="&#x2009;" horiz-adv-x="433" />
<glyph unicode="&#x200a;" horiz-adv-x="120" />
<glyph unicode="&#x2010;" horiz-adv-x="770" d="M53 442q0 46 25 70.5t72 24.5q154 0 174 -5q52 -8 157 -8l29 6q36 0 86 -16q35 -41 35 -74q0 -26 -39 -43q-5 -5 -16.5 -16t-16.5 -16q-21 -21 -84 -15q-37 -10 -94 -18q-23 2 -135 2q-1 0 -135 16q-3 1 -9 4.5t-17.5 10.5t-21.5 12q-10 45 -10 65z" />
<glyph unicode="&#x2011;" horiz-adv-x="770" d="M53 442q0 46 25 70.5t72 24.5q154 0 174 -5q52 -8 157 -8l29 6q36 0 86 -16q35 -41 35 -74q0 -26 -39 -43q-5 -5 -16.5 -16t-16.5 -16q-21 -21 -84 -15q-37 -10 -94 -18q-23 2 -135 2q-1 0 -135 16q-3 1 -9 4.5t-17.5 10.5t-21.5 12q-10 45 -10 65z" />
<glyph unicode="&#x2012;" horiz-adv-x="770" d="M53 442q0 46 25 70.5t72 24.5q154 0 174 -5q52 -8 157 -8l29 6q36 0 86 -16q35 -41 35 -74q0 -26 -39 -43q-5 -5 -16.5 -16t-16.5 -16q-21 -21 -84 -15q-37 -10 -94 -18q-23 2 -135 2q-1 0 -135 16q-3 1 -9 4.5t-17.5 10.5t-21.5 12q-10 45 -10 65z" />
<glyph unicode="&#x2013;" horiz-adv-x="1679" d="M35 375q-3 139 12 166q23 51 86 51q-8 0 1 -1q6 -1 9 -1q36 -4 70 -4q37 -2 106 -2h343q69 4 204 14l201 18q2 0 22.5 -2.5t66 -7t97.5 -8.5l185 -14q29 0 61 14q78 -66 78 -98q0 -103 -266 -103l-9 1q-10 0 -31 1t-44 2q-64 5 -84 5q-2 0 -8 -1.5t-19 -4.5t-26 -5 q-43 -12 -78 -16q-539 -53 -799 -53q-90 0 -178 49z" />
<glyph unicode="&#x2014;" horiz-adv-x="2752" d="M35 571q47 44 67 50q45 10 119 10q10 0 51 -8l58 -7q14 -2 354 -2h2h7h13t18.5 0.5t23.5 0.5t28.5 0.5t34.5 0.5l131 5q6 0 27 -9q21 -8 28 -8q76 2 226 10l223 11q310 15 561 -4q233 -19 277 -19h213q108 0 129 6q30 -25 57 -39q5 -18 -27 -129q-173 -28 -291 -28h-1h-6 t-11.5 -0.5t-17 -0.5t-21.5 -1q-22 0 -72 -1t-77 -1l-234 -5l-477 5q-212 0 -651 -9q-68 -3 -242 -8q-43 -8 -41 -10h-260q-172 0 -209 43q0 7 -6 68q-1 17 -2 36t-1.5 29t-0.5 14z" />
<glyph unicode="&#x2018;" horiz-adv-x="485" d="M43 1260q0 50 88 219l49 43q18 32 35 53q159 156 199 156q30 0 82 -41q2 -2 14 -56q2 -12 5 -25t4 -18.5t1 -7.5q0 -29 -39 -65q-7 -3 -17 -7t-24 -11t-24 -11q-63 -46 -174 -191q-19 -28 -29 -100q-13 -95 -16 -100q-9 -19 -41 -19q-52 0 -86 84q-27 61 -27 97z" />
<glyph unicode="&#x2019;" horiz-adv-x="425" d="M63 1217q0 14 93 124q51 59 104 209q1 6 2 23.5t3 39.5t5 44q12 80 52 80q48 0 98 -27q37 -24 37 -154q0 -57 -35 -145q-6 -32 -62 -170q-10 -2 -30 -16q-21 -92 -156 -92q-111 0 -111 84z" />
<glyph unicode="&#x201a;" horiz-adv-x="522" d="M-55 -330q0 13 73 107q5 7 41.5 52.5t63.5 80.5q59 77 72 141q2 14 20 117q22 27 37 53h33q94 0 94 -172q0 -8 -43 -190q-71 -96 -117 -162q-9 -11 -80 -57q-77 -50 -100 -50q-38 0 -66 25t-28 55z" />
<glyph unicode="&#x201c;" horiz-adv-x="669" d="M45 1278q0 114 96 266q88 141 178 197q70 -6 91 -76q2 -6 32 -119l78 94q52 52 105 52q30 0 63 -11q-3 -39 6 -79q25 -22 25 -29q-17 -28 -113 -135q0 -18 -14 -43q-45 -48 -51 -76l-4 -37l-25 -65q0 -26 39 -68q-20 -17 -51 -62q-65 -3 -99 58q-12 25 -36 100 q-9 30 -11 35q0 1 2 9.5t6.5 28.5t8.5 42q18 76 18 82q0 16 -14 41q-73 -28 -129 -152q-1 -1 -8 -8.5t-13 -13.5q2 -12 -4 -58q-1 -5 -3 -13l-5 -21q0 -41 12 -109q23 -66 25 -61q0 -33 -41 -33q-80 0 -129 125q-35 87 -35 139z" />
<glyph unicode="&#x201d;" horiz-adv-x="757" d="M45 1237q0 10 78 94l125 133q34 43 41 80q21 21 33 41q1 6 2.5 32.5t3.5 47.5q0 22 24 49t43 27q46 0 76 -70l41 -84q0 -87 -23 -125q-105 -165 -180 -243q-18 -10 -70 -42.5t-79 -48.5q-26 13 -70 54q-45 39 -45 55zM389 1204q0 44 62 115q70 73 108 147q24 46 78 179 q16 26 47 26q3 0 11 -1t12 -1q18 -13 61 -59q43 -67 43 -90q0 -14 -16 -33q6 -82 -117 -232q-124 -151 -199 -151q-90 0 -90 100z" />
<glyph unicode="&#x201e;" horiz-adv-x="860" d="M-55 -330q0 13 73 107q6 7 20 25t38 48t47 60q59 77 72 141q2 14 20 117q22 27 37 53h33q94 0 94 -172q0 -8 -43 -190q-71 -96 -117 -162q-9 -11 -80 -57q-77 -50 -100 -50q-38 0 -66 25t-28 55zM287 -332q0 14 73 105q67 82 105 131q60 81 70 143q2 11 22 115 q19 23 37 55h33q94 0 94 -174q0 -8 -43 -190q-2 0 -119 -164q-9 -10 -80 -56q-77 -47 -98 -47q-38 0 -66 25t-28 57z" />
<glyph unicode="&#x2022;" horiz-adv-x="794" d="M59 694q0 10 17 86q18 68 18 70q0 6 -4 18q204 125 268 125q7 0 144 -10q83 -6 182 -111q57 -60 57 -223q0 -4 -10 -24q-10 -15 -10 -21q-30 -108 -195 -143q-77 -17 -131 -17q-10 3 -30 7q-30 6 -37 6h-33q-107 0 -170 57q-66 66 -66 180z" />
<glyph unicode="&#x2026;" horiz-adv-x="1519" d="M61 119q0 9 33 57q-2 4 -2 12q0 15 2 19q42 45 84 45q31 0 96 -41q23 -64 23 -113q0 -17 -33 -61q-18 -27 -67 -27q-34 0 -84 41q-52 43 -52 68zM641 135q0 36 33 72q31 39 61 39q13 0 72 -27q49 -27 49 -39q0 -162 -111 -162q-104 0 -104 117zM1157 119q2 14 10 39 q2 10 5 22.5t4.5 18t1.5 8.5q23 29 77 29q14 -3 41 -9q39 -8 54 -8q0 -33 -2 -51q3 -31 41 -31q3 -31 -46 -80q-45 -45 -86 -45q-40 0 -69 33q-31 36 -31 74z" />
<glyph unicode="&#x202f;" horiz-adv-x="433" />
<glyph unicode="&#x2039;" horiz-adv-x="925" d="M78 547q0 11 35 106q506 477 573 477q90 0 90 -96q0 -55 -10 -65q-160 -139 -248 -215q-93 -80 -153 -148q27 -44 79 -47q33 0 234 -65q178 -55 178 -127q0 -95 -72 -95q3 0 -44 15.5t-153 48.5t-251 78q-10 2 -66.5 14t-103.5 21q-88 21 -88 98z" />
<glyph unicode="&#x203a;" horiz-adv-x="811" d="M57 274q0 53 33 82q155 108 399 287q-173 119 -374 262q-19 16 -19 76q0 71 43 86q13 -6 46.5 -18t50.5 -19q4 -5 38 -39q98 -38 201 -112q7 -6 21 -20t22 -21l141 -86q37 -21 46 -84q4 -32 4 -52q0 -47 -78 -104q-2 -1 -14 -9.5t-40 -28t-59 -40.5q-106 -70 -258 -190 q-87 -72 -96 -72q-107 0 -107 102z" />
<glyph unicode="&#x205f;" horiz-adv-x="542" />
<glyph unicode="&#x20ac;" horiz-adv-x="1785" d="M39 494q0 10 27 86q74 0 94 -2l30 -5q27 7 80 19q11 9 29 57q-78 6 -92 13q-57 26 -57 129q0 88 88 88q4 0 63 -9q55 -8 68 -8q51 0 141 72q114 93 145 113q209 124 404 172q53 26 149 61q79 18 254 18q48 0 76 -57q21 -43 21 -67q0 -39 -33 -68q-36 -33 -70 -33 q-1 0 -4 0.5t-9.5 1.5t-12.5 2q-16 4 -27 4q-223 0 -526 -182q14 -20 43 -20q4 1 15.5 2.5t33.5 5t43 6.5q94 12 151 16q321 19 412 19q18 0 133 -37q37 -9 72 -47q4 -4 4 -33q0 -33 -35 -53q-38 -23 -80 -23q-1 0 -6.5 0.5t-17 1.5t-25.5 2q-29 2 -51 2q-159 0 -488 -34 q-29 -11 -49 -15q-150 -3 -420 -24q-17 -3 -53 -58q18 -6 86 -6l719 58q8 0 44 -1.5t62 -1.5l105 -4q1 0 33 7q24 8 30 8l39 -8q34 -5 84 -11q23 -3 70 -41q-6 -35 -53 -98q-76 -19 -148 -25q-48 -5 -373 -22q-156 -10 -262 -23q-80 -18 -80 -20q-13 0 -36 2q-23 4 -39 4 q-39 0 -156 -20q-108 -16 -143 -27q-2 1 -4 0t-3.5 -4.5t-1.5 -9.5q0 -53 185 -97q21 -14 28 -18q171 -41 353 -41q54 0 205 8l204 8q70 3 183 -37q28 -25 28 -69q0 -78 -69 -84q-548 -60 -668 -60q-279 0 -483 132q-8 10 -47 41q-6 2 -18.5 6t-24.5 8t-23 8q-30 24 -80 96 q12 76 -31 94q-86 27 -124 27q-7 0 -11 -4q-3 -6 -8 -6q-62 0 -92 115z" />
<glyph unicode="&#x2122;" horiz-adv-x="1218" d="M55 1634q57 48 156 68q193 41 416 41q81 0 129 -51l75 -123q28 -47 50 -47q42 25 182 141q49 39 145 86q17 -7 66 -39q33 -39 33 -96q0 -1 -1.5 -7t-5 -22.5t-6.5 -30.5q-12 -58 -12 -67q-10 -90 -29 -168q-6 -37 -63 -37q-64 0 -64 182v17q-4 0 -20 8q-31 -16 -80 -59 q-100 -109 -160 -109q-18 0 -137 149q-27 -27 -43 -84l-22 -69q-15 -21 -41 -21h-50q-45 96 -45 107l25 86q25 83 25 84q0 16 -27 16q-104 0 -145 -35q-31 -132 -64 -292q-6 -35 -68 -35q-36 0 -63 35q-8 8 -8 69v2l-7 19q-1 -1 -1 -6q0 66 28 186q-4 2 -18 2q-5 0 -35 -12 q-32 -13 -35 -13q-47 0 -69 58q-16 47 -11 67z" />
<glyph unicode="&#x25fc;" horiz-adv-x="839" d="M0 0v840h840v-840h-840z" />
<glyph unicode="&#xfb01;" horiz-adv-x="1406" d="M35 573q0 55 59 111q32 -4 56 -4q126 0 161 6q81 12 84 66q-9 68 -6 200q17 97 94 361q41 96 135 160q92 69 195 69q4 0 15.5 0.5t32.5 1.5t40 2l76 6q145 10 250 -26q56 -24 102 -70q14 -13 41 -39t41 -39q40 -112 41 -102q0 1 -2.5 -4.5t-9 -20t-13.5 -34.5 q4 -37 -4 -87q-24 -55 -96 -55q-184 0 -184 94q0 5 24 52q25 45 25 63q0 16 -10 29q-80 39 -236 39q-108 0 -160 -19q-118 -44 -176 -229q-45 -131 -45 -281q0 -86 13 -102q25 -28 112 -25l533 35q3 0 49 -12q43 -14 59 -14l27 -127q0 -69 -55 -246q-37 -115 -58 -162 q-6 -12 -19.5 -33t-19.5 -33q-11 -23 -39 -26q-39 13 -57 35q-29 39 -29 131q0 1 31 131q9 37 17.5 71l12 48t3.5 16q0 29 -33 29q-149 0 -475 -52q-52 -9 -43 -59l65 -338q0 -12 -22 -61q-27 -58 -57 -58q-35 0 -50 21q-39 45 -45 47q-35 189 -63 379q-9 69 -170 69 q-1 0 -7.5 -1t-21 -3.5t-30.5 -5.5q-55 -12 -62 -12q-33 0 -63 37q-33 36 -33 71z" />
<glyph unicode="&#xfb02;" horiz-adv-x="1501" d="M25 434q0 94 49 115q31 9 80 16q42 6 55 35q10 23 10 96q0 110 4 135q40 303 152 486q28 45 104 88q3 30 41 68t76 53q41 10 256 55q16 4 84 4q387 0 387 -254q0 -31 -23 -57q-21 -27 -51 -27t-57 35q-44 53 -53 59q-50 35 -156 35q-127 0 -272 -43q-102 -30 -179 -166 q-78 -138 -96 -313q-12 -12 -20 -37v-170q18 -12 35 -12l96 22q95 25 98 25q4 0 12 -4q4 -4 13 -4q10 0 110 33q105 30 111 30q3 0 55 -6q47 -8 55 -8q47 0 203 25q25 18 33 59q16 98 111 469q4 14 24.5 88t36.5 137q12 43 70 43q30 0 47 -20q41 -53 41 -115q0 -60 -84 -350 q-68 -236 -70 -283q-2 -16 -4 -49q-3 -14 -16 -57q-4 -105 -35 -437q-21 -39 -39 -96q-6 -53 -12 -90q-46 -49 -101 -49q-7 0 -47 22q-45 25 -51 25v84q0 4 12 31q13 32 13 35l41 278q0 47 -52 47q-370 0 -678 -131q48 -184 48 -223q0 -10 -89 -96q-83 27 -118 120 q-3 9 -8 28.5t-15.5 56t-19.5 69.5q-34 6 -78 0q-50 -8 -47 -10q-45 0 -72 49q-20 33 -20 51z" />
</font>
</defs>
</svg>
