<?xml version="1.0" standalone="no"?>
<!DOCTYPE svg PUBLIC "-//W3C//DTD SVG 1.1//EN" "http://www.w3.org/Graphics/SVG/1.1/DTD/svg11.dtd" >
<svg xmlns="http://www.w3.org/2000/svg">
<metadata></metadata>
<defs>
<font id="danielregular" horiz-adv-x="1742" >
<font-face units-per-em="2048" ascent="1290" descent="-758" />
<missing-glyph horiz-adv-x="751" />
<glyph horiz-adv-x="0" />
<glyph horiz-adv-x="682" />
<glyph unicode="&#x9;" horiz-adv-x="505" />
<glyph unicode="&#xd;" horiz-adv-x="505" />
<glyph unicode=" "  horiz-adv-x="751" />
<glyph unicode="&#x09;" horiz-adv-x="751" />
<glyph unicode="&#xa0;" horiz-adv-x="751" />
<glyph unicode="!" horiz-adv-x="620" d="M166 86q69 84 96 84q13 0 84 -41q-3 -13 -13.5 -60t-17.5 -79q-88 24 -106 30q-12 9 -43 66zM250 545q0 37 86 293q2 4 2 75q0 24 20 72q27 60 29 70l43 233q26 149 92 453q27 90 31 104q16 12 53 41q60 -25 60 -63q0 -1 -58 -267q-26 -129 -94 -428q-28 -55 -68 -167 l-81 -568q-3 -16 -31 -16q-32 0 -60 69q-24 58 -24 99z" />
<glyph unicode="&#x22;" horiz-adv-x="526" d="M66 1462q0 30 20 109q23 98 25 123q-16 26 -33 51q3 6 49 59q37 43 57 43q5 0 17 -4h16q29 -32 29 -78q0 -139 -25 -264q-24 -84 -43 -160h-86q-26 74 -26 121zM373 1343q0 18 24 168q16 92 58 316q4 8 53 57q57 -57 57 -117q0 -27 -24 -168q-36 -205 -68 -317l-41 -29 q-59 44 -59 90z" />
<glyph unicode="#" horiz-adv-x="1724" d="M18 393q40 43 91 43q13 0 137 -26q122 -25 151 -25q17 0 23 2q26 38 55 135q31 109 31 152q0 45 -39 45q-9 0 -53 -6q-43 -6 -56 -6q-172 0 -225 53q0 22 21 49q20 27 39 27q4 0 14 -1.5t27.5 -3.5t33.5 -4q62 -6 78 -6q147 0 180 10q59 24 97 140q66 220 79 262 q30 3 54 24q47 -41 47 -81q0 -12 -51 -148q-52 -131 -52 -149q0 -19 33 -45l389 2q42 0 115 211q46 136 86 260q14 44 74 170h45q16 -19 16 -64q0 -67 -18 -123q-17 -17 -43 -65q-7 -20 -47 -168q-33 -132 -33 -164q0 -45 57 -45q20 0 90 12q63 14 90 14q39 0 123 -8 q99 -6 125 -6q2 -20 -14 -53q-18 -26 -41 -33q-47 -15 -236 -18q-169 -3 -237 -41q-88 -51 -88 -291q152 4 211 4q9 0 26 -0.5t49 -1.5t58 -2q28 -1 59 -2t47.5 -1.5t24.5 -0.5q-6 -23 -37 -47q-30 -27 -49 -27q-10 0 -37 6q-7 2 -15.5 4t-13 3t-6.5 1q-85 0 -205 -24 q-154 -30 -172 -76q-51 -126 -94 -225q-65 -148 -147 -176q-43 18 -43 37q0 16 151 368q-12 31 -80 31q-245 0 -358 -55q-31 -15 -49 -99q-27 -106 -29 -116q-54 31 -98 28q0 71 24 170q-49 52 -223 76q-143 18 -162 94zM571 436q0 -25 17 -39h258q172 0 213 72 q36 143 63 233q-127 0 -227 7q-6 0 -25 2.5t-32 3.5q-50 4 -56 4q-80 0 -133 -33q-78 -153 -78 -250z" />
<glyph unicode="$" horiz-adv-x="1220" d="M33 506q0 63 71 63q-10 0 29 -7q85 -16 354 -58q201 293 201 342q0 27 -45 47q-16 7 -68 27q-74 47 -151 127q-96 104 -96 163q0 19 32 56q31 34 54 34q48 0 227 -6q181 -6 231 -6q25 0 37 12q4 6 86 150l187 328h43q28 -28 28 -47l-204 -437q9 -28 118 -43 q101 -12 101 -90q0 4 -3 -5t-14 -46q-194 51 -260 51q-20 0 -78 -94q-57 -89 -57 -119q0 -19 84 -88q101 -82 154 -145q86 -103 86 -203q0 -37 -25 -59q-26 -26 -96 -56q-68 -32 -109 -32h-368q-65 -87 -131 -228q-72 -159 -111 -235q-31 0 -51 20q-23 23 -23 49 q0 57 62 199l92 201l-35 26q-243 50 -336 60q-14 52 -16 49zM510 1157q10 -29 92 -90t113 -61q46 0 102 151q-9 6 -88 6q-8 0 -44 -1t-64 -1q-98 -4 -111 -4zM637 512q0 -31 16 -31h260q26 0 88 39q67 37 74 58q-80 109 -170 178q-11 4 -43 20t-51 25q-23 -13 -98 -137 q-76 -125 -76 -152z" />
<glyph unicode="%" horiz-adv-x="1808" d="M4 12q0 59 221 250q19 16 68.5 58t105 88.5t111.5 93.5q16 15 127 90q409 278 743 508q-15 12 -37 12q-351 0 -430 -43q-22 -11 -149 -78q-56 -20 -164 -20q-120 0 -197 80q0 7 -1 21t-1 20q0 276 258 276q189 0 252 -57q11 -36 66 -109q79 0 342 23l156 16 q124 0 124 -90q0 -48 -47 -86q-99 -79 -188 -143q-117 -66 -385 -238q-208 -134 -322 -219q-301 -218 -448 -391q-16 -23 -8 -51q-3 -2 -9 -7.5t-17.5 -17t-22.5 -21.5q-34 -34 -50 -34q-33 0 -65 22q-33 20 -33 47zM596 1223q2 -2 61 -29q43 -18 62 -18q21 0 82 30 q-47 47 -82 47q-12 0 -62 -16q-46 -14 -61 -14zM956 100v181q0 22 56 57q4 2 73 43q31 25 105 70q224 94 272 94q119 0 226 -37q141 -53 141 -148q0 -155 -195 -249q-153 -78 -331 -78q-8 0 -29 6t-29 6q-11 0 -26 -12q-19 -15 -25 -15q-20 0 -113 37q-34 12 -64 22.5 t-45 16.5t-16 6zM1073 217q88 -70 199 -70q137 0 262 41q158 56 192 160q-91 70 -176 70q-329 0 -477 -201z" />
<glyph unicode="&#x26;" horiz-adv-x="1316" d="M78 268q0 124 86 230q36 45 182 168q149 125 186 174q-22 99 -22 198q0 217 86 381q36 71 188 174q153 101 226 101q250 0 250 -226q0 -158 -95 -297q-59 -84 -221 -227q-15 -13 -77.5 -66t-108.5 -92q-1 -1 -35 -4q-27 0 -27 -22v-37l178 -330q-1 0 -2 -1t-2 -1 q0 -11 25 -8q16 0 170 121l188 147h45v-59q0 -36 -143 -152q-166 -141 -176 -155q27 -52 127 -99v-57q-16 -16 -64 -16q-47 0 -104 45q-61 45 -64 45q12 0 -28 -23q-46 -28 -166 -88q-221 -108 -318 -108q-284 0 -284 284zM207 260q0 -147 168 -147q32 0 117 24 q77 22 118 43q122 70 189 146q-38 33 -101 202q-52 138 -112 138q-79 0 -228 -162q-151 -165 -151 -244zM616 1044q0 -54 31 -133h43q161 96 293 240q164 176 164 324q0 90 -98 90q-188 0 -314 -170q-119 -159 -119 -351z" />
<glyph unicode="'" horiz-adv-x="262" d="M113 1044v82q0 3 26 162q3 18 9 49t15 82t17 94q10 47 43 70q4 -3 23.5 -16l34.5 -23v-16q0 -116 -17 -266q-24 -218 -82 -218h-69z" />
<glyph unicode="(" horiz-adv-x="890" d="M18 305q0 11 11 60l10 51q73 568 498 1155q112 157 333 315h56q30 -18 30 -39q0 -18 -149 -176l-182 -192q-47 -50 -105 -154q-24 -78 -71 -168q-196 -367 -220 -426q-84 -218 -84 -471q0 -449 181 -666q-6 -31 -31 -59q-235 137 -256 430q-21 279 -21 340z" />
<glyph unicode=")" horiz-adv-x="698" d="M-90 -561q89 103 125 166q7 14 168 274q99 157 139 291q107 386 107 569q0 417 -107 777q-58 134 -111 284v82h68q31 0 49 -53q3 -9 12.5 -34.5t14.5 -43.5q10 -18 57 -106q58 -114 103 -345q43 -240 43 -501q0 -337 -179 -740q-13 -32 -350 -682q-20 2 -139 2v60z" />
<glyph unicode="*" horiz-adv-x="755" d="M39 1249q0 27 104 137q103 109 103 152q0 14 -64 57l-78 56v69q29 29 46 29q24 0 217 -129q31 53 55 127q29 89 45 131h43q39 -17 39 -100q0 -39 24 -54q139 103 175 103q23 0 63 -43v-45q-17 -4 -145 -84q-17 -16 -138 -117q8 -6 89.5 -73.5t140.5 -118.5 q-30 -58 -62 -58q-25 0 -98 37q-76 39 -82 39q-55 0 -55 -70q0 -18 6 -53q-21 -52 -59 -123q-51 28 -60 107q-4 18 -14 127q-3 6 -6 6q-6 -3 -11 -8q-12 6 -24 6q-45 0 -86 -66q-21 -34 -60 -102q-25 -17 -36 -17q-21 0 -45 27q-27 27 -27 51z" />
<glyph unicode="+" horiz-adv-x="970" d="M35 485q21 65 80 74q6 2 116 2q102 0 146 72q14 23 49 180q24 105 109 117q4 -11 14 -29q12 -27 12 -41q0 -23 -24 -96q-27 -73 -27 -96q0 -70 90 -70q9 0 39 6t39 6q36 0 94 -6l94 -12q21 -12 56 -80q-75 -57 -150 -57q-19 0 -90 6q-60 8 -88 8q-112 0 -121 -102 q-9 -153 -70 -217h-71q0 7 0.5 21t1.5 40.5t2 48.5t2 48.5t1.5 41t0.5 21.5q0 54 -6 98q-106 -27 -164 -27q-71 0 -135 43z" />
<glyph unicode="," horiz-adv-x="481" d="M-129 -276q168 106 195 129q95 76 120 182q8 75 23 172h41q72 0 72 -154q0 -118 -60 -190q-65 -59 -188 -158q-42 -9 -117 -55h-72q-7 20 -14 74z" />
<glyph unicode="-" horiz-adv-x="864" d="M59 420q0 54 58 67q122 21 262 21q78 0 117 4q12 0 61 18q60 17 68 17q30 0 57 -53q27 -49 27 -82q0 -58 -52 -58q-14 0 -90 13q-71 12 -90 12q-134 0 -219 -14q-12 -2 -29.5 -6t-30 -6t-22.5 -3q-28 -6 -41 -10l-7 -2h3q-17 0 -45 31q-27 34 -27 51z" />
<glyph unicode="." horiz-adv-x="489" d="M78 37q5 39 37 113q16 23 63 53q49 30 68 30q36 0 61 -38q31 -39 31 -74q0 -29 -59 -76q-62 -47 -95 -47q-30 0 -106 39z" />
<glyph unicode="/" horiz-adv-x="1398" d="M20 -166q0 14 25 62q29 53 31 71q100 84 200 246q28 44 166 274q16 40 84 166q2 4 181 226q124 154 127 237q83 65 202 232q104 145 168 266q-11 11 -39 8q7 14 92 90q46 43 197 166q43 -18 43 -72q0 -70 -270 -407q-3 -4 -19.5 -23t-33 -40.5t-33.5 -45.5 q-12 -18 -52.5 -82.5t-70.5 -109.5q-99 -115 -223 -285q-34 -43 -463 -747q-79 -132 -150 -242q-25 -41 -78 -41q-32 0 -69 16q-2 5 -8 13q-7 10 -7 22z" />
<glyph unicode="0" d="M129 555q0 129 14 170q3 9 23 49q-12 49 -12 100q0 301 350 529q109 74 313 139q202 60 330 60q110 0 272 -70q102 -44 129 -113q66 -160 66 -508q0 -111 -15 -166q-76 -276 -409 -526q-296 -223 -559 -223q-185 0 -340 162q-162 168 -162 397zM225 600q0 -235 140 -369 q140 -131 323 -131q55 0 215 60q161 61 209 96q232 179 318 324q26 50 61 133q48 111 45 135l-12 364q-3 72 -80 158q-87 96 -127 111q-82 30 -187 30q-292 0 -526 -159q-97 -66 -141 -101q-89 -71 -119 -135h39q180 186 332 207q-32 -40 -238 -238q-170 -167 -225 -309 q-27 -79 -27 -176z" />
<glyph unicode="1" d="M698 80l260 1266h58q28 -52 28 -109q0 -79 -22 -184q-6 -31 -40.5 -192t-61.5 -294q-78 -397 -162 -557q-12 4 -41 33q-22 25 -19 37z" />
<glyph unicode="2" d="M178 84v18q-3 50 19 78q26 39 165 148q194 149 435 356q87 76 358 344q226 226 295 381q-44 47 -96 47q-198 0 -574 -170q-284 -127 -264 -127h-51q-31 22 -31 45q0 49 98 86q1 0 52 17.5t86 33.5q486 218 708 218q80 0 135 -43q54 -48 54 -113q0 -101 -117 -227 q-23 -24 -186 -191q-359 -377 -881 -811q-6 -39 47 -51q86 -23 166 -17l598 39q41 2 272 -20l19 14l14 -82q-24 -1 -126.5 -6t-184.5 -8q-88 -3 -332 -25l-170 -16q-10 0 -45 6q-31 8 -45 8q-13 0 -35 -14q-24 -12 -37 -12q-68 0 -182 30q-116 31 -164 64z" />
<glyph unicode="3" d="M43 4q73 67 197 117q179 68 444 135q317 84 444 131q242 87 420 221q-21 56 -162 90q-118 31 -452 70q-247 25 -293 25q-9 0 -23 -7q-15 -6 -22 -6q-123 0 -283 68v57q36 31 56 37q25 5 53 14q100 22 166 41q141 42 356 152q268 134 268 203q0 59 -96 59q-353 0 -719 -96 q-16 -3 -108 -41q-79 -31 -99 -31q-57 0 -57 57q0 80 453 154q378 59 569 59q51 0 127 -49q84 -53 84 -98q0 -52 -70.5 -118.5t-210.5 -139.5q-125 -66 -374 -199q27 -24 260 -45q1 0 13 -2t38 -6t57 -8q11 -2 53.5 -6t75.5 -8q492 -62 492 -234q0 -41 -103 -115 q-89 -61 -145 -86q-294 -139 -926 -290q-182 -45 -440 -164z" />
<glyph unicode="4" d="M209 866q0 53 55 138q76 112 84 133q18 45 70 178q59 147 82 147q-6 0 3 -3q12 -5 40 -11q0 -9 8 -33q6 -27 6 -37q0 -60 -78 -233q-86 -187 -102 -242q147 -72 246 -72h333q106 0 146 29q58 40 76 172q5 37 53 144q12 26 45 105.5t55 129.5q52 115 144 217h43 q18 -12 18 -45q0 -11 -27 -45q-32 -38 -45 -70q-19 -41 -59 -170q-38 -123 -68 -192q-19 -25 -45 -76q-24 -82 -24 -170q0 -21 4 -61q-12 -10 -43 -41q-38 -112 -43 -127q-115 -334 -115 -486q0 -15 -6 -67q-8 -47 -8 -66q-10 -4 -70 -16q-31 28 -31 141q0 20 7 74 q1 5 10 74q10 101 63 270q35 101 35 117v61q-25 25 -63 25q-2 0 -82 -13q-101 -16 -240 -16q-142 0 -235 19q-92 22 -238 83q-4 12 -4 35z" />
<glyph unicode="5" d="M178 -18q22 54 80 81q60 21 234 76q931 300 931 430q0 86 -266 209q-188 89 -420 123q-134 23 -245 45q-12 3 -37 31q-16 19 -68 16q-16 16 -16 51q0 53 96 256q91 194 139 246q231 -26 459 -26q50 0 82 4q2 0 7.5 2t17.5 7t24 9q38 17 57 17h273q6 -24 12 -74 q-275 -80 -403 -80q-53 0 -193 14q-163 13 -192 13q-105 0 -152 -142q-2 -7 -23 -77t-38 -123l34 -29q156 -34 371 -88q248 -61 422 -162q201 -121 201 -272q0 -35 -111 -129q-109 -89 -149 -107q-154 -63 -283 -110q-9 -3 -45 -14t-89.5 -28t-111.5 -36q-30 -10 -118 -40 t-142 -48q-216 -74 -235 -74q-27 0 -103 29z" />
<glyph unicode="6" d="M121 465q0 24 14 65q16 51 19 64q16 95 43 178q138 410 723 787q71 49 176 71q4 1 24.5 3.5t68.5 8.5t97 13l29 -31q-3 -23 -29 -43q-222 -37 -495 -262q-242 -199 -385 -420q-40 -63 -111 -229l-4 -8t-9.5 -18.5t-13.5 -25.5q-20 -33 -20 -49v-153l22 -23q15 0 25 23 q11 52 61 90q66 48 242 102q259 82 551 82q475 0 475 -256q0 -288 -725 -411q-153 -27 -215 -27q-109 0 -238 29q-103 23 -217 174q-108 150 -108 266zM313 285q132 -185 404 -185q152 0 465 93q90 27 213 98q151 89 151 149q0 72 -162 115q-132 33 -223 33q-221 0 -477 -70 q-341 -89 -371 -233z" />
<glyph unicode="7" d="M268 1300v72q73 45 463 60q143 3 461 28l213 19q34 1 52 -25.5t18 -77.5q0 -146 -236 -461q-322 -431 -442 -614q-11 -16 -65 -98t-99 -148q-23 -42 -78 -67q-20 14 -53 14q-2 2 -10 14q-7 10 -7 23q0 32 142 227q51 69 176 244q155 218 284 395q179 245 259 412 q-21 35 -80 35q-5 0 -24.5 -2t-59.5 -6t-80 -7q-202 -22 -326 -22q-22 0 -45 2q-10 1 -20.5 2t-16 1.5t-8.5 0.5q-17 0 -27 -2q-24 -21 -51 -21h-172z" />
<glyph unicode="8" d="M213 1192q0 68 41 127q28 32 94 96l74 -43q-19 -39 -70 -102q-37 -43 -37 -86q0 -92 117 -160q96 -57 178 -57h70q17 17 78 26q20 6 61 31q50 33 62 37q55 11 90 20q2 1 53 52q20 23 66 59q30 34 30 86q0 46 -53 90q-52 40 -98 49q-60 10 -82 17q-8 4 -17 4q-24 0 -77 16 q-49 19 -74 19q-61 3 -156 -33q-21 -8 -63 -21q-19 -8 -58 -33q6 30 0 103q-2 12 13 26t45 27q77 39 182 39q16 0 102 -6q102 -4 144 -4q19 0 28 -15q6 -9 82 -36q80 -27 103 -47q26 -18 55 -70q29 -53 29 -82q0 -181 -95 -252q-86 -79 -118 -108q34 -15 86 -15l9 -1 q33 -4 64 -9q106 -15 224 -107q135 -111 135 -243q0 -146 -170 -273q-10 -12 -66 -57q-44 -36 -131 -61q-62 -29 -270 -103q-77 -34 -135 -47q-129 -28 -223 -4q-118 30 -173 88q-53 62 -53 170q0 90 29 176l37 98q11 11 35 60q31 57 65 96q41 46 51 55q10 13 37 23 q10 2 33 29l-231 77q-152 81 -152 279zM408 322q0 -68 47 -109q27 -24 63 -29q58 -10 70 -12q75 -14 125 -14q131 0 268 73q51 28 152.5 84t152.5 84q39 22 90 70q60 57 60 86q0 144 -195 215q-27 11 -52 20.5t-37 13.5t-13 5q-46 12 -113 12q-149 0 -387 -86 q-27 -9 -72 -76q-9 -12 -32 -32q-15 -9 -39 -49q-3 -9 -25 -37q-17 -25 -29 -56q-8 -19 -18 -63q-16 -72 -16 -100z" />
<glyph unicode="9" d="M338 -31v88q173 143 364 308q210 183 318 364q-12 25 -39 25q-10 0 -16 -9q-5 -8 -17 -8q-258 0 -424 140q-56 47 -78 79q-30 41 -30 168q0 229 252 367q202 111 422 111q164 0 231 -48q84 -66 84 -254q0 -524 -813 -1214q-159 -135 -172 -135h-66zM518 1130 q0 -124 150 -204q122 -64 241 -64q29 0 72 15q53 21 70 24q25 3 82 31q63 43 110 160q45 110 45 233q0 106 -59 135q-36 19 -139 19q-160 0 -345 -84q-227 -105 -227 -265z" />
<glyph unicode=":" horiz-adv-x="446" d="M102 166q0 115 103 115q6 0 41 -7q27 -6 39 -6q0 -8 6 -43q8 -31 8 -43q0 -37 -35 -90t-65 -53q-21 0 -86 27q0 3 -0.5 9t-1.5 17.5t-2 22.5q-7 47 -7 51zM121 592q0 51 41 92q44 41 90 41q35 0 74 -25q36 -23 36 -55q0 -35 -8 -43q-25 -35 -35 -61q-1 0 -38 -11 q-34 -12 -39 -12h-2h-2h-2h-2h-2h-3h-2h-2h-2h-2h-2h-2h-2h-2h-2h-3h-2h-2h-2h-2h-2h-2h-2h-3h-2h-2h-9q-4 9 -37 37q-20 17 -20 37z" />
<glyph unicode=";" horiz-adv-x="466" d="M-82 -279q247 155 291 330q0 11 4 129q0 32 29 29h80q23 -15 26 -49q2 -20 -2 -90q-12 -116 -57 -187q-17 -31 -51 -57q-3 -2 -13 -9.5t-22.5 -17t-24.5 -20.5q-5 -3 -76 -62q-37 -6 -116 -55h-58q-1 6 -4.5 25t-5.5 34zM168 580q0 44 41 79q44 35 92 35q98 0 98 -127 q0 -100 -155 -100q-76 0 -76 113z" />
<glyph unicode="&#x3c;" horiz-adv-x="841" d="M53 631q0 92 789 758q16 -6 37 -41q22 -32 22 -50q0 -8 -340 -309q-340 -304 -340 -346q0 -29 68 -100l92 -94q86 -116 242 -310q26 -17 86 -65v-70q-50 -29 -97 -29q-56 0 -141 125q-10 15 -47.5 72.5t-65.5 99.5q-55 82 -196 211q-4 4 -30.5 29.5t-47.5 46.5 q-31 31 -31 72z" />
<glyph unicode="=" horiz-adv-x="1148" d="M29 713q24 84 82 84q13 0 151 -9l377 -30q139 -10 186 -10q9 0 39 18t45 18t62 -24q16 -8 31.5 -16t23.5 -12l10 -5q8 -16 31 -49q-15 -47 -172 -47q-73 0 -328 6q-66 2 -144 4t-120 3t-63 1q-70 0 -183 29zM43 272v111q82 43 184 43q36 0 258 -10q286 -15 437 -33 q133 -19 196 -76v-59q-6 -4 -24.5 -18t-30.5 -23l-29 22q-42 8 -370 29q-10 1 -220 27q-126 20 -219 20q-143 0 -182 -33z" />
<glyph unicode="&#x3e;" horiz-adv-x="862" d="M6 27q0 46 31 82q5 4 41 38.5t115 108.5t167 156q275 254 275 276q0 17 -100 123l-123 125q-99 133 -162 213l-119 121q-98 98 -98 112q0 22 24 43q30 23 52 23q56 0 129 -88q7 -9 42 -54.5t62 -78.5q108 -135 172 -199q3 -2 178 -172q150 -144 150 -160q0 -38 -123 -133 q-31 -23 -89.5 -67t-72.5 -54q-7 -8 -45 -49t-91.5 -98t-113.5 -119q-30 -34 -145 -156q-19 -19 -19 -63l-18 12h-102q-17 14 -17 58z" />
<glyph unicode="?" horiz-adv-x="1470" d="M98 1442q0 80 308 188q242 86 391 111q73 13 290 55q158 31 168 31q322 0 322 -262q0 -179 -131 -322q-112 -119 -297 -209q-22 -11 -78.5 -38t-119.5 -57t-126 -62q-149 -72 -198 -127q-20 -48 -35 -76q-121 -238 -203 -324q-59 42 -59 90q0 37 24 131q26 104 43 136 q41 87 154 176q19 17 227 106q670 290 670 576q0 135 -160 135q-237 0 -586 -86q-383 -93 -532 -221h-57q-15 65 -15 49zM125 12q0 34 22 66q24 37 48 37q8 0 45 -13q35 -12 45 -12q36 0 129 37q30 -38 30 -100q-62 -36 -264 -105q-55 49 -55 90z" />
<glyph unicode="@" horiz-adv-x="1763" d="M59 434q0 140 70 238q54 72 190 164q48 38 144 96q274 106 438 106q11 0 109 -10q34 -5 70 -8.5t38 -3.5q178 -3 357 -113q204 -122 204 -289q0 -123 -147 -231q-130 -92 -266 -113q2 -8 2 -20q0 -93 -131 -133q-3 0 -30 -5t-75.5 -12.5t-103.5 -15.5q-5 -1 -19.5 -4.5 t-44 -10.5t-57.5 -14q-79 -18 -113 -18h-80q-222 0 -372 84q-183 104 -183 313zM186 442q0 -144 203 -209q133 -43 320 -43q1 0 98 19q245 46 268 49q-48 62 -106 162q-219 -88 -351 -88q-276 0 -276 174q0 190 354 242q3 0 18 3t52.5 10t73.5 13q107 21 131 21 q20 0 110 -17q79 -15 101 -26q6 -3 47 -41v-9q0 -40 -45 -145t-45 -111q0 5 3 -4q2 -8 11 -45l46 -14h-1q27 0 158 55q132 54 166 78q41 25 41 92q0 124 -195 207q-165 70 -305 70q-154 0 -457 -58q-70 -12 -172 -75q-101 -62 -164 -125q-84 -90 -84 -185zM483 504 q43 -43 90 -43q130 0 304 55q42 12 96 47q65 44 74 74q-53 11 -64 12q-54 4 -145 4l-70 -12q-105 -17 -160 -37q-96 -35 -125 -100z" />
<glyph unicode="A" horiz-adv-x="1550" d="M86 -41q0 57 12.5 113.5t41 120t49 101.5t61.5 109q26 60 87.5 228.5t94.5 240.5q216 473 418 814v-31q50 21 72 119q22 88 67 88q2 2 10 2q30 0 45 -47q7 -13 29 -117q106 -457 191 -895q11 -63 59 -311q18 -37 55 -129q14 -40 47 -193q35 -146 35 -195q0 -69 -90 -69 q-39 0 -47 4q-336 342 -653 342q-72 0 -295 -55q-67 -18 -123 -121q-18 -36 -70 -168q-21 -17 -65 -37q-31 31 -31 86zM381 389q0 -34 16 -31l281 13q19 1 37 1q142 0 274 -55q102 -40 277 -165v59q0 34 -58 342l-96 520q-49 250 -145 504q-127 -136 -344 -645 q-2 -5 -25 -58t-41 -98q-38 -54 -43 -63q-14 -22 -74 -164q-59 -135 -59 -160z" />
<glyph unicode="B" horiz-adv-x="1755" d="M49 1339q0 63 170 146q83 39 490 198q52 29 141 56q189 57 311 57q158 0 277 -61q153 -73 153 -215q0 -170 -231 -375q-137 -121 -375 -275q-130 -86 -242 -172q12 -12 152 -12q825 0 825 -252q0 -134 -311 -287q-53 -26 -129 -69q-35 -24 -125 -53q-13 -4 -32.5 -11 t-48.5 -16.5t-52 -17.5l-309 -148q-132 -43 -312 -113q-184 -70 -254 -198q-73 34 -73 78q0 168 397 303q13 4 33 11t53 18t59 20q67 45 304 131q224 81 342 137q194 92 313 199q10 25 16 45q-67 47 -137 69q-18 5 -151 19q-358 37 -484 37q-9 0 -33 -6q-28 -7 -30 -7 q-159 0 -295 54v41q0 21 18 39q996 525 996 790q0 97 -123 146q-87 34 -205 34q-27 0 -121 -24q-95 -27 -123 -27q-11 0 -20 6t-19 6q-18 0 -24 -6q-10 -14 -11 -14q-15 -8 -149 -41q-291 -72 -399 -217q-27 -46 -27 -209q0 -41 8 -137q2 -28 4 -60.5t3 -50.5t1 -28 q0 -274 66 -629q0 -7 26 -90q21 -72 21 -78q0 -22 -25 -47q-26 -23 -47 -23q-49 0 -61 80q-1 6 -2.5 20t-5 42t-6.5 55q-30 152 -43 248q-18 108 -33 805q-3 14 -15 34q-9 -12 -39 -12q-57 0 -57 57z" />
<glyph unicode="C" horiz-adv-x="1914" d="M76 737q0 281 276 506q170 138 525 301q52 25 133.5 63.5t109.5 51.5q137 61 260 61q20 0 56 -4q-3 -33 -27 -57q-273 -110 -299 -119q-126 -44 -154 -53q-20 -24 -49 -53l-194 -99q-370 -189 -467 -434q-10 -20 -33 -104q-20 -76 -20 -90q0 -184 153 -340 q131 -134 303 -187q106 -35 344 -35q45 0 264 25l500 51l15 -74q-66 -27 -183 -55q-11 -2 -32 -8.5t-33 -9.5l-195 -56q-29 -9 -248 -24q-208 -10 -276 -10q-160 0 -225 36q-356 199 -461 433q-43 98 -43 284z" />
<glyph unicode="D" horiz-adv-x="1884" d="M-154 1458q0 134 363 205q260 53 487 53q667 0 1071 -301q60 -47 125 -151q74 -115 74 -179q0 -142 -96 -241q-73 -76 -201 -156q-158 -94 -219 -131q-124 -81 -244 -143q-3 -1 -340 -183q-33 -16 -135 -73q-15 -15 -39 -45q-114 -23 -375 -222h-55q-31 28 -31 72 q0 63 226 184q164 82 293 150q14 7 72.5 41.5t107.5 60.5q375 203 719 406q74 47 133 129q69 90 69 166q0 15 -55 106q-117 199 -510 310q-309 86 -616 86q-2 0 -27 -1.5t-84 -5t-123 -6.5q-22 -143 -63 -499q-25 -220 -25 -252v-351q0 -22 21 -34q6 -47 6 -97l-2 -88 q-8 -16 -37 -16q-57 0 -84 172q-21 133 -21 219q0 114 37 459q40 377 68 418v32q-8 11 -19 11q-84 0 -217 -41q-170 -50 -170 -105q0 -20 31 -39v-47q-115 55 -115 127z" />
<glyph unicode="E" horiz-adv-x="1617" d="M76 182q0 35 26 213q15 115 60 408q-33 26 -33 80v32q2 18 2 35q54 16 86.5 173.5t38.5 389.5q-16 8 -47 1.5t-59 -9.5h-6q-26 0 -66 21v86q23 39 84 45q88 6 100 10q13 4 45 39q35 35 53 34q8 0 50 -16q36 -16 53 -16q270 26 278 27q116 12 473 39q33 7 76 22l72 21 q9 0 63 -7q53 -6 60 -6q55 -4 233 -4l15 -41q-42 -14 -105 -61q-20 2 -67 2q-173 0 -560 -62l-231 -36q-16 0 -74 6q-25 4 -43.5 4.5t-37 -2t-31.5 -5.5t-40.5 -9t-51.5 -11q-37 -8 -52 -11.5t-30 -12t-21 -21.5q-27 -55 -49 -235q-18 -129 -18 -222q0 -13 22 -69 q183 28 248 28h575v-88q-55 -6 -151 -6q-70 0 -146 2q-74 2 -143 2q-94 0 -231 -57q-4 -1 -20.5 -4.5t-45.5 -10t-59 -12.5q-81 -15 -107 -65q-47 -415 -47 -582q36 -45 72 -51l160 -35q61 0 174 10q223 19 503 19q49 0 115 -4l49 -2q33 -9 33 -31v-51q-61 -27 -231 -27 q-32 0 -82 -18q-49 -19 -54 -19q-23 0 -86 8q-64 9 -83 9h-5h-16q-70 -6 -264 -33q-115 -14 -137 -14q-56 0 -168 69q-121 77 -121 131z" />
<glyph unicode="F" horiz-adv-x="1595" d="M53 686q0 15 6 33l35 35q19 16 60 28q30 55 53 193q41 230 51 270q47 161 125 236q28 -14 84 -70q-83 -171 -109 -360q-10 -77 -28 -172l35 -23l1013 207l32 -19q33 -20 56 -34v-47q-52 -27 -258 -45q3 -11 -4 -17t-24 -6q-14 0 -35 8q-27 6 -37 6q-70 0 -84 2h18 q64 0 64 -6q-9 -4 -37 -10q-19 -5 -115 -16q-20 -2 -94 -35q-81 -33 -86 -33l-52.5 -10.5t-89.5 -17t-102 -19.5q-71 -17 -178 -78q-25 -14 -51 -86q-27 -70 -45 -74q4 -16 4 -55q0 -34 -18 -160q-21 -123 -21 -159q0 -85 33 -138q-55 -55 -152 -55q-28 22 -28 64 q0 30 12 116l35 279q16 134 16 139v59q-20 10 -53 21q-31 15 -31 49zM66 1464q0 76 108 111q146 43 371 115q46 14 190 20q170 6 211 14q47 22 115 43q72 10 152 10q20 0 40 -1q78 -2 125.5 -2t65.5 2q25 22 43 22q11 0 31 -14q21 -12 32 -12q8 0 35 6q24 6 35 6 q53 0 68 -49l22 -74q-107 -43 -133 -43q-9 0 -43 12q-37 15 -41 15q-27 0 -107 6q-82 6 -106 6q-10 0 -244 -29q-310 -41 -461 -65q-82 -13 -172 -60q-4 -1 -19 -9t-26 -13q-24 0 -65 -8q-7 -2 -76 -50q-52 -37 -76 -37q-22 0 -49 27q-26 26 -26 51z" />
<glyph unicode="G" horiz-adv-x="2197" d="M61 526v23v3v2v3v3v9q0 80 39 156l76 147q2 6 2 25q0 23 -8 39q12 11 91.5 92.5t144 141t139.5 118.5l229 174q155 119 242 133q25 25 51 43q6 3 51 21q50 30 107 59q198 97 432 97q31 0 78 -41q45 -39 45 -70q0 -59 -51 -59q-17 0 -41 16q-27 18 -33 18q-27 9 -86 9 q-24 0 -51 -2q-16 0 -33 -2l-17 -1q-85 0 -442 -210q-324 -190 -432 -287q-152 -145 -217 -217q-11 -11 -23 -76q-64 -25 -106 -105q-7 -58 -8 -63q-17 -30 -31 -66q-4 -16 -4 -102q0 -15 -2 -31t-2 -30q0 -51 63 -123q55 -63 107 -92q213 -121 270 -121q1 0 47 4q38 6 45 6 q21 0 92 -18q74 -19 90 -19q26 0 89 8q68 6 88 6q130 0 381 56q114 47 182 69q10 3 116.5 38t186.5 63q213 79 213 184q0 164 -633 164q-201 0 -283 -43q-26 -14 -65 -88h-43q-43 30 -43 59q1 1 2.5 4t3 7.5t4.5 11t6 14t7 18t8.5 21.5t10 25t11.5 28q64 37 201 37 q97 0 201 4q156 6 202 6q10 0 35 -14q27 -12 43 -12q8 0 29 6t30 6q52 0 168 -43q119 -44 156 -74q39 -36 39 -143q0 -184 -469 -350q-43 -13 -131 -47q-42 -42 -121 -54q-457 -84 -690 -84q-36 0 -156 15q-123 12 -157 12q-7 0 -56 27q-43 26 -63 30q-87 57 -287 232 q-28 36 -65 157q-5 30 -5 37z" />
<glyph unicode="H" horiz-adv-x="1630" d="M90 70q25 159 25 473q0 3 3 17t9 45.5t12 62.5q76 359 125 514q76 155 90 186h60q13 -49 16 -45q0 -12 -41 -102q-41 -94 -49 -121q-68 -257 -68 -348q0 -50 35 -50q42 0 139 19q86 18 144 22q183 11 309 11q32 0 143 -6q31 -1 63.5 -2t51.5 -2t27 -1q4 0 92 9 q17 1 40 3.5t35 3.5t19 1q31 19 49 178q26 203 56 305q55 177 170 242h57q13 -56 16 -51q0 -10 -55 -68q-57 -60 -59 -72q-50 -126 -93 -411q-41 -279 -41 -426q0 -32 -22 -60q0 -44 -29 -258q-10 -92 -10 -104t33 -121q-29 -8 -74 -16q-53 109 -53 157q0 38 16 207 q10 93 37 418h-164q-27 0 -135 -21q-123 -20 -139 -20q-2 0 -23 1t-39 1h-63q-101 0 -148 -6q-22 -3 -84 -25q-53 -18 -84 -18t-53 16q-27 -18 -82 -30l-84 -21q-37 -30 -37 -106q0 -3 1 -11t2 -21l2 -26q1 -12 2 -26t1.5 -22t0.5 -11q0 -77 -64 -266h-31q-14 -2 -26 -2 q-11 0 -31 4z" />
<glyph unicode="I" horiz-adv-x="364" d="M66 305q0 41 26 275q38 338 80 553q50 241 129 407h45q31 -25 31 -65q-3 -14 -11.5 -51.5t-25.5 -112t-33 -142.5q-140 -617 -140 -1079q0 -28 1 -55q-15 -2 -33 -17q-69 81 -69 287z" />
<glyph unicode="J" horiz-adv-x="1830" d="M55 410v59q29 3 58 29q208 -142 501 -254q323 -123 541 -123q213 0 303 90q92 92 113 321q16 190 16 383q0 57 -6 244q-6 190 -6 242q0 36 33 72q44 0 57 -46q0 -7 12 -157q31 -391 31 -467q0 -486 -149 -678q-35 -47 -195 -88q-140 -35 -221 -35q-175 0 -568 148 q-388 143 -520 260z" />
<glyph unicode="K" horiz-adv-x="1710" d="M37 43q0 13 31 264q24 190 77 524q2 13 41 320q27 187 76 311q62 -12 62 -82v-20l-158 -1350q-15 -18 -57 -18q-72 0 -72 51zM258 557q0 14 262 240q286 243 301 262q16 26 51 69q6 6 61 55.5t103 94.5q110 103 205 178q120 100 223 148q12 -12 31 -15v-73 q-76 -44 -158 -109q-241 -195 -907 -864q196 -140 541 -207q39 -7 436 -109q14 -4 75 -18.5t111 -28.5q9 -2 111 -78q-21 -47 -57 -47q-17 0 -82 27l-90 33q-57 17 -168 26q-115 10 -170 21q-110 28 -392 92q-97 19 -278 117q-209 111 -209 186z" />
<glyph unicode="L" horiz-adv-x="1511" d="M53 133q101 321 152 526q173 699 264 967l43 19q34 -67 31 -78l-334 -1325q12 -86 190 -86q43 0 179 14q123 14 174 14l77 -4q28 0 142 6q126 4 143 4q139 0 473 -65l12 -62q-3 -1 -15 -1q-46 0 -222 12q-48 3 -96 7.5t-67 6t-21 0.5l-668 -47h-31q-200 0 -276 16 q-55 9 -150 76z" />
<glyph unicode="M" horiz-adv-x="2334" d="M2 -10v86l1030 1448h47q29 -48 29 -78q0 -13 -27 -127q-14 -61 -49 -232q-18 -92 -57 -471q-23 -232 -23 -243q9 -18 21 -60q97 72 198 203q99 129 177 225q190 235 520 594q270 288 573 553q60 -38 60 -96q0 -29 -291 -799q-41 -106 -109 -346q-70 -256 -73 -346 q-42 -70 -91 -250q-61 24 -61 76q0 189 299 1108q13 44 96 297v45q-212 -129 -350 -320q-56 -81 -166 -200q-155 -168 -176 -195q-96 -111 -274 -338q-45 -58 -87 -110.5t-64 -79.5t-26 -33q-138 -156 -210 -156h-82v228q1 4 5.5 44.5t12 97.5t16.5 122l68 526l-18 23 l-869 -1209z" />
<glyph unicode="N" horiz-adv-x="1880" d="M186 160q-3 12 156 555q48 163 182 622l49 -2q160 -185 418 -696q147 -291 248 -418q9 3 25 -10q232 320 426 1139q33 140 63 282q4 22 25 113q7 24 41 45q53 -29 63 -59q4 -12 4 -33q0 -106 -88 -443q-77 -297 -141 -493q-51 -162 -174 -436q-93 -218 -228 -310 q-25 14 -49 31q-1 2 -31.5 60t-101.5 193.5t-153 291.5q-179 335 -338 526l-310 -1057q-20 17 -61 17z" />
<glyph unicode="O" horiz-adv-x="2250" d="M74 401q0 147 106 316q98 156 221 248q61 50 166 163q100 109 174 154q77 49 330 109q239 53 348 53q273 0 508 -101q305 -128 305 -360q0 -39 -39 -152q-34 -96 -61 -151q-119 -239 -383 -416q-150 -103 -479 -203q-319 -100 -506 -100h-137q-175 0 -357 133 q-196 144 -196 307zM178 442q0 -104 152 -235q149 -125 266 -125l20 4q6 0 12 1l7 1q11 0 41 -12q38 -10 43 -10q19 0 180 20q145 19 236 35q3 1 24 11t40.5 18t41.5 14q312 92 541 260q288 211 352 467q20 83 23 78q0 80 -48 131q-217 223 -467 223l-32 -4q-11 0 -22 -1 l-11 -1q-10 0 -37 12t-35 12t-63 -10q-11 -1 -26 -3.5t-23.5 -3.5t-12.5 -1q-109 0 -352 -57q-82 -19 -123 -31q-76 -27 -98 -66l-21 -65q-214 -151 -225 -160q-113 -98 -160 -219q0 -2 -1 -12.5t-3.5 -35.5t-5.5 -52q-6 -62 -49 -80q-39 54 -53 119q-111 -184 -111 -222z " />
<glyph unicode="P" horiz-adv-x="1730" d="M80 1434q0 64 131 155q112 77 197 101q558 174 841 174q263 0 422 -138q156 -135 156 -370q0 -8 -25 -78q-25 -69 -30 -80q-86 -137 -314 -235q-111 -50 -326 -138t-247 -102q-127 -32 -244 -72q-109 -41 -276 -147q-17 -135 -25 -240q-17 -207 -35 -364q-30 -41 -78 -41 q9 0 -3 4q-11 3 -42 10v68q0 87 17 194q13 39 18 51q16 41 16 58q0 57 -20 116q-12 -42 -51 -53q-43 27 -43 90q0 6 74 109q76 104 88 145q11 32 34 187q34 207 66 342q58 232 141 299l58 -43v-45q-53 -41 -74 -148q-11 -53 -33 -170q-2 -17 -41 -131q-33 -101 -33 -113 v-127q8 -8 17 -8q50 0 135 35q106 39 137 49q456 118 713 273q224 136 268 180q55 55 55 149q0 166 -147 277q-134 102 -307 102q-144 0 -318 -33q-225 -39 -442 -118q-315 -117 -346 -252l-27 -19q-57 48 -57 97z" />
<glyph unicode="Q" horiz-adv-x="2322" d="M43 651q0 335 231 369q189 229 570 344q310 90 672 90q103 0 307 -70q229 -83 229 -167q0 -7 21 -31q15 -20 22 -33q8 -19 27 -109q16 -76 16 -110q0 -127 -106 -311q-93 -168 -201 -269q27 -53 227 -170q217 -123 273 -188q-11 -11 -15 -31q-7 0 -43 -8q-50 -8 -51 -8 q-5 0 -270 149q-263 148 -277 148q-8 0 -243 -101q-338 -143 -539 -143q-290 0 -555 176q-295 196 -295 473zM133 688q0 -13 29 -102q59 -173 268 -307q207 -136 404 -136h155q81 0 211 50q13 4 209 79q45 15 84 29q24 20 29 57l-66 48q-49 37 -49 53q0 33 20 69h48 q8 0 104 -51t109 -51q105 0 237 209q125 203 125 311q0 167 -121 279q-113 104 -289 104h-22q-19 0 -90 19q-72 16 -84 16q-181 0 -381 -43q-316 -69 -514 -195q-190 -120 -258 -305q-9 -26 -15 -100q-3 -73 -6 -82q-9 -39 -37 -33q-57 51 -57 129q0 17 2 35q2 16 2 33 q0 14 -2 20q0 -11 -22 -69q-23 -58 -23 -66z" />
<glyph unicode="R" horiz-adv-x="1689" d="M102 231q0 28 37 265q58 365 94 526q17 85 78 278q25 29 49 86l62 -14v-57q0 -22 -45 -164q-47 -161 -53 -195q-60 -336 -72 -757q-12 -56 -27 -183q-3 -2 -94 -55q-29 199 -29 270zM205 1389q0 107 166 198q105 59 266 113q213 74 332 74q247 0 362 -84q30 -18 88 -131 q58 -110 58 -146q0 -175 -197 -393q-149 -166 -346 -299q-13 -9 -141 -82q-3 -2 -60.5 -12.5t-121 -26t-81.5 -29.5q8 -22 69.5 -40t153 -33.5t109.5 -20.5q15 -4 77 -19t108 -26q200 -52 763 -231q-28 -60 -77 -60q-39 0 -181 37q-321 81 -354 88q-147 29 -373 84 q-4 1 -54.5 8t-100.5 15.5t-106.5 24.5t-82.5 34q-116 82 -116 121q0 76 81 113q12 5 92.5 23t169.5 42.5t132 48.5q129 75 311 264q197 209 197 336q0 189 -148 248q-77 29 -307 29q-92 0 -164 -19q-12 -3 -131 -36q-89 -23 -256 -148q-42 -56 -106 -131q-31 28 -31 66z " />
<glyph unicode="S" horiz-adv-x="1591" d="M113 1264q0 69 45 98q5 5 112 35q590 174 891 174h35q184 0 254 -82q-10 -13 -14 -31q-180 25 -197 25q-102 0 -377 -51q-265 -53 -471 -109q-92 -23 -149 -68q59 -101 223 -180q2 -1 34 -15t98 -42t142 -60l205 -57q686 -190 686 -358q0 -51 -98 -121q-81 -56 -150 -80 q-84 -26 -641 -149q-448 -102 -579 -213q-21 3 -47 26v62q114 87 223 125q120 44 360 100l365 86q63 16 174 49q108 36 166 68q10 5 59 57q-29 54 -104 92q-66 29 -135 49q-17 5 -99.5 29t-150.5 45q-860 264 -860 496z" />
<glyph unicode="T" horiz-adv-x="2256" d="M31 1286v60l53 34q154 26 336 43q397 41 467 47q323 33 651 33h334q25 0 168 13q132 12 168 12q127 0 211 -41v-47l-1059 -54q-215 -12 -236 -86q-22 -91 -43 -223q-39 -232 -67 -495q-12 -105 -33 -351q-11 -93 -20 -151q-3 -12 -62 -68h-74q18 73 39 324q16 191 60 498 q20 196 75 514q-16 0 -50 1t-54 1q-125 0 -339.5 -27t-274.5 -31q-24 -4 -97 -24q-73 -23 -98 -23q-27 0 -55 41z" />
<glyph unicode="U" horiz-adv-x="2086" d="M53 774q0 143 58 305q71 194 170 242q46 22 71 22q17 0 17 -32q0 6 -37.5 -69.5t-120.5 -246.5q-41 -84 -41 -233q0 -218 168 -422q174 -219 385 -219h55q218 0 477 125q254 124 408 282q107 110 180 256q26 48 96 205q41 134 41 275q0 124 -61 145q-2 6 -2 21 q0 73 47 73q9 0 21 -6q86 -30 86 -246q0 -65 -86 -368q-45 -154 -134 -285q-173 -251 -495 -428q-328 -180 -615 -180q-114 0 -268 86q-140 79 -223 174q-20 23 -72 117q-15 12 -45 51q0 2 -16 55q-64 204 -64 301z" />
<glyph unicode="V" horiz-adv-x="1837" d="M78 1090q0 16 8 49q6 37 6 45q8 2 74 14q20 -62 135 -416q63 -142 94 -217q6 -14 20.5 -52t33.5 -86t40 -99q40 -67 60 -97q56 -86 69 -86q67 0 404 494q262 384 913 1214q33 -20 33 -51q0 -63 -944 -1384q-85 -122 -162 -219q-123 -154 -182 -191q-21 -16 -135 -16 q-126 204 -232 416q-17 35 -131 348q-104 293 -104 334z" />
<glyph unicode="W" horiz-adv-x="2762" d="M43 1315q3 10 31 92q107 -91 202 -430q1 -2 17.5 -53.5t28.5 -94.5q3 -53 20 -137q4 -8 13.5 -29.5t20.5 -45.5t21 -48q5 -18 20.5 -81t28.5 -109q38 -146 78 -146q56 0 346 492q263 450 334 604q34 -28 53 -39q73 -125 140 -403q12 -45 42.5 -178.5t51.5 -219.5 q57 -226 131 -380q16 0 51 41q16 18 48.5 56t50.5 58q74 78 151 178q142 186 1020 1319l18 -57q-23 -23 -32 -90q-188 -233 -516 -717q-347 -505 -523 -715q-64 -80 -204 -235q-20 -23 -70 -23q-1 0 -10.5 1t-16.5 1h-26q-89 183 -183 561q-89 381 -174 566 q-46 -61 -401 -629q-1 -5 -3.5 -21t-4.5 -26q-19 -53 -121 -184q-111 -144 -144 -144l-67 -10h-1h-1h-1h-1h-1h-1l-1 -1h-1h-1h-1h-1h-1h-1l-1 -1h-1h-1h-1h-1h-1h-1h-1l-1 -1h-1h-1h-1h-1h-1h-1h-1l-1 -1h-1h-1h-1z" />
<glyph unicode="X" horiz-adv-x="1628" d="M61 84q0 18 13 31q20 20 20 24q1 2 16 31t27 53q43 85 109 172q19 27 196 195q158 152 158 182q0 26 -86 100q-1 0 -115 97q-55 64 -194 184l-62 39q-43 27 -43 49q0 47 70 84q72 -46 172 -108l82 -82q282 -273 326 -273q17 0 47 15q20 20 153 110q542 377 684 377 q41 0 111 -45q-16 -16 -16 -45q-23 4 -52 4q-32 0 -51 -8q-161 -77 -409 -234q-273 -174 -371 -284q141 -165 409 -441q20 -20 193 -194q24 0 65 -33v-53q-40 -43 -81 -43q-59 0 -95 45q-16 18 -74.5 87.5t-101.5 119.5q-13 15 -348 331q-78 72 -96 72q-40 0 -92 -49 q-6 -6 -80 -76q-108 -76 -238 -266q-130 -186 -215 -238q-31 25 -31 70z" />
<glyph unicode="Y" horiz-adv-x="1341" d="M113 1475q0 146 57 200q21 -13 41 -30v-60q0 -411 172 -411q192 0 510 194q52 32 211.5 133.5t271.5 171.5h45q14 -67 17 -63q0 -36 -131 -140q-70 -55 -168 -133q-15 -12 -99 -96l-227 -323q-170 -239 -364 -603q-41 -78 -54 -122q-15 -63 -41 -144q-20 -73 -80 -123 h-67q-29 26 -29 70q0 36 144 326q80 156 245 436q89 148 254 430q-50 -7 -225 -76q-140 -55 -225 -55q-139 0 -207 147q-51 111 -51 271z" />
<glyph unicode="Z" horiz-adv-x="2179" d="M49 102q0 108 324 385q14 12 598 474q323 253 323 315q0 72 -233 72q-81 0 -146 -7q-51 -13 -102 -22q-60 -2 -256 -21q-49 -12 -98 -26q-64 -21 -97 -21q-32 0 -57 31q21 46 94 80q15 4 82 18q364 76 545 76h6q391 0 391 -133q0 -68 -88 -172q-147 -176 -385 -371 q-375 -303 -415 -334q-19 -15 -74.5 -56.5t-89.5 -67.5q-97 -72 -144 -146v-35q77 -47 201 -47q17 0 170 15l330 32q330 31 805 31q513 0 604 -113q-145 0 -488 15l-239 8l-1182 -102q-50 -5 -59 -5q-123 0 -228 45q-92 44 -92 82z" />
<glyph unicode="[" horiz-adv-x="966" d="M90 -508l76 1100q31 454 31 534l-2 205q0 201 -13 287q-2 4 -2 16q0 24 15 88q14 79 14 80l24 25q132 0 338 22q42 -3 131 13q14 4 29 6q46 7 127 2q84 -3 125 8q25 -22 25 -70q0 -65 -115 -65q-102 0 -172 -10q-43 -18 -127 -21q-83 -3 -131 -6q-18 -1 -46.5 -4 t-39.5 -4q-37 -6 -37 -53q0 -2 1 -42t1 -77l2 -119q0 -178 -20 -371q-21 -228 -21 -258q0 -260 -31 -669q-19 -165 -30 -259q-13 -111 -13 -114q0 -96 90 -96q19 0 54 6q9 1 19.5 1.5t17 1t10.5 1.5q53 2 117 2q7 0 41 12q35 14 49 14q11 0 49 -10q42 -10 53 -10q9 0 21 6 q11 8 22 8q28 0 193 -47q7 -3 29.5 -16.5t39.5 -22.5q-44 -71 -59 -71q-14 0 -41 6t-41 6q-9 0 -19 -14q-11 -15 -20 -15q-1 0 -53 19q-50 16 -60 16q-6 0 7 -3q7 -1 18 -3l27 -4q-35 0 -123 14q-37 6 -56 6q-10 -2 -30 -10q-27 -12 -74 -12h-100q-83 -10 -320 -29z" />
<glyph unicode="\" horiz-adv-x="991" d="M57 1812l17 58h47q138 -236 289 -645q163 -455 331 -836q203 -454 252 -567v-70q-138 44 -186 158q-9 28 -37 114t-47 144q-84 186 -141 324q-21 47 -41 114q-1 4 -3 11t-5 18t-5 20q-20 26 -67 101q0 4 -41 100q-123 311 -363 956z" />
<glyph unicode="]" horiz-adv-x="1046" d="M-66 -434q3 3 18 16t25 21h13q14 0 39.5 0.5t60 1t86 0.5h107.5q9 0 30 -6q21 -9 29 -9q51 0 170 21q132 27 141 65q28 142 47 316q3 31 35 298.5t56 489.5q1 12 3.5 51.5t6.5 86.5t10 96q3 30 17 145.5t24 206.5q14 132 14 168q0 122 -49 152q-70 47 -252 47 q-39 0 -82 -4q-17 -1 -35.5 -2t-30 -2t-16.5 -1q-11 0 -33.5 1.5t-62 3.5t-76.5 4q-150 10 -172 10q-3 11 -14 74q3 2 10.5 6.5t20.5 12.5t26 15q47 4 113 17q71 14 113 14q18 0 67 -14q57 -13 68 -13q14 0 84 13q60 14 84 14q20 0 143 -24q128 -25 152 -33q20 -6 69 -64 v-440q0 -26 -35 -207q-17 -76 -26 -237q-11 -169 -23 -240q-2 -11 -9.5 -50t-16 -85t-17.5 -96q-4 -110 -10 -166q-31 -453 -78 -707q-170 -72 -268 -72q-2 0 -14 1t-38.5 2.5t-54.5 3.5q-94 6 -149 6q-176 0 -209 -17q-34 -18 -39 -18l-53 12h-1h-1q-17 39 -17 98v17z" />
<glyph unicode="^" horiz-adv-x="929" d="M12 1319q0 37 19 59q22 26 174 164q229 207 336 338q20 3 69 -27q43 -25 64 -53q3 -4 14.5 -20t25 -34.5t29.5 -37.5q4 -5 119 -133q101 -116 101 -129q0 -23 -37 -57q-33 -33 -60 -33q-11 0 -153 160q-142 161 -156 161q-33 0 -190 -157q-16 -16 -80.5 -82.5 t-114.5 -116.5q-46 -46 -141 -70q-19 19 -19 68z" />
<glyph unicode="_" horiz-adv-x="3031" d="M39 -197q0 34 31 76q194 33 348 33q9 0 39 -6t39 -6q13 0 49 10q10 2 28 2l893 47l1330 -35q2 0 49 21q43 18 53 18q40 0 74 -43q43 -55 61 -61v-47q-10 0 -72 -27q-59 -27 -63 -27q-5 0 -59 21q-52 22 -70 26q-56 10 -129 13l-854 30q-40 2 -346 -12q-252 -14 -348 -14 q-11 0 -39 14q-35 12 -43 12q-15 0 -62 -18q-44 -20 -61 -20h-2q-2 0 -8 -0.5t-13.5 -1t-20.5 -1.5t-25 -1.5t-31.5 -2t-36.5 -2.5q-70 -3 -215 -11t-205 -11l-39 -31q-16 0 -68 -8q-74 -8 -76 -8q-108 0 -108 71z" />
<glyph unicode="`" horiz-adv-x="671" d="M35 1833q0 31 6 37t39 6q52 0 162 -64q277 -162 467 -290q2 -2 5 -6.5t5 -6.5q0 -11 -21 -32q-36 -33 -71 -33q-18 0 -82 31l-86 43q-84 41 -187 120q-110 84 -194 109q-43 55 -43 86z" />
<glyph unicode="a" horiz-adv-x="1054" d="M49 141q0 112 242 258q226 140 348 140q49 0 90 -56v-43q-20 -28 -45 -28q-11 0 -35 12q-27 12 -37 12q-39 0 -182 -82q-112 -61 -182 -114q-44 -39 -60 -90q38 -35 84 -35q40 0 240 84q203 84 262 84q65 0 94 -33q12 -18 50 -90q37 -67 79 -111v-45q-19 -31 -43 -31 q-28 0 -110 97q-76 98 -121 98q-4 0 -219 -84q-212 -84 -283 -84q-49 0 -110 49q-62 50 -62 92z" />
<glyph unicode="b" horiz-adv-x="1503" d="M68 29q27 64 69 80q63 20 232 32q224 18 399 39q82 10 305 96q221 89 221 155v5q-6 56 -143 96q-121 31 -205 31h-12l-670 -127q-5 -1 -12 -1q-39 0 -129 30v272q0 156 16 361l43 577q6 96 37 160h57q32 -47 32 -116q0 -11 -1 -23l-71 -1061q0 -20 22 -45t43 -25 q5 0 24.5 2.5t67 9t90.5 11.5l377 49q138 18 154 18q139 0 254 -53q143 -67 143 -186q0 -76 -168 -174q-126 -78 -246 -113q-108 -36 -272 -53q-93 -10 -279 -33q-15 0 -153 -27q-105 -18 -148 -18q-23 0 -77 31z" />
<glyph unicode="c" horiz-adv-x="1087" d="M41 244q0 119 172 213q251 133 313 133l127 -12q-15 0 -18 -23q-1 -10 -2 -19t-1.5 -13t-0.5 -5q-88 -27 -254 -108q-195 -103 -195 -154q0 -96 244 -123q55 -6 59 -4l504 76l17 -17v-47q-56 -33 -121 -49q-125 -24 -285 -49q-126 -18 -147 -18q-130 0 -252 51 q-160 62 -160 168z" />
<glyph unicode="d" horiz-adv-x="1355" d="M53 164q0 88 56 123q4 3 122 57q235 107 404 143q59 12 143 52q99 45 140 55l114 22q59 13 101 58q-29 380 -29 874q0 168 11.5 236t35.5 76q37 -16 48 -29q20 -24 24 -94q-1 11 -1.5 -36t-0.5 -192l2 -671q0 -118 18 -244q-142 -60 -414 -148q-254 -82 -323 -106 q-241 -89 -285 -145q0 -28 23 -41q53 -29 215 -29q62 0 264 45q258 54 506 121q-12 -65 -53 -86q-49 -25 -310 -101q-268 -81 -317 -81q-10 0 -92 -7q-73 -6 -95 -6q-86 0 -184 39q-123 47 -123 115z" />
<glyph unicode="e" horiz-adv-x="1007" d="M49 324q0 150 129 233q115 70 268 70q134 0 216 -60q79 -58 79 -159q0 -56 -190 -123q-227 -78 -280 -78h-5q0 -3 -3.5 -5.5t-11 -5.5t-13.5 -8q10 -17 137 -49q55 -14 157 -14h318l119 -19q37 -19 57 -53q-37 -43 -98 -43h-353q-122 0 -274 35q-200 50 -223 123 q-29 80 -29 156zM176 356q0 -40 19 -53h63q52 0 184 49q113 44 170 101q-57 57 -178 57q-87 0 -162 -35q-96 -44 -96 -119z" />
<glyph unicode="f" horiz-adv-x="1521" d="M20 332v6q0 44 41 61q118 56 463 86q19 15 31 31q-14 112 -14 232q0 388 170 647q196 295 567 295q172 0 328 -72q198 -91 198 -236l-9 -30q-2 -7 -5 -21q-179 244 -504 244q-115 0 -235 -53q-129 -53 -195 -138q-70 -99 -135 -280q-72 -201 -72 -299q0 -21 13 -131 l7.5 -60l6 -48t2.5 -23q44 -35 67 -35q10 0 48 10q42 10 43 10q73 9 335 9q173 0 326 -9q-7 0 -43 -28l4 -29l-373 -20q-224 -12 -348 -93q30 -106 129 -278v-57q-10 -17 -37 -17q-41 0 -139 180q-99 181 -137 181q-63 0 -166 -23q-35 -7 -133 -43q-93 -37 -113 -37 q-56 0 -121 68z" />
<glyph unicode="g" horiz-adv-x="950" d="M-506 -680q0 137 293 277q191 94 469 170q181 47 500 86l22 12q2 6 2 20q0 18 -20 152q-3 38 -47 145q-46 119 -68 119q5 0 -4 -5q-24 -11 -109 -40q-122 -45 -190 -45q-82 0 -141 29q-78 35 -78 106q0 25 8 64q8 47 8 53l41 49q34 18 142 57q104 39 143 39h287l14 -61 l-43 -37h-57q-351 0 -439 -137q51 -60 133 -60q35 0 185 78q140 72 137 76q55 0 98 -119q127 -334 127 -565q0 -209 -102 -414q-116 -232 -316 -352q-117 -66 -450 -66q-42 0 -160 23q-103 21 -162 43q-87 38 -129 80q-39 39 -63 104q-31 73 -31 119zM-383 -719 q0 -143 305 -217q104 -22 195 -22q171 0 274 47q23 21 64 49q36 21 71 47q113 90 193 274q74 165 74 301q0 40 -17 64h-43q-27 -16 -84 -64q-78 -11 -160 -28q-435 -98 -731 -256q-141 -78 -141 -195z" />
<glyph unicode="h" horiz-adv-x="1138" d="M55 174l78 858q55 586 168 842q8 -2 74 -14q-25 -88 -76 -410q-43 -260 -57 -412q-34 -399 -41 -495q-19 -226 -19 -250v-14q0 -27 8 -35q12 -8 43 -8q12 0 50 10q29 10 34 10q219 31 312 45q189 25 190 25t10 1t19 1h26q32 0 50 -6q90 -37 114 -158q9 -46 9 -203 q0 -58 34 -88v-45l-30 -29q-127 53 -127 170q0 27 2 56t2 53q0 133 -146 133h-28q-112 0 -392 -70q-131 -32 -147 -32q-68 0 -160 65z" />
<glyph unicode="i" horiz-adv-x="423" d="M156 104q0 377 94 402q35 -15 35 -51q0 14 -2 14q1 -10 1 -26q0 -67 -14 -238q-12 -168 -12 -187q-51 -28 -86 -28q-16 53 -16 114zM184 954q31 72 66 72q36 0 115 -55v-4q0 -42 -82 -97q-29 11 -99 84z" />
<glyph unicode="j" horiz-adv-x="487" d="M-360 -813q168 -143 221 -143q369 0 415 90q31 67 31 221v63l-53 975q0 44 18 86q21 58 54 58q55 0 67 -244q0 -13 0.5 -48.5t1.5 -104.5t2 -136q18 -87 23 -129l14 -604q1 -23 1 -44q0 -131 -32 -190q-29 -54 -217 -84q-141 -22 -252 -22q-127 0 -213 74q-81 70 -81 174 v8zM215 973q0 36 74 74q84 -24 84 -60q0 -44 -78 -110q-80 38 -80 96z" />
<glyph unicode="k" horiz-adv-x="1146" d="M68 76v10q0 48 26 246l39 282q38 268 53 551q1 12 25 488q3 67 12 139q3 31 47 61q47 -15 56 -75q0 -38 -11 -275q-6 -145 -61 -766q1 -22 1 -51q0 -59 -3 -149q0 -12 -23 -140q-18 -91 -18 -117v-6l12 -110l36 -6h-1q94 40 172 65q216 72 377 146q104 51 178 84l43 4 q35 -15 41 -109q-35 -23 -166 -76q-121 -50 -151 -96q66 -131 237 -158q1 -4 1 -7q0 -33 -48 -70q-52 -38 -86 -41h-3q-32 0 -105 59l-107 84q-5 6 -88 102q-10 -4 -227 -90q-100 -37 -152 -51q-8 -2 -22 -2q-75 0 -84 74z" />
<glyph unicode="l" horiz-adv-x="466" d="M141 231q-1 3 -1 18q0 45 5 195q4 135 17 394q2 48 22 290q19 204 19 289q0 281 39 400l14 2h5q35 0 46 -39q9 -22 21 -70l-58 -1264q-4 -4 -4.5 -24t4.5 -55q4 -43 52 -357q0 -7 -33 -20q-5 -1 -11 -1q-52 0 -85 55q-37 60 -52 187z" />
<glyph unicode="m" horiz-adv-x="1718" d="M63 156q0 182 22.5 256.5t72.5 87.5q26 -13 32 -39q0 -29 -12 -205l-6 -53q4 3 8 5.5t9.5 5.5t9.5 5q34 27 227 201q158 143 246 143q94 0 94 -217q0 -17 -4 -57q-1 -13 -2 -28t-1.5 -23t-0.5 -11q11 -2 21 -4t14.5 -3t5.5 -1q30 9 338 193q29 25 80 57q186 82 258 82 q94 0 94 -186q0 -45 -6 -189q-7 -171 -7 -188q-30 -3 -57 -27q-74 59 -74 180q0 21 9 95q6 73 6 94q0 60 -21 94h-33q-44 0 -339 -180l-293 -183q-42 0 -119 56v20q0 27 8 84q8 60 8 86q0 64 -26 103h-35q-46 0 -438 -359h-23q-30 -10 -51 -10q-15 47 -15 115zM190 461 q1 -2 3 -8q-3 3 -3 8z" />
<glyph unicode="n" horiz-adv-x="1120" d="M70 104q0 378 94 402q27 -14 33 -37v-11q0 -50 -13 -253l-2 -15q35 35 74 66q129 115 307 233q231 146 336 146q30 0 55 -31q27 -34 27 -63q0 -33 -20 -240q-28 -268 -43 -393q-3 -17 -33 -17q-40 0 -64 99q-18 74 -18 133q0 32 24 158q27 126 27 155q0 60 -33 60 q-39 0 -174 -72q-118 -62 -170 -100q-89 -66 -229 -222q-25 -33 -82 -92q-23 -26 -94 -26v67v4q-2 14 -2 49zM197 469q2 -4 2 -10q0 2 -1 5t-1 5z" />
<glyph unicode="o" horiz-adv-x="1290" d="M61 250q0 52 62 108q49 35 162 148q70 85 264 141q161 47 303 47q37 0 115 -35q71 -32 102 -63q28 -28 64 -111q32 -74 32 -120q0 -110 -43 -183q-43 -70 -293 -137q-219 -59 -337 -59q-136 0 -269 65q-162 79 -162 199zM190 236q0 -54 129 -97q110 -37 179 -37 q113 0 290 41q171 38 242 115q33 33 33 115q0 74 -88 141q-82 64 -162 64q-15 0 -233 -43q-84 -18 -154 -66q-236 -171 -236 -233z" />
<glyph unicode="p" horiz-adv-x="1128" d="M0 -862q0 278 197 940q23 86 75 180q16 31 95 70q30 -21 30 -52q0 -16 -37 -94q-45 -85 -49 -106q-163 -535 -184 -994l-57 -14q-22 0 -47 25q-23 26 -23 45zM37 444q0 60 33 101q41 47 266 96q196 45 293 45q426 0 426 -237q0 -100 -195 -236q-144 -98 -287 -160 q-109 -47 -143 -47h-41l-29 31q22 56 54 78q19 8 55.5 23t52.5 22q402 156 402 303q0 96 -277 96q-148 0 -272 -22q-186 -29 -236 -95q-9 -41 -43 -147q-59 92 -59 149z" />
<glyph unicode="q" horiz-adv-x="1171" d="M20 152q0 32 31 92q12 25 131.5 114t147.5 105q46 29 227 65q168 29 240 29q82 0 129 -41q-5 -23 -15 -84q-29 -16 -82 -16q-8 0 -63 20q-55 19 -66 19q-34 0 -145 -30t-188 -75q-14 -8 -40 -22.5t-42.5 -24.5t-38.5 -24t-36 -25.5t-26.5 -24.5t-17 -26.5t-2.5 -26.5 q8 -47 80 -47q12 0 26 2h29q4 0 168 29l346 63q128 25 141 25q72 0 72 -111q0 -76 -51 -198q-8 -22 -33.5 -89.5t-42.5 -113.5q-77 -209 -80 -238q-1 -3 -24 -170l-62 -399l-22 -29h-70q-16 11 -16 43q0 245 88 563q4 37 84 299q4 22 49 134q37 101 37 122q0 45 -39 45 q-28 0 -287 -55q-153 -35 -360 -35q-57 0 -115 43q-62 47 -62 93z" />
<glyph unicode="r" horiz-adv-x="964" d="M80 70q0 3 4 57q4 27 4 61q0 66 39 185q5 16 17 51t18 55q24 47 74 84q106 70 376 70q275 0 322 -72v-43l-31 -29q-102 33 -162 33h-10q-94 -4 -108 -4h-82q-10 0 -37 -10q-15 -6 -33 -12q-46 -3 -127 -23q-61 -27 -88.5 -75t-42.5 -132q-11 -56 -11 -106q0 -12 1 -23 q8 -101 8 -129q-14 -4 -102 -14q-29 60 -29 76z" />
<glyph unicode="s" horiz-adv-x="831" d="M57 569q0 109 217 109q77 0 213 -19q146 -20 199 -51l-16 -61q-28 3 -100 13t-118 15q-27 3 -60 3q-23 0 -48 -2q-62 -4 -108 -19q-2 -2 -10.5 -8.5t-14.5 -11.5l332 -113q90 -29 136 -78.5t46 -103.5q0 -86 -55 -113q-52 -25 -201 -70q-165 -49 -201 -49q-10 0 -16 6 q-7 7 -16 7q-20 0 -84 -64q-43 30 -43 51q0 111 335 178q8 2 34 7.5t44 9.5q15 9 49 43q-31 55 -100 78q-1 0 -88.5 32.5t-151.5 57.5q-174 70 -174 153z" />
<glyph unicode="t" horiz-adv-x="1024" d="M4 555q0 62 219 92q263 34 322 64q31 18 65 395q17 179 74 477q2 7 7 33t9 43q7 14 72 43l16 -121q-6 -18 -18 -106l-43 -256q-15 -94 -16 -125l-17 -357l404 4v-65q-224 0 -393 -76q-42 -18 -50 -51q-1 -5 -3 -30t-5.5 -63t-7.5 -79q-6 -69 -6 -94q0 -17 6 -66 q1 -14 2 -29t1.5 -23.5t0.5 -12.5q0 -81 -39 -132q-4 0 -43 17q-41 103 -41 235q0 39 10 131q11 73 11 132q0 30 -21 45q-18 -7 -127 -19l-114 -18q-5 -1 -26 -2.5t-36 -3.5q-7 0 -49 -31q-13 -10 -10 -47h-43q-14 0 -64 41q-47 44 -47 55z" />
<glyph unicode="u" horiz-adv-x="1130" d="M51 313q0 91 39 197q18 4 33 16q7 -4 51 -43q-10 -88 -10 -137q0 -244 158 -244q152 0 364 191q11 8 320 297h16q33 0 33 -27q0 -41 -154 -209q-126 -140 -199 -196q-58 -45 -141 -103q-41 -33 -137 -63q-98 -31 -150 -31q-104 0 -168 129q-55 107 -55 223z" />
<glyph unicode="v" horiz-adv-x="991" d="M-6 528v84q56 12 53 16q-1 1 -4 1q34 0 152 -232q120 -231 157 -231t226 180q194 188 241 225q137 95 262 172h66l14 -14v-61q-90 -42 -180 -95q-8 -4 -139 -135q-443 -452 -547 -452q-22 0 -86 104q-61 101 -70 131q-32 93 -57 160q-28 81 -88 147z" />
<glyph unicode="w" horiz-adv-x="1705" d="M43 522q0 50 61 84q66 -83 119 -200q67 -148 99 -211h49q19 34 94 112q10 18 76 111q62 86 100 86q39 0 66 -43q14 -20 58 -92t77 -123q110 -168 159 -168q50 0 283 219q233 217 272 217h56v-47q-106 -86 -207 -195q-156 -169 -257.5 -251t-158.5 -82q-89 0 -194 155 q-52 78 -156 230q-44 -9 -158 -162q-109 -146 -198 -146l-29 17q-39 74 -117 250q-94 214 -94 239z" />
<glyph unicode="x" horiz-adv-x="1210" d="M59 -131q0 74 82 178q45 54 267 254q-48 54 -140 96q-143 62 -153 70q-17 41 -17 57q0 66 58 66q10 0 184 -98q177 -97 188 -97q15 0 213 92q202 91 250 91q45 0 121 -58v-43q-3 -3 -106 -12q-40 -7 -232 -59q-57 -15 -123 -105q98 -122 334 -270q119 -76 127 -84 q0 -78 -94 -78q-50 0 -260 162q-212 159 -236 159q-153 0 -332 -292q-15 -24 -18 -62q-2 -40 -8 -63q-9 -45 -70 -70q-5 31 -20 84q-15 52 -15 82z" />
<glyph unicode="y" horiz-adv-x="985" d="M66 475q0 26 28 84h58q74 -311 208 -311q110 0 273 117q59 43 178 131q63 -21 63 -90q0 -14 -12 -58q-8 -29 -14 -53q1 -6 1 -16q0 -22 -5 -62q-46 -109 -131 -356q-25 -28 -105 -199l-11 -33q-24 -67 -44 -123q-14 -39 -86 -213q-2 -17 -10 -55.5t-11 -58.5 q-20 -59 -26 -76q-21 -58 -21 -74q0 -6 4 -14q-14 -27 -71 -84h-43q-31 57 -31 82q0 99 133 436q35 96 127 309q50 97 82 166q16 53 39 105q19 27 66 161q-7 7 2 37q7 23 -7 23q-6 0 -118 -45q-105 -45 -119 -45q-25 0 -101 -13q-69 -14 -92 -14q-79 0 -147 133 q-57 111 -57 209z" />
<glyph unicode="z" horiz-adv-x="1363" d="M82 41v84l297 227q162 124 268 258q-15 45 -51 45l-18 -2q-32 0 -179 -39q-147 -36 -182 -36q-21 0 -84 28q0 13 -2 27q0 7 -1 15t-1 9q0 20 6 35l596 103q70 -18 70 -109q0 -119 -207 -311q-15 -15 -305 -266q15 -21 55 -21h27q-3 0 8 1.5t37.5 4t63.5 5.5t93.5 8 t120.5 10q38 3 396 37q6 0 43 12q35 12 49 12q71 0 133 -53q-1 0 -43.5 -17t-77.5 -28q-52 -20 -184 -29l-189 -18q-1 -1 -18 -8t-34.5 -13t-37.5 -10q-157 -41 -354 -41q-61 0 -156 21q-117 24 -139 59z" />
<glyph unicode="{" horiz-adv-x="847" d="M88 659v13q0 20 66 45q131 43 213 131q79 85 79 192q0 27 -2 39l-79 480q1 5 3 24t5 45t6 53q7 51 14 66q11 33 41 49q14 7 101 29q98 28 106 28q86 13 125 13q4 0 11.5 -1.5l22.5 -4.5t29 -5q57 -13 58 -14q5 -9 10 -31l12 -14l-4 -6l-12 -10l-275 10q-71 0 -106 -47 q-2 -5 -8.5 -18.5t-18.5 -39t-24 -51.5q1 -5 3.5 -28t4.5 -41q16 16 16 37v6l-22 -72q5 -35 41 -188q36 -104 37 -107q32 -160 32 -227q0 -14 -12 -88t-18 -80q-10 -23 -58 -64q-44 -34 -67 -57q55 -93 96 -131q25 -20 29 -23q16 -16 16 -55q0 -137 -33 -213 q-18 -82 -41 -168q-7 -16 -29.5 -69.5t-39.5 -92.5q-39 -85 -39 -168q0 -126 84 -176q18 -9 100 -24q78 -17 115 -17q17 0 35 2t37 2q8 0 18 -2q15 -12 45 -24l2 -15q-9 -15 -12 -32l-11 -5.5t-18.5 -9t-21.5 -10.5q-44 -20 -99 -20q-74 0 -248 57q-18 22 -34 31 q-82 51 -105 80q-41 44 -41 125q0 52 23 174q20 83 90 227l4 18q8 31 53 158q22 69 31 139q-52 113 -152 125q-20 0 -69 6l-31 -4q3 -24 23 -59l-45 63q-20 10 -41 17q-14 21 -21 28z" />
<glyph unicode="|" horiz-adv-x="380" d="M143 -154l9 1352q0 24 1.5 73.5t4 130.5t4.5 157q0 92 2 178q3 51 24 133l5 -2q20 -25 38 -43q39 -85 39 -178l-18 -1821q-3 -92 -16 -137h-5q-18 6 -28 6q-14 8 -43 31h-2q-15 111 -15 120z" />
<glyph unicode="}" horiz-adv-x="806" d="M-31 1776l15 16q8 28 10 31q2 2 55 14q58 10 64 10q47 0 125 -10q3 -1 15.5 -4.5t38 -11t52.5 -15.5q98 -28 102 -30q37 -18 46 -60q15 -68 18 -117q6 -43 6 -59l-80 -479q-4 -28 -4 -41q0 -106 82 -191q81 -90 211 -133q66 -25 66 -43v-14q-2 -2 -8.5 -12t-10.5 -17 q-31 -10 -41 -16l-2 -4l-4 -4q-10 -17 -14 -17t-4 13v10l-31 4l-70 -8q-96 -9 -151 -123q10 -79 32 -139q54 -165 58 -179q73 -148 88 -227q24 -108 24 -172q0 -78 -41 -125q-23 -27 -77 -61q-49 -35 -64 -49q-180 -58 -248 -58q-45 0 -98 21q-36 16 -49 26q-10 25 -12 29 l2 14q27 12 45 27q8 2 16 2q19 0 37 -2q8 -1 16.5 -2t13 -1.5t7.5 -0.5q24 0 112 16q88 19 101 27q84 50 84 176q0 82 -39 170l-68 160q-35 130 -41 166q-35 77 -35 215q0 33 17 53q28 21 29 22q41 38 96 134q-15 15 -68 59q-43 37 -57 59q-7 21 -17 82q-14 86 -14 88 q0 53 35 228q22 74 37 104q30 131 39 191l-23 71v-6q0 -20 19 -39l6 70q-12 26 -24 51.5t-18.5 39.5t-8.5 19q-31 48 -107 45l-272 -8l-15 11z" />
<glyph unicode="~" horiz-adv-x="1665" d="M27 1479q0 102 186 245q181 140 289 140q158 0 272 -88q25 -25 97 -94.5t116 -112.5q27 -24 100 -49q92 -29 130 -29q77 0 290 135l209 135l27 -6q24 -5 41 -8v-72q-133 -96 -187 -139q-136 -108 -190 -139q-105 -60 -225 -60q-41 0 -176 60q-139 62 -154 86 q-85 140 -121 168q-59 47 -205 47q-108 0 -209 -72q-58 -39 -139 -129q-69 -72 -94 -72q-57 0 -57 54z" />
<glyph unicode="&#xa1;" horiz-adv-x="512" d="M59 -31q0 162 211 1170q47 213 113 288q72 -35 72 -84q0 -12 -43 -194q-44 -184 -176 -944q-26 -151 -74 -465q-17 -4 -29 -16q-55 21 -55 63q0 10 6 37q6 30 6 39v6q-31 54 -31 100zM369 1778q0 23 22 59q25 31 47 31q37 0 76 -31q35 -30 35 -68q0 -39 -55 -94h-39 q-25 0 -54 39q-32 35 -32 64z" />
<glyph unicode="&#xa2;" horiz-adv-x="997" d="M80 723q0 48 106 160q103 109 156 129q33 15 119 26q79 10 112 21q47 17 136 264q82 236 161 236q58 0 58 -66q0 -16 -27 -43q-9 -10 -17 -20t-12 -15.5t-6 -7.5q-63 -121 -75 -231q-48 -48 -48 -111q0 -53 62 -80q81 -34 84 -37v-82q-63 -3 -195 -6q-54 -63 -112 -282 q67 -37 147 -37q73 0 156 39l55 -54v-45q-307 -80 -307 -82q-5 0 -23 9q-12 6 -22 6q-66 0 -80 -35q-77 -151 -86 -393q-3 -38 -39 -74q-59 27 -59 147q0 30 22 146q29 136 31 157q-82 49 -227 170q-9 7 -37 105q-3 16 -19 41q-14 25 -14 45zM248 684q1 -2 2.5 -7t3 -11.5 t4.5 -18.5l6 -24q7 -3 76 -48q55 -34 74 -34q13 0 127 319l-84 17q-109 -73 -125 -84q-84 -55 -84 -109z" />
<glyph unicode="&#xa3;" horiz-adv-x="1765" d="M43 338q0 52 59 135q24 34 142 94q10 5 44 24.5t60 33.5q57 32 113 32h35h47h82q33 0 86 -20q15 -6 29.5 -11.5t21 -8t8.5 -3.5l74 279q-13 20 -41 20h-146l-145 2q-2 7 -5 19l-9 31q0 35 43 69q48 33 86 33q15 0 80 -12q61 -15 79 -15q63 0 78 60q10 75 23 153 q10 71 55 246q2 24 23 92q24 40 96 74q73 31 137 31q32 0 180 -68q26 -12 70 -104q39 -82 39 -123q0 -27 -21 -62q-19 -28 -45 -28q-50 0 -59 73q-11 95 -21 109q-15 23 -90 45q-68 18 -104 18q-91 0 -135 -206q-27 -135 -27 -287q42 -13 129 -23q89 -6 133 -18 q101 -22 250 -100q-3 -16 -12 -58q-31 -8 -74 -8q-37 0 -186 31q-149 28 -187 28q-29 0 -45 -2q-15 -24 -49 -188q-35 -153 -35 -205q0 -30 33 -74q9 -14 25.5 -35.5t44.5 -59t51 -68.5q65 -85 127 -125q70 -43 174 -43q191 0 350 90q0 -1 2 -4.5t6 -11t7 -15.5 q14 -25 14 -39q0 -76 -187 -131q-148 -43 -256 -43q-109 0 -186 59q-35 23 -135 144q-88 102 -141 143q-19 -14 -82 -98q-59 -80 -86 -103q-174 -133 -281 -133q-133 0 -237 93q-105 88 -105 210q0 15 -2 31q0 8 -1 18.5t-1 12.5zM162 295q0 -63 63 -117q61 -49 129 -49 q52 0 62 2q64 15 178 123q123 114 123 176q0 33 -60 68q-52 28 -90 28q-180 0 -313 -112q-92 -80 -92 -119z" />
<glyph unicode="&#xa5;" horiz-adv-x="1331" d="M53 365v61q53 31 166 59q121 31 174 31q10 0 25 -6q18 -6 26 -6q23 0 78 22q57 18 70 35l-451 785q18 71 72 71q46 0 217 -272q181 -294 246 -332q81 81 272 305q17 20 83.5 101t117.5 141q153 184 209 184q15 0 69 -57l-387 -443q-307 -346 -307 -432q0 -44 10 -57 q12 -12 54 -12q63 0 131 2h131q137 0 213 -6l-4 -33q-58 -55 -129 -55q-7 0 -23 8q-12 6 -22 6q-6 0 -123 -19q5 1 -6 2q-28 3 -125 5q-129 3 -144 -134q11 -20 45 -20q12 0 33 8q9 5 19.5 8.5t11.5 3.5q143 16 381 13l86 -2v-82q-35 8 -55 10q-19 0 -52 -16q-8 -3 -39 -19 q-98 0 -229 -20q-67 -10 -121 -23q-69 -15 -92 -71q-18 -101 -20 -103q-22 -59 -78 -82q-45 39 -45 88q0 1 4 37q1 7 2 15t1.5 12.5t0.5 7.5q0 47 -84 47q-29 0 -121 -18q-110 -21 -121 -21h-131q-11 56 -14 51q0 78 207 99q225 20 245 30q10 10 37 95q-16 22 -51 22 q-110 0 -199 -18q-33 -8 -94 -29q-62 -18 -94 -18q-35 0 -76 41z" />
<glyph unicode="&#xa6;" horiz-adv-x="765" d="M27 -725q0 20 28 102l37 111q0 31 10 109l97 383q52 209 159 356q35 -68 29 -86l-256 -1071q-30 15 -90 12q-14 28 -14 84zM412 737q0 163 98 473q10 30 63.5 194t92.5 288q26 81 75 178l27 18q24 -21 51 -24v-90q0 -23 -63 -189l-76 -211q-16 -42 -29.5 -84t-27 -91.5 t-20.5 -76t-22 -85.5t-18 -72q-8 -28 -27.5 -110.5t-31.5 -131.5q-26 -19 -49 -39q-43 27 -43 53z" />
<glyph unicode="&#xa7;" horiz-adv-x="1052" d="M61 961q0 40 50 143l51 100l-17 37q-10 22 -16 35q-31 79 -31 133q0 235 129 326q42 31 140 80q99 51 116 51q53 0 138 -21q58 -17 137 -65q39 -22 39 -72q0 -17 -19 -39q-17 -20 -30 -20q3 0 -12 12q-10 8 -54 43q-70 53 -143 53q-53 0 -70 -10q-10 -5 -92 -51 q-35 -12 -82 -41q-96 -81 -96 -242q0 -33 30 -94q50 -94 170 -115q133 -19 193 -30q93 -18 192 -82q41 -24 113 -136q61 -101 61 -133q0 -7 -18 -90t-18 -90q0 -6 53 -74q58 -70 69 -102q23 -50 23 -145q0 -81 -39 -140q-21 -25 -35 -35q-32 -15 -180 -94q-117 -63 -131 -63 h-236q-57 0 -180 67q-49 27 -149 80v86q4 2 10 6q8 4 20 4q14 0 76 -45q57 -40 99 -61q93 -37 176 -37q22 0 166 21q47 6 143 65q17 9 52.5 26.5t53.5 26.5q45 26 45 97q0 58 -36 123q-42 80 -115 108q-21 3 -64 6q-14 10 -34 23q-150 -3 -463 123q-42 14 -117 102 q-68 74 -68 150zM162 946q0 -31 78 -94q62 -54 88 -61q83 -32 164 -56q169 -47 264 -47q25 0 55 37q31 42 31 72q0 49 -51 125q-53 77 -105 98q-56 21 -129 45q-7 1 -94.5 16.5t-149.5 26.5q-20 14 -43 14q-36 0 -73 -75q-35 -65 -35 -101z" />
<glyph unicode="&#xa8;" horiz-adv-x="808" d="M131 1565l37 63l74 49l106 4q32 -27 40.5 -65.5t-7.5 -77.5q-10 -28 -45 -55l-7 -7t-7 -7.5t-6.5 -6.5t-7.5 -6t-7 -4.5t-8 -4t-9 -3t-10 -2.5q-12 -2 -31 4t-30 6q-19 3 -39 0q-18 0 -35 21q-9 12 -6 32zM567 1575q2 17 13 27.5t32.5 21t32.5 18.5q65 47 90 60l107 -45 q3 -13 14 -51q1 -5 4 -12.5t4 -12.5h2q-18 -50 -59 -86q-32 -25 -55 -35.5t-54 -9.5q-55 6 -90 41l-26 33q-15 24 -15 51z" />
<glyph unicode="&#xa9;" horiz-adv-x="1417" d="M33 674q0 10 10 33q9 27 12 30q0 43 4 84q12 148 80 269q150 264 426 317q92 18 252 18q-2 0 36 -10.5t127.5 -33.5t205.5 -52q223 -174 223 -559q0 -267 -233 -436q-216 -156 -488 -156q-136 0 -299 66q-180 71 -250 172q-17 25 -61 129q-45 99 -45 129zM201 731 q0 -84 39 -172q44 -109 106 -133q241 -92 336 -92q56 0 211 35q147 33 203 57q58 31 121 143q63 111 63 183q0 167 -31 258q-12 43 -86 120q-73 76 -121 76q-10 0 -34 -6q-27 -6 -37 -6q-31 0 -146 33q-120 30 -143 30q-18 0 -43 -10q-30 -12 -35 -12q-95 -14 -143 -39 q-116 -60 -189 -190q-71 -130 -71 -275zM393 686q0 174 56 236q142 157 299 157q79 0 131 -37q55 -37 55 -92q0 -28 -33 -51q-1 0 -7.5 2.5t-22 8.5t-33.5 12q-50 16 -66 16q-48 0 -145 -66q-92 -65 -92 -108q0 -160 223 -160q55 0 129 53q83 63 117 74q45 -15 45 -63 q0 -78 -117 -152q-104 -67 -184 -67q-55 0 -220 43l-77 98q-58 76 -58 96z" />
<glyph unicode="&#xaa;" horiz-adv-x="815" d="M53 1470q0 122 348 381q83 25 127 25q57 0 134 -53q86 -56 86 -107q0 -31 -46 -71l-71 57q-39 33 -84 33q-157 0 -277 -176v-9q-2 -4 -2 -10q0 -12 23 -12q14 0 153 59q137 58 154 58q58 0 158 -154q71 -105 118 -213v-43q-49 -11 -49 -13q0 -1 4 -1q-12 8 -180 143 q-24 100 -90 100q-27 0 -192 -51t-193 -51q-27 0 -74 41t-47 67z" />
<glyph unicode="&#xab;" horiz-adv-x="1163" d="M55 514q0 69 115 158q55 44 170 133q95 105 248 256q71 -36 71 -84q0 -56 -204 -242q-205 -190 -205 -215q0 -39 186 -237q187 -199 187 -230v-55q-25 -31 -60 -31q-30 0 -127 94q-72 74 -114 127q-88 120 -248 261q-19 36 -19 65zM455 559q0 52 65 105q18 14 53 43 t52 43q85 92 323 311q72 -57 72 -84q0 -25 -186 -199q-187 -175 -187 -205q0 -33 150 -159q49 -42 186 -156q26 -19 139 -139v-60q-12 -3 -123 -41q0 2 -49 60q-29 39 -57 39q-13 0 -25 -6v6q0 21 -45 69q-22 22 -65 68q-19 24 -170 152q-133 118 -133 153z" />
<glyph unicode="&#xac;" horiz-adv-x="2172" d="M14 444q0 27 33 60q34 31 64 31l1908 90q43 3 80 -27q37 -27 37 -63q0 -21 -39 -109q-41 -96 -49 -119l-55 -192q-47 -116 -140 -119q0 3 -6 24q-8 19 -8 33q0 57 68 273q3 7 22 73v74q-17 23 -31 23q-3 0 -43 -4q-9 -2 -19 -3.5t-14.5 -2.5t-6.5 -1q-6 0 -52 11 q-41 12 -53 12q-30 0 -164 -14q-210 -24 -381 -37l-1061 -78q-29 0 -59 18q-31 22 -31 47z" />
<glyph unicode="&#xad;" horiz-adv-x="864" d="M59 420q0 54 58 67q122 21 262 21q78 0 117 4q12 0 61 18q60 17 68 17q30 0 57 -53q27 -49 27 -82q0 -58 -52 -58q-14 0 -90 13q-71 12 -90 12q-134 0 -219 -14q-12 -2 -29.5 -6t-30 -6t-22.5 -3q-28 -6 -41 -10l-7 -2h3q-17 0 -45 31q-27 34 -27 51z" />
<glyph unicode="&#xae;" horiz-adv-x="1558" d="M53 608q0 19 8 58q7 54 7 59q0 24 -2 51q-1 11 -2 22.5t-2 18.5t-1 10q0 66 62 193q46 107 100 180q106 139 258 207q39 16 205 33q37 4 102 20q73 17 99 17q181 0 332 -121q152 -122 231 -326q55 -134 55 -248q0 -141 -45 -290q-50 -170 -129 -261q-53 -59 -178 -108 q-120 -47 -221 -47q-29 0 -178 -13q-141 -12 -181 -12q-18 0 -45 12q-40 19 -47 21q-43 9 -141 49q-126 69 -205 203q-82 131 -82 272zM195 596q0 -42 51 -141q44 -86 78 -129q37 -46 157 -76q7 -1 76 -27q65 -20 74 -20q19 0 121 18q167 27 288 53q-50 25 -233 105 q-152 70 -223 127v-86q0 -88 -70 -88q-30 0 -61 22q-4 62 -4 385q0 85 -5 115q-3 19 -24 49t-21 45q0 71 183 144q155 63 247 63q94 0 172 -78t78 -174q0 -90 -139 -235q-60 -50 -129 -125q196 -79 391 -199q162 125 162 399q0 109 -55 252q-55 154 -127 217 q-144 123 -262 123q-22 0 -54 -26l-51 -35q-125 -41 -217 -41q-10 0 -25 18q-18 21 -26 21q-37 0 -125 -82q-71 -65 -109 -115q-51 -68 -90 -229q-28 -129 -28 -250zM555 922q0 -122 29 -383q90 121 157 149q3 0 8 1t14 3t17 4q60 60 105 109q65 74 65 125q0 30 -47 63 q-44 33 -86 33q-44 0 -139 -39q-102 -42 -123 -65z" />
<glyph unicode="&#xaf;" horiz-adv-x="962" d="M55 1735q0 17 29 43q29 23 53 30q15 1 41 3.5t68.5 6.5t77.5 7l186 18q28 0 201 -10q153 -12 198 -12q50 0 76 -60q18 -38 45 -92q-26 -13 -57 -27q-33 -16 -58 -16t-86 10l-243 39q-82 13 -107 13t-162 -25q-145 -27 -159 -27q-40 0 -72 29q-31 31 -31 70z" />
<glyph unicode="&#xb0;" horiz-adv-x="718" d="M61 1499q0 69 80 193q77 120 144 149q76 31 196 31q94 0 183 -45q30 -15 65 -80q33 -65 33 -107q0 -17 -8 -53q-6 -41 -6 -53q0 -34 22 -53q-165 -162 -328 -162q-105 0 -235 74q-8 4 -12 4h-17q-35 0 -45 -13q-72 84 -72 115zM281 1563q0 -48 73 -78q53 -23 113 -23 q47 0 104 45q58 49 58 88q0 50 -47 88q-50 35 -109 35q-34 0 -113 -61t-79 -94z" />
<glyph unicode="&#xb1;" horiz-adv-x="1060" d="M31 117q0 4 53 69h348q3 0 12 2t26 6t34 7q134 32 201 32h75q41 -2 80 -2q72 0 115 9q18 -18 18 -45q0 -45 -43 -82q-25 -2 -153 -19q-356 -47 -400 -53q-55 -8 -161 -8q-92 0 -127 6q-78 15 -78 78zM184 655q15 39 56 93q107 3 280 20q1 3 20.5 47.5t34.5 77.5 q37 84 82 90q18 -79 15 -207q26 -15 153 -41q107 -24 129 -65q-30 -58 -69 -58q-13 0 -66 6q-58 7 -63 7q-104 0 -125 -70q-3 -47 -15 -141q-9 -83 -94 -111q-20 29 -20 92q0 31 2 62q1 12 2 26t1.5 21.5t0.5 11.5q0 56 -19 72q-29 26 -163 26q-98 0 -142 41z" />
<glyph unicode="&#xb2;" horiz-adv-x="817" d="M14 1014v14q0 51 17 68q40 45 170 141q131 97 184 143q21 20 89.5 81.5t115.5 105.5q123 115 172 207q-15 10 -31 10q-88 0 -301 -82q-217 -82 -197 -84h-38q-31 28 -31 43q0 43 129 90q38 14 219 86q121 47 233 47q132 0 132 -108q0 -68 -72 -140q-11 -12 -50 -49 t-63 -61q-211 -211 -514 -457q47 -13 103 -10l360 20q34 3 150 -10l30 29l21 -105q-4 0 -28.5 -1t-75 -3t-105.5 -4q-74 -4 -152 -14q-113 -10 -145 -10q-15 0 -29 4l-12 2l-9 1.5t-5 0.5q-27 -15 -41 -15q-134 0 -226 60z" />
<glyph unicode="&#xb3;" horiz-adv-x="927" d="M57 1524v45q7 7 22.5 20t20.5 17q20 9 371 84q337 75 377 75q96 0 96 -96q0 -70 -149 -180q-21 -15 -213 -139q-25 -14 -62 -54q69 -28 166 -39q146 -18 164 -22q94 -27 94 -113q0 -19 -4 -35q-46 -99 -145 -139q-96 -37 -189 -74q-17 -10 -43 -24t-66 -34.5t-71 -37.5 q-26 -7 -104 -30q-62 -21 -89 -62h-83v111l315 123q166 61 287 182q-51 51 -271 51q-180 0 -268 49v58q285 177 514 335v9q2 9 -6.5 14.5t-26.5 5.5l-114 -18q-84 -13 -277 -66q-109 -33 -125 -33h-102z" />
<glyph unicode="&#xb4;" horiz-adv-x="790" d="M31 1411q0 49 55 74q33 17 96.5 47.5t71.5 34.5q74 55 180 121l125 61l76 49l76 43q4 0 77 25q58 -37 58 -66q0 -6 -115 -69q-86 -50 -176 -97q-20 -10 -82.5 -44t-107.5 -58q-33 -25 -50 -37q-165 -125 -227 -125q-57 0 -57 41z" />
<glyph unicode="&#xb5;" horiz-adv-x="2168" d="M14 498q0 75 215 110q228 37 242 58q24 413 53 548q67 307 262 467q39 31 172 31q334 0 439 -321q122 194 219 270q132 102 326 102q146 0 225 -110q82 -110 82 -301q0 -116 -54 -215q-43 -74 -133 -179q-19 -24 -102 -114q-14 -17 -135 -82q-111 -62 -144 -74 q-131 -55 -227 -55q-26 0 -35 12q-30 -27 -30 -76q0 -13 6 -22q4 -16 4 -19h186q11 0 45 15q38 12 47 12q1 0 41.5 2t137.5 6t208 8l31 -16v-35l-33 -37q6 0 -7 -3q-45 -10 -210 -36q-77 -10 -231 -26q-135 -15 -223 -66v-8q0 -28 12 -113q12 -86 12 -110q0 -132 -98 -144 q-11 11 -29 15v22q0 51 -45 340q-3 8 -18 8q-27 0 -103 -18q-70 -20 -94 -20q-47 0 -90 43q27 80 143 98q136 18 166 59v64q-20 33 -59 33q-13 0 -152 -19l-270 -39q-85 -12 -133 -43v-18q0 -28 6 -127q6 -95 6 -121q0 -70 -33 -219q-12 -54 -80 -84q-26 33 -26 67 q0 45 8 146q8 104 8 147q0 219 -65 219q-23 0 -144 -26q-120 -24 -270 -51q-29 23 -29 45zM604 840l4 -62q1 -12 2 -26t1.5 -22t0.5 -11q0 -25 -4 -45l649 51q21 109 56 303q24 129 24 152q0 57 -30 168q-27 98 -131 165q-104 70 -218 70q-112 0 -233 -182q-24 -37 -61 -221 q-3 -22 -17 -81.5t-20 -88.5q-23 -118 -23 -170zM1401 752q69 -14 65 -17q32 0 187 41q265 72 338 133q219 177 219 424q0 133 -78 230q-79 98 -190 98q-128 0 -263 -105q-138 -106 -153 -221l-31 -39q-14 -75 -61 -276q-33 -129 -33 -152v-116z" />
<glyph unicode="&#xb6;" horiz-adv-x="1224" d="M66 1106q0 127 84 274q88 152 208 232q41 30 148 76q32 23 90 55q140 57 637 57q80 0 80 -129q0 -71 -70 -354q-88 -357 -160 -668q-16 -68 -63 -375q-1 -4 -4.5 -28.5t-11 -71t-15.5 -98.5q-35 -127 -127 -127q-24 0 -43 22q-22 22 -22 43q0 9 34 78q30 59 39 94 q49 229 52 246q61 346 110 604q9 50 96 373q43 151 43 168v47q-71 23 -161 23q-66 0 -97 -17l-84 -430q-13 -70 -61 -434q-6 -40 -33 -205.5t-47 -296.5q-36 -246 -33 -364q-15 -6 -45 -6q-3 0 -53 4q-11 0 -20.5 0.5t-14.5 1t-6 0.5q-3 12 -7 31l-7 26q0 15 30 147 q28 129 68 316q3 83 31 266q-26 26 -96 35q-86 11 -105 16q-138 47 -240 135q-124 109 -124 234zM541 920q0 -22 41 -39q39 -17 59 -17q49 176 107 463q36 186 36 219v60h-47q-65 -27 -108 -45q-69 -26 -88 -66q65 -15 65 -74v-39q0 -6 -16 -112l-37 -260q-12 -76 -12 -90z " />
<glyph unicode="&#xb7;" horiz-adv-x="530" d="M74 508q12 64 55 168q27 33 90 76q71 47 105 47q45 0 92 -56q43 -55 43 -110q0 -43 -88 -113q-87 -69 -138 -69q-45 0 -159 57z" />
<glyph unicode="&#xb8;" horiz-adv-x="917" d="M29 -342q0 8 12 43q14 28 14 43l31 -25q1 0 111 -14q68 -12 118 -12q91 0 248 39q195 49 195 100q0 80 -74 125q-32 21 -149 57q-90 24 -123 54q0 8 4 82q5 36 82 174q77 139 108 139q51 0 51 -55q0 -31 -34 -109q-40 -93 -43 -125q38 -26 137 -49q30 -9 74 -47 q50 -50 65 -60q57 -134 57 -174q0 -226 -362 -250q-8 -1 -35 -2t-58 -2.5t-65 -5.5q-9 -1 -96 -16l-19 -4h5q-19 0 -113 -8q-24 -2 -51.5 -4.5t-41.5 -4t-20 -2.5l-28 21v92z" />
<glyph unicode="&#xb9;" horiz-adv-x="462" d="M45 862q0 19 115 273l139 303q0 4 47 184q23 95 105 168q45 -80 45 -90q0 -23 -52 -154l-61 -166q-8 -51 -23 -114q-129 -310 -254 -453h-45q-16 13 -16 49z" />
<glyph unicode="&#xba;" horiz-adv-x="749" d="M70 1645q0 53 80 153q3 0 10 1t23.5 4t31.5 5q37 9 66 9q5 0 30 -7q21 -6 29 -6q18 0 109 31q82 33 108 33q246 0 246 -172q0 -107 -164 -166q-120 -47 -254 -47q-95 0 -192 33q-123 46 -123 129zM367 1626h22q200 0 285 82q-64 31 -84 31q-25 0 -111 -25 q-77 -23 -98 -39q-14 -14 -14 -49z" />
<glyph unicode="&#xbb;" horiz-adv-x="1089" d="M55 178q0 47 238 291q237 246 237 262q0 28 -213 193q-211 166 -211 192q0 23 21 47q26 23 43 23q62 0 426 -291q54 -46 74 -64q53 -68 53 -100q0 -38 -57 -98q-7 -8 -19 -20.5t-30.5 -31.5t-32.5 -34q-181 -225 -328 -316q-25 -34 -63 -69q-14 -3 -51.5 -13.5 t-55.5 -15.5q-31 22 -31 45zM350 4q0 21 31 94q30 69 51 97q13 19 76 57q43 26 229 246q178 217 178 252q0 41 -200 211q-67 56 -203 174q-51 48 -57 67q-2 2 -2 49q0 49 45 78q112 -70 256 -174q90 -106 147 -172q16 -11 60.5 -45t64.5 -49q82 -64 82 -125 q0 -129 -430 -574q-3 -3 -39 -37t-61 -61q-66 -63 -66 -117q0 -10 4 -30q-60 -31 -76 -31q-34 0 -63 29q-27 27 -27 61z" />
<glyph unicode="&#xbc;" horiz-adv-x="1607" d="M53 -31q0 95 385 553q9 11 113 131t190.5 222t182.5 217q12 15 65 86t96 127l93 86q60 57 63 98q59 26 70 57q18 54 32 72q19 19 232 197q59 -27 59 -66q0 -40 -123 -166q-11 -12 -39 -39.5t-59 -59.5t-61 -67q-78 -90 -208 -243t-347.5 -409.5t-395.5 -465.5 q-54 -63 -98 -152q-7 -17 -33 -71.5t-43 -93.5q-10 -8 -31.5 -26t-31.5 -26q-12 -6 -80 -6q-31 22 -31 45zM117 709q0 9 20 84q24 69 27 90q46 235 188 555q18 32 80 94q47 -24 47 -66q0 -9 -78 -219q-84 -234 -88 -252q-47 -165 -69 -374q-26 -6 -70 -15q-57 57 -57 103z M709 428q0 88 82 195q71 93 153 149h43q31 -25 31 -51q0 -17 -76 -96q-9 -11 -22 -26t-34 -38t-36 -41q30 -55 84 -55h250q76 0 133 2q71 121 145 238q92 152 193 184q18 -15 18 -51q0 -13 -74 -131q-40 -59 -90 -148q-40 -131 -100 -285q-86 -220 -86 -284q-53 -11 -49 -13 q-31 0 -49 62q-17 56 -17 90q0 25 68 223q-54 0 -113 -2q-34 0 -71.5 -1t-40.5 -1q-271 0 -342 80z" />
<glyph unicode="&#xbd;" horiz-adv-x="1863" d="M45 799q0 18 115 272l139 301q0 7 47 184q24 99 105 168q45 -77 45 -90q0 -20 -52 -151l-61 -166q-8 -52 -23 -117q-130 -311 -254 -452h-45q-16 16 -16 51zM147 211v65q0 24 555 732q537 682 646 804q44 44 131 78q11 -11 30 -14v-57q-25 -23 -100 -105 q-171 -245 -596 -768l-219 -266q-119 -146 -188 -285l-5 -2q0 -6 23 -6q-1 0 44.5 16.5t151.5 54t244 85.5q134 47 318 96q209 57 366 57q117 0 117 -78q0 -61 -149 -174q-137 -103 -201 -149q-116 -108 -281 -250q24 -43 72 -43q193 45 577 135q33 3 263 31v-47 q-37 -27 -119 -64q-196 -32 -299 -61q-30 -7 -116 -32.5t-138 -39.5q-136 -39 -258 -39q-53 0 -115 33q-72 38 -72 84q0 51 113 133q6 4 62.5 43.5t97.5 69.5q108 77 383 327q-13 19 -51 19q-6 0 -86 -23q-136 -40 -189 -53q-136 -30 -244 -57q-17 -4 -354 -152 q-258 -114 -330 -114q-53 0 -84 16z" />
<glyph unicode="&#xbe;" horiz-adv-x="2150" d="M57 1427v46q7 7 22 19t21 17q20 9 371 84q355 76 377 76q96 0 96 -98q0 -68 -149 -178q-36 -26 -213 -140q-34 -23 -62 -53q59 -27 166 -39q146 -18 164 -22q94 -27 94 -113q0 -19 -4 -35q-46 -99 -145 -139q-96 -37 -189 -74q-17 -10 -43 -24t-66 -34.5t-71 -37.5 q-10 -3 -24.5 -7t-38.5 -11.5t-41 -12.5q-63 -21 -89 -61h-83v110l315 123q164 60 287 183q-54 51 -271 51q-180 0 -268 49v57q270 168 514 336v8q2 9 -6.5 15t-26.5 6q-38 -7 -114 -19q-93 -15 -277 -65q-109 -33 -125 -33h-102zM418 10q0 23 80 135q81 112 106 134 q115 115 184 192q51 59 191.5 230.5t232.5 281.5l148 174q10 12 82 98q33 66 47 91q2 2 10.5 11.5t29 33t40.5 45.5q395 438 520 438q8 0 63 -55q-11 -32 -100 -88q-12 -8 -52 -33.5t-69 -44.5q-56 -39 -137 -135q-389 -464 -1229 -1530q-35 -41 -57 -41q-12 0 -39 6 q-27 8 -37 8l-14 51v-2zM1292 385q0 61 103 182q102 123 159 150h58q3 -32 26 -58q-44 -40 -106 -108q-59 -62 -62 -131q52 -35 78 -35q18 0 70 12q60 13 72 13q4 0 13.5 -1.5t26 -3.5t31.5 -4q58 -6 74 -6q32 0 45 13q23 20 92 137q76 131 94 155q6 5 105 95h70 q14 -17 14 -45q0 -11 -68 -91q-73 -89 -84 -106q-11 -18 -46 -74.5t-60 -97.5q-64 -110 -70 -184q-41 -23 -98 -164q-58 -145 -105 -189h-47q0 12 -12 52q-14 38 -14 51q0 46 129 301q-18 47 -82 47q-12 0 -115 -14q-93 -13 -113 -13q-178 0 -178 117z" />
<glyph unicode="&#xbf;" horiz-adv-x="1460" d="M100 164q0 172 224 285q75 28 370 141q140 54 373 78q158 15 168 20q28 12 31 84q3 37 6 100q18 77 35 189q4 19 11.5 79.5t14.5 104.5q17 102 82 160q60 -25 60 -64q0 -9 -17 -51q-18 -40 -18 -47q-12 -133 -27 -244q-27 -206 -35 -401q-39 -22 -141 -31 q-13 -1 -64.5 -5t-89.5 -9q-26 -4 -123.5 -21.5t-171.5 -29.5q-47 -13 -116 -43q-432 -175 -432 -289q0 -127 321 -127q130 0 463 66q180 36 199 36q39 0 108 -28q-3 -35 -26 -58q-217 -49 -549 -116q-221 -43 -228 -43q-134 0 -270 65q-158 79 -158 199zM1384 1716 q0 27 23 60q22 28 49 28q42 0 74 -28q35 -30 35 -68t-56 -94h-39q-22 0 -55 39q-31 39 -31 63z" />
<glyph unicode="&#xc0;" horiz-adv-x="1230" d="M86 -41q0 57 12.5 113.5t41 120t49 101.5t61.5 109q26 60 87.5 228.5t94.5 240.5q216 473 418 814v-31q50 21 72 119q22 88 67 88q2 2 10 2q30 0 45 -47q7 -13 29 -117q106 -457 191 -895q11 -63 59 -311q18 -37 55 -129q14 -40 47 -193q35 -146 35 -195q0 -69 -90 -69 q-39 0 -47 4q-336 342 -653 342q-72 0 -295 -55q-67 -18 -123 -121q-18 -36 -70 -168q-21 -17 -65 -37q-31 31 -31 86zM381 389q0 -34 16 -31l281 13q162 8 311 -54q102 -40 277 -165v59q0 34 -58 342l-96 520q-49 250 -145 504q-127 -136 -344 -645q-2 -5 -25 -58t-41 -98 q-38 -54 -43 -63q-14 -22 -74 -164q-59 -135 -59 -160zM483 2003q0 31 6 37t39 6q52 0 162 -64q277 -162 467 -290q2 -2 5 -6.5t5 -6.5q0 -12 -20 -32q-36 -33 -72 -33q-18 0 -82 31l-86 43q-82 40 -186 120q-109 84 -195 109q-43 55 -43 86z" />
<glyph unicode="&#xc1;" horiz-adv-x="1230" d="M86 -41q0 57 12.5 113.5t41 120t49 101.5t61.5 109q26 60 87.5 228.5t94.5 240.5q216 473 418 814v-31q50 21 72 119q22 88 67 88q2 2 10 2q30 0 45 -47q7 -13 29 -117q106 -457 191 -895q11 -63 59 -311q18 -37 55 -129q14 -40 47 -193q35 -146 35 -195q0 -69 -90 -69 q-39 0 -47 4q-336 342 -653 342q-72 0 -295 -55q-67 -18 -123 -121q-18 -36 -70 -168q-21 -17 -65 -37q-31 31 -31 86zM317 1411q0 48 56 74q33 17 96.5 47.5t71.5 34.5q74 55 180 121l125 61l76 49l75 43q5 0 78 25q58 -37 58 -66q0 -6 -115 -69q-86 -50 -176 -97 q-11 -6 -76.5 -41t-114.5 -61q-2 -2 -10 -8l-18 -13.5t-21 -15.5q-165 -125 -227 -125q-58 0 -58 41zM381 389q0 -34 16 -31l281 13q162 8 311 -54q102 -40 277 -165v59q0 34 -58 342l-96 520q-49 250 -145 504q-127 -136 -344 -645q-2 -5 -25 -58t-41 -98q-38 -54 -43 -63 q-14 -22 -74 -164q-59 -135 -59 -160z" />
<glyph unicode="&#xc2;" horiz-adv-x="1245" d="M86 -41q0 57 12.5 113.5t41 120t49 101.5t61.5 109q26 60 87.5 228.5t94.5 240.5q216 473 418 814v-31q50 21 72 119q22 88 67 88q2 2 10 2q30 0 45 -47q7 -13 29 -117q106 -457 191 -895q11 -63 59 -311q18 -37 55 -129q14 -40 47 -193q35 -146 35 -195q0 -69 -90 -69 q-39 0 -47 4q-336 342 -653 342q-72 0 -295 -55q-67 -18 -123 -121q-18 -36 -70 -168q-21 -17 -65 -37q-31 31 -31 86zM381 389q0 -34 16 -31l281 13q162 8 311 -54q102 -40 277 -165v59q0 34 -58 342l-96 520q-49 250 -145 504q-127 -136 -344 -645q-2 -5 -25 -58t-41 -98 q-38 -54 -43 -63q-14 -22 -74 -164q-59 -135 -59 -160zM502 2025q0 26 51 62q68 44 74 53q4 4 14.5 18.5t35.5 49t48 65.5q15 20 68 60q68 46 79 55q17 17 46 68q26 53 38 65q33 33 80 33q60 0 90 -55q57 -104 125 -218q71 -124 158 -202q4 -6 4 -35q0 -76 -76 -76 q-25 0 -47 14q-17 47 -90 101q-1 0 -78 139q-68 127 -106 127q-14 0 -217 -197q-206 -194 -228 -194q-23 0 -45 22q-24 24 -24 45z" />
<glyph unicode="&#xc3;" horiz-adv-x="1251" d="M86 -41q0 57 12.5 113.5t41 120t49 101.5t61.5 109q26 60 87.5 228.5t94.5 240.5q216 473 418 814v-31q50 21 72 119q22 88 67 88q2 2 10 2q30 0 45 -47q7 -13 29 -117q106 -457 191 -895q11 -63 59 -311q18 -37 55 -129q14 -40 47 -193q35 -146 35 -195q0 -69 -90 -69 q-39 0 -47 4q-336 342 -653 342q-72 0 -295 -55q-67 -18 -123 -121q-18 -36 -70 -168q-21 -17 -65 -37q-31 31 -31 86zM258 1894q0 72 164 207q161 133 235 133q10 0 240 -127q231 -129 242 -129q1 0 13 -1.5t24 -1t20 4.5q9 5 22 9.5t23.5 6.5t11.5 3q11 -1 29.5 12.5 t46.5 20.5q4 2 117 92q92 71 110 71q66 0 66 -69q0 -58 -133 -158q-102 -75 -193 -115q-104 -43 -247 -43q-10 0 -166 123t-232 123q-68 0 -188 -117q-117 -114 -133 -114q-22 0 -47 22q-25 25 -25 47zM381 389q0 -34 16 -31l281 13q162 8 311 -54q102 -40 277 -165v59 q0 34 -58 342l-96 520q-49 250 -145 504q-127 -136 -344 -645q-2 -5 -25 -58t-41 -98q-38 -54 -43 -63q-14 -22 -74 -164q-59 -135 -59 -160z" />
<glyph unicode="&#xc4;" horiz-adv-x="1230" d="M86 -41q0 57 12.5 113.5t41 120t49 101.5t61.5 109q26 60 87.5 228.5t94.5 240.5q216 473 418 814v-31q50 21 72 119q22 88 67 88q2 2 10 2q30 0 45 -47q7 -13 29 -117q106 -457 191 -895q11 -63 59 -311q18 -37 55 -129q14 -40 47 -193q35 -146 35 -195q0 -69 -90 -69 q-39 0 -47 4q-336 342 -653 342q-72 0 -295 -55q-67 -18 -123 -121q-18 -36 -70 -168q-21 -17 -65 -37q-31 31 -31 86zM381 389q0 -34 16 -31l281 13q162 8 311 -54q102 -40 277 -165v59q0 34 -58 342l-96 520q-49 250 -145 504q-127 -136 -344 -645q-2 -5 -25 -58t-41 -98 q-38 -54 -43 -63q-14 -22 -74 -164q-59 -135 -59 -160zM440 1636l37 64l74 49l106 4q32 -27 40.5 -65.5t-7.5 -77.5q-7 -19 -16.5 -30t-28.5 -26l-9.5 -9.5t-9 -9.5t-8.5 -7.5t-10 -6.5t-10.5 -4.5t-13.5 -3.5q-12 -2 -31.5 4.5t-30.5 6.5q-20 3 -39 0q-17 0 -34 20 q-10 13 -7 33zM877 1647q2 18 13 28t32 20.5t32 18.5q65 47 90 60l107 -45q3 -16 14 -52q1 -5 4.5 -12t4.5 -12h2q-18 -49 -60 -86q-32 -25 -54.5 -35.5t-53.5 -9.5q-55 6 -90 41l-27 32q-14 22 -14 52z" />
<glyph unicode="&#xc5;" horiz-adv-x="1230" d="M86 -41q0 57 12.5 113.5t41 120t49 101.5t61.5 109q26 60 87.5 228.5t94.5 240.5q216 473 418 814v-31q50 21 72 119q22 88 67 88q2 2 10 2q30 0 45 -47q7 -13 29 -117q106 -457 191 -895q11 -63 59 -311q18 -37 55 -129q14 -40 47 -193q35 -146 35 -195q0 -69 -90 -69 q-39 0 -47 4q-336 342 -653 342q-72 0 -295 -55q-67 -18 -123 -121q-18 -36 -70 -168q-21 -17 -65 -37q-31 31 -31 86zM381 389q0 -34 16 -31l281 13q162 8 311 -54q102 -40 277 -165v59q0 34 -58 342l-96 520q-49 250 -145 504q-127 -136 -344 -645q-2 -5 -25 -58t-41 -98 q-38 -54 -43 -63q-14 -22 -74 -164q-59 -135 -59 -160zM590 2056q0 105 117 240q112 133 211 133q117 0 208 -45q3 -2 103 -78l16 -217q3 -11 -28 -49q-8 -11 -17 -22t-12.5 -15.5t-3.5 -5.5q-5 -18 -29 -64q-40 -57 -115 -102q-68 -45 -135 -45q-93 0 -157 31 q-49 25 -103 106q-55 82 -55 133zM745 2071q0 -29 54 -68q52 -37 88 -37q74 0 131 51q59 47 59 117q0 79 -45 96q-18 6 -117 6q-53 0 -110 -57q-60 -60 -60 -108z" />
<glyph unicode="&#xc6;" horiz-adv-x="2629" d="M18 55q0 54 70 152q12 16 47.5 64.5t59.5 80.5q52 93 178 291q54 112 84 168q164 255 452 735q27 72 35 92q25 66 90 66q28 0 166 -25q138 -22 166 -22q42 0 315 -10q301 -11 318 -11q69 0 119 11q13 2 133 39q92 32 116 32q23 0 76 -35v-12q0 -53 15 -102 q-249 -111 -306 -111h-3q-3 0 -10.5 0.5t-18.5 1.5t-27 1.5t-34 1.5t-42.5 2.5t-50.5 2.5l-684 37q-111 6 -169 -19.5t-58 -72.5q0 -29 22 -145q15 -84 56 -277q24 -117 67 -117q7 0 20.5 1.5t37 3.5t45.5 4q71 8 104 8h649q7 -2 28 -6.5t59 -13.5t75 -17q98 -21 98 -109 q0 -40 -14 -83q-22 0 -72 18q-50 20 -59 20l-485 52q-7 0 -58 -7q-41 -8 -59 -8q-6 0 -37 17q-25 14 -39 14q-61 0 -274 -74v-59q0 -15 47 -186q57 -188 59 -193q14 -39 53 -39q20 0 37 23q36 8 101 8h907q18 0 127 -25q105 -24 127 -24q14 0 18 2l31 -37v-53 q-80 -25 -131 -25q-21 0 -29 2q-200 16 -383 16q-376 0 -586 -26q-25 -2 -147 -35q-115 -27 -135 -27q-61 0 -92 54q-1 2 -4.5 19.5t-12.5 66.5t-18 96q-2 24 -72 307q-3 11 -12.5 51.5t-16.5 69.5q-6 14 -28 43q-65 -13 -258 -25q-164 -12 -250 -43q-23 -10 -62 -63 q-30 -45 -55 -78q-107 -144 -315 -526h-84q-17 20 -17 67zM659 862q102 12 191 12q76 0 164 -10v82q0 28 -43 92q8 20 8 39q0 39 -23 113q-10 29 -18 54.5t-12.5 41.5t-5.5 19q-1 -2 -19.5 -30t-52.5 -80t-74 -112q-100 -149 -115 -221z" />
<glyph unicode="&#xc7;" horiz-adv-x="1667" d="M59 741q0 280 277 506q171 139 524 301q49 23 131.5 62.5t112.5 52.5q137 61 260 61q19 0 55 -4q-3 -34 -26 -57q-273 -110 -299 -119q-126 -44 -154 -53q-20 -24 -49 -53l-195 -99q-370 -189 -467 -434q-8 -15 -32 -104q-21 -79 -21 -90q0 -183 154 -340 q131 -134 303 -187q103 -34 344 -34q53 0 264 24l500 51l14 -73q-74 -30 -182 -56q-11 -2 -33 -8.5t-33 -9.5l-194 -55q-33 -10 -248 -25q-208 -10 -277 -10q-158 0 -225 37q-357 199 -461 432q-43 98 -43 284zM539 -590v-92l28 -20q6 1 20.5 2t40.5 3t52 5q94 8 113 8 q-11 0 -1 2q5 1 15 2q87 15 96 16q20 2 158 11q362 24 362 250q0 40 -57 174q-21 14 -66 59q-45 38 -73 47q-99 23 -137 49q3 32 43 125q34 78 34 109q0 55 -51 55q-31 0 -108 -139q-77 -138 -82 -174q-4 -74 -4 -82q32 -28 122 -53q115 -36 150 -58q74 -45 74 -125 q0 -51 -195 -100q-157 -39 -248 -39q-50 0 -118 12q-26 3 -53 7l-40.5 6t-17.5 2l-31 24q0 -15 -14 -43q-12 -35 -12 -43z" />
<glyph unicode="&#xc8;" horiz-adv-x="1310" d="M76 182q0 35 26 213q15 115 60 408q-33 26 -33 80v32q2 18 2 35q54 16 86.5 173.5t38.5 389.5q-16 8 -47 1.5t-59 -9.5t-72 21v86q23 39 84 45q88 6 100 10q13 4 45 39q35 35 53 35q8 0 50 -17q36 -16 53 -16q270 26 278 27q116 12 473 39q33 7 76 22l72 21q9 0 63 -7 q53 -6 60 -6q55 -4 233 -4l15 -41q-42 -14 -105 -61q-20 2 -67 2q-173 0 -560 -62l-231 -36q-16 0 -74 6q-25 4 -43.5 4.5t-37 -2t-31.5 -5.5t-40.5 -9t-51.5 -11q-37 -8 -52 -11.5t-30 -12t-21 -21.5q-27 -55 -49 -235q-18 -129 -18 -222q0 -13 22 -69q183 28 248 28h575 v-88q-55 -6 -151 -6q-70 0 -146 2q-74 2 -143 2q-94 0 -231 -57q-4 -1 -20.5 -4.5t-45.5 -10t-59 -12.5q-81 -15 -107 -65q-47 -415 -47 -582q36 -45 72 -51l160 -35q61 0 174 10q223 19 503 19q49 0 115 -4l49 -2q33 -9 33 -31v-51q-61 -27 -231 -27q-32 0 -82 -18 q-49 -19 -54 -19q-23 0 -86 8q-76 11 -88 9h-16q-70 -6 -264 -33q-115 -14 -137 -14q-56 0 -168 69q-121 77 -121 131zM379 2193q0 31 6 37t39 6q54 0 162 -63q265 -155 467 -291q2 -2 5 -6t5 -6q0 -12 -21 -33q-36 -33 -71 -33q-18 0 -82 31l-86 43q-81 39 -187 121 q-108 83 -194 108q-43 55 -43 86z" />
<glyph unicode="&#xc9;" horiz-adv-x="1310" d="M76 182q0 35 26 213q15 115 60 408q-33 26 -33 80v32q2 18 2 35q54 16 86.5 173.5t38.5 389.5q-16 8 -47 1.5t-59 -9.5t-72 21v86q23 39 84 45q88 6 100 10q13 4 45 39q35 35 53 35q8 0 50 -17q36 -16 53 -16q270 26 278 27q116 12 473 39q33 7 76 22l72 21q9 0 63 -7 q53 -6 60 -6q55 -4 233 -4l15 -41q-42 -14 -105 -61q-20 2 -67 2q-173 0 -560 -62l-231 -36q-16 0 -74 6q-25 4 -43.5 4.5t-37 -2t-31.5 -5.5t-40.5 -9t-51.5 -11q-37 -8 -52 -11.5t-30 -12t-21 -21.5q-27 -55 -49 -235q-18 -129 -18 -222q0 -13 22 -69q183 28 248 28h575 v-88q-55 -6 -151 -6q-70 0 -146 2q-74 2 -143 2q-94 0 -231 -57q-4 -1 -20.5 -4.5t-45.5 -10t-59 -12.5q-81 -15 -107 -65q-47 -415 -47 -582q36 -45 72 -51l160 -35q61 0 174 10q223 19 503 19q49 0 115 -4l49 -2q33 -9 33 -31v-51q-61 -27 -231 -27q-32 0 -82 -18 q-49 -19 -54 -19q-23 0 -86 8q-76 11 -88 9h-16q-70 -6 -264 -33q-115 -14 -137 -14q-56 0 -168 69q-121 77 -121 131zM391 1731q0 48 55 73q33 17 96.5 47.5t71.5 34.5q69 52 181 121l125 61l75 50l76 43q8 0 78 24q57 -37 57 -65q0 -7 -114 -70q-59 -34 -177 -96 q-17 -9 -80 -43.5t-110 -59.5q-24 -18 -49 -36q-165 -125 -227 -125q-58 0 -58 41z" />
<glyph unicode="&#xca;" horiz-adv-x="1310" d="M76 182q0 35 26 213q15 115 60 408q-33 26 -33 80v32q2 18 2 35q54 16 86.5 173.5t38.5 389.5q-16 8 -47 1.5t-59 -9.5t-72 21v86q23 39 84 45q88 6 100 10q13 4 45 39q35 35 53 35q8 0 50 -17q36 -16 53 -16q270 26 278 27q116 12 473 39q33 7 76 22l72 21q9 0 63 -7 q53 -6 60 -6q55 -4 233 -4l15 -41q-42 -14 -105 -61q-20 2 -67 2q-173 0 -560 -62l-231 -36q-16 0 -74 6q-25 4 -43.5 4.5t-37 -2t-31.5 -5.5t-40.5 -9t-51.5 -11q-37 -8 -52 -11.5t-30 -12t-21 -21.5q-27 -55 -49 -235q-18 -129 -18 -222q0 -13 22 -69q183 28 248 28h575 v-88q-55 -6 -151 -6q-70 0 -146 2q-74 2 -143 2q-94 0 -231 -57q-4 -1 -20.5 -4.5t-45.5 -10t-59 -12.5q-81 -15 -107 -65q-47 -415 -47 -582q36 -45 72 -51l160 -35q61 0 174 10q223 19 503 19q49 0 115 -4l49 -2q33 -9 33 -31v-51q-61 -27 -231 -27q-32 0 -82 -18 q-49 -19 -54 -19q-23 0 -86 8q-76 11 -88 9h-16q-70 -6 -264 -33q-115 -14 -137 -14q-56 0 -168 69q-121 77 -121 131zM307 2189q0 26 51 62q68 44 74 53q4 4 14.5 18.5t35.5 49t48 65.5q15 20 68 60q73 50 80 55q16 16 45 67q26 53 39 66q33 33 80 33q60 0 90 -56 q50 -90 125 -217q72 -126 157 -202q5 -7 5 -35q0 -76 -76 -76q-25 0 -47 14q-17 47 -90 101q-1 0 -78 139q-68 127 -107 127q-14 0 -217 -197q-206 -194 -227 -194q-23 0 -45 22q-25 25 -25 45z" />
<glyph unicode="&#xcb;" horiz-adv-x="1310" d="M76 182q0 35 26 213q15 115 60 408q-33 26 -33 80v32q2 18 2 35q54 16 86.5 173.5t38.5 389.5q-16 8 -47 1.5t-59 -9.5t-72 21v86q23 39 84 45q88 6 100 10q13 4 45 39q35 35 53 35q8 0 50 -17q36 -16 53 -16q270 26 278 27q116 12 473 39q33 7 76 22l72 21q9 0 63 -7 q53 -6 60 -6q55 -4 233 -4l15 -41q-42 -14 -105 -61q-20 2 -67 2q-173 0 -560 -62l-231 -36q-16 0 -74 6q-25 4 -43.5 4.5t-37 -2t-31.5 -5.5t-40.5 -9t-51.5 -11q-37 -8 -52 -11.5t-30 -12t-21 -21.5q-27 -55 -49 -235q-18 -129 -18 -222q0 -13 22 -69q183 28 248 28h575 v-88q-55 -6 -151 -6q-70 0 -146 2q-74 2 -143 2q-94 0 -231 -57q-4 -1 -20.5 -4.5t-45.5 -10t-59 -12.5q-81 -15 -107 -65q-47 -415 -47 -582q36 -45 72 -51l160 -35q61 0 174 10q223 19 503 19q49 0 115 -4l49 -2q33 -9 33 -31v-51q-61 -27 -231 -27q-32 0 -82 -18 q-49 -19 -54 -19q-23 0 -86 8q-76 11 -88 9h-16q-70 -6 -264 -33q-115 -14 -137 -14q-56 0 -168 69q-121 77 -121 131zM350 1634l37 64l74 49l106 4q32 -27 40.5 -65.5t-7.5 -77.5q-7 -19 -16.5 -30t-28.5 -26l-9.5 -9.5t-9 -9.5t-8.5 -7.5t-10 -6.5t-10.5 -4.5t-13.5 -3.5 q-12 -2 -31.5 4.5t-30.5 6.5q-20 3 -39 0q-18 0 -35 20q-10 12 -6 33zM786 1645q2 17 13 27.5t32.5 21t32.5 18.5q65 47 90 60l107 -46q3 -13 14 -51q1 -5 4 -12t4 -12h2q-18 -50 -59 -86q-32 -25 -54.5 -35.5t-53.5 -9.5q-56 6 -91 41l-26 32q-15 24 -15 52z" />
<glyph unicode="&#xcc;" horiz-adv-x="497" d="M31 2222q0 31 6 37t39 6q54 0 162 -63q265 -155 467 -291q2 -2 5 -6.5t5 -6.5q0 -11 -21 -32q-36 -33 -71 -33q-18 0 -82 31l-86 43q-81 39 -187 121q-108 83 -194 108q-43 55 -43 86zM86 305q0 32 27 275q38 338 80 553q50 241 129 407h45q30 -24 30 -65l-12 -52 t-24.5 -110.5t-32.5 -143.5q-149 -659 -140 -1134q-14 -2 -32 -17q-70 82 -70 287z" />
<glyph unicode="&#xcd;" horiz-adv-x="757" d="M-4 1247q0 49 55 74q33 17 96.5 47.5t71.5 34.5q74 55 180 121l125 61l76 49l76 43q5 0 78 25q57 -37 57 -66q0 -6 -115 -69q-86 -50 -176 -97q-20 -10 -82.5 -44t-107.5 -58q-2 -2 -10 -8l-18 -13.5t-21 -15.5q-165 -125 -228 -125q-57 0 -57 41zM285 291q0 40 26 274 q38 338 80 553q50 243 129 408h45q31 -25 31 -66q-1 -2 -70 -305q-148 -655 -139 -1135q-16 -3 -33 -16q-69 81 -69 287z" />
<glyph unicode="&#xce;" horiz-adv-x="641" d="M31 1786q0 25 51 61q67 43 74 54q4 4 14.5 18.5t35.5 49t48 65.5q13 17 68 59q68 46 79 55q14 14 45 68q25 51 39 65q33 33 80 33q60 0 90 -55q50 -90 125 -217q72 -126 158 -203q4 -6 4 -35q0 -75 -76 -75q-25 0 -47 14q-16 45 -90 100q-1 0 -78 139q-68 127 -106 127 q-15 0 -217 -196q-207 -195 -228 -195q-22 0 -45 23q-24 24 -24 45zM172 305q0 32 27 275q38 338 80 553q50 241 129 407h45q30 -24 30 -65l-12 -52t-24.5 -110.5t-32.5 -143.5q-149 -659 -140 -1134q-14 -2 -32 -17q-70 82 -70 287z" />
<glyph unicode="&#xcf;" horiz-adv-x="700" d="M14 1456l37 64l74 49l106 4q32 -27 40.5 -65.5t-7.5 -77.5q-7 -19 -16.5 -30t-28.5 -26l-9.5 -9.5t-9 -9.5t-8.5 -7.5t-10 -6.5t-10.5 -4.5t-13.5 -3.5q-12 -2 -31.5 4t-30.5 6q-20 3 -39 0q-17 0 -34 21q-10 13 -7 33zM188 291q0 31 27 274q38 338 80 553 q50 243 129 408h45q31 -25 31 -66q-1 -2 -70 -305q-148 -655 -139 -1135q-16 -3 -33 -16q-70 82 -70 287zM451 1466q2 18 12.5 28t32.5 21t32 19q60 43 90 59l107 -45q3 -13 14 -51q1 -5 4.5 -12t4.5 -12h2q-18 -51 -60 -87q-32 -25 -54.5 -35.5t-53.5 -9.5q-55 6 -90 41 l-27 33q-14 22 -14 51z" />
<glyph unicode="&#xd0;" horiz-adv-x="2347" d="M-170 643v84q79 55 133 55q19 0 90 -6q70 -6 88 -6q20 0 129 33q4 2 82 2q57 0 88 39q26 264 39 434q7 110 10 145q9 88 46 138q-12 18 -31 18q-47 0 -74 -76q-23 4 -84 18.5t-94 22.5q56 96 121 119q13 2 31.5 5.5t47 8.5t50.5 9q42 23 205 81q12 1 211 33 q346 62 452 62q40 0 252 -35q572 -100 715 -457q11 -27 49 -65v-312q0 -26 -109 -168q-122 -166 -227 -258q-53 -42 -195 -127q-415 -253 -747 -356q-90 -29 -342 -137q-259 -111 -352 -140q-62 -3 -166 -32q-27 -12 -62 -80q-24 -55 -69 -55q-31 0 -84 129q35 53 84 141 q23 -39 63 -39q28 0 111 29q82 27 98 43q2 27 2 84q0 75 -4 155q-1 32 -2 69.5t-1.5 57.5t-0.5 31q0 31 18 145q17 126 17 138q0 59 -35 59h-21q-10 -2 -18 -2q-18 0 -326 -53q-73 -13 -79 -13q-3 0 -54 15q-41 14 -55 14zM508 307q0 -12 14 -84q17 -64 17 -80 q46 -27 61 -61q-25 -22 -25 -43q57 -14 123 -14q45 36 142 84q56 4 141 22q131 26 438 178q289 144 381 246q4 19 15 47q18 -24 43 -24q34 0 139 102q105 105 108 135q6 47 80 127q22 22 47 121q25 92 25 131q0 146 -148 326q-94 117 -403 184q-241 55 -459 55 q-95 0 -399 -69l-57 -20q-57 -20 -99 -34q-80 -174 -80 -192l-1 -18q-1 -18 -3.5 -59.5t-5.5 -90.5q-16 -243 -16 -397v-15l28 -18h66q12 0 20 14q9 12 21 12h346q11 0 72 25q59 27 69 27t31 -21q18 -18 29 -18q22 0 47 2h45v-23q0 -36 24 -63q-7 -6 -59 -58q-24 9 -60 21 l-48 18q-15 0 -56 -12q-41 -14 -53 -14q-15 0 -43 14q-27 12 -35 12q-153 0 -465 -80q-10 -56 -39 -272q-18 -117 -18 -123z" />
<glyph unicode="&#xd1;" horiz-adv-x="1755" d="M186 160q-3 12 156 555q48 163 182 622l49 -2q160 -185 418 -696q147 -291 248 -418q9 3 25 -10q232 320 426 1139q33 140 63 282q4 22 25 113q7 24 41 45q53 -29 63 -59q21 -72 -84 -476q-77 -297 -141 -493q-51 -162 -174 -436q-93 -218 -228 -310q-25 14 -49 31 q-1 2 -31.5 60t-101.5 193.5t-153 291.5q-179 335 -338 526l-310 -1057q-20 17 -61 17zM668 1815q0 71 163 206q161 133 236 133q12 0 240 -126q233 -130 241 -130l13 -2q13 -1 25 0t20 5q9 5 22 9t23.5 6t11.5 3q11 -1 29.5 12.5t46.5 20.5q2 1 116 92q93 72 111 72 q66 0 66 -70q0 -57 -134 -158q-100 -74 -192 -114q-104 -43 -248 -43q-11 0 -166 122q-156 123 -231 123q-70 0 -189 -116q-118 -115 -133 -115q-22 0 -47 22q-24 24 -24 48z" />
<glyph unicode="&#xd2;" horiz-adv-x="1783" d="M74 401q0 147 106 316q98 156 221 248q61 50 166 163q100 109 174 154q77 49 330 109q239 53 348 53q273 0 508 -101q305 -128 305 -360q0 -39 -39 -152q-34 -96 -61 -151q-119 -239 -383 -416q-150 -103 -479 -203q-319 -100 -506 -100h-137q-175 0 -357 133 q-196 144 -196 307zM178 442q0 -104 152 -235q149 -125 266 -125l20 4q6 0 12 1l7 1q11 0 41 -12q38 -10 43 -10q19 0 180 20q145 19 236 35q3 1 24 11t40.5 18t41.5 14q312 92 541 260q288 211 352 467q20 83 23 78q0 80 -48 131q-217 223 -467 223l-32 -4q-11 0 -22 -1 l-11 -1q-10 0 -37 12t-35 12t-63 -10q-11 -1 -26 -3.5t-23.5 -3.5t-12.5 -1q-109 0 -352 -57q-82 -19 -123 -31q-76 -27 -98 -66l-21 -65q-214 -151 -225 -160q-113 -98 -160 -219q0 -2 -1 -12.5t-3.5 -35.5t-5.5 -52q-6 -62 -49 -80q-39 54 -53 119q-111 -184 -111 -222z M588 1849q0 31 6 37t39 6q54 0 162 -63q265 -155 467 -291q2 -2 5 -6t5 -6q0 -12 -21 -33q-36 -33 -71 -33q-18 0 -82 31l-86 43q-81 39 -187 121q-108 83 -194 108q-43 55 -43 86z" />
<glyph unicode="&#xd3;" horiz-adv-x="1810" d="M74 401q0 147 106 316q98 156 221 248q61 50 166 163q100 109 174 154q77 49 330 109q239 53 348 53q273 0 508 -101q305 -128 305 -360q0 -39 -39 -152q-34 -96 -61 -151q-119 -239 -383 -416q-150 -103 -479 -203q-319 -100 -506 -100h-137q-175 0 -357 133 q-196 144 -196 307zM178 442q0 -104 152 -235q149 -125 266 -125l20 4q6 0 12 1l7 1q11 0 41 -12q38 -10 43 -10q19 0 180 20q145 19 236 35q3 1 24 11t40.5 18t41.5 14q312 92 541 260q288 211 352 467q20 83 23 78q0 80 -48 131q-217 223 -467 223l-32 -4q-11 0 -22 -1 l-11 -1q-10 0 -37 12t-35 12t-63 -10q-11 -1 -26 -3.5t-23.5 -3.5t-12.5 -1q-109 0 -352 -57q-82 -19 -123 -31q-76 -27 -98 -66l-21 -65q-214 -151 -225 -160q-113 -98 -160 -219q0 -2 -1 -12.5t-3.5 -35.5t-5.5 -52q-6 -62 -49 -80q-39 54 -53 119q-111 -184 -111 -222z M510 1196q0 49 55 74q33 17 96.5 47.5t71.5 34.5q74 55 180 121l125 61l76 49l76 43q5 0 78 25q57 -37 57 -66q0 -6 -115 -69q-86 -50 -176 -97q-20 -11 -82.5 -44.5t-107.5 -57.5q-2 -2 -10 -8l-18 -13.5t-21 -15.5q-165 -125 -228 -125q-57 0 -57 41z" />
<glyph unicode="&#xd4;" horiz-adv-x="1800" d="M74 401q0 147 106 316q98 156 221 248q61 50 166 163q100 109 174 154q77 49 330 109q239 53 348 53q273 0 508 -101q305 -128 305 -360q0 -39 -39 -152q-34 -96 -61 -151q-119 -239 -383 -416q-150 -103 -479 -203q-319 -100 -506 -100h-137q-175 0 -357 133 q-196 144 -196 307zM178 442q0 -104 152 -235q149 -125 266 -125l20 4q6 0 12 1l7 1q11 0 41 -12q38 -10 43 -10q19 0 180 20q145 19 236 35q3 1 24 11t40.5 18t41.5 14q312 92 541 260q288 211 352 467q20 83 23 78q0 80 -48 131q-217 223 -467 223l-32 -4q-11 0 -22 -1 l-11 -1q-10 0 -37 12t-35 12t-63 -10q-11 -1 -26 -3.5t-23.5 -3.5t-12.5 -1q-109 0 -352 -57q-82 -19 -123 -31q-76 -27 -98 -66l-21 -65q-214 -151 -225 -160q-113 -98 -160 -219q0 -2 -1 -12.5t-3.5 -35.5t-5.5 -52q-6 -62 -49 -80q-39 54 -53 119q-111 -184 -111 -222z M586 1602q0 25 51 61q68 44 74 53q4 4 14.5 18.5t35.5 49t48 65.5q15 20 68 60q68 46 79 55q14 14 45 68q25 51 39 65q33 33 80 33q60 0 90 -55q50 -90 125 -217q72 -126 158 -203q4 -6 4 -35q0 -76 -76 -76q-23 0 -47 15q-16 45 -90 100q-1 0 -78 139q-68 127 -106 127 q-15 0 -217 -196q-207 -195 -228 -195q-23 0 -45 22q-24 24 -24 46z" />
<glyph unicode="&#xd5;" horiz-adv-x="1802" d="M74 401q0 147 106 316q98 156 221 248q61 50 166 163q100 109 174 154q77 49 330 109q239 53 348 53q273 0 508 -101q305 -128 305 -360q0 -39 -39 -152q-34 -96 -61 -151q-119 -239 -383 -416q-150 -103 -479 -203q-319 -100 -506 -100h-137q-175 0 -357 133 q-196 144 -196 307zM178 442q0 -104 152 -235q149 -125 266 -125l20 4q6 0 12 1l7 1q11 0 41 -12q38 -10 43 -10q19 0 180 20q145 19 236 35q3 1 24 11t40.5 18t41.5 14q312 92 541 260q288 211 352 467q20 83 23 78q0 80 -48 131q-217 223 -467 223l-32 -4q-11 0 -22 -1 l-11 -1q-10 0 -37 12t-35 12t-63 -10q-11 -1 -26 -3.5t-23.5 -3.5t-12.5 -1q-109 0 -352 -57q-82 -19 -123 -31q-76 -27 -98 -66l-21 -65q-214 -151 -225 -160q-113 -98 -160 -219q0 -2 -1 -12.5t-3.5 -35.5t-5.5 -52q-6 -62 -49 -80q-39 54 -53 119q-111 -184 -111 -222z M563 1642q0 72 164 207q161 133 236 133q9 0 239 -127q231 -129 242 -129l13 -2q13 -1 24.5 0t19.5 5q9 5 22.5 9t24 6t11.5 3q11 -1 29 12.5t46 20.5q4 2 117 92q93 72 111 72q65 0 65 -70q0 -58 -133 -158q-100 -74 -192 -114q-104 -43 -248 -43q-11 0 -166 122 q-156 123 -232 123q-69 0 -188 -116q-118 -115 -133 -115q-22 0 -47 22q-25 25 -25 47z" />
<glyph unicode="&#xd6;" horiz-adv-x="1806" d="M74 401q0 147 106 316q98 156 221 248q61 50 166 163q100 109 174 154q77 49 330 109q239 53 348 53q273 0 508 -101q305 -128 305 -360q0 -39 -39 -152q-34 -96 -61 -151q-119 -239 -383 -416q-150 -103 -479 -203q-319 -100 -506 -100h-137q-175 0 -357 133 q-196 144 -196 307zM178 442q0 -104 152 -235q149 -125 266 -125l20 4q6 0 12 1l7 1q11 0 41 -12q38 -10 43 -10q19 0 180 20q145 19 236 35q3 1 24 11t40.5 18t41.5 14q312 92 541 260q288 211 352 467q20 83 23 78q0 80 -48 131q-217 223 -467 223l-32 -4q-11 0 -22 -1 l-11 -1q-10 0 -37 12t-35 12t-63 -10q-11 -1 -26 -3.5t-23.5 -3.5t-12.5 -1q-109 0 -352 -57q-82 -19 -123 -31q-76 -27 -98 -66l-21 -65q-214 -151 -225 -160q-113 -98 -160 -219q0 -2 -1 -12.5t-3.5 -35.5t-5.5 -52q-6 -62 -49 -80q-39 54 -53 119q-111 -184 -111 -222z M713 1440l37 63l73 49l107 4q32 -27 40.5 -65.5t-7.5 -77.5q-10 -28 -45 -55l-7 -7t-7 -7.5t-6.5 -6.5t-7.5 -6t-7 -4.5t-8 -4t-9 -3t-10 -2.5q-12 -2 -31 4t-30 6q-20 3 -39 0q-18 0 -35 21q-9 12 -6 32zM1149 1450q2 18 13 28.5t33 21t32 18.5q60 43 90 59l106 -45 q1 -3 15 -51q1 -5 4 -12.5t4 -12.5h2q-18 -50 -59 -86q-32 -25 -55 -35.5t-54 -9.5q-55 6 -90 41l-27 33q-14 22 -14 51z" />
<glyph unicode="&#xd7;" horiz-adv-x="956" d="M23 170q10 40 45 98q12 7 84 62q11 9 29 24.5t49 41.5t55 46q33 19 94 60q67 43 67 76q0 13 -116 159q-115 148 -115 160q0 17 23 43q23 23 43 23q51 0 120 -97q12 -16 45 -62t54 -75q14 -21 69 -76l205 148q153 110 199 110q29 0 51 -28v-60q-360 -261 -360 -297 q0 -47 167 -211v-57q-53 -29 -81 -29q-12 0 -107 111q-95 109 -106 109q-10 0 -199 -154q-194 -156 -201 -156q-23 0 -114 31z" />
<glyph unicode="&#xd8;" horiz-adv-x="1601" d="M49 684q43 34 43 49q0 6 -10 19q-8 11 -8 20q0 155 274 307q215 118 424 168q21 6 64 6h28h3h2h3h2h3h3h3h3h9q42 0 156 -20q127 -19 153 -19q29 0 162 91l129 90h107q6 -28 12 -76q-169 -111 -230 -164q181 -184 181 -397q0 -83 -31 -178q-5 -17 -24.5 -73t-32.5 -97 q-72 -220 -238 -283q-77 -31 -207 -59q-149 -35 -207 -35q-11 0 -51 12q-41 12 -51 12q-9 0 -33 -6t-33 -6q-13 0 -135 33q-112 31 -133 31q-68 0 -153 -242h-58q-3 17 -41 55q103 198 103 246q0 20 -47 76q-10 12 -64 78q-46 67 -55 147v162l-13 26q-12 21 -12 27zM201 539 q0 -76 45 -144q23 -42 94 -67q120 178 344 393q113 109 379 360q-127 31 -162 31q6 0 -129 -18q-5 -7 -22 -30t-29 -40q-137 -3 -252 -59q-116 -55 -170 -146q-23 -38 -37 -98q-4 -21 -37 -88q-24 -55 -24 -94zM459 283q0 -47 159 -82q123 -27 207 -27q38 0 176 27 q112 21 173 41q99 31 174 204q73 165 73 312q0 89 -41 170q-46 106 -118 106q-58 0 -431 -348q-372 -347 -372 -403z" />
<glyph unicode="&#xd9;" horiz-adv-x="1638" d="M53 774q0 143 58 305q71 194 170 242q46 22 71 22q17 0 17 -32q0 6 -37.5 -69.5t-120.5 -246.5q-41 -84 -41 -233q0 -218 168 -422q174 -219 385 -219h55q218 0 477 125q254 124 408 282q107 110 180 256q26 48 96 205q41 134 41 275q0 124 -61 145q-2 6 -2 21 q0 73 47 73q9 0 21 -6q86 -30 86 -246q0 -65 -86 -368q-45 -154 -134 -285q-173 -251 -495 -428q-328 -180 -615 -180q-114 0 -268 86q-140 79 -223 174q-20 23 -72 117q-15 12 -45 51q0 2 -16 55q-64 204 -64 301zM520 1868q0 31 6 37t39 6q52 0 162 -64q265 -155 467 -291 q2 -2 5 -6t5 -6q0 -13 -20 -33q-35 -32 -72 -32q-20 0 -82 30l-86 43q-78 38 -186 121q-109 84 -195 109q-43 55 -43 86z" />
<glyph unicode="&#xda;" horiz-adv-x="1634" d="M53 774q0 143 58 305q71 194 170 242q46 22 71 22q17 0 17 -32q0 6 -37.5 -69.5t-120.5 -246.5q-41 -84 -41 -233q0 -218 168 -422q174 -219 385 -219h55q218 0 477 125q254 124 408 282q107 110 180 256q26 48 96 205q41 134 41 275q0 124 -61 145q-2 6 -2 21 q0 73 47 73q9 0 21 -6q86 -30 86 -246q0 -65 -86 -368q-45 -154 -134 -285q-173 -251 -495 -428q-328 -180 -615 -180q-114 0 -268 86q-140 79 -223 174q-20 23 -72 117q-15 12 -45 51q0 2 -16 55q-64 204 -64 301zM496 1212q0 49 55 74q33 17 96.5 47.5t71.5 34.5 q74 55 180 121l125 61l76 49l76 43q4 0 77 25q58 -37 58 -65q0 -7 -115 -70q-68 -40 -176 -96q-18 -9 -81.5 -43.5t-109.5 -59.5q-2 -2 -10 -8l-18 -13.5t-21 -15.5q-165 -125 -227 -125q-57 0 -57 41z" />
<glyph unicode="&#xdb;" horiz-adv-x="1638" d="M53 774q0 143 58 305q71 194 170 242q46 22 71 22q17 0 17 -32q0 6 -37.5 -69.5t-120.5 -246.5q-41 -84 -41 -233q0 -218 168 -422q174 -219 385 -219h55q218 0 477 125q254 124 408 282q107 110 180 256q26 48 96 205q41 134 41 275q0 124 -61 145q-2 6 -2 21 q0 73 47 73q9 0 21 -6q86 -30 86 -246q0 -65 -86 -368q-45 -154 -134 -285q-173 -251 -495 -428q-328 -180 -615 -180q-114 0 -268 86q-140 79 -223 174q-20 23 -72 117q-15 12 -45 51q0 2 -16 55q-64 204 -64 301zM377 1833q0 25 51 61q67 43 74 54q4 4 14.5 18.5t35.5 49 t48 65.5q13 17 68 59q73 50 80 55q14 14 45 68q27 55 38 66q32 32 80 32q60 0 90 -55q50 -90 125 -217q72 -126 158 -203q4 -6 4 -35q0 -75 -76 -75q-25 0 -47 14q-16 45 -90 100l-78 140q-68 127 -106 127q-14 0 -217 -197q-207 -195 -228 -195q-22 0 -45 23q-24 24 -24 45 z" />
<glyph unicode="&#xdc;" horiz-adv-x="1634" d="M53 774q0 143 58 305q71 194 170 242q46 22 71 22q17 0 17 -32q0 6 -37.5 -69.5t-120.5 -246.5q-41 -84 -41 -233q0 -218 168 -422q174 -219 385 -219h55q218 0 477 125q254 124 408 282q107 110 180 256q26 48 96 205q41 134 41 275q0 124 -61 145q-2 6 -2 21 q0 73 47 73q9 0 21 -6q86 -30 86 -246q0 -65 -86 -368q-45 -154 -134 -285q-173 -251 -495 -428q-328 -180 -615 -180q-114 0 -268 86q-140 79 -223 174q-20 23 -72 117q-15 12 -45 51q0 2 -16 55q-64 204 -64 301zM575 1462l37 64l74 49l107 4q65 -56 32 -143 q-7 -19 -16.5 -30t-28.5 -26l-9.5 -9.5t-9 -9.5t-8.5 -7.5t-10 -6.5t-10.5 -4.5t-13.5 -3.5q-12 -2 -31.5 4.5t-30.5 6.5q-19 3 -39 0q-17 0 -34 20q-10 12 -6 33zM1012 1473q2 17 13 27.5t32.5 21t32.5 18.5q60 43 90 59l106 -45q3 -13 14 -51q1 -5 4.5 -12t4.5 -12h2 q-18 -49 -60 -86q-32 -25 -54.5 -35.5t-53.5 -9.5q-55 6 -90 41l-27 32q-14 22 -14 52z" />
<glyph unicode="&#xdd;" horiz-adv-x="1085" d="M113 1475q0 146 57 200q21 -13 41 -30v-60q0 -411 172 -411q192 0 510 194q52 32 211.5 133.5t271.5 171.5h45q14 -67 17 -63q0 -36 -131 -140q-70 -55 -168 -133q-15 -12 -99 -96l-227 -323q-170 -239 -364 -603q-41 -78 -54 -122q-15 -63 -41 -144q-20 -73 -80 -123 h-67q-29 26 -29 70q0 36 144 326q80 156 245 436q89 148 254 430q-50 -7 -225 -76q-140 -55 -225 -55q-139 0 -207 147q-51 111 -51 271zM330 2111q0 31 6 37t39 6q54 0 162 -63q265 -155 467 -291q2 -2 5 -6t5 -6q0 -12 -21 -33q-36 -33 -71 -33q-18 0 -82 31l-86 43 q-81 39 -187 121q-108 83 -194 108q-43 55 -43 86z" />
<glyph unicode="&#xde;" horiz-adv-x="1122" d="M33 109q0 5 3.5 42.5t12.5 127t17 182.5q48 501 79 727q16 154 45 352q41 283 93 283q59 0 59 -94q0 -53 -66 -386q36 -20 72 -20q27 0 158 25q126 24 158 24q181 0 329 -49q209 -71 209 -213q0 -292 -389 -434q-26 -9 -112 -47t-144 -62q-37 -15 -174 -41 q-119 -24 -160 -57q-24 -18 -24 -74q0 -205 53 -225l-55 8q-11 -29 -11 -110q-3 -86 -6 -101q-17 -53 -78 -71q-69 66 -69 213zM213 705q0 -76 57 -76q23 0 158 59q28 12 195 53q452 108 452 351q0 76 -151 120q-119 33 -217 33q-81 0 -230 -28q-168 -37 -209 -78 q-55 -271 -55 -434z" />
<glyph unicode="&#xdf;" horiz-adv-x="1118" d="M41 -2q6 16 16 51q19 52 19 84q0 21 -6 88q-1 17 -2 38.5t-1.5 33t-0.5 16.5v357q0 18 8 45q9 34 12 37q29 196 29 536q0 249 39 389q22 81 206 142q146 53 265 53q-5 0 10 -5q27 -9 131 -38q95 -25 170 -125q76 -102 76 -197q0 -155 -115 -282q-44 -50 -209 -170 q-113 -79 -113 -136q0 -29 93 -92q28 -20 63 -47q97 -58 242 -153q29 -18 84 -107q51 -80 51 -119q0 -56 -68 -133q-55 -64 -116 -104q-10 -4 -99 -43q-33 -32 -112 -94q-119 -76 -252 -150h-51q-29 19 -29 41q0 54 285 256q284 202 284 233q0 78 -96 138q-109 62 -156 92 q-268 171 -268 301q0 69 223 270q224 202 224 277q0 108 -80 176q-80 65 -209 65q-82 0 -174 -28q-116 -39 -140 -92q-38 -71 -38 -299q0 -4 0.5 -13t1.5 -25.5t2 -31.5q4 -37 4 -72q0 -45 -45 -473l-25 -223q0 -23 25 -139q24 -114 24 -144q0 -8 -12 -45q-10 -42 -10 -51 q0 -28 4 -59q4 -33 4 -62q-9 0 -49 -18q-46 -17 -51 -17q-23 0 -46 23q-22 22 -22 45z" />
<glyph unicode="&#xe0;" horiz-adv-x="1011" d="M49 141q0 112 242 258q226 140 348 140q49 0 90 -56v-43q-20 -28 -45 -28q-11 0 -35 12q-27 12 -37 12q-39 0 -182 -82q-112 -61 -182 -114q-44 -39 -60 -90q38 -35 84 -35q40 0 240 84q203 84 262 84q65 0 94 -33q12 -18 50 -90q37 -67 79 -111v-45q-19 -31 -43 -31 q-28 0 -110 97q-76 98 -121 98q-4 0 -219 -84q-212 -84 -283 -84q-49 0 -110 49q-62 50 -62 92zM186 989q0 30 7 37q6 6 38 6q54 0 162 -63q265 -155 467 -291q2 -2 5 -6t5 -6q0 -13 -20 -33q-36 -33 -72 -33q-18 0 -82 31l-86 43q-78 38 -186 121q-107 82 -195 108 q-43 55 -43 86z" />
<glyph unicode="&#xe1;" horiz-adv-x="1015" d="M49 141q0 112 242 258q226 140 348 140q49 0 90 -56v-43q-20 -28 -45 -28q-11 0 -35 12q-27 12 -37 12q-39 0 -182 -82q-112 -61 -182 -114q-44 -39 -60 -90q38 -35 84 -35q40 0 240 84q203 84 262 84q65 0 94 -33q12 -18 50 -90q37 -67 79 -111v-45q-19 -31 -43 -31 q-28 0 -110 97q-76 98 -121 98q-4 0 -219 -84q-212 -84 -283 -84q-49 0 -110 49q-62 50 -62 92zM162 616q0 49 55 74q33 17 96.5 47.5t71.5 34.5q74 55 180 121l125 61l76 50l76 43q8 0 78 24q57 -37 57 -65q0 -7 -115 -70q-68 -40 -176 -96q-17 -9 -80 -43.5t-110 -59.5 q-33 -25 -50 -37q-165 -125 -227 -125q-57 0 -57 41z" />
<glyph unicode="&#xe2;" horiz-adv-x="1028" d="M49 141q0 112 242 258q226 140 348 140q49 0 90 -56v-43q-20 -28 -45 -28q-11 0 -35 12q-27 12 -37 12q-39 0 -182 -82q-112 -61 -182 -114q-44 -39 -60 -90q38 -35 84 -35q40 0 240 84q203 84 262 84q65 0 94 -33q12 -18 50 -90q37 -67 79 -111v-45q-19 -31 -43 -31 q-28 0 -110 97q-76 98 -121 98q-4 0 -219 -84q-212 -84 -283 -84q-49 0 -110 49q-62 50 -62 92zM162 1104q0 25 51 61q67 43 74 54q4 4 14.5 18.5t35.5 49t48 65.5q13 17 68 59q68 46 79 55q17 17 46 68q26 53 38 65q33 33 80 33q60 0 90 -55q50 -90 125 -217 q72 -126 158 -203q4 -6 4 -35q0 -75 -76 -75q-25 0 -47 14q-16 45 -90 100q-1 0 -78 139q-68 127 -106 127q-15 0 -217 -196q-207 -195 -228 -195q-22 0 -45 23q-24 24 -24 45z" />
<glyph unicode="&#xe3;" horiz-adv-x="1017" d="M49 141q0 112 242 258q226 140 348 140q49 0 90 -56v-43q-20 -28 -45 -28q-11 0 -35 12q-27 12 -37 12q-39 0 -182 -82q-112 -61 -182 -114q-44 -39 -60 -90q38 -35 84 -35q40 0 240 84q203 84 262 84q65 0 94 -33q12 -18 50 -90q37 -67 79 -111v-45q-19 -31 -43 -31 q-28 0 -110 97q-76 98 -121 98q-4 0 -219 -84q-212 -84 -283 -84q-49 0 -110 49q-62 50 -62 92zM135 1118q0 72 164 207q161 133 236 133q9 0 239 -127q231 -129 242 -129q1 0 13 -1.5t24 -1t20 4.5q9 5 22 9.5t23.5 6.5t11.5 3q11 -1 29.5 12t46.5 20q1 0 117 93 q92 71 111 71q65 0 65 -69q0 -58 -133 -158q-103 -76 -192 -115q-104 -43 -248 -43q-10 0 -166 123t-232 123q-68 0 -188 -117q-117 -114 -133 -114q-22 0 -47 22q-25 25 -25 47z" />
<glyph unicode="&#xe4;" horiz-adv-x="1017" d="M49 141q0 112 242 258q226 140 348 140q49 0 90 -56v-43q-20 -28 -45 -28q-11 0 -35 12q-27 12 -37 12q-39 0 -182 -82q-112 -61 -182 -114q-44 -39 -60 -90q38 -35 84 -35q40 0 240 84q203 84 262 84q65 0 94 -33q12 -18 50 -90q37 -67 79 -111v-45q-19 -31 -43 -31 q-28 0 -110 97q-76 98 -121 98q-4 0 -219 -84q-212 -84 -283 -84q-49 0 -110 49q-62 50 -62 92zM201 756l37 63l73 49l107 4q32 -27 40.5 -65.5t-7.5 -77.5q-10 -28 -45 -55l-7 -7t-7 -7.5t-6.5 -6.5t-7.5 -6t-7 -4.5t-8 -4t-9 -3t-10 -2.5q-12 -2 -31 4t-30 6q-19 3 -39 0 q-18 0 -35 21q-9 12 -6 32zM637 766q2 18 13 28.5t33 21t32 18.5q60 43 90 59l106 -45q1 -3 15 -51q1 -5 4 -12.5t4 -12.5h2q-18 -50 -59 -86q-32 -25 -55 -35.5t-54 -9.5q-55 6 -90 41l-27 33q-14 22 -14 51z" />
<glyph unicode="&#xe5;" horiz-adv-x="1019" d="M49 141q0 112 242 258q226 140 348 140q49 0 90 -56v-43q-20 -28 -45 -28q-11 0 -35 12q-27 12 -37 12q-39 0 -182 -82q-112 -61 -182 -114q-44 -39 -60 -90q38 -35 84 -35q40 0 240 84q203 84 262 84q65 0 94 -33q12 -18 50 -90q37 -67 79 -111v-45q-19 -31 -43 -31 q-28 0 -110 97q-76 98 -121 98q-4 0 -219 -84q-212 -84 -283 -84q-49 0 -110 49q-62 50 -62 92zM299 1167q0 105 117 240q112 133 211 133q118 0 209 -45q4 -3 16 -11.5t37.5 -29t48.5 -37.5l16 -217q3 -11 -28 -49q-8 -11 -17 -22t-12.5 -15.5t-3.5 -5.5q-5 -18 -29 -64 q-40 -58 -114 -102q-68 -45 -136 -45q-93 0 -157 31q-49 25 -103 106q-55 82 -55 133zM455 1182q0 -30 53 -68q52 -37 88 -37q74 0 131 51q59 47 59 117q0 79 -45 96q-21 7 -116 7q-53 0 -111 -58q-59 -59 -59 -108z" />
<glyph unicode="&#xe6;" horiz-adv-x="1576" d="M14 545q0 51 58 69q48 16 143 33q119 25 137 25q87 0 381 -160q32 27 86 100q50 65 103 88q118 48 282 48q70 0 137 -99q60 -86 60 -153q0 -78 -123 -136q-62 -32 -240 -75q-146 -36 -157 -47q17 -36 135 -101q111 -63 166 -63h317l43 -35v-39q-210 -53 -299 -53 q-41 0 -143 18q-88 18 -139 37q-29 15 -87 57q-62 45 -83 45q3 0 -7 -7q-15 -11 -127 -77q-142 -86 -176 -86h-84q-101 0 -166 50q-63 48 -63 127t92 135q44 21 195 71q154 53 184 74q-40 54 -123 96q-148 68 -188 68q-38 0 -254 -74q-60 18 -60 64zM309 88q45 -25 107 -25 q89 0 145 27q45 23 103 94v49h-56q-30 0 -149 -40q-98 -33 -150 -58v-47zM868 385h68q56 0 180 39q134 39 158 70q-18 85 -23 90q-18 47 -84 47q-5 0 -67 -10q-51 -11 -74 -11q-18 -8 -92 -82q-66 -72 -66 -86v-57z" />
<glyph unicode="&#xe7;" horiz-adv-x="1052" d="M41 244q0 119 172 213q251 133 313 133l127 -12q-15 0 -18 -23q-1 -10 -2 -19t-1.5 -13t-0.5 -5q-88 -27 -254 -108q-195 -103 -195 -154q0 -96 244 -123q55 -6 59 -4l504 76l17 -17v-47q-56 -33 -121 -49q-125 -24 -285 -49q-126 -18 -147 -18q-130 0 -252 51 q-160 62 -160 168zM168 -569q0 9 12 43q15 30 15 43l30 -25q1 0 111 -14q74 -13 119 -13q90 0 247 39q195 49 195 101q0 80 -74 125q-32 21 -149 57q-91 25 -123 53q0 8 4 82q5 36 82 174q78 140 108 140q52 0 52 -56q0 -27 -35 -108q-40 -93 -43 -125q38 -26 137 -49 q28 -8 74 -48q47 -47 65 -59q58 -137 58 -174q0 -111 -91.5 -174.5t-271.5 -75.5q-8 -1 -35 -2t-58 -2.5t-65 -5.5q-9 -1 -96 -16q-19 -2 -19 -4q0 -1 5 -1q-19 0 -113 -8q-26 -3 -51.5 -5t-40 -3t-20.5 -2l-29 20v93z" />
<glyph unicode="&#xe8;" horiz-adv-x="1030" d="M49 324q0 150 129 233q115 70 268 70q134 0 216 -60q79 -58 79 -159q0 -56 -190 -123q-238 -82 -285 -78q0 -3 -3.5 -5.5t-11 -5.5t-13.5 -8q10 -17 137 -49q55 -14 157 -14h318l119 -19q37 -19 57 -53q-37 -43 -98 -43h-353q-122 0 -274 35q-200 50 -223 123 q-29 80 -29 156zM55 1063q0 31 6 37t39 6q52 0 162 -64q277 -162 467 -290q2 -2 5 -6.5t5 -6.5q0 -12 -20 -32q-36 -33 -72 -33q-18 0 -82 31l-86 43q-82 40 -186 120q-109 84 -195 109q-43 55 -43 86zM176 356q0 -40 19 -53h63q52 0 184 49q113 44 170 101q-57 57 -178 57 q-87 0 -162 -35q-96 -44 -96 -119z" />
<glyph unicode="&#xe9;" horiz-adv-x="1024" d="M4 668q0 48 55 73q33 17 96.5 47.5t71.5 34.5q69 52 181 121l124 62l76 49l76 43q8 0 78 24q57 -37 57 -65q0 -7 -114 -70q-59 -34 -177 -96q-17 -9 -80 -43.5t-110 -59.5q-24 -18 -49 -36q-165 -125 -228 -125q-57 0 -57 41zM49 324q0 150 129 233q115 70 268 70 q134 0 216 -60q79 -58 79 -159q0 -56 -190 -123q-238 -82 -285 -78q0 -3 -3.5 -5.5t-11 -5.5t-13.5 -8q10 -17 137 -49q55 -14 157 -14h318l119 -19q37 -19 57 -53q-37 -43 -98 -43h-353q-122 0 -274 35q-200 50 -223 123q-29 80 -29 156zM176 356q0 -40 19 -53h63 q52 0 184 49q113 44 170 101q-57 57 -178 57q-87 0 -162 -35q-96 -44 -96 -119z" />
<glyph unicode="&#xea;" horiz-adv-x="1036" d="M-2 1145q0 25 51 61q67 43 74 54q4 4 14.5 18.5t35.5 49t48 65.5q13 17 68 59q73 50 80 55q14 14 45 68q25 51 39 65q33 33 79 33q61 0 91 -55q50 -90 125 -217q73 -128 157 -203q4 -6 4 -35q0 -76 -75 -76q-24 0 -48 15q-16 45 -90 100q-1 0 -78 139q-68 127 -106 127 q-15 0 -217 -196q-207 -195 -227 -195q-22 0 -45 23q-25 25 -25 45zM49 324q0 150 129 233q115 70 268 70q134 0 216 -60q79 -58 79 -159q0 -56 -190 -123q-238 -82 -285 -78q0 -3 -3.5 -5.5t-11 -5.5t-13.5 -8q10 -17 137 -49q55 -14 157 -14h318l119 -19q37 -19 57 -53 q-37 -43 -98 -43h-353q-122 0 -274 35q-200 50 -223 123q-29 80 -29 156zM176 356q0 -40 19 -53h63q52 0 184 49q113 44 170 101q-57 57 -178 57q-87 0 -162 -35q-96 -44 -96 -119z" />
<glyph unicode="&#xeb;" horiz-adv-x="1030" d="M49 324q0 150 129 233q115 70 268 70q134 0 216 -60q79 -58 79 -159q0 -56 -190 -123q-238 -82 -285 -78q0 -3 -3.5 -5.5t-11 -5.5t-13.5 -8q10 -17 137 -49q55 -14 157 -14h318l119 -19q37 -19 57 -53q-37 -43 -98 -43h-353q-122 0 -274 35q-200 50 -223 123 q-29 80 -29 156zM90 862l37 64l74 49l106 4q32 -27 40.5 -65.5t-7.5 -77.5q-7 -19 -16.5 -30t-28.5 -26l-7 -7t-7 -7.5t-6.5 -6.5t-7.5 -6t-7 -4.5t-8 -4t-9 -3t-10 -2.5q-12 -2 -31 4.5t-30 6.5q-20 3 -39 0q-18 0 -35 20q-10 12 -6 33zM176 356q0 -40 19 -53h63 q52 0 184 49q113 44 170 101q-57 57 -178 57q-87 0 -162 -35q-96 -44 -96 -119zM526 872q2 18 13 28.5t33 21t32 18.5q60 43 90 59l107 -45q3 -13 14 -51q1 -5 4 -12t4 -12h2q-18 -50 -59 -86q-32 -25 -55 -35.5t-54 -9.5q-56 6 -90 40l-26 33q-15 24 -15 51z" />
<glyph unicode="&#xec;" horiz-adv-x="716" d="M35 1020q0 31 6 37t39 6q52 0 162 -64q277 -162 467 -290q2 -2 5 -6.5t5 -6.5q0 -11 -21 -32q-36 -33 -71 -33q-18 0 -82 31l-86 43q-84 41 -187 120q-110 84 -194 109q-43 55 -43 86zM244 360q9 281 63 293q4 2 12 2q61 0 70 -39q11 -42 14 -254q5 -178 0 -262 q-7 -36 -34 -120q-64 19 -123 34q-8 163 -2 346z" />
<glyph unicode="&#xed;" horiz-adv-x="790" d="M31 662q0 48 55 73q33 17 96.5 47.5t71.5 34.5q74 55 180 121l125 61l76 50l76 43q7 0 77 24q58 -37 58 -65q0 -7 -115 -70q-68 -40 -176 -96q-17 -9 -80 -43.5t-110 -59.5q-33 -25 -50 -37q-164 -124 -227 -124q-57 0 -57 41zM373 360q9 281 63 293q4 2 13 2 q60 0 69 -39q11 -42 14 -254q5 -178 0 -262q-7 -36 -34 -120q-64 19 -123 34q-8 163 -2 346z" />
<glyph unicode="&#xee;" horiz-adv-x="811" d="M16 1167q0 25 52 62q66 43 73 53q12 15 99 133q16 21 67 60q73 50 80 55q16 16 45 67q26 53 39 66q33 33 80 33q60 0 90 -56q50 -90 125 -217q71 -124 158 -202q4 -6 4 -35q0 -76 -76 -76q-25 0 -47 14q-17 47 -90 101q-1 0 -78 139q-68 127 -107 127q-14 0 -217 -197 q-206 -194 -227 -194q-23 0 -45 22q-25 25 -25 45zM350 360q9 280 64 293q4 2 12 2q61 0 70 -39q11 -42 14 -254q5 -178 0 -262q-6 -28 -35 -120q-64 19 -123 34q-8 163 -2 346z" />
<glyph unicode="&#xef;" horiz-adv-x="700" d="M14 903l37 64l74 49l106 4q32 -27 40.5 -65.5t-7.5 -77.5q-7 -19 -16.5 -30t-28.5 -26l-9.5 -9.5t-9 -9.5t-8.5 -7.5t-10 -6.5t-10.5 -4.5t-13.5 -3.5q-12 -2 -31.5 4.5t-30.5 6.5q-19 3 -39 0q-17 0 -34 20q-10 13 -7 33zM256 360q9 281 63 293q4 2 13 2q60 0 69 -39 q12 -47 15 -254q5 -178 0 -262q-6 -28 -35 -120q-64 19 -123 34q-8 163 -2 346zM451 913q2 18 12.5 28t32.5 21t32 19q60 43 90 59l107 -45q3 -13 14 -51q1 -5 4.5 -12t4.5 -12h2q-18 -49 -60 -86q-33 -26 -55 -36.5t-53 -9.5q-55 6 -90 41l-27 33q-14 22 -14 51z" />
<glyph unicode="&#xf0;" horiz-adv-x="1132" d="M70 313q0 129 67 217q21 31 168 156q82 73 129 109q36 22 254 118q-76 187 -176 299q-59 -15 -111 -82q-68 -88 -90 -110h-57q-29 23 -29 51q0 33 115 160q117 126 117 129q0 10 -72 117q-70 109 -70 114q0 97 45 97q34 0 115 -115q82 -117 111 -117q16 0 274 141 q274 149 326 166q0 -15 28 -69q-35 -10 -118 -47q-26 -38 -78 -84q-12 -6 -88 -37q-281 -120 -281 -230q0 -49 139 -252q27 -40 35 -55q121 -326 121 -360q0 -110 -90 -269q-91 -156 -188 -210q-238 -134 -371 -134q-105 0 -170 99q-55 82 -55 198zM186 338q0 -180 154 -180 q144 0 303 164q160 165 160 307q0 23 -29 108q-28 73 -53 115q-179 -122 -465 -352q-70 -67 -70 -162z" />
<glyph unicode="&#xf1;" horiz-adv-x="1026" d="M70 104q0 378 94 402q27 -14 33 -37q2 -33 -13 -264l-2 -15q35 35 74 66q129 115 307 233q231 146 336 146q30 0 55 -31q27 -34 27 -63q0 -33 -20 -240q-28 -268 -43 -393q-3 -17 -33 -17q-40 0 -64 99q-18 74 -18 133q0 32 24 158q27 126 27 155q0 60 -33 60 q-39 0 -174 -72q-118 -62 -170 -100q-89 -66 -229 -222q-25 -33 -82 -92q-23 -26 -94 -26v67v4q-2 14 -2 49zM158 1221q0 71 164 206q162 134 235 134q10 0 240 -127q231 -129 241 -129q1 0 13.5 -1.5t24.5 -1t20 4.5q9 5 22 9t23.5 6t11.5 3q11 -1 29.5 12.5t46.5 20.5 q4 2 117 92q93 72 110 72q66 0 66 -70q0 -58 -133 -158q-99 -73 -193 -114q-104 -43 -248 -43q-10 0 -166 123q-155 122 -231 122q-70 0 -189 -116q-118 -115 -133 -115q-21 0 -47 23q-24 24 -24 47zM197 469q2 -4 2 -10q0 2 -1 5t-1 5z" />
<glyph unicode="&#xf2;" horiz-adv-x="1208" d="M61 250q0 52 62 108q49 35 162 148q70 85 264 141q161 47 303 47q37 0 115 -35q71 -32 102 -63q28 -28 64 -111q32 -74 32 -120q0 -110 -43 -183q-43 -70 -293 -137q-219 -59 -337 -59q-136 0 -269 65q-162 79 -162 199zM190 236q0 -54 129 -97q110 -37 179 -37 q113 0 290 41q171 38 242 115q33 33 33 115q0 74 -88 141q-82 64 -162 64q-15 0 -233 -43q-84 -18 -154 -66q-236 -171 -236 -233zM289 1147q0 31 6 37t39 6q52 0 162 -64q277 -162 467 -290q2 -2 5 -6.5t5 -6.5q0 -11 -21 -32q-36 -33 -71 -33q-21 0 -82 30l-86 43 q-81 39 -187 121q-110 84 -194 109q-43 55 -43 86z" />
<glyph unicode="&#xf3;" horiz-adv-x="1222" d="M61 250q0 52 62 108q49 35 162 148q70 85 264 141q161 47 303 47q37 0 115 -35q71 -32 102 -63q28 -28 64 -111q32 -74 32 -120q0 -110 -43 -183q-43 -70 -293 -137q-219 -59 -337 -59q-136 0 -269 65q-162 79 -162 199zM190 236q0 -54 129 -97q110 -37 179 -37 q113 0 290 41q171 38 242 115q33 33 33 115q0 74 -88 141q-82 64 -162 64q-15 0 -233 -43q-84 -18 -154 -66q-236 -171 -236 -233zM209 690q0 49 55 74q33 17 96.5 47.5t71.5 34.5q74 55 180 121l125 61l76 49l76 43q5 0 78 25q57 -37 57 -66q0 -6 -115 -69 q-86 -50 -176 -97q-20 -11 -82.5 -44.5t-107.5 -57.5q-2 -2 -10 -8l-18 -13.5t-21 -15.5q-165 -125 -228 -125q-57 0 -57 41z" />
<glyph unicode="&#xf4;" horiz-adv-x="1230" d="M61 250q0 52 62 108q49 35 162 148q70 85 264 141q161 47 303 47q37 0 115 -35q71 -32 102 -63q28 -28 64 -111q32 -74 32 -120q0 -110 -43 -183q-43 -70 -293 -137q-219 -59 -337 -59q-136 0 -269 65q-162 79 -162 199zM190 236q0 -54 129 -97q110 -37 179 -37 q113 0 290 41q171 38 242 115q33 33 33 115q0 74 -88 141q-82 64 -162 64q-15 0 -233 -43q-84 -18 -154 -66q-236 -171 -236 -233zM311 1270q0 25 51 61q68 44 74 53q2 3 99 134q14 19 67 59q73 50 80 55q14 14 45 68q25 51 39 65q33 33 80 33q60 0 90 -55q50 -90 125 -217 q72 -126 158 -203q4 -6 4 -35q0 -76 -76 -76q-23 0 -47 15q-16 45 -90 100q-1 0 -78 139q-68 127 -107 127q-15 0 -217 -196q-207 -195 -227 -195q-22 0 -45 23q-25 25 -25 45z" />
<glyph unicode="&#xf5;" horiz-adv-x="1245" d="M61 250q0 52 62 108q49 35 162 148q70 85 264 141q161 47 303 47q37 0 115 -35q71 -32 102 -63q28 -28 64 -111q32 -74 32 -120q0 -110 -43 -183q-43 -70 -293 -137q-219 -59 -337 -59q-136 0 -269 65q-162 79 -162 199zM190 236q0 -54 129 -97q110 -37 179 -37 q113 0 290 41q171 38 242 115q33 33 33 115q0 74 -88 141q-82 64 -162 64q-15 0 -233 -43q-84 -18 -154 -66q-236 -171 -236 -233zM238 1196q0 72 163 207q161 133 236 133q10 0 240 -127q231 -129 241 -129q1 0 13.5 -1.5t24.5 -1t20 4.5q9 5 22 9t23.5 6t11.5 3 q11 -1 29.5 12.5t46.5 20.5q2 1 116 92q93 72 111 72q66 0 66 -70q0 -57 -134 -157q-103 -76 -192 -115q-104 -43 -248 -43q-10 0 -166 123t-231 123q-69 0 -189 -117q-118 -115 -133 -115q-21 0 -47 23q-24 24 -24 47z" />
<glyph unicode="&#xf6;" horiz-adv-x="1193" d="M61 250q0 52 62 108q49 35 162 148q70 85 264 141q161 47 303 47q37 0 115 -35q71 -32 102 -63q28 -28 64 -111q32 -74 32 -120q0 -110 -43 -183q-43 -70 -293 -137q-219 -59 -337 -59q-136 0 -269 65q-162 79 -162 199zM190 236q0 -54 129 -97q110 -37 179 -37 q113 0 290 41q171 38 242 115q33 33 33 115q0 74 -88 141q-82 64 -162 64q-15 0 -233 -43q-84 -18 -154 -66q-236 -171 -236 -233zM283 934l36 63l74 50l107 4q65 -56 32 -144q-10 -28 -45 -55l-9.5 -9.5t-9 -9.5t-8.5 -7.5t-10 -6.5t-10.5 -4.5t-13.5 -3.5q-12 -2 -31 4 t-30 6q-19 3 -39 0q-18 0 -35 21q-9 12 -6 32zM719 944q2 18 13 28.5t33 21t32 18.5q60 43 90 59l106 -45q1 -3 15 -51q1 -5 4 -12.5t4 -12.5h2q-18 -49 -60 -86q-32 -25 -54.5 -35.5t-53.5 -9.5q-55 6 -90 41l-27 33q-14 22 -14 51z" />
<glyph unicode="&#xf7;" horiz-adv-x="1284" d="M84 457v86q74 41 332 41q9 0 -1 0q-47 -2 6 -5q99 -6 519 -14q18 -3 98 13q74 12 95 12q49 0 114 -109q-8 -23 -51 -51q-42 -33 -63 -33q-6 0 -43 13q-33 10 -41 10q-3 0 -8.5 -0.5l-16.5 -1.5t-20 -2q-34 -6 -46 -6q-18 0 -129 26q-103 25 -127 25q-8 0 -32 -12 q-23 -13 -33 -13l-92 4q-11 3 -70 6q-65 7 -74 7q-18 0 -104 -13q-69 -10 -104 -10q-69 0 -109 27zM520 242q0 69 86 69q29 0 84 -28v-68q0 -14 -33 -37q-38 -20 -51 -20q-25 0 -55 30q-31 28 -31 54zM600 780q3 9 12 35.5t15 42.5q15 47 57 47q30 0 51 -59q19 -49 19 -82 q0 -14 -31 -78q-7 8 -27 13.5t-37.5 9.5t-35 22t-23.5 49z" />
<glyph unicode="&#xf8;" horiz-adv-x="1112" d="M76 295q0 137 86 246q85 103 235 151q57 16 146 25q14 0 43 10q31 10 47 10q11 0 49 -6t49 -6q21 0 105 84q87 84 112 84q64 0 64 -51q0 -17 -56 -82l-71 -80q39 -26 108 -98q33 -47 33 -146q0 -5 -10 -57q-12 -43 -12 -57q0 -263 -461 -310q-116 -8 -152 -10 q-32 -3 -61 -63q-8 -15 -15 -29t-11.5 -23.5t-8 -16.5t-6 -11.5t-2.5 -5.5q-60 -66 -103 -66q-32 0 -32 45q0 17 32 80q33 74 33 82q0 75 -33 108q-59 62 -67 74q-41 71 -41 119zM215 399q0 -64 23 -131q31 -84 88 -84q16 0 65 52q36 38 51 69q27 55 82 125q63 79 88 121v43 h-43q-24 -7 -100 -62q-68 -51 -86 -51q-8 0 -29 6q-24 7 -28 7q-46 0 -109 -66q-2 -6 -2 -29zM473 164l111 -17l207 56q96 44 96 180q0 18 -2 49q-3 42 0 60q-43 40 -90 40q-43 0 -166 -159q-3 -3 -59 -78.5t-97 -130.5z" />
<glyph unicode="&#xf9;" horiz-adv-x="1091" d="M51 313q0 91 39 197q18 4 33 16q7 -4 51 -43q-10 -88 -10 -137q0 -244 158 -244q152 0 364 191q11 8 320 297h16q33 0 33 -27q0 -41 -154 -209q-126 -140 -199 -196q-58 -45 -141 -103q-41 -33 -137 -63q-98 -31 -150 -31q-104 0 -168 129q-55 107 -55 223zM223 1006 q0 30 6 36q7 7 39 7q52 0 162 -64q265 -155 467 -291q2 -2 5 -6t5 -6q0 -13 -20 -33q-36 -33 -72 -33q-18 0 -82 31l-86 43q-78 38 -186 121q-109 84 -195 109q-43 55 -43 86z" />
<glyph unicode="&#xfa;" horiz-adv-x="1103" d="M51 313q0 91 39 197q18 4 33 16q7 -4 51 -43q-10 -88 -10 -137q0 -244 158 -244q152 0 364 191q11 8 320 297h16q33 0 33 -27q0 -41 -154 -209q-126 -140 -199 -196q-58 -45 -141 -103q-41 -33 -137 -63q-98 -31 -150 -31q-104 0 -168 129q-55 107 -55 223zM156 659 q0 49 55 74q33 17 96.5 47.5t71.5 34.5q74 55 180 121l125 61l76 50l76 43q7 0 77 24q58 -37 58 -65q0 -7 -115 -70q-68 -40 -176 -96q-18 -9 -81.5 -43.5t-109.5 -59.5q-2 -2 -10 -8l-18 -13.5t-21 -15.5q-165 -125 -227 -125q-57 0 -57 41z" />
<glyph unicode="&#xfb;" horiz-adv-x="1091" d="M51 313q0 91 39 197q18 4 33 16q7 -4 51 -43q-10 -88 -10 -137q0 -244 158 -244q152 0 364 191q11 8 320 297h16q33 0 33 -27q0 -41 -154 -209q-126 -140 -199 -196q-58 -45 -141 -103q-41 -33 -137 -63q-98 -31 -150 -31q-104 0 -168 129q-55 107 -55 223zM184 1174 q0 24 52 61q66 43 73 53q12 15 99 133q16 21 67 60q73 50 80 55q14 14 45 68q25 51 39 65q33 33 80 33q60 0 90 -55q50 -90 125 -217q72 -126 158 -203q4 -6 4 -35q0 -76 -76 -76q-25 0 -47 14q-17 47 -90 101q-1 0 -78 139q-68 127 -107 127q-14 0 -217 -197 q-206 -194 -227 -194q-23 0 -45 22q-25 25 -25 46z" />
<glyph unicode="&#xfc;" horiz-adv-x="1118" d="M51 313q0 91 39 197q18 4 33 16q7 -4 51 -43q-10 -88 -10 -137q0 -244 158 -244q152 0 364 191q11 8 320 297h16q33 0 33 -27q0 -41 -154 -209q-126 -140 -199 -196q-58 -45 -141 -103q-41 -33 -137 -63q-98 -31 -150 -31q-104 0 -168 129q-55 107 -55 223zM195 784 l36 64l74 49l107 4q65 -56 32 -143q-7 -19 -16.5 -30t-28.5 -26l-8 -8l-8 -8t-7 -6.5t-8.5 -6.5t-8 -4.5t-10 -4t-11.5 -2.5q-12 -2 -31.5 4t-30.5 6q-19 3 -38 0q-18 0 -35 20q-10 12 -6 33zM631 795q2 17 13 27.5t32.5 21t32.5 18.5q65 47 90 60l106 -45q1 -6 15 -52 q1 -5 4 -12t4 -12h2q-18 -49 -60 -86q-32 -25 -54.5 -35.5t-53.5 -9.5q-55 6 -90 41l-27 32q-14 22 -14 52z" />
<glyph unicode="&#xfd;" horiz-adv-x="907" d="M66 475q0 26 28 84h58q74 -311 208 -311q110 0 273 117q59 43 178 131q63 -21 63 -90q0 -14 -12 -58q-8 -29 -14 -53q3 -21 -4 -78q-46 -109 -131 -356q-25 -28 -105 -199l-11 -33q-24 -67 -44 -123q-14 -39 -86 -213q-2 -17 -10 -55.5t-11 -58.5q-20 -59 -26 -76 q-21 -58 -21 -74q0 -6 4 -14q-14 -27 -71 -84h-43q-31 57 -31 82q0 99 133 436q35 96 127 309q50 97 82 166q16 53 39 105q19 27 66 161q-7 7 2 37q7 23 -7 23q-6 0 -118 -45q-105 -45 -119 -45q-25 0 -101 -13q-69 -14 -92 -14q-79 0 -147 133q-57 111 -57 209zM254 1403 q0 31 6 37t39 6q52 0 162 -64q277 -162 467 -290q2 -2 5 -6.5t5 -6.5q0 -12 -20 -32q-36 -33 -72 -33q-20 0 -82 30l-86 43q-78 38 -186 121q-109 84 -195 109q-43 55 -43 86z" />
<glyph unicode="&#xfe;" horiz-adv-x="1294" d="M-2 -524q0 10 22 26q3 281 7 387q6 255 26 383q1 5 8 35.5t13 63t10 69.5q4 32 15.5 132t26.5 221.5t32 250.5q9 76 78 136q86 -24 86 -123q0 -9 -21 -60q-27 -52 -29 -59q-28 -77 -28 -272q0 -31 12 -37q4 -2 45 -2q22 0 133 30q107 33 148 41q215 43 452 43 q93 0 176 -71q86 -71 86 -154q0 -87 -196 -166q-210 -86 -213 -100q-141 -43 -240 -90q-61 -25 -98 -82q-103 -13 -207 -51l-90 -17q-61 -9 -70 -47q-20 -75 -20 -213v-221q4 -23 16 -51q0 -34 -4 -66q-2 -4 -10 -30l-21 12q-21 12 -34 12q-7 0 -19 -8q-9 -6 -20 -6 q-72 0 -72 84zM193 197q0 -53 16 -72h53q13 0 217 92l250 109q27 12 87.5 38.5t83 36.5t67.5 30.5t65 31.5t48 26.5t45 28t30 25.5q-49 59 -82 65q-78 19 -141 19q-8 0 -45 -11q-9 -2 -17.5 -4t-12.5 -3t-5 -1q-35 -2 -170 -22q-147 -23 -446 -107q-43 -61 -43 -282z" />
<glyph unicode="&#xff;" horiz-adv-x="935" d="M66 475q0 26 28 84h58q74 -311 208 -311q110 0 273 117q59 43 178 131q63 -21 63 -90q0 -14 -12 -58q-8 -29 -14 -53q3 -21 -4 -78q-46 -109 -131 -356q-25 -28 -105 -199l-11 -33q-24 -67 -44 -123q-14 -39 -86 -213q-2 -17 -10 -55.5t-11 -58.5q-20 -59 -26 -76 q-21 -58 -21 -74q0 -6 4 -14q-14 -27 -71 -84h-43q-31 57 -31 82q0 99 133 436q35 96 127 309q50 97 82 166q16 53 39 105q19 27 66 161q-7 7 2 37q7 23 -7 23q-6 0 -118 -45q-105 -45 -119 -45q-25 0 -101 -13q-69 -14 -92 -14q-79 0 -147 133q-57 111 -57 209zM131 817 l37 64l74 49l106 4q32 -27 40.5 -65.5t-7.5 -77.5q-7 -19 -16.5 -30t-28.5 -26l-7 -7t-7 -7.5t-6.5 -6.5t-7.5 -6t-7 -4.5t-8 -4t-9 -3t-10 -2.5q-12 -2 -31 4.5t-30 6.5q-19 3 -39 0q-18 0 -35 20q-10 12 -6 33zM567 827q2 18 13 28.5t33 21t32 18.5q60 43 90 59l107 -45 q3 -13 14 -51q1 -5 4 -12t4 -12h2q-18 -50 -59 -86q-33 -26 -55.5 -36.5t-53.5 -9.5q-55 6 -90 41l-26 33q-15 24 -15 51z" />
<glyph unicode="&#x152;" horiz-adv-x="2510" d="M55 604q0 146 47 301q51 175 134 271q169 199 419 280q43 12 76 23q6 8 23 27.5t26 31.5q35 6 82 6h49q69 0 181 -8q183 -15 251 -18q264 -15 674 -15h15q128 0 331 15q223 20 328 20v-74q-7 -8 -68 -65q-43 -37 -79 -37q-8 0 -35 12q-24 15 -35 15q-13 0 -86 -13 q-64 -12 -86 -12q-113 0 -234 2q-48 1 -104 2t-86 1.5t-45 0.5q-341 0 -477 -47q99 -114 186 -391q1 -3 49 -252q184 29 312 29q97 0 241 -23q177 -27 221 -65v-78q-9 0 -53 6t-55 6q-7 0 -39 -14q-27 -15 -39 -15q-14 0 -22 11l-7 14q-48 31 -202 31q-34 0 -148 -21 q-109 -20 -147 -20q-41 0 -64 26q-120 -276 -248 -413l803 -9q14 -5 25 -16q17 -14 26 -14h99l98 -2l2 -9q9 -70 -70 -131q-52 43 -116 43h-819q-13 0 -80 -43q-65 -41 -80 -41h-117q-6 15 -6 37q0 -30 6 78q-8 0 -293 -31q-137 -14 -160 -14q-163 0 -368 129 q-188 116 -219 260q-17 83 -17 213zM184 575q0 -244 228 -352q54 -26 151 -41q13 -3 76 -22q49 -15 72 -15q158 0 358 60q227 64 305 205q92 160 92 252q0 64 -51 237q-45 160 -92 219q-54 71 -141 111q-3 2 -164 65q-210 79 -215 80q-16 0 -215 -96q-176 -81 -287 -242 q-54 -82 -88 -221q-29 -139 -29 -240z" />
<glyph unicode="&#x153;" horiz-adv-x="1796" d="M61 274q0 76 66 148q16 20 129 113q21 30 80 83q26 16 82 25q58 8 86 19q6 2 37 26q20 17 41 17q48 0 133 -29q113 -37 141 -47q75 -26 102 -94q38 -15 43 -15q-21 0 81 49q35 16 81 37q192 86 293 86q88 0 162 -80q76 -79 76 -166q0 -12 2 -26v-27q0 -68 -109 -121 q-24 -12 -96 -12q-92 -6 -111 -6q-26 -9 -94 -23q-59 -12 -98 -12l-33 -26q19 -43 92 -80q68 -39 125 -39q25 0 156 28q135 29 153 29q64 0 64 -72q0 -1 -1 -15t-1 -24v-38q-12 12 -49 12q-7 -2 -30 -8t-62 -16.5t-80 -22.5q-121 -33 -265 -33q-11 0 -194 86v12 q-15 24 -53 62q-45 45 -68 45q-12 0 -104 -56q-103 -58 -125 -65q-67 -27 -195 -27q-168 0 -301 74q-156 88 -156 229zM193 287q0 -75 92 -125q82 -43 174 -43q426 0 426 248v18l2 19v-1q0 47 -60 101q-15 15 -61 33q-44 20 -68 20q-80 0 -192 -16q-29 -4 -66 -25 q-120 -79 -151 -100q-96 -63 -96 -129zM1116 360h211q22 0 96 19q21 5 41 9.5t31.5 7t13.5 3.5t6.5 4.5t15 12t21.5 16.5q-4 37 -30 80q-34 55 -66 55q-97 0 -209 -59q-128 -64 -131 -148z" />
<glyph unicode="&#x178;" horiz-adv-x="1089" d="M113 1475q0 146 57 200q21 -13 41 -30v-60q0 -411 172 -411q192 0 510 194q52 32 211.5 133.5t271.5 171.5h45q14 -67 17 -63q0 -36 -131 -140q-70 -55 -168 -133q-15 -12 -99 -96l-227 -323q-170 -239 -364 -603q-41 -78 -54 -122q-15 -63 -41 -144q-20 -73 -80 -123 h-67q-29 26 -29 70q0 36 144 326q80 156 245 436q89 148 254 430q-50 -7 -225 -76q-140 -55 -225 -55q-139 0 -207 147q-51 111 -51 271zM307 1593l37 64l74 49l106 4q32 -27 40.5 -65.5t-7.5 -77.5q-7 -19 -16.5 -30t-28.5 -26l-9.5 -9.5t-9 -9.5t-8.5 -7.5t-10 -6.5 t-10.5 -4.5t-13.5 -3.5q-12 -2 -31.5 4.5t-30.5 6.5q-20 3 -39 0q-18 0 -35 20q-10 12 -6 33zM743 1604q2 17 13 27.5t32.5 21t32.5 18.5q65 47 90 60l107 -45q3 -16 14 -52q1 -5 4 -12t4 -12h2q-18 -50 -59 -86q-32 -25 -55 -35.5t-54 -9.5q-55 6 -90 41l-26 32 q-15 24 -15 52z" />
<glyph unicode="&#x2c6;" horiz-adv-x="888" d="M39 1329q0 26 51 62q68 44 74 53q4 4 14.5 18.5t35.5 49t48 65.5q13 17 68 59q67 45 80 56q16 16 45 67q26 53 39 66q33 33 79 33q61 0 91 -56q62 -113 124 -217q72 -126 158 -203q4 -6 4 -34q0 -76 -76 -76q-25 0 -47 14q-16 45 -90 100l-78 140q-68 127 -106 127 q-14 0 -217 -197q-206 -194 -227 -194q-24 0 -46 22q-24 24 -24 45z" />
<glyph unicode="&#x2dc;" horiz-adv-x="1380" d="M23 1516q0 71 163 206q161 133 236 133q12 0 240 -126q233 -130 241 -130l13 -1q13 -2 25 -1t20 5q9 5 22 9t23.5 6t11.5 3q11 -1 29.5 12.5t46.5 20.5q2 1 116 92q93 72 111 72q65 0 65 -70q0 -58 -133 -158q-100 -74 -192 -114q-104 -43 -248 -43q-11 0 -166 122 q-156 123 -231 123q-70 0 -189 -116q-118 -115 -133 -115q-22 0 -47 22q-24 24 -24 48z" />
<glyph unicode="&#x2000;" horiz-adv-x="1359" />
<glyph unicode="&#x2001;" horiz-adv-x="2718" />
<glyph unicode="&#x2002;" horiz-adv-x="1359" />
<glyph unicode="&#x2003;" horiz-adv-x="2718" />
<glyph unicode="&#x2004;" horiz-adv-x="906" />
<glyph unicode="&#x2005;" horiz-adv-x="679" />
<glyph unicode="&#x2006;" horiz-adv-x="453" />
<glyph unicode="&#x2007;" horiz-adv-x="453" />
<glyph unicode="&#x2008;" horiz-adv-x="339" />
<glyph unicode="&#x2009;" horiz-adv-x="543" />
<glyph unicode="&#x200a;" horiz-adv-x="151" />
<glyph unicode="&#x2010;" horiz-adv-x="864" d="M59 420q0 54 58 67q122 21 262 21q78 0 117 4q12 0 61 18q60 17 68 17q30 0 57 -53q27 -49 27 -82q0 -58 -52 -58q-14 0 -90 13q-71 12 -90 12q-134 0 -219 -14q-12 -2 -29.5 -6t-30 -6t-22.5 -3q-28 -6 -41 -10l-7 -2h3q-17 0 -45 31q-27 34 -27 51z" />
<glyph unicode="&#x2011;" horiz-adv-x="864" d="M59 420q0 54 58 67q122 21 262 21q78 0 117 4q12 0 61 18q60 17 68 17q30 0 57 -53q27 -49 27 -82q0 -58 -52 -58q-14 0 -90 13q-71 12 -90 12q-134 0 -219 -14q-12 -2 -29.5 -6t-30 -6t-22.5 -3q-28 -6 -41 -10l-7 -2h3q-17 0 -45 31q-27 34 -27 51z" />
<glyph unicode="&#x2012;" horiz-adv-x="864" d="M59 420q0 54 58 67q122 21 262 21q78 0 117 4q12 0 61 18q60 17 68 17q30 0 57 -53q27 -49 27 -82q0 -58 -52 -58q-14 0 -90 13q-71 12 -90 12q-134 0 -219 -14q-12 -2 -29.5 -6t-30 -6t-22.5 -3q-28 -6 -41 -10l-7 -2h3q-17 0 -45 31q-27 34 -27 51z" />
<glyph unicode="&#x2013;" horiz-adv-x="1251" d="M94 373q0 47 58 65q219 19 241 21q38 3 175 9.5t239 12.5q94 7 174 15q8 0 61 18q53 16 68 16q28 0 55 -49q27 -47 27 -86q0 -57 -51 -57q-21 0 -88 12q-71 12 -92 12q-293 0 -566 -49q-132 -24 -231 -24q-19 0 -43 30q-27 35 -27 54z" />
<glyph unicode="&#x2014;" horiz-adv-x="2807" d="M121 418q0 84 174 84h1038q43 0 90 -2t90 -2q15 0 39 8q27 8 39 8q13 0 78 -12q60 -16 78 -13l584 52q5 0 34 -13q25 -14 37 -14q84 0 193 64q9 -24 55 -39q41 -15 41 -70q0 -43 -22 -74q-24 -35 -56 -35q-6 0 -43 13q-34 12 -47 12q-24 0 -143 -25q-117 -24 -146 -24 q-16 0 -77 12q-59 12 -76 12q-27 0 -303 7q-234 6 -303 6q-17 0 -113 -13q-92 -12 -117 -12q-15 0 -80 19q-64 18 -82 18q-26 0 -86 -8q-18 -2 -38.5 -4t-31.5 -3t-16 -1t-53.5 1t-93.5 1q-78 2 -150 2q-73 0 -151 -4q-34 -2 -129 -19q-80 -14 -123 -14q-34 0 -61 24 q-29 29 -29 58z" />
<glyph unicode="&#x2018;" horiz-adv-x="382" d="M57 1274q0 14 29 153q10 53 117 138q111 88 157 88q3 0 27 -8q5 -2 10.5 -4t8.5 -3.5t4 -1.5v-84q-147 -84 -189 -155q-8 -11 -53 -119q-41 -90 -53 -90q-11 0 -27 8l-14 8q0 2 -1 6t-3 11.5t-4 13.5q-9 27 -9 39z" />
<glyph unicode="&#x2019;" horiz-adv-x="366" d="M68 1270q63 47 84 73q11 9 71 64q35 38 35 84q3 33 -16 90q-24 64 -27 90l41 15q102 -34 123 -99q14 -32 14 -71q0 -95 -76 -193q-73 -85 -122 -102q-12 -1 -89 -17q-10 12 -38 66z" />
<glyph unicode="&#x201a;" horiz-adv-x="706" d="M18 -217q0 49 109 108q57 31 152 80q117 83 159 160q23 40 99 199h57q29 -56 29 -109q0 -109 -201 -295q-198 -186 -309 -186h-78q-17 14 -17 43z" />
<glyph unicode="&#x201c;" horiz-adv-x="684" d="M59 1382v2v2v3v2v2v2v2v3v2v2v2v2v3v2v2v2v3v2v2v2v3v2v2v2v3v2v2v3v2v2v3v2v2v3v2v2v3v2v3v2v3v2v3v3v7q6 73 146 180q79 58 114 58q73 0 64 -99l-141 -69q-54 -39 -54 -134q0 -54 15 -84q9 -12 63 -63q-2 -3 -8 -35q-3 -22 -22 -22q-177 0 -177 159zM379 1331 q0 17 29 156q12 51 116 135q107 88 158 88q13 0 29 -8q18 -6 20 -6v-86q-144 -82 -188 -154q-3 -3 -54 -121q-39 -88 -51 -88q-15 0 -28 8q-12 6 -15 9q-1 1 -1.5 5t-2 11.5t-4.5 15.5q-8 32 -8 35z" />
<glyph unicode="&#x201d;" horiz-adv-x="677" d="M33 1296q64 51 84 76q14 11 37.5 33t31.5 29q37 40 37 86q0 43 -16 90q-5 18 -12 39.5t-10.5 33t-4.5 17.5l43 14q100 -35 121 -98q14 -44 14 -74q0 -98 -77 -190q-69 -88 -123 -105q-43 -5 -88 -14q-13 19 -37 63zM393 1296q10 34 72 131q43 64 37 134q0 8 -19 57 q-12 34 -12 57q0 41 37 56q129 -30 129 -203q0 -124 -186 -301q-12 4 -21 4q-8 0 -12 -2z" />
<glyph unicode="&#x201e;" horiz-adv-x="923" d="M2 -172q62 21 104 43q186 107 236 238q11 27 14 90q4 83 6 92h46q79 -64 79 -133q0 -71 -84 -195q-82 -128 -149 -168q-94 -55 -152 -55q-10 0 -45 6q-27 8 -43 8q-6 24 -12 74zM387 -213l154 166q103 112 123 180q2 8 2 62q0 92 63 98q68 -47 68 -123q0 -136 -127 -281 q-112 -124 -252 -188q-13 10 -31 14v72z" />
<glyph unicode="&#x2022;" horiz-adv-x="714" d="M92 645q0 73 139 168q131 88 209 88q86 0 146 -72q59 -74 59 -172q0 -67 -110 -131q-101 -61 -173 -61q-58 0 -159 61q-111 64 -111 119z" />
<glyph unicode="&#x2026;" horiz-adv-x="1554" d="M102 88q-21 53 2 98q21 34 60 56q40 6 78 16q50 18 75 18q109 0 109 -145q0 -34 -76 -92q-34 -27 -108 -27q-59 0 -82 13q-39 20 -58 63zM670 135q0 63 45 105q47 41 110 41q36 0 66 -37q33 -39 33 -74q0 -59 -50 -109q-47 -47 -106 -47q-29 0 -63 43q-35 41 -35 78z M1147 127l18 115q6 0 58 20q38 17 57 17q104 0 137 -23l6 -129q1 -49 -41 -72.5t-131 -23.5q-47 0 -104 96z" />
<glyph unicode="&#x202f;" horiz-adv-x="543" />
<glyph unicode="&#x2039;" horiz-adv-x="907" d="M47 539q0 44 229 227q263 213 281 233q10 31 45 74q27 13 80 47q213 137 219 137q70 0 70 -88q0 -39 -4 -47q-102 -96 -203 -168q-114 -66 -244 -161q-109 -97 -254 -236q28 -46 238 -172q207 -123 264 -209q6 -8 88 -90q59 -56 62 -98q-60 -14 -56 -17q-81 0 -129 45 q-135 122 -217 183q-30 26 -299 176q-27 16 -96 76q-74 68 -74 88z" />
<glyph unicode="&#x203a;" horiz-adv-x="866" d="M57 1085v45q26 29 66 29q29 0 104 -37q77 -39 99 -59q15 -13 231 -199q136 -118 256 -172q53 -27 53 -80q0 -37 -202 -239l-252 -250q-10 -10 -34.5 -35.5t-51 -52.5t-54.5 -53q-15 -5 -34 -5q-14 0 -64 9q-50 6 -63 6v45q9 12 98 86q57 45 57 94v14l51 5 q150 138 345 339z" />
<glyph unicode="&#x205f;" horiz-adv-x="679" />
<glyph unicode="&#x20ac;" horiz-adv-x="1533" d="M43 858v98q60 29 78 29q6 0 106 -14q93 -13 111 -13q23 0 41 3q5 7 125 186q80 115 153 158q273 156 609 174q10 0 53 12t55 12q164 0 238 -47q6 -13 33 -51q-64 -43 -115 -43q-4 0 -10.5 0.5l-19.5 1.5t-23 2q-41 6 -52 6q-224 0 -471 -119q-253 -120 -372 -286 q95 -15 211 -15q71 0 151 2q31 1 67 2t55 1.5t28 0.5q68 0 280 -4q42 -28 56 -39v-65q-31 -2 -107 -2q-56 0 -115 2t-114 2q-77 0 -394 -25l-151 -10h-39q-45 -6 -74 -80q30 -18 74 -18q14 0 57 6q46 6 60 6q17 0 78 -12q57 -14 77 -14q5 0 23 6l22 8q18 0 41 -23 q289 -3 582 -45l12 -59q-77 -14 -235 -14l-27 -15q-24 -12 -37 -12q-11 0 -35 12q-21 15 -30 15l-482 12l-193 -16q-8 -1 -15 -1q-35 -25 -35 -86q0 -113 51 -170q164 -182 545 -194q4 -1 18.5 -2t39 -4t50.5 -6q83 -9 113 -9q2 0 35 -1t63 -1h98v-88q-246 -41 -262 -41 q-306 0 -544 82q-326 114 -347 363q-1 12 -2.5 61.5t-3.5 89.5q-37 16 -176 49v70q27 47 78 47q20 0 66 -14q58 -14 61 -14q45 0 45 73v17q-111 23 -258 63z" />
<glyph unicode="&#x2122;" horiz-adv-x="1421" d="M29 1487v72q44 53 198 53q5 0 29 -6q24 -7 29 -7q27 0 125 33q105 31 125 31q31 0 200 -129q46 -35 74 -56.5t50 -38.5t30 -24.5t6 -7.5q20 0 156 109q65 55 166 135q39 -20 77 -92q23 -47 52 -179q30 -135 30 -186q0 -22 -24 -59t-45 -37q-18 0 -37 16q-22 25 -29 25 q-36 36 -39 78v88q0 63 -39 102q-7 -7 -143 -121q-119 -98 -137 -98q-2 1 -7 2.5t-15 5.5t-21 8q-55 93 -189 164q-9 -24 -12 -100q-3 -74 -10 -92q-8 -19 -25 -39h-74q-24 50 -43 174q-24 136 -45 174q-135 -9 -135 -105q0 -16 12 -77q13 -63 13 -76q0 -25 -27 -78 q-8 -15 -17 -33l-14 -28t-8 -15q-88 70 -88 144q0 25 10 71q11 68 11 72q0 73 -39 96q-28 14 -107 14h-10z" />
<glyph unicode="&#x25fc;" horiz-adv-x="593" d="M0 0v594h594v-594h-594z" />
<glyph unicode="&#xfb01;" horiz-adv-x="1753" d="M45 657q3 4 15.5 19t21.5 26q22 31 41 31q1 0 139 -16q69 -10 291 -33q9 6 27 21q4 86 4 114q0 5 -0.5 16t-1.5 31t-2 37q-5 56 -5 86q0 12 9 27q8 13 8 20q0 12 -8 39q-9 30 -9 39q0 386 173 645q60 85 217 103q13 0 47 10q36 8 55 8q183 0 344 -133q170 -139 170 -322 q0 -62 -41 -82h-65q-6 418 -463 418q-105 0 -158 -80q-126 -206 -162 -446q-2 -9 -3.5 -25t-4 -41.5t-4.5 -46.5q2 5 5 14t5 13q11 29 12 22v-477q95 -31 259 -43q710 -53 710 -241q0 -199 -149 -412q-58 -3 -58 45q0 20 39 170q37 154 37 166q0 46 -33 63q-43 21 -159 58 q-122 41 -160 41q-10 0 -21 -11q-12 -12 -20 -12q-29 0 -57 19q-147 18 -355 18q-33 -29 -33 -106q0 -50 7 -183q4 -87 10 -182l31 -35q-7 -14 -45 -55q-15 -72 -21 -88q-19 -52 -59 -70q-27 50 -27 90q0 33 6 144q8 99 8 143q0 10 -1 30t-3 57t-4 69q-10 133 -10 153 q0 23 -19 39q-282 39 -350 39q-11 0 -51 -12q-45 -10 -51 -10q-35 0 -78 79zM1636 1026q0 20 17 51q17 27 37 27q77 0 112 -127q-27 -41 -76 -41q-22 0 -57 35q-33 33 -33 55z" />
<glyph unicode="&#xfb02;" horiz-adv-x="1724" d="M-53 510q0 45 57 57q34 5 95.5 13.5t80.5 11.5l158 20q8 0 29 -6t28 -6q38 0 74 25q12 210 47 458q18 139 129 412q34 87 115 191q91 114 168 145q79 31 266 31q99 0 160 -25q30 -15 53 -25q35 -6 51 -10q34 -8 170 -125q7 -4 33 -22q9 12 49 63h59q27 -86 27 -147 q0 -12 -10 -74t-10 -67q-11 -190 -99 -568q-88 -391 -102 -563q-3 -25 -19 -96q-16 -69 -16 -99q0 -36 16 -73q-4 -18 -75 -123q-3 16 -27 37h-78q-22 27 -16 65l282 1354q-26 66 -79 184q-52 109 -136 140q-29 13 -151 34q-128 23 -154 23q-343 0 -475 -725 q-33 -168 -33 -266q0 -154 70 -154q-15 0 3 3q38 7 163 20q78 4 125 4q45 0 94 -2q47 -2 92 -2q102 0 197 28q0 -5 1 -14t1 -14q0 -33 -6 -60q-71 -29 -127 -49q-82 -16 -246 -16q-11 0 -45 6q-35 6 -45 6q-32 0 -154 -23q-120 -27 -133 -49q-3 -169 -20 -241 q-30 -128 -115 -213q-47 -3 -47 45q0 28 14 71q4 14 8.5 31t7 26t3.5 13q18 102 18 238v43q-49 34 -108 34q-29 0 -119 -22q-78 -16 -111 -33q-13 -13 -29 -31q-16 -16 -38 -16q-20 0 -70 53q-51 51 -51 74z" />
</font>
</defs>
</svg>
